<svg width="135" height="124" viewBox="0 0 135 124" fill="none" xmlns="http://www.w3.org/2000/svg">
<path d="M94.9815 106.859C94.9815 111.516 91.1873 115.31 86.5302 115.31H16.3569C11.6998 115.31 7.90561 111.516 7.90561 106.859V36.6856C7.90561 32.0285 11.6998 28.2343 16.3569 28.2343H75.0588C75.0588 25.5188 75.4015 22.8666 76.074 20.316H16.3696C7.34727 20.316 0 27.6633 0 36.6856V106.859C0 115.881 7.34727 123.229 16.3696 123.229H86.5429C95.5652 123.229 102.912 115.881 102.912 106.859V59.273C100.172 58.9812 97.5194 58.334 94.9942 57.3569V106.859H94.9815Z" fill="white"/>
<path d="M106.085 0C90.4894 0 77.8506 12.6388 77.8506 28.2343C77.8506 43.8298 90.4894 56.4686 106.085 56.4686C121.68 56.4686 134.319 43.8298 134.319 28.2343C134.319 12.6388 121.693 0 106.085 0ZM106.085 48.8168C94.7277 48.8168 85.5151 39.6042 85.5151 28.247C85.5151 16.8898 94.7277 7.6772 106.085 7.6772C117.442 7.6772 126.655 16.8898 126.655 28.247C126.655 39.6042 117.455 48.8168 106.085 48.8168Z" fill="white"/>
<path d="M118.889 27.1937H107.138V15.4431C107.138 13.5143 105.577 11.9535 103.649 11.9535C101.72 11.9535 100.159 13.5143 100.159 15.4431V30.6833C100.159 32.6121 101.72 34.1729 103.649 34.1729H118.889C120.818 34.1729 122.378 32.6121 122.378 30.6833C122.378 28.7545 120.818 27.1937 118.889 27.1937Z" fill="white"/>
<path d="M25.5949 34.338C22.9935 34.338 20.887 32.2315 20.887 29.6302V11.446C20.887 8.84463 22.9935 6.73816 25.5949 6.73816C28.1962 6.73816 30.3027 8.84463 30.3027 11.446V29.6302C30.3027 32.2315 28.1962 34.338 25.5949 34.338Z" fill="white"/>
<path d="M53.6134 34.338C51.0121 34.338 48.9056 32.2315 48.9056 29.6302V11.446C48.9056 8.84463 51.0121 6.73816 53.6134 6.73816C56.2148 6.73816 58.3212 8.84463 58.3212 11.446V29.6302C58.3212 32.2315 56.2148 34.338 53.6134 34.338Z" fill="white"/>
<path d="M31.4702 63.5367H26.5212C23.9833 63.5367 21.9276 61.481 21.9276 58.9431V53.9941C21.9276 51.4562 23.9833 49.4005 26.5212 49.4005H31.4702C34.0081 49.4005 36.0638 51.4562 36.0638 53.9941V58.9431C36.0638 61.4937 34.0081 63.5367 31.4702 63.5367Z" fill="white"/>
<path d="M53.9307 63.5367H48.9818C46.4439 63.5367 44.3882 61.481 44.3882 58.9431V53.9941C44.3882 51.4562 46.4439 49.4005 48.9818 49.4005H53.9307C56.4687 49.4005 58.5244 51.4562 58.5244 53.9941V58.9431C58.5117 61.4937 56.456 63.5367 53.9307 63.5367Z" fill="white"/>
<path d="M76.3786 63.5367H71.4297C68.8918 63.5367 66.8361 61.481 66.8361 58.9431V53.9941C66.8361 51.4562 68.8918 49.4005 71.4297 49.4005H76.3786C78.9165 49.4005 80.9723 51.4562 80.9723 53.9941V58.9431C80.9723 61.4937 78.9165 63.5367 76.3786 63.5367Z" fill="white"/>
<path d="M31.4702 85.8957H26.5212C23.9833 85.8957 21.9276 83.84 21.9276 81.3021V76.3531C21.9276 73.8152 23.9833 71.7595 26.5212 71.7595H31.4702C34.0081 71.7595 36.0638 73.8152 36.0638 76.3531V81.3021C36.0638 83.84 34.0081 85.8957 31.4702 85.8957Z" fill="white"/>
<path d="M53.9307 85.8957H48.9818C46.4439 85.8957 44.3882 83.84 44.3882 81.3021V76.3531C44.3882 73.8152 46.4439 71.7595 48.9818 71.7595H53.9307C56.4687 71.7595 58.5244 73.8152 58.5244 76.3531V81.3021C58.5117 83.84 56.456 85.8957 53.9307 85.8957Z" fill="white"/>
<path d="M76.3786 85.8957H71.4297C68.8918 85.8957 66.8361 83.84 66.8361 81.3021V76.3531C66.8361 73.8152 68.8918 71.7595 71.4297 71.7595H76.3786C78.9165 71.7595 80.9723 73.8152 80.9723 76.3531V81.3021C80.9723 83.84 78.9165 85.8957 76.3786 85.8957Z" fill="white"/>
<path d="M31.4702 108.242H26.5212C23.9833 108.242 21.9276 106.186 21.9276 103.648V98.6995C21.9276 96.1615 23.9833 94.1058 26.5212 94.1058H31.4702C34.0081 94.1058 36.0638 96.1615 36.0638 98.6995V103.648C36.0638 106.199 34.0081 108.242 31.4702 108.242Z" fill="white"/>
<path d="M53.9307 108.242H48.9818C46.4439 108.242 44.3882 106.186 44.3882 103.648V98.6995C44.3882 96.1615 46.4439 94.1058 48.9818 94.1058H53.9307C56.4687 94.1058 58.5244 96.1615 58.5244 98.6995V103.648C58.5117 106.199 56.456 108.242 53.9307 108.242Z" fill="white"/>
<path d="M76.3786 108.242H71.4297C68.8918 108.242 66.8361 106.186 66.8361 103.648V98.6995C66.8361 96.1615 68.8918 94.1058 71.4297 94.1058H76.3786C78.9165 94.1058 80.9723 96.1615 80.9723 98.6995V103.648C80.9723 106.199 78.9165 108.242 76.3786 108.242Z" fill="white"/>
</svg>
