<svg width="427" height="926" viewBox="0 0 427 926" fill="none" xmlns="http://www.w3.org/2000/svg">
<rect width="2000" height="2000" transform="translate(-786 -377)" fill="black"/>
<g clip-path="url(#clip0_203_176)">
<path d="M532.869 829.137C611.746 829.137 675.851 894.308 675.851 974.498C675.851 1054.69 611.746 1119.86 532.869 1119.86C453.992 1119.86 389.888 1054.69 389.888 974.498C389.888 894.443 453.992 829.137 532.869 829.137ZM532.869 1118.65C610.955 1118.65 674.532 1054.02 674.532 974.632C674.532 895.247 610.955 830.612 532.869 830.612C454.784 830.612 391.207 895.247 391.207 974.632C391.207 1054.02 454.784 1118.65 532.869 1118.65Z" fill="white" fill-opacity="0.1"/>
<path d="M158.533 1168C271.44 1168 362.848 1074.94 362.848 960.284C362.848 845.497 271.309 752.568 158.533 752.568C45.7568 752.568 -45.7829 845.631 -45.7829 960.284C-45.7829 1074.94 45.7568 1168 158.533 1168ZM158.533 807.414C241.499 807.414 308.769 875.803 308.769 960.15C308.769 1044.5 241.499 1112.89 158.533 1112.89C75.5666 1112.89 8.29675 1044.5 8.29675 960.15C8.29675 875.803 75.5666 807.414 158.533 807.414Z" fill="white" fill-opacity="0.1"/>
<path d="M399.913 544.45C526.406 544.45 628.894 440.257 628.894 311.658C628.894 183.059 526.406 79 399.913 79C273.419 79 170.931 183.193 170.931 311.792C170.931 440.391 273.551 544.45 399.913 544.45ZM399.913 140.685C492.903 140.685 568.219 217.254 568.219 311.792C568.219 406.33 492.903 482.9 399.913 482.9C306.922 482.9 231.606 406.33 231.606 311.792C231.606 217.254 306.922 140.685 399.913 140.685Z" fill="white" fill-opacity="0.1"/>
<path d="M-110.019 730.71C16.4747 730.71 118.962 626.517 118.962 497.918C118.962 369.32 16.4747 265.126 -110.019 265.126C-236.512 265.126 -339 369.32 -339 497.918C-339 626.517 -236.512 730.71 -110.019 730.71ZM-110.019 326.811C-17.0283 326.811 58.2875 403.38 58.2875 497.918C58.2875 592.457 -17.0283 669.026 -110.019 669.026C-203.009 669.026 -278.325 592.457 -278.325 497.918C-278.325 403.38 -203.009 326.811 -110.019 326.811Z" fill="white" fill-opacity="0.1"/>
<path d="M239.784 640.731C245.983 640.731 251.128 645.961 251.128 652.264C251.128 658.566 245.983 663.796 239.784 663.796C233.585 663.796 228.44 658.566 228.44 652.264C228.44 645.961 233.453 640.731 239.784 640.731ZM239.784 662.455C245.324 662.455 249.809 657.896 249.809 652.264C249.809 646.632 245.324 642.072 239.784 642.072C234.244 642.072 229.76 646.632 229.76 652.264C229.76 657.896 234.244 662.455 239.784 662.455Z" fill="white" fill-opacity="0.1"/>
<path d="M142.968 814.387C142.968 808.889 147.321 804.464 152.861 804.464C158.269 804.464 162.622 808.889 162.622 814.387C162.622 819.885 158.269 824.31 152.861 824.31C147.321 824.444 142.968 819.885 142.968 814.387Z" fill="white" fill-opacity="0.1"/>
<path d="M167.634 538.416C167.634 532.918 171.987 528.358 177.395 528.358C182.803 528.358 187.287 532.784 187.287 538.416C187.287 543.914 182.934 548.339 177.395 548.339C172.119 548.339 167.634 543.914 167.634 538.416Z" fill="white" fill-opacity="0.1"/>
</g>
<path d="M248.981 463.859C248.981 468.516 245.187 472.31 240.53 472.31H170.357C165.7 472.31 161.906 468.516 161.906 463.859V393.686C161.906 389.029 165.7 385.234 170.357 385.234H229.059C229.059 382.519 229.401 379.867 230.074 377.316H170.37C161.347 377.316 154 384.663 154 393.686V463.859C154 472.881 161.347 480.229 170.37 480.229H240.543C249.565 480.229 256.912 472.881 256.912 463.859V416.273C254.172 415.981 251.519 415.334 248.994 414.357V463.859H248.981Z" fill="white"/>
<path d="M260.085 357C244.489 357 231.851 369.639 231.851 385.234C231.851 400.83 244.489 413.469 260.085 413.469C275.68 413.469 288.319 400.83 288.319 385.234C288.319 369.639 275.693 357 260.085 357ZM260.085 405.817C248.728 405.817 239.515 396.604 239.515 385.247C239.515 373.89 248.728 364.677 260.085 364.677C271.442 364.677 280.655 373.89 280.655 385.247C280.655 396.604 271.455 405.817 260.085 405.817Z" fill="white"/>
<path d="M272.889 384.194H261.138V372.443C261.138 370.514 259.577 368.953 257.649 368.953C255.72 368.953 254.159 370.514 254.159 372.443V387.683C254.159 389.612 255.72 391.173 257.649 391.173H272.889C274.818 391.173 276.378 389.612 276.378 387.683C276.378 385.754 274.818 384.194 272.889 384.194Z" fill="white"/>
<path d="M179.595 391.338C176.993 391.338 174.887 389.232 174.887 386.63V368.446C174.887 365.845 176.993 363.738 179.595 363.738C182.196 363.738 184.303 365.845 184.303 368.446V386.63C184.303 389.232 182.196 391.338 179.595 391.338Z" fill="white"/>
<path d="M207.613 391.338C205.012 391.338 202.906 389.232 202.906 386.63V368.446C202.906 365.845 205.012 363.738 207.613 363.738C210.215 363.738 212.321 365.845 212.321 368.446V386.63C212.321 389.232 210.215 391.338 207.613 391.338Z" fill="white"/>
<path d="M185.47 420.537H180.521C177.983 420.537 175.928 418.481 175.928 415.943V410.994C175.928 408.456 177.983 406.401 180.521 406.401H185.47C188.008 406.401 190.064 408.456 190.064 410.994V415.943C190.064 418.494 188.008 420.537 185.47 420.537Z" fill="white"/>
<path d="M207.931 420.537H202.982C200.444 420.537 198.388 418.481 198.388 415.943V410.994C198.388 408.456 200.444 406.401 202.982 406.401H207.931C210.469 406.401 212.524 408.456 212.524 410.994V415.943C212.512 418.494 210.456 420.537 207.931 420.537Z" fill="white"/>
<path d="M230.379 420.537H225.43C222.892 420.537 220.836 418.481 220.836 415.943V410.994C220.836 408.456 222.892 406.401 225.43 406.401H230.379C232.917 406.401 234.972 408.456 234.972 410.994V415.943C234.972 418.494 232.917 420.537 230.379 420.537Z" fill="white"/>
<path d="M185.47 442.896H180.521C177.983 442.896 175.928 440.84 175.928 438.302V433.353C175.928 430.815 177.983 428.76 180.521 428.76H185.47C188.008 428.76 190.064 430.815 190.064 433.353V438.302C190.064 440.84 188.008 442.896 185.47 442.896Z" fill="white"/>
<path d="M207.931 442.896H202.982C200.444 442.896 198.388 440.84 198.388 438.302V433.353C198.388 430.815 200.444 428.76 202.982 428.76H207.931C210.469 428.76 212.524 430.815 212.524 433.353V438.302C212.512 440.84 210.456 442.896 207.931 442.896Z" fill="white"/>
<path d="M230.379 442.896H225.43C222.892 442.896 220.836 440.84 220.836 438.302V433.353C220.836 430.815 222.892 428.76 225.43 428.76H230.379C232.917 428.76 234.972 430.815 234.972 433.353V438.302C234.972 440.84 232.917 442.896 230.379 442.896Z" fill="white"/>
<path d="M185.47 465.242H180.521C177.983 465.242 175.928 463.186 175.928 460.648V455.699C175.928 453.162 177.983 451.106 180.521 451.106H185.47C188.008 451.106 190.064 453.162 190.064 455.699V460.648C190.064 463.199 188.008 465.242 185.47 465.242Z" fill="white"/>
<path d="M207.931 465.242H202.982C200.444 465.242 198.388 463.186 198.388 460.648V455.699C198.388 453.162 200.444 451.106 202.982 451.106H207.931C210.469 451.106 212.524 453.162 212.524 455.699V460.648C212.512 463.199 210.456 465.242 207.931 465.242Z" fill="white"/>
<path d="M230.379 465.242H225.43C222.892 465.242 220.836 463.186 220.836 460.648V455.699C220.836 453.162 222.892 451.106 225.43 451.106H230.379C232.917 451.106 234.972 453.162 234.972 455.699V460.648C234.972 463.199 232.917 465.242 230.379 465.242Z" fill="white"/>
<path d="M162.64 495H172.06L187.3 537H178.51L175.99 530.04H158.71L156.19 537H147.4L162.64 495ZM161.74 521.76H172.96L167.32 506.37L161.74 521.76ZM190.905 537L199.065 495H206.055L215.805 520.71L225.585 495H232.575L240.735 537H232.275L227.625 512.91L218.655 536.58H212.955L204.015 512.91L199.335 537H190.905ZM263.186 537.78C260.826 537.78 258.566 537.41 256.406 536.67C254.266 535.93 252.386 534.86 250.766 533.46C249.166 532.06 248.016 530.4 247.316 528.48L255.086 525.6C255.326 526.28 255.826 526.92 256.586 527.52C257.346 528.1 258.296 528.58 259.436 528.96C260.576 529.32 261.826 529.5 263.186 529.5C264.486 529.5 265.706 529.31 266.846 528.93C268.006 528.53 268.936 527.98 269.636 527.28C270.356 526.58 270.716 525.76 270.716 524.82C270.716 523.88 270.346 523.1 269.606 522.48C268.866 521.86 267.916 521.37 266.756 521.01C265.596 520.63 264.406 520.34 263.186 520.14C260.166 519.7 257.456 518.99 255.056 518.01C252.676 517.01 250.796 515.64 249.416 513.9C248.036 512.14 247.346 509.91 247.346 507.21C247.346 504.61 248.076 502.34 249.536 500.4C251.016 498.46 252.956 496.95 255.356 495.87C257.776 494.79 260.386 494.25 263.186 494.25C265.506 494.25 267.746 494.62 269.906 495.36C272.066 496.1 273.946 497.17 275.546 498.57C277.166 499.97 278.326 501.65 279.026 503.61L271.256 506.43C271.016 505.75 270.516 505.12 269.756 504.54C268.996 503.96 268.046 503.49 266.906 503.13C265.766 502.77 264.526 502.59 263.186 502.59C261.906 502.57 260.686 502.76 259.526 503.16C258.386 503.56 257.446 504.11 256.706 504.81C255.986 505.51 255.626 506.31 255.626 507.21C255.626 508.39 255.966 509.28 256.646 509.88C257.346 510.48 258.266 510.91 259.406 511.17C260.546 511.43 261.806 511.66 263.186 511.86C266.026 512.28 268.646 513.03 271.046 514.11C273.446 515.17 275.366 516.59 276.806 518.37C278.266 520.13 278.996 522.28 278.996 524.82C278.996 527.42 278.266 529.69 276.806 531.63C275.346 533.57 273.416 535.08 271.016 536.16C268.616 537.24 266.006 537.78 263.186 537.78Z" fill="white"/>
<defs>
<clipPath id="clip0_203_176">
<rect width="1431" height="1089" fill="white" transform="translate(-339 79)"/>
</clipPath>
</defs>
</svg>
