<svg width="427" height="926" viewBox="0 0 427 926" fill="none" xmlns="http://www.w3.org/2000/svg">
<g clip-path="url(#clip0_204_872)">
<rect width="427" height="926" rx="20" fill="white"/>
<rect width="2000" height="2000" transform="translate(-786 -377)" fill="white"/>
<g clip-path="url(#clip1_204_872)">
<rect width="1431" height="1089" transform="translate(-345 81)" fill="white"/>
<path d="M526.869 831.137C605.746 831.137 669.851 896.308 669.851 976.498C669.851 1056.69 605.746 1121.86 526.869 1121.86C447.992 1121.86 383.888 1056.69 383.888 976.498C383.888 896.443 447.992 831.137 526.869 831.137ZM526.869 1120.65C604.955 1120.65 668.532 1056.02 668.532 976.632C668.532 897.247 604.955 832.612 526.869 832.612C448.784 832.612 385.207 897.247 385.207 976.632C385.207 1056.02 448.784 1120.65 526.869 1120.65Z" fill="#1F1F1F" fill-opacity="0.05"/>
<path d="M152.533 1170C265.44 1170 356.848 1076.94 356.848 962.284C356.848 847.497 265.309 754.568 152.533 754.568C39.7569 754.568 -51.7828 847.631 -51.7828 962.284C-51.7828 1076.94 39.7569 1170 152.533 1170ZM152.533 809.414C235.499 809.414 302.769 877.803 302.769 962.15C302.769 1046.5 235.499 1114.89 152.533 1114.89C69.5666 1114.89 2.29678 1046.5 2.29678 962.15C2.29678 877.803 69.5666 809.414 152.533 809.414Z" fill="#1F1F1F" fill-opacity="0.05"/>
<path d="M393.913 546.45C520.406 546.45 622.894 442.257 622.894 313.658C622.894 185.059 520.406 81 393.913 81C267.419 81 164.931 185.193 164.931 313.792C164.931 442.391 267.551 546.45 393.913 546.45ZM393.913 142.685C486.903 142.685 562.219 219.254 562.219 313.792C562.219 408.33 486.903 484.9 393.913 484.9C300.922 484.9 225.606 408.33 225.606 313.792C225.606 219.254 300.922 142.685 393.913 142.685Z" fill="#1F1F1F" fill-opacity="0.05"/>
<path d="M-116.019 732.71C10.4747 732.71 112.962 628.517 112.962 499.918C112.962 371.32 10.4747 267.126 -116.019 267.126C-242.512 267.126 -345 371.32 -345 499.918C-345 628.517 -242.512 732.71 -116.019 732.71ZM-116.019 328.811C-23.0283 328.811 52.2875 405.38 52.2875 499.918C52.2875 594.457 -23.0283 671.026 -116.019 671.026C-209.009 671.026 -284.325 594.457 -284.325 499.918C-284.325 405.38 -209.009 328.811 -116.019 328.811Z" fill="#1F1F1F" fill-opacity="0.05"/>
<path d="M233.784 642.731C239.983 642.731 245.127 647.961 245.127 654.264C245.127 660.566 239.983 665.796 233.784 665.796C227.585 665.796 222.44 660.566 222.44 654.264C222.44 647.961 227.453 642.731 233.784 642.731ZM233.784 664.455C239.324 664.455 243.808 659.896 243.808 654.264C243.808 648.632 239.324 644.072 233.784 644.072C228.244 644.072 223.759 648.632 223.759 654.264C223.759 659.896 228.244 664.455 233.784 664.455Z" fill="#1F1F1F" fill-opacity="0.05"/>
<path d="M136.968 816.387C136.968 810.889 141.321 806.464 146.861 806.464C152.269 806.464 156.622 810.889 156.622 816.387C156.622 821.885 152.269 826.31 146.861 826.31C141.321 826.444 136.968 821.885 136.968 816.387Z" fill="#1F1F1F" fill-opacity="0.05"/>
<path d="M161.634 540.416C161.634 534.918 165.987 530.358 171.395 530.358C176.803 530.358 181.287 534.784 181.287 540.416C181.287 545.914 176.934 550.339 171.395 550.339C166.119 550.339 161.634 545.914 161.634 540.416Z" fill="#1F1F1F" fill-opacity="0.05"/>
</g>
<path d="M248.981 463.859C248.981 468.516 245.187 472.31 240.53 472.31H170.357C165.7 472.31 161.906 468.516 161.906 463.859V393.686C161.906 389.029 165.7 385.234 170.357 385.234H229.059C229.059 382.519 229.401 379.867 230.074 377.316H170.37C161.347 377.316 154 384.663 154 393.686V463.859C154 472.881 161.347 480.229 170.37 480.229H240.543C249.565 480.229 256.912 472.881 256.912 463.859V416.273C254.172 415.981 251.519 415.334 248.994 414.357V463.859H248.981Z" fill="#1C1C1C"/>
<path d="M260.085 357C244.489 357 231.851 369.639 231.851 385.234C231.851 400.83 244.489 413.469 260.085 413.469C275.68 413.469 288.319 400.83 288.319 385.234C288.319 369.639 275.693 357 260.085 357ZM260.085 405.817C248.728 405.817 239.515 396.604 239.515 385.247C239.515 373.89 248.728 364.677 260.085 364.677C271.442 364.677 280.655 373.89 280.655 385.247C280.655 396.604 271.455 405.817 260.085 405.817Z" fill="#1C1C1C"/>
<path d="M272.889 384.194H261.138V372.443C261.138 370.514 259.577 368.953 257.648 368.953C255.72 368.953 254.159 370.514 254.159 372.443V387.683C254.159 389.612 255.72 391.173 257.648 391.173H272.889C274.817 391.173 276.378 389.612 276.378 387.683C276.378 385.754 274.817 384.194 272.889 384.194Z" fill="#1C1C1C"/>
<path d="M179.595 391.338C176.993 391.338 174.887 389.232 174.887 386.63V368.446C174.887 365.845 176.993 363.738 179.595 363.738C182.196 363.738 184.303 365.845 184.303 368.446V386.63C184.303 389.232 182.196 391.338 179.595 391.338Z" fill="#1C1C1C"/>
<path d="M207.613 391.338C205.012 391.338 202.906 389.232 202.906 386.63V368.446C202.906 365.845 205.012 363.738 207.613 363.738C210.215 363.738 212.321 365.845 212.321 368.446V386.63C212.321 389.232 210.215 391.338 207.613 391.338Z" fill="#1C1C1C"/>
<path d="M185.47 420.537H180.521C177.983 420.537 175.928 418.481 175.928 415.943V410.994C175.928 408.456 177.983 406.401 180.521 406.401H185.47C188.008 406.401 190.064 408.456 190.064 410.994V415.943C190.064 418.494 188.008 420.537 185.47 420.537Z" fill="#1C1C1C"/>
<path d="M207.931 420.537H202.982C200.444 420.537 198.388 418.481 198.388 415.943V410.994C198.388 408.456 200.444 406.401 202.982 406.401H207.931C210.469 406.401 212.524 408.456 212.524 410.994V415.943C212.512 418.494 210.456 420.537 207.931 420.537Z" fill="#1C1C1C"/>
<path d="M230.379 420.537H225.43C222.892 420.537 220.836 418.481 220.836 415.943V410.994C220.836 408.456 222.892 406.401 225.43 406.401H230.379C232.917 406.401 234.972 408.456 234.972 410.994V415.943C234.972 418.494 232.917 420.537 230.379 420.537Z" fill="#1C1C1C"/>
<path d="M185.47 442.896H180.521C177.983 442.896 175.928 440.84 175.928 438.302V433.353C175.928 430.815 177.983 428.76 180.521 428.76H185.47C188.008 428.76 190.064 430.815 190.064 433.353V438.302C190.064 440.84 188.008 442.896 185.47 442.896Z" fill="#1C1C1C"/>
<path d="M207.931 442.896H202.982C200.444 442.896 198.388 440.84 198.388 438.302V433.353C198.388 430.815 200.444 428.76 202.982 428.76H207.931C210.469 428.76 212.524 430.815 212.524 433.353V438.302C212.512 440.84 210.456 442.896 207.931 442.896Z" fill="#1C1C1C"/>
<path d="M230.379 442.896H225.43C222.892 442.896 220.836 440.84 220.836 438.302V433.353C220.836 430.815 222.892 428.76 225.43 428.76H230.379C232.917 428.76 234.972 430.815 234.972 433.353V438.302C234.972 440.84 232.917 442.896 230.379 442.896Z" fill="#1C1C1C"/>
<path d="M185.47 465.242H180.521C177.983 465.242 175.928 463.186 175.928 460.648V455.699C175.928 453.162 177.983 451.106 180.521 451.106H185.47C188.008 451.106 190.064 453.162 190.064 455.699V460.648C190.064 463.199 188.008 465.242 185.47 465.242Z" fill="#1C1C1C"/>
<path d="M207.931 465.242H202.982C200.444 465.242 198.388 463.186 198.388 460.648V455.699C198.388 453.162 200.444 451.106 202.982 451.106H207.931C210.469 451.106 212.524 453.162 212.524 455.699V460.648C212.512 463.199 210.456 465.242 207.931 465.242Z" fill="#1C1C1C"/>
<path d="M230.379 465.242H225.43C222.892 465.242 220.836 463.186 220.836 460.648V455.699C220.836 453.162 222.892 451.106 225.43 451.106H230.379C232.917 451.106 234.972 453.162 234.972 455.699V460.648C234.972 463.199 232.917 465.242 230.379 465.242Z" fill="#1C1C1C"/>
<path d="M150.6 538V496H166.23C168.49 496 170.54 496.47 172.38 497.41C174.22 498.33 175.67 499.65 176.73 501.37C177.81 503.09 178.35 505.11 178.35 507.43C178.35 508.37 178.22 509.34 177.96 510.34C177.72 511.34 177.3 512.26 176.7 513.1C176.12 513.94 175.32 514.58 174.3 515.02C175.62 515.34 176.68 515.94 177.48 516.82C178.28 517.68 178.89 518.68 179.31 519.82C179.73 520.94 180.01 522.09 180.15 523.27C180.29 524.45 180.36 525.52 180.36 526.48C180.36 528.64 179.8 530.59 178.68 532.33C177.56 534.07 176.05 535.45 174.15 536.47C172.27 537.49 170.19 538 167.91 538H150.6ZM158.88 530.95H167.04C168.14 530.95 169.14 530.69 170.04 530.17C170.94 529.63 171.66 528.9 172.2 527.98C172.74 527.04 173.01 525.98 173.01 524.8C173.01 523.8 172.74 522.85 172.2 521.95C171.66 521.05 170.94 520.32 170.04 519.76C169.14 519.18 168.14 518.89 167.04 518.89H158.88V530.95ZM158.88 511.99H165.27C166.59 511.99 167.72 511.56 168.66 510.7C169.6 509.84 170.07 508.73 170.07 507.37C170.07 505.97 169.6 504.91 168.66 504.19C167.72 503.45 166.59 503.08 165.27 503.08H158.88V511.99ZM186.342 538L194.502 496H201.492L211.242 521.71L221.022 496H228.012L236.172 538H227.712L223.062 513.91L214.092 537.58H208.392L199.452 513.91L194.772 538H186.342ZM253.995 496H263.415L278.655 538H269.865L267.345 531.04H250.065L247.545 538H238.755L253.995 496ZM253.095 522.76H264.315L258.675 507.37L253.095 522.76Z" fill="#1C1C1C"/>
</g>
<defs>
<clipPath id="clip0_204_872">
<rect width="427" height="926" rx="20" fill="white"/>
</clipPath>
<clipPath id="clip1_204_872">
<rect width="1431" height="1089" fill="white" transform="translate(-345 81)"/>
</clipPath>
</defs>
</svg>
