<?xml version="1.0" encoding="UTF-8"?>
<svg xmlns="http://www.w3.org/2000/svg" xmlns:xlink="http://www.w3.org/1999/xlink" version="1.1" width="512" height="512" x="0" y="0" viewBox="0 0 324.274 324.274" style="enable-background:new 0 0 512 512" xml:space="preserve" class="">
  <g>
    <path d="M34.419 298V22h139.537v33.411c0 8.301 6.753 15.055 15.053 15.055h33.154v88.5a38.685 38.685 0 0 1 7.528-.75c5.087 0 9.962.994 14.472 2.804V64.006a5 5 0 0 0-1.464-3.536L183.694 1.464A5.006 5.006 0 0 0 180.158 0H27.472c-8.3 0-15.053 6.753-15.053 15.054v289.893c0 8.301 6.753 15.054 15.053 15.054h111.884c-1.256-6.713 1.504-13.831 7.559-17.83a87.69 87.69 0 0 1 7.034-4.17H34.419z" fill="#000000" opacity="1" data-original="#000000" class=""/>
    <path d="M308.487 310.515c-12.254-8.092-25.057-11.423-33.599-12.795 6.02-9.685 9.564-21.448 9.564-34.129 0-9.12-1.824-17.889-5.174-25.781 8.22-1.738 18.908-5.176 29.209-11.98a7.5 7.5 0 0 0-8.266-12.517c-10.742 7.094-22.229 9.723-29.102 10.698-3.459-4.387-7.5-8.249-12.077-11.394a35.322 35.322 0 0 0 1.294-9.509c0-17.861-13.062-32.393-29.117-32.393s-29.115 14.531-29.115 32.393c0 3.244.435 6.428 1.294 9.509-4.577 3.145-8.618 7.007-12.077 11.394-6.873-.975-18.358-3.603-29.102-10.698a7.501 7.501 0 0 0-8.266 12.517c10.301 6.803 20.988 10.241 29.208 11.979-3.351 7.893-5.175 16.661-5.175 25.781 0 12.681 3.544 24.444 9.563 34.129-8.541 1.372-21.343 4.703-33.597 12.794a7.502 7.502 0 0 0 8.266 12.518c16.62-10.975 35.036-11.269 35.362-11.272a7.5 7.5 0 0 0 1.847-.245c8.877 7.447 19.884 11.861 31.791 11.861s22.914-4.415 31.791-11.861a7.55 7.55 0 0 0 1.865.245c.183 0 18.499.148 35.346 11.272a7.496 7.496 0 0 0 10.392-2.126 7.498 7.498 0 0 0-2.125-10.39zm-69.768-14.51a7.5 7.5 0 0 1-15 0v-64.83a7.5 7.5 0 0 1 15 0v64.83zM143.627 49.624h-78a8 8 0 0 0 0 16h78a8 8 0 0 0 0-16zM143.627 99.624h-78a8 8 0 0 0 0 16h78a8 8 0 1 0 0-16zM143.627 149.624h-78a8 8 0 0 0 0 16h78a8 8 0 1 0 0-16z" fill="#000000" opacity="1" data-original="#000000" class=""/>
  </g>
</svg>
