<svg width="254" height="249" viewBox="0 0 254 249" fill="none" xmlns="http://www.w3.org/2000/svg">
<path d="M112.933 184.536C163.835 184.536 205.099 143.272 205.099 92.3696C205.099 41.4675 163.835 0.203201 112.933 0.203201C62.0307 0.203201 20.7664 41.4675 20.7664 92.3696C20.7664 143.272 62.0307 184.536 112.933 184.536Z" fill="#BDE8FF"/>
<path d="M217.49 52.3056C225.036 52.3056 231.154 46.188 231.154 38.6416C231.154 31.0952 225.036 24.9776 217.49 24.9776C209.943 24.9776 203.826 31.0952 203.826 38.6416C203.826 46.188 209.943 52.3056 217.49 52.3056Z" fill="#BDE8FF"/>
<path d="M50.84 199.205C77.4239 199.205 98.9744 177.654 98.9744 151.07C98.9744 124.486 77.4239 102.936 50.84 102.936C24.2561 102.936 2.70557 124.486 2.70557 151.07C2.70557 177.654 24.2561 199.205 50.84 199.205Z" fill="#BDE8FF"/>
<path d="M126.962 248.312C196.873 248.312 253.547 244.432 253.547 239.646C253.547 234.861 196.873 230.981 126.962 230.981C57.0503 230.981 0.375977 234.861 0.375977 239.646C0.375977 244.432 57.0503 248.312 126.962 248.312Z" fill="#0D9FF0"/>
<path d="M195.307 46.0272V230.13C195.307 235.87 190.654 240.523 184.913 240.523H85.1119C79.3711 240.523 74.7183 235.87 74.7183 230.13V46.0208C74.7183 40.28 79.3711 35.6272 85.1119 35.6272H111.55C113.905 35.6272 115.813 37.5344 115.813 39.8896H154.213C154.213 37.5344 156.12 35.6272 158.475 35.6272H184.907C190.648 35.6208 195.307 40.28 195.307 46.0272Z" fill="#1C1C1C"/>
<path d="M85.1118 237.509C81.0478 237.509 77.739 234.2 77.739 230.13V46.0208C77.739 41.9568 81.0478 38.6416 85.1182 38.6416H111.557C112.241 38.6416 112.798 39.1984 112.798 39.8832V42.904H157.233V39.8832C157.233 39.1984 157.79 38.6416 158.475 38.6416H184.907C188.977 38.6416 192.293 41.9568 192.293 46.0272V230.13C192.293 234.2 188.984 237.509 184.913 237.509H85.1118Z" fill="white"/>
<path d="M82.0208 61.2144H89.8863" stroke="white" stroke-width="0.7869" stroke-miterlimit="10" stroke-linecap="round" stroke-linejoin="round"/>
<path d="M82.0208 64.1584H87.0896" stroke="white" stroke-width="0.7869" stroke-miterlimit="10" stroke-linecap="round" stroke-linejoin="round"/>
<path d="M235.173 66.168V148.062C235.173 151.634 232.779 154.52 229.835 154.52H92.6447C89.7071 154.52 87.3071 151.634 87.3071 148.062V66.168C87.3071 62.6224 89.7071 59.736 92.6447 59.736H229.835C232.779 59.736 235.173 62.6224 235.173 66.168Z" fill="#0D9FF0"/>
<path d="M229.835 154.737H92.6448C89.5856 154.737 87.0896 151.742 87.0896 148.069V66.1678C87.0896 62.5006 89.5792 59.5246 92.6448 59.5246H229.835C232.894 59.5246 235.39 62.507 235.39 66.1678V148.062C235.384 151.742 232.894 154.737 229.835 154.737ZM92.6448 59.9534C89.8224 59.9534 87.5248 62.7438 87.5248 66.1678V148.062C87.5248 151.505 89.8224 154.302 92.6448 154.302H229.835C232.658 154.302 234.955 151.505 234.955 148.062V66.1678C234.955 62.7438 232.658 59.9534 229.835 59.9534H92.6448Z" fill="#D7E3F4"/>
<path d="M235.218 66.1552V77.9056H87.3521V66.1552C87.3521 62.5968 89.7457 59.7168 92.7025 59.7168H229.88C232.83 59.7168 235.218 62.6032 235.218 66.1552Z" fill="#1C1C1C"/>
<path d="M235.435 78.1232H87.1343V66.1552C87.1343 62.488 89.6303 59.4992 92.7023 59.4992H229.88C232.945 59.4992 235.435 62.4816 235.435 66.1552V78.1232ZM87.5631 77.6944H235V66.1616C235 62.7312 232.702 59.9408 229.873 59.9408H92.7023C89.8735 59.9408 87.5695 62.7312 87.5695 66.1616V77.6944H87.5631Z" fill="#1A004D"/>
<path d="M209.867 70.5392C210.652 70.5392 211.288 69.9031 211.288 69.1184C211.288 68.3337 210.652 67.6976 209.867 67.6976C209.082 67.6976 208.446 68.3337 208.446 69.1184C208.446 69.9031 209.082 70.5392 209.867 70.5392Z" fill="white"/>
<path d="M216.062 70.5392C216.847 70.5392 217.483 69.9031 217.483 69.1184C217.483 68.3337 216.847 67.6976 216.062 67.6976C215.278 67.6976 214.642 68.3337 214.642 69.1184C214.642 69.9031 215.278 70.5392 216.062 70.5392Z" fill="white"/>
<path d="M222.264 70.5392C223.049 70.5392 223.685 69.9031 223.685 69.1184C223.685 68.3337 223.049 67.6976 222.264 67.6976C221.479 67.6976 220.843 68.3337 220.843 69.1184C220.843 69.9031 221.479 70.5392 222.264 70.5392Z" fill="white"/>
<path d="M212.254 223.218C212.254 223.218 218.123 202.027 226.142 205.605C234.162 209.182 224.28 221.208 212.184 224.363" fill="#0D8ED6"/>
<path d="M212.76 208.683C212.76 208.683 218.059 179.045 225.362 180.619C232.664 182.194 212.261 224.933 212.261 224.933L210.757 218.488L213.048 208.683" fill="#0D9FF0"/>
<path d="M210.181 225.867C210.181 225.867 198.219 185.317 205.669 183.704C217.912 181.054 212.683 210.981 211.685 225.579" fill="#0D8ED6"/>
<path d="M211.256 224.005C211.256 224.005 204.958 195.8 196.51 196.587C188.062 197.374 210.827 224.434 210.827 224.434" fill="#0D9FF0"/>
<path d="M224.606 222.066C224.606 222.066 224.434 230.123 224.28 233.566C224.216 235.198 223.8 238.04 222.411 240.606H203.858C202.456 238.04 202.053 235.198 201.976 233.566C201.835 230.123 201.662 222.066 201.662 222.066H224.606Z" fill="#1C1C1C"/>
<path d="M161.266 84.472C156.965 84.472 153.464 87.9664 153.464 92.2736V99.352H155.032V92.2736C155.032 88.8368 157.829 86.04 161.266 86.04C164.696 86.04 167.499 88.8368 167.499 92.2736V99.352H169.067V92.2736C169.061 87.9728 165.56 84.472 161.266 84.472Z" fill="white"/>
<path d="M171.563 97.0288H150.962C150.206 97.0288 149.592 97.6432 149.592 98.4048V110.533C149.592 111.294 150.206 111.909 150.962 111.909H171.563C172.325 111.909 172.939 111.294 172.939 110.533V98.4048C172.939 97.6432 172.325 97.0288 171.563 97.0288ZM162.238 104.638V107.685H160.286V104.645C159.768 104.318 159.422 103.742 159.422 103.09C159.422 102.072 160.248 101.259 161.259 101.259C162.27 101.259 163.09 102.078 163.09 103.09C163.096 103.736 162.757 104.312 162.238 104.638Z" fill="white"/>
<path d="M122.501 123.576H103.365V142.712H122.501V123.576Z" fill="#D7E3F4"/>
<path d="M146.667 123.576H127.531V142.712H146.667V123.576Z" fill="#D7E3F4"/>
<path d="M170.827 123.576H151.691V142.712H170.827V123.576Z" fill="#D7E3F4"/>
<path d="M194.993 123.576H175.857V142.712H194.993V123.576Z" fill="#D7E3F4"/>
<path d="M180.107 138.379H190.75" stroke="#1C1C1C" stroke-width="0.8333" stroke-miterlimit="10"/>
<path d="M219.16 123.576H200.024V142.712H219.16V123.576Z" fill="#D7E3F4"/>
<path d="M204.273 138.379H214.917" stroke="#1C1C1C" stroke-width="0.8333" stroke-miterlimit="10"/>
<path d="M37.0735 221.362L36.8687 223.774L36.6959 225.688L36.0751 230.328L34.2511 234.846L27.3647 234.725L26.7439 230.622L27.3327 225.81L27.7231 221.093L27.7807 220.338L37.0735 221.362Z" fill="#E9C09F"/>
<path d="M63.8702 229.982L63.6718 232.843L56.843 233.746L55.307 230.078L55.051 226.13L54.6926 220.741L60.1966 220.088L63.3518 219.71L63.4094 220.901L63.4542 221.701L63.8702 229.982Z" fill="#E9C09F"/>
<path d="M76.4335 236.773C76.4335 236.773 77.2079 239.128 73.3615 239.614C69.5087 240.107 66.5647 240.19 64.5551 239.806C62.5455 239.422 61.5151 239.525 59.4223 239.755C57.3295 239.986 55.2175 240.133 54.1359 239.09C53.2463 238.238 53.9631 236.613 53.9631 236.613L65.5279 236.37L76.4335 236.773Z" fill="#BDE8FF"/>
<path d="M64.0239 230.034C64.0239 230.034 68.6959 233.182 70.9807 234.238C73.2655 235.294 76.1775 234.443 76.4335 236.766C76.6895 239.09 70.3151 238.744 66.5775 238.501C62.8399 238.258 60.1903 236.869 58.2511 237.496C56.3119 238.123 54.1167 237.253 53.9631 236.613C53.8095 235.973 54.6607 230.29 55.1471 229.733C55.1471 229.733 55.9343 231.742 59.6079 231.742C63.2815 231.742 64.0239 230.034 64.0239 230.034Z" fill="#1C1C1C"/>
<path d="M68.4143 234.654L68.4719 234.686C68.5807 234.75 68.7151 234.706 68.7791 234.597L69.4447 233.394C69.5023 233.285 69.4639 233.144 69.3615 233.086L69.3039 233.054C69.1951 232.99 69.0607 233.035 68.9967 233.144L68.3311 234.347C68.2671 234.456 68.3055 234.597 68.4143 234.654Z" fill="url(#paint0_linear_843_825)"/>
<path d="M67.3584 233.944L67.416 233.976C67.5248 234.04 67.6592 233.995 67.7232 233.886L68.3888 232.683C68.4464 232.574 68.408 232.434 68.3056 232.376L68.248 232.344C68.1392 232.28 68.0048 232.325 67.9408 232.434L67.2752 233.637C67.2112 233.746 67.2496 233.88 67.3584 233.944Z" fill="url(#paint1_linear_843_825)"/>
<path d="M66.123 233.195L66.1806 233.227C66.2894 233.291 66.4238 233.246 66.4878 233.138L67.1534 231.934C67.211 231.826 67.1726 231.685 67.0702 231.627L67.0126 231.595C66.9038 231.531 66.7694 231.576 66.7054 231.685L66.0398 232.888C65.9758 232.997 66.0142 233.131 66.123 233.195Z" fill="url(#paint2_linear_843_825)"/>
<path d="M64.9072 232.453L64.9648 232.485C65.0736 232.549 65.208 232.504 65.272 232.395L65.9376 231.192C65.9952 231.083 65.9568 230.942 65.8544 230.885L65.7968 230.853C65.688 230.789 65.5536 230.834 65.4896 230.942L64.824 232.146C64.76 232.254 64.7984 232.389 64.9072 232.453Z" fill="url(#paint3_linear_843_825)"/>
<path d="M65.0928 223.698L53.5856 224.754L50.296 177.426L45.5408 157.362C45.496 157.752 43.7552 174.68 42.9168 181.957C42.04 189.522 40.8112 211.838 39.0768 225.189L25.8992 224.325C26.6352 209.291 28.9008 184.254 28.5744 178.725C26.936 151.096 27.3392 144.331 27.7424 134.898C27.9856 129.278 28.952 126.238 28.952 126.238C28.952 126.238 58.0784 126.238 58.5456 126.238C58.5456 126.238 63.3456 159.23 64.2672 177.88C64.7152 186.91 65.0544 208.99 65.0864 222.437C65.0928 222.859 65.0928 223.282 65.0928 223.698Z" fill="#1C1C1C"/>
<path d="M65.0928 223.698L53.5856 224.754L50.296 177.426L45.5408 157.362L47.4288 145.15C47.4288 145.15 52.6768 166.45 53.8672 176.05C55.0576 185.643 54.4624 218.43 64.1776 222.034C64.5232 222.162 64.824 222.296 65.0864 222.424C65.0928 222.859 65.0928 223.282 65.0928 223.698Z" fill="#262525"/>
<path d="M26.3855 234.974C26.3855 234.974 26.3279 238.2 26.7055 238.43C27.7615 239.07 28.4911 239.058 29.7583 239.589C30.9679 240.101 33.1951 240.485 35.3839 240.581C36.8431 240.645 40.1135 240.683 40.1967 239.314C40.2031 239.198 40.4015 238.386 40.2351 238.264C38.4175 236.946 26.3855 234.974 26.3855 234.974Z" fill="#BDE8FF"/>
<path d="M40.2544 238.514C39.0064 239.659 27.8128 239.858 26.6608 236.363C26.008 234.411 26.6224 230.322 26.6224 230.322C26.6224 230.322 29.4256 231.179 33.6048 230.987C34.9488 230.923 36.12 230.264 36.12 230.392C36.12 230.872 36.568 231.685 36.6896 231.813C36.9904 232.101 41.496 237.362 40.2544 238.514Z" fill="#1C1C1C"/>
<path d="M37.2847 233.157C37.3359 233.317 37.2463 233.483 37.0927 233.528L33.9567 234.507C33.8031 234.558 33.6367 234.469 33.5855 234.309C33.5343 234.149 33.6239 233.982 33.7775 233.938L36.9135 232.958C37.0671 232.914 37.2335 233.003 37.2847 233.157Z" fill="url(#paint4_linear_843_825)"/>
<path d="M37.9759 234.123C38.0271 234.283 37.9375 234.45 37.7839 234.494L34.6479 235.474C34.4943 235.525 34.3279 235.435 34.2767 235.275C34.2255 235.115 34.3151 234.949 34.4687 234.904L37.6047 233.925C37.7583 233.88 37.9247 233.97 37.9759 234.123Z" fill="url(#paint5_linear_843_825)"/>
<path d="M38.7183 235.211C38.7695 235.371 38.6799 235.538 38.5263 235.582L35.3903 236.562C35.2367 236.613 35.0703 236.523 35.0191 236.363C34.9679 236.203 35.0575 236.037 35.2111 235.992L38.3471 235.013C38.5071 234.962 38.6735 235.051 38.7183 235.211Z" fill="url(#paint6_linear_843_825)"/>
<path d="M36.6319 232.242C36.6831 232.402 36.5935 232.568 36.4399 232.613L33.3039 233.592C33.1503 233.643 32.9839 233.554 32.9327 233.394C32.8815 233.234 32.9711 233.067 33.1247 233.022L36.2607 232.043C36.4207 231.992 36.5807 232.082 36.6319 232.242Z" fill="url(#paint7_linear_843_825)"/>
<path d="M66.3663 94.5072C66.3663 94.5072 68.7407 99.736 69.3487 100.837L81.3231 85.4192L85.8991 88.6C85.8991 88.6 75.1471 114.642 65.5215 112.811C58.6863 111.512 53.6047 92.7024 53.7263 92.4656L66.3663 94.5072Z" fill="#EFC0C1"/>
<path d="M69.3487 100.837L66.7439 105.355" stroke="#313131" stroke-width="0.1868" stroke-miterlimit="10"/>
<path d="M43.7231 82.3984C43.7231 82.3984 47.9407 77.1568 50.5391 77.1312C52.6959 77.112 54.5263 74.7312 59.9471 82.232C64.8559 89.0288 68.7344 97.2784 68.7344 97.2784L56.8048 104.856L43.7231 82.3984Z" fill="#0D9FF0"/>
<path d="M80.363 87.352C80.363 87.352 81.387 86.424 81.387 84.7024C81.387 82.9872 81.4702 81.2848 82.347 80.0688C83.2238 78.8528 85.0478 76.7024 86.2702 76.6064C87.4926 76.5104 89.323 77.2016 89.6366 77.7072C89.9566 78.2064 89.6302 78.52 89.6302 78.52C89.6302 78.52 90.539 78.6608 90.8974 79.032C91.2558 79.4032 91.0254 79.7616 91.0254 79.7616C91.0254 79.7616 92.0878 79.96 92.2414 80.4208C92.3886 80.8816 91.8894 81.4 91.2302 81.2912C90.571 81.1824 88.5166 81.56 88.139 82.2704C87.7614 82.9872 87.7486 86.1232 86.9102 87.7872C86.3726 88.8496 85.6814 89.2656 85.6814 89.2656L80.363 87.352Z" fill="#EFC0C1"/>
<g opacity="0.5">
<path d="M84.3567 88.2032C84.3567 88.2032 84.5103 88.0688 84.7343 87.8C84.9647 87.5376 85.2719 87.1344 85.5215 86.5968C85.6431 86.328 85.7391 86.0208 85.7583 85.6944C85.7711 85.368 85.7391 84.984 85.7647 84.6064C85.7903 83.8448 85.9759 82.9808 86.5007 82.3088C86.6287 82.136 86.7887 81.9952 86.8463 81.8544C86.9167 81.7072 86.9039 81.5728 86.8015 81.4576C86.5839 81.2208 86.1871 81.1376 85.8415 81.144C85.1119 81.1504 84.5871 81.6688 84.2607 82.1616C83.9215 82.6544 83.6911 83.1024 83.5375 83.416C83.3839 83.736 83.3135 83.9216 83.3135 83.9216C83.3135 83.9216 83.3647 83.7296 83.4863 83.3904C83.6143 83.064 83.7935 82.584 84.1199 82.0592C84.2863 81.8032 84.4847 81.528 84.7599 81.2848C85.0415 81.0416 85.4255 80.9008 85.8287 80.8688C86.2255 80.856 86.6735 80.9072 87.0191 81.2528C87.1983 81.4256 87.2303 81.752 87.1151 81.9632C86.9999 82.1936 86.8463 82.3216 86.7375 82.4752C86.2575 83.0832 86.0783 83.8704 86.0271 84.6128C85.9887 84.9904 86.0079 85.336 85.9759 85.7008C85.9375 86.0656 85.8095 86.3856 85.6751 86.6608C85.3935 87.2112 85.0287 87.5824 84.7791 87.832C84.5167 88.088 84.3567 88.2032 84.3567 88.2032Z" fill="#EFC0C1"/>
</g>
<g opacity="0.5">
<path d="M91.0253 79.7616C91.0253 79.7616 90.9677 79.7744 90.8653 79.7872C90.7693 79.8 90.5645 79.832 90.4429 79.8512C90.2765 79.8768 90.0141 79.9152 89.8541 79.9408C89.6429 79.9728 89.4125 80.0048 89.1885 80.056C88.9645 80.0944 88.7405 80.1456 88.5357 80.2032C88.3309 80.2608 88.1389 80.3184 87.9917 80.3952C87.8445 80.472 87.7101 80.536 87.6397 80.6064C87.5629 80.6704 87.5117 80.7088 87.5117 80.7088C87.5117 80.7088 87.5437 80.6576 87.5949 80.568C87.6525 80.4784 87.7549 80.3568 87.9021 80.2544C88.0493 80.1456 88.2349 80.0368 88.4525 79.96C88.6637 79.8704 88.9005 79.8192 89.1309 79.768C89.3677 79.7296 89.6045 79.6976 89.8285 79.6848C90.0525 79.672 90.2573 79.6848 90.4365 79.6912C90.6157 79.6976 90.7629 79.7232 90.8653 79.736C90.9677 79.7488 91.0253 79.7616 91.0253 79.7616Z" fill="#EFC0C1"/>
</g>
<g opacity="0.5">
<path d="M89.6366 78.52C89.6366 78.52 89.5534 78.5136 89.4126 78.5072C89.2782 78.5008 89.0094 78.488 88.8302 78.4752C88.5934 78.456 88.3118 78.456 88.0174 78.456C87.723 78.456 87.4094 78.4624 87.1086 78.52C86.8078 78.5584 86.571 78.6992 86.347 78.8912C86.1294 79.0768 85.9374 79.2752 85.7838 79.4544C85.6366 79.64 85.5086 79.7936 85.4254 79.9088C85.3422 80.024 85.2974 80.088 85.2974 80.088C85.2974 80.088 85.323 80.0112 85.3742 79.8768C85.4318 79.7488 85.515 79.5568 85.643 79.352C85.7774 79.1472 85.9374 78.904 86.1678 78.6864C86.379 78.4688 86.7118 78.264 87.051 78.2192C87.3838 78.1616 87.7166 78.168 88.0238 78.1872C88.331 78.2064 88.6062 78.264 88.8494 78.3024C89.0862 78.3472 89.2846 78.4048 89.419 78.4432C89.5534 78.4944 89.6366 78.52 89.6366 78.52Z" fill="#EFC0C1"/>
</g>
<path d="M55.2879 80.312C55.2559 80.2544 50.1871 87.0704 46.2703 86.2448C41.8927 85.3168 39.0063 76.8688 39.0063 76.8688L38.6799 68.1008L38.6735 67.96L38.6287 67.4416L39.4991 67.6528L42.9487 68.4976L44.3311 68.8432L47.8703 69.7072C47.8703 69.7072 48.1903 71.9472 48.8175 73.7264C48.8879 73.912 48.9455 74.0912 49.0159 74.2576C49.1439 74.5456 49.3167 74.8144 49.5023 75.0384C49.9311 75.5696 50.4239 75.8896 50.4239 75.896C51.4799 77.5984 55.2623 80.312 55.2879 80.312Z" fill="#EFC0C1"/>
<path d="M49.5023 75.032C42.4495 77.72 39.0063 69.2592 38.6799 68.1008L38.6735 67.96L38.6287 67.4416L39.4991 67.6528C40.4847 68.1648 41.8671 68.728 42.9487 68.4976L44.3311 68.8432L47.8703 69.7072C47.8703 69.7072 48.1903 71.9472 48.8175 73.7264C48.8879 73.912 48.9455 74.0912 49.0159 74.2576C49.1439 74.5392 49.3167 74.808 49.5023 75.032Z" fill="#E5E6E7"/>
<path d="M51.3838 64.0112C51.435 68.4912 50.7502 73.1568 46.5134 73.496C43.5502 73.7264 39.8446 70.3792 38.3534 66.8592C37.5854 65.0416 36.8942 63.4608 36.6062 62.2192C36.3758 61.2336 36.2798 60.6064 36.2798 60.6064L36.4718 58.3024L36.587 56.952C36.587 56.952 37.3294 55.9856 38.155 54.8976C39.1854 53.5344 41.5214 54.6032 41.5406 54.52C41.5662 54.3984 47.115 52.2288 49.4766 54.1232C49.483 54.1296 49.4894 54.1296 49.4894 54.136C49.707 54.3088 49.8798 54.4944 50.0142 54.6928C50.123 54.8592 50.1998 55.032 50.2446 55.2176C50.3278 55.576 50.443 56.1136 50.5774 56.7984C50.6286 57.0864 50.6926 57.3936 50.7502 57.7264C50.8462 58.2896 50.9486 58.904 51.0382 59.5568C51.2302 60.92 51.371 62.4624 51.3838 64.0112Z" fill="#EFC0C1"/>
<path d="M36.408 62.2192C36.408 62.2192 31.64 52.9072 39.672 51.2496C39.672 51.2496 45.0928 47.0832 49.7968 49.3744C53.976 51.4096 53.2592 55.6336 50.7952 57.0544C49.1824 57.9888 40.76 57.3296 39.704 58.3408C38.648 59.352 38.5456 67.3648 38.5456 67.3648C38.5456 67.3648 37.5472 63.96 36.408 62.2192Z" fill="#1C1C1C"/>
<path d="M42.1709 54.6323C43.9579 54.3043 45.1278 52.5194 44.7839 50.6455C44.44 48.7716 42.7126 47.5183 40.9256 47.8462C39.1386 48.1741 37.9687 49.9591 38.3126 51.833C38.6565 53.7069 40.3839 54.9602 42.1709 54.6323Z" fill="#1C1C1C"/>
<path d="M47.4516 55.8064C49.7705 55.3808 51.2883 53.063 50.8417 50.6293C50.3951 48.1957 48.1532 46.5678 45.8343 46.9933C43.5154 47.4188 41.9975 49.7367 42.4441 52.1703C42.8907 54.604 45.1326 56.2319 47.4516 55.8064Z" fill="#1C1C1C"/>
<path d="M52.0781 56.4185C53.8651 56.0905 55.035 54.3056 54.6911 52.4317C54.3472 50.5577 52.6198 49.3045 50.8328 49.6324C49.0458 49.9603 47.8759 51.7453 48.2198 53.6192C48.5637 55.4931 50.2911 56.7464 52.0781 56.4185Z" fill="#1C1C1C"/>
<path d="M41.5568 59.6081C42.8501 59.3708 43.6968 58.0792 43.448 56.7233C43.1992 55.3674 41.949 54.4606 40.6557 54.698C39.3624 54.9353 38.5157 56.2269 38.7645 57.5828C39.0133 58.9387 40.2635 59.8454 41.5568 59.6081Z" fill="#1C1C1C"/>
<path d="M37.3529 56.2863C38.6462 56.0489 39.493 54.7573 39.2441 53.4015C38.9953 52.0456 37.7452 51.1388 36.4519 51.3761C35.1585 51.6135 34.3118 52.905 34.5606 54.2609C34.8095 55.6168 36.0596 56.5236 37.3529 56.2863Z" fill="#1C1C1C"/>
<path d="M36.879 59.5183C38.1724 59.281 39.0191 57.9894 38.7703 56.6336C38.5214 55.2777 37.2713 54.3709 35.978 54.6082C34.6847 54.8456 33.8379 56.1371 34.0868 57.493C34.3356 58.8489 35.5857 59.7557 36.879 59.5183Z" fill="#1C1C1C"/>
<path d="M37.4556 61.8929C38.5507 61.6919 39.2678 60.5989 39.0573 59.4516C38.8468 58.3043 37.7883 57.5372 36.6931 57.7382C35.598 57.9391 34.8809 59.0321 35.0914 60.1794C35.302 61.3267 36.3604 62.0939 37.4556 61.8929Z" fill="#1C1C1C"/>
<path d="M46.3065 59.7807C47.5998 59.5434 48.4466 58.2518 48.1978 56.8959C47.9489 55.54 46.6988 54.6332 45.4055 54.8706C44.1122 55.1079 43.2654 56.3995 43.5142 57.7554C43.7631 59.1113 45.0132 60.018 46.3065 59.7807Z" fill="#1C1C1C"/>
<path d="M39.2512 53.3622C40.5376 53.1261 41.3797 51.8412 41.1322 50.4923C40.8846 49.1433 39.6412 48.2412 38.3548 48.4772C37.0684 48.7133 36.2263 49.9982 36.4739 51.3471C36.7214 52.6961 37.9649 53.5983 39.2512 53.3622Z" fill="#1C1C1C"/>
<path d="M37.9566 62.7632C37.9566 62.7632 35.115 61.5792 35.6846 64.1328C36.2542 66.6864 38.8846 67.3392 38.8846 67.3392L37.9566 62.7632Z" fill="#EFC0C1"/>
<path d="M37.4893 63.704C37.4893 63.704 35.3965 63.4736 37.9181 65.8544L37.4893 63.704Z" fill="#EDAA98"/>
<path d="M49.3339 63.9272C49.35 63.5351 49.1797 63.2098 48.9537 63.2006C48.7277 63.1913 48.5314 63.5016 48.5154 63.8936C48.4993 64.2857 48.6696 64.611 48.8956 64.6202C49.1216 64.6295 49.3179 64.3192 49.3339 63.9272Z" fill="#1A004D"/>
<path d="M44.4951 64.2587C44.5111 63.8667 44.3409 63.5414 44.1148 63.5321C43.8888 63.5228 43.6926 63.8331 43.6765 64.2252C43.6605 64.6172 43.8307 64.9425 44.0567 64.9518C44.2828 64.961 44.479 64.6507 44.4951 64.2587Z" fill="#1A004D"/>
<path d="M47.8511 62.136C47.8511 62.136 48.8751 61.0608 49.9695 61.4256L47.8511 62.136Z" fill="#1A004D"/>
<path d="M42.2063 62.1232C42.2959 62.0976 43.7551 61.5792 44.8111 62.3984L42.2063 62.1232Z" fill="#1A004D"/>
<path d="M46.6864 64.8816C46.6864 64.8816 46.6032 66.0656 47.1536 66.3088C47.704 66.552 48.1136 67.6784 46.6736 67.48" stroke="#EDAA98" stroke-width="0.2088" stroke-miterlimit="10" stroke-linecap="round" stroke-linejoin="round"/>
<path d="M48.5808 69.3872C48.5808 69.3872 48.5424 69.5088 48.4336 69.6688C48.248 69.9632 47.8576 70.392 47.128 70.4752C46.4112 70.552 45.8608 70.2064 45.56 69.944C45.3936 69.7968 45.2976 69.6752 45.2976 69.6752" fill="white"/>
<path d="M57.5792 83.1984C57.9056 90.7504 57.336 98.1616 57.6112 105.598C57.592 113.586 59.1728 126.834 59.1728 126.91C59.1792 126.68 55.5376 128.85 48.4592 130.846C41.72 132.747 30.7824 132.139 27.5888 131.058C27.4736 131.026 25.6112 109.662 25.6624 109.208C25.3936 81.6496 24.9136 79.7424 28.2992 77.5536C29.8672 76.3568 31.1344 76.2864 33.0416 75.704V75.6976C34.3536 75.2624 38.136 74.4432 38.8912 74.3536C41.0224 76.8432 44.9648 81.112 47.7424 81.3296C50.7632 80.2352 49.2912 75.8448 49.5024 75.0256C54.3344 75.5824 57.6496 77.9632 57.5792 83.1984Z" fill="#0D9FF0"/>
<path d="M22.347 102.104C22.347 102.104 21.5086 115.339 23.2686 118.258C24.811 120.818 25.7902 123.173 40.3246 114.469C44.075 112.222 52.235 104.907 52.235 104.907L48.5486 100.638L33.675 107.333L33.8798 103.435L22.347 102.104Z" fill="#EFC0C1"/>
<path d="M33.675 107.339L28.8494 109.643" stroke="#313131" stroke-width="0.1868" stroke-miterlimit="10"/>
<path d="M28.7727 77.176C28.7727 77.176 23.5695 79.7872 22.9615 84.8176C22.3535 89.848 21.6111 103.243 21.6111 103.243L34.0847 103.794C34.0847 103.794 35.1983 91.5952 35.0959 85.2912C34.9871 78.9808 28.7727 77.176 28.7727 77.176Z" fill="#0D9FF0"/>
<path d="M33.8672 104.504C33.8672 104.504 35.192 91.5952 35.0896 85.2912" stroke="#313131" stroke-width="0.1868" stroke-miterlimit="10"/>
<path d="M57.547 85.7328C57.5534 89.4192 57.3102 93.6944 57.5918 101.131" stroke="#313131" stroke-width="0.1868" stroke-miterlimit="10"/>
<path d="M69.0927 90.1232L68.7727 89.6496L59.5119 90.5008L52.3503 103.365L61.7903 103.25L68.3823 90.424L69.0927 90.1232Z" fill="#2B2A2A"/>
<path d="M59.832 90.9808L52.6704 103.838L62.1104 103.723L69.0928 90.1232L59.832 90.9808Z" fill="#1C1C1C"/>
<path d="M67.0963 92.3444C67.288 91.9661 67.2415 91.5571 66.9924 91.4308C66.7434 91.3046 66.386 91.509 66.1943 91.8874C66.0026 92.2657 66.0491 92.6747 66.2982 92.8009C66.5472 92.9272 66.9046 92.7228 67.0963 92.3444Z" fill="#BDE8FF"/>
<path d="M61.0992 99.6528C61.0992 99.6528 62.264 99.384 61.784 100.434C61.3104 101.483 59.0064 103.851 57.7072 104.178C56.4144 104.51 52.7216 104.53 52.2352 104.907C51.7552 105.285 48.4976 100.837 48.4976 100.837C48.4976 100.837 51.4608 97.1888 53.016 96.088C53.8608 95.4864 55.4864 95.2368 56.7216 95.2944L55.7808 97.1248C55.4608 97.1824 55.2304 97.2464 55.1728 97.3296C54.9616 97.6496 55.3968 97.8864 56.2608 97.5984C57.1248 97.3168 61.4448 95 61.7968 95.4416C62.392 96.184 59.8256 97.7008 58.0592 98.712C57.3872 99.096 56.2288 99.96 56.2288 99.96C56.2288 99.96 57.3616 99.832 58.4816 99.1728C59.6016 98.5136 61.6048 97.176 62.1936 97.7136C62.776 98.2576 61.0992 99.6528 61.0992 99.6528Z" fill="#EFC0C1"/>
<path d="M61.0993 99.6528C61.0993 99.6528 58.9745 101.765 56.9009 102.117" stroke="#231F20" stroke-width="0.1901" stroke-miterlimit="10"/>
<path d="M181.163 170.213H88.8623V216.619H181.163V170.213Z" fill="#BDE8FF"/>
<path d="M115.7 129.957H110.844V132.105C111.052 131.877 111.342 131.69 111.716 131.545C112.089 131.4 112.494 131.327 112.93 131.327C113.708 131.327 114.351 131.503 114.86 131.856C115.379 132.209 115.757 132.665 115.996 133.226C116.235 133.786 116.354 134.393 116.354 135.047C116.354 136.261 116.012 137.226 115.327 137.942C114.642 138.647 113.677 139 112.432 139C111.602 139 110.881 138.86 110.268 138.58C109.656 138.289 109.184 137.89 108.852 137.381C108.52 136.873 108.339 136.287 108.307 135.623H110.907C110.969 135.944 111.119 136.214 111.358 136.432C111.597 136.639 111.923 136.743 112.338 136.743C112.826 136.743 113.189 136.588 113.428 136.276C113.667 135.965 113.786 135.55 113.786 135.031C113.786 134.523 113.661 134.134 113.412 133.864C113.163 133.594 112.8 133.459 112.323 133.459C111.97 133.459 111.68 133.547 111.451 133.724C111.223 133.89 111.073 134.113 111 134.393H108.432V127.623H115.7V129.957Z" fill="#1C1C1C"/>
<path d="M140.922 129.63L137.016 139H134.292L138.245 129.926H133.405V127.654H140.922V129.63Z" fill="#1C1C1C"/>
<path d="M156.585 136.977V134.829L161.503 127.794H164.476V134.673H165.752V136.977H164.476V139H161.814V136.977H156.585ZM162.001 130.72L159.386 134.673H162.001V130.72Z" fill="#1C1C1C"/>
<defs>
<linearGradient id="paint0_linear_843_825" x1="68.3017" y1="233.872" x2="69.4773" y2="233.872" gradientUnits="userSpaceOnUse">
<stop stop-color="#E9EEFA"/>
<stop offset="1" stop-color="white"/>
</linearGradient>
<linearGradient id="paint1_linear_843_825" x1="67.2424" y1="233.16" x2="68.418" y2="233.16" gradientUnits="userSpaceOnUse">
<stop stop-color="#E9EEFA"/>
<stop offset="1" stop-color="white"/>
</linearGradient>
<linearGradient id="paint2_linear_843_825" x1="66.0087" y1="232.411" x2="67.1846" y2="232.411" gradientUnits="userSpaceOnUse">
<stop stop-color="#E9EEFA"/>
<stop offset="1" stop-color="white"/>
</linearGradient>
<linearGradient id="paint3_linear_843_825" x1="64.7905" y1="231.669" x2="65.9662" y2="231.669" gradientUnits="userSpaceOnUse">
<stop stop-color="#E9EEFA"/>
<stop offset="1" stop-color="white"/>
</linearGradient>
<linearGradient id="paint4_linear_843_825" x1="33.5694" y1="233.734" x2="37.2958" y2="233.734" gradientUnits="userSpaceOnUse">
<stop stop-color="#E9EEFA"/>
<stop offset="1" stop-color="white"/>
</linearGradient>
<linearGradient id="paint5_linear_843_825" x1="34.2599" y1="234.701" x2="37.9863" y2="234.701" gradientUnits="userSpaceOnUse">
<stop stop-color="#E9EEFA"/>
<stop offset="1" stop-color="white"/>
</linearGradient>
<linearGradient id="paint6_linear_843_825" x1="35.008" y1="235.785" x2="38.7344" y2="235.785" gradientUnits="userSpaceOnUse">
<stop stop-color="#E9EEFA"/>
<stop offset="1" stop-color="white"/>
</linearGradient>
<linearGradient id="paint7_linear_843_825" x1="32.9185" y1="232.815" x2="36.6449" y2="232.815" gradientUnits="userSpaceOnUse">
<stop stop-color="#E9EEFA"/>
<stop offset="1" stop-color="white"/>
</linearGradient>
</defs>
</svg>
