<?xml version="1.0" encoding="UTF-8"?>
<svg xmlns="http://www.w3.org/2000/svg" xmlns:xlink="http://www.w3.org/1999/xlink" version="1.1" width="512" height="512" x="0" y="0" viewBox="0 0 24 24" style="enable-background:new 0 0 512 512" xml:space="preserve" fill-rule="evenodd" class="">
  <g>
    <path d="M2.134 10.356c-.566-.313-.884-.861-.884-1.434 0-.574.318-1.122.884-1.434l8.314-4.595a3.278 3.278 0 0 1 3.104 0l8.314 4.595c.566.312.884.86.884 1.434 0 .573-.318 1.121-.884 1.434l-8.314 4.594a3.272 3.272 0 0 1-3.104 0zm.725-1.313 8.314 4.594a1.744 1.744 0 0 0 1.654 0l8.314-4.594c.055-.03.109-.066.109-.121 0-.056-.054-.091-.109-.122l-8.314-4.594a1.744 1.744 0 0 0-1.654 0L2.859 8.8c-.055.031-.109.066-.109.122 0 .055.054.091.109.121z" fill="#000000" opacity="1" data-original="#000000" class=""/>
    <path d="M18.25 11.25a.75.75 0 0 1 1.5 0v4.5A3.75 3.75 0 0 1 16 19.5H8a3.75 3.75 0 0 1-3.75-3.75v-4.5a.75.75 0 0 1 1.5 0v4.5A2.25 2.25 0 0 0 8 18h8a2.25 2.25 0 0 0 2.25-2.25z" fill="#000000" opacity="1" data-original="#000000" class=""/>
    <path d="M11.47 9.78a.749.749 0 1 1 1.06-1.06l3.5 3.5c.141.14.22.331.22.53v8a.75.75 0 0 1-1.5 0v-7.689z" fill="#000000" opacity="1" data-original="#000000" class=""/>
  </g>
</svg>
