<?xml version="1.0" encoding="UTF-8"?>
<svg xmlns="http://www.w3.org/2000/svg" xmlns:xlink="http://www.w3.org/1999/xlink" version="1.1" width="512" height="512" x="0" y="0" viewBox="0 0 24 24" style="enable-background:new 0 0 512 512" xml:space="preserve" class="">
  <g>
    <path fill="#000000" fill-rule="evenodd" d="M4.4 7.428a2.999 2.999 0 0 0-2.086 5.153A3.993 3.993 0 0 0 .4 15.992v.206c0 .593.48 1.073 1.074 1.073H5.75l-.001.1v.214c0 .71.576 1.285 1.286 1.285h9.928c.71 0 1.286-.575 1.286-1.285v-.314h4.276c.593 0 1.074-.48 1.074-1.073v-.203c0-1.445-.767-2.71-1.916-3.413A2.999 2.999 0 0 0 19.6 7.429a2.999 2.999 0 0 0-2.085 5.152c-.302.185-.578.41-.82.666a6.266 6.266 0 0 0-2.175-1.593A3.749 3.749 0 0 0 12 5.13a3.749 3.749 0 0 0-2.519 6.524 6.268 6.268 0 0 0-2.175 1.593 4.02 4.02 0 0 0-.821-.665A2.999 2.999 0 0 0 4.4 7.429zm0 4.497a1.5 1.5 0 1 0 0-2.999 1.5 1.5 0 0 0 0 3zm-.001 1.57a2.498 2.498 0 0 0-2.49 2.277h4.048c.114-.432.273-.846.473-1.237a2.499 2.499 0 0 0-2.031-1.04zm15.2-1.57a1.5 1.5 0 1 0 .002-2.999 1.5 1.5 0 0 0-.001 3zm2.491 3.847a2.501 2.501 0 0 0-4.52-1.237c.2.39.359.805.473 1.237zM12 11.126a2.25 2.25 0 1 0 .002-4.499A2.25 2.25 0 0 0 12 11.126zm-3.852 3.468a4.721 4.721 0 0 0-.898 2.777h9.5l-.001-.1A4.745 4.745 0 0 0 12 12.624c-1.586 0-2.99.777-3.852 1.97z" clip-rule="evenodd" opacity="1" data-original="#000000"/>
  </g>
</svg>
