<?xml version="1.0" encoding="UTF-8"?>
<svg xmlns="http://www.w3.org/2000/svg" xmlns:xlink="http://www.w3.org/1999/xlink" version="1.1" width="512" height="512" x="0" y="0" viewBox="0 0 32 32" style="enable-background:new 0 0 512 512" xml:space="preserve" class="">
  <g>
    <path d="M15.867 14.881a4.941 4.941 0 1 0-4.941-4.94 4.946 4.946 0 0 0 4.941 4.94zm0-7.881a2.941 2.941 0 1 1-2.941 2.941A2.945 2.945 0 0 1 15.867 7zM6.533 17.785a3.8 3.8 0 1 0-3.8-3.8 3.8 3.8 0 0 0 3.8 3.8zm0-5.6a1.8 1.8 0 1 1-1.8 1.8 1.8 1.8 0 0 1 1.8-1.8zM25.2 17.785a3.8 3.8 0 1 0-3.8-3.8 3.8 3.8 0 0 0 3.8 3.8zm0-5.6a1.8 1.8 0 1 1-1.8 1.8 1.8 1.8 0 0 1 1.8-1.8zM25.333 19.791a5.269 5.269 0 0 0-2.506.653A8.237 8.237 0 0 0 16 16.607a8.237 8.237 0 0 0-6.827 3.837 5.269 5.269 0 0 0-2.506-.653A5.963 5.963 0 0 0 1 26a1 1 0 0 0 2 0 3.971 3.971 0 0 1 3.667-4.209 3.272 3.272 0 0 1 1.577.419 10.085 10.085 0 0 0-.711 3.732 1 1 0 0 0 2 0c0-4.045 2.9-7.335 6.467-7.335s6.467 3.29 6.467 7.335a1 1 0 0 0 2 0 10.085 10.085 0 0 0-.711-3.732 3.272 3.272 0 0 1 1.577-.419A3.971 3.971 0 0 1 29 26a1 1 0 0 0 2 0 5.963 5.963 0 0 0-5.667-6.209z" fill="#000000" opacity="1" data-original="#000000" class=""/>
  </g>
</svg>
