<svg width="427" height="847" viewBox="0 0 427 847" fill="none" xmlns="http://www.w3.org/2000/svg">
<g clip-path="url(#clip0_203_853)">
<path d="M532.869 750.137C611.746 750.137 675.851 815.308 675.851 895.498C675.851 975.688 611.746 1040.86 532.869 1040.86C453.992 1040.86 389.888 975.688 389.888 895.498C389.888 815.443 453.992 750.137 532.869 750.137ZM532.869 1039.65C610.955 1039.65 674.532 975.018 674.532 895.632C674.532 816.247 610.955 751.612 532.869 751.612C454.784 751.612 391.207 816.247 391.207 895.632C391.207 975.018 454.784 1039.65 532.869 1039.65Z" fill="white" fill-opacity="0.1"/>
<path d="M158.533 1089C271.44 1089 362.848 995.937 362.848 881.284C362.848 766.497 271.309 673.568 158.533 673.568C45.7568 673.568 -45.7829 766.631 -45.7829 881.284C-45.7829 995.937 45.7568 1089 158.533 1089ZM158.533 728.414C241.499 728.414 308.769 796.803 308.769 881.15C308.769 965.497 241.499 1033.89 158.533 1033.89C75.5666 1033.89 8.29675 965.497 8.29675 881.15C8.29675 796.803 75.5666 728.414 158.533 728.414Z" fill="white" fill-opacity="0.1"/>
<path d="M399.913 465.45C526.406 465.45 628.894 361.257 628.894 232.658C628.894 104.059 526.406 0 399.913 0C273.419 0 170.931 104.193 170.931 232.792C170.931 361.391 273.551 465.45 399.913 465.45ZM399.913 61.6845C492.903 61.6845 568.219 138.254 568.219 232.792C568.219 327.33 492.903 403.9 399.913 403.9C306.922 403.9 231.606 327.33 231.606 232.792C231.606 138.254 306.922 61.6845 399.913 61.6845Z" fill="white" fill-opacity="0.1"/>
<path d="M-110.019 651.71C16.4747 651.71 118.962 547.517 118.962 418.918C118.962 290.32 16.4747 186.126 -110.019 186.126C-236.512 186.126 -339 290.32 -339 418.918C-339 547.517 -236.512 651.71 -110.019 651.71ZM-110.019 247.811C-17.0283 247.811 58.2875 324.38 58.2875 418.918C58.2875 513.457 -17.0283 590.026 -110.019 590.026C-203.009 590.026 -278.325 513.457 -278.325 418.918C-278.325 324.38 -203.009 247.811 -110.019 247.811Z" fill="white" fill-opacity="0.1"/>
<path d="M239.784 561.731C245.983 561.731 251.128 566.961 251.128 573.264C251.128 579.566 245.983 584.796 239.784 584.796C233.585 584.796 228.44 579.566 228.44 573.264C228.44 566.961 233.453 561.731 239.784 561.731ZM239.784 583.455C245.324 583.455 249.809 578.896 249.809 573.264C249.809 567.632 245.324 563.072 239.784 563.072C234.244 563.072 229.76 567.632 229.76 573.264C229.76 578.896 234.244 583.455 239.784 583.455Z" fill="white" fill-opacity="0.1"/>
<path d="M142.968 735.387C142.968 729.889 147.321 725.464 152.861 725.464C158.269 725.464 162.622 729.889 162.622 735.387C162.622 740.885 158.269 745.31 152.861 745.31C147.321 745.444 142.968 740.885 142.968 735.387Z" fill="white" fill-opacity="0.1"/>
<path d="M167.634 459.416C167.634 453.918 171.987 449.358 177.395 449.358C182.803 449.358 187.287 453.784 187.287 459.416C187.287 464.914 182.934 469.339 177.395 469.339C172.119 469.339 167.634 464.914 167.634 459.416Z" fill="white" fill-opacity="0.1"/>
</g>
<defs>
<clipPath id="clip0_203_853">
<rect width="1431" height="1089" fill="white" transform="translate(-339)"/>
</clipPath>
</defs>
</svg>
