<svg width="20" height="20" viewBox="0 0 20 20" fill="none" xmlns="http://www.w3.org/2000/svg">
<g clip-path="url(#clip0_259_732)">
<path d="M9.99997 0C15.5231 0 20 4.4775 20 10C20 15.5232 15.5231 20 9.99997 20C4.47681 20 0 15.5231 0 10C0 4.4775 4.47688 0 9.99997 0Z" fill="#1C1C1C"/>
<path d="M11.2175 6.88422H12.5063V4.98047H10.9913V4.98733C9.15568 5.05235 8.77946 6.08421 8.7463 7.16797H8.74252V8.11861H7.49255V9.98296H8.74252V14.9804H10.6263V9.98296H12.1694L12.4675 8.11861H10.6269V7.54426C10.6269 7.17799 10.8706 6.88422 11.2175 6.88422Z" fill="white"/>
</g>
<defs>
<clipPath id="clip0_259_732">
<rect width="20" height="20" fill="white"/>
</clipPath>
</defs>
</svg>
