<svg width="20" height="20" viewBox="0 0 20 20" fill="none" xmlns="http://www.w3.org/2000/svg">
<g clip-path="url(#clip0_236_451)">
<path d="M15.8703 7.09129V5.87029C15.8703 2.62821 13.242 0 9.99997 0C6.75789 0 4.12972 2.62821 4.12972 5.87025V7.09125C2.58736 7.87835 1.61578 9.46297 1.61389 11.1946V15.3876C1.61668 17.9338 3.68005 19.9972 6.22623 20H13.7737C16.3199 19.9972 18.3833 17.9338 18.386 15.3876V11.1946C18.3842 9.46301 17.4126 7.87835 15.8703 7.09129ZM9.99997 2.51583C11.8526 2.51583 13.3544 4.01766 13.3544 5.87025V6.58223H6.64555V5.87025C6.64555 4.01766 8.14738 2.51583 9.99997 2.51583ZM15.8703 15.3876C15.8703 16.5455 14.9316 17.4841 13.7737 17.4841H6.22627C5.0684 17.4841 4.12976 16.5455 4.12976 15.3876V11.1946C4.12976 10.0367 5.0684 9.0981 6.22627 9.0981H13.7737C14.9316 9.0981 15.8703 10.0367 15.8703 11.1946V15.3876Z" fill="#939393"/>
<path d="M9.58073 11.6138H10.4193C11.114 11.6138 11.6772 12.177 11.6772 12.8717C11.6772 13.5664 11.114 14.1296 10.4193 14.1296H9.58073C8.88601 14.1296 8.32281 13.5664 8.32281 12.8717C8.32281 12.177 8.88601 11.6138 9.58073 11.6138Z" fill="#939393"/>
</g>
<defs>
<clipPath id="clip0_236_451">
<rect width="20" height="20" fill="white"/>
</clipPath>
</defs>
</svg>
