<svg width="16" height="17" viewBox="0 0 16 17" fill="none" xmlns="http://www.w3.org/2000/svg">
<path d="M8 3.5C7.0111 3.5 6.0444 3.79324 5.22215 4.34265C4.39991 4.89206 3.75904 5.67295 3.3806 6.58658C3.00217 7.50021 2.90315 8.50555 3.09608 9.47545C3.289 10.4454 3.76521 11.3363 4.46447 12.0355C5.16373 12.7348 6.05465 13.211 7.02455 13.4039C7.99446 13.5969 8.99979 13.4978 9.91342 13.1194C10.8271 12.741 11.6079 12.1001 12.1574 11.2779C12.7068 10.4556 13 9.48891 13 8.5C12.9986 7.17435 12.4714 5.9034 11.534 4.96603C10.5966 4.02865 9.32565 3.50141 8 3.5ZM8 11.5C7.40666 11.5 6.82664 11.3241 6.33329 10.9944C5.83994 10.6648 5.45543 10.1962 5.22836 9.64805C5.0013 9.09987 4.94189 8.49667 5.05765 7.91473C5.1734 7.33279 5.45912 6.79824 5.87868 6.37868C6.29824 5.95912 6.83279 5.6734 7.41473 5.55764C7.99667 5.44189 8.59987 5.5013 9.14805 5.72836C9.69623 5.95542 10.1648 6.33994 10.4944 6.83329C10.8241 7.32664 11 7.90666 11 8.5C10.9991 9.29538 10.6828 10.0579 10.1203 10.6203C9.55793 11.1828 8.79538 11.4991 8 11.5Z" fill="#939393"/>
</svg>
