<svg width="20" height="20" viewBox="0 0 20 20" fill="none" xmlns="http://www.w3.org/2000/svg">
<g clip-path="url(#clip0_236_465)">
<path d="M1.25 19.5407C0.918479 19.5407 0.600537 19.409 0.366117 19.1746C0.131696 18.9402 0 18.6222 0 18.2907L0 13.2907C0.00242608 11.1918 0.83728 9.1796 2.32142 7.69546C3.80555 6.21133 5.81778 5.37647 7.91667 5.37405H10.97V3.97321C10.97 3.60253 11.0816 3.24043 11.2904 2.93412C11.4992 2.62781 11.7954 2.39148 12.1404 2.25594C12.4854 2.1204 12.8632 2.09192 13.2247 2.17423C13.5861 2.25654 13.9144 2.44581 14.1667 2.71738L19.3475 8.29655C19.7643 8.74905 19.9957 9.34175 19.9957 9.95696C19.9957 10.5722 19.7643 11.1649 19.3475 11.6174L14.1667 17.1965C13.9144 17.4684 13.5861 17.658 13.2245 17.7404C12.8629 17.8229 12.4849 17.7945 12.1397 17.6589C11.7945 17.5234 11.4982 17.2869 11.2894 16.9804C11.0806 16.6739 10.969 16.3116 10.9692 15.9407V14.5407H6.25C5.25544 14.5407 4.30161 14.9358 3.59835 15.6391C2.89509 16.3423 2.5 17.2962 2.5 18.2907C2.5 18.6222 2.3683 18.9402 2.13388 19.1746C1.89946 19.409 1.58152 19.5407 1.25 19.5407V19.5407ZM6.25 12.0407H12.22C12.5515 12.0407 12.8695 12.1724 13.1039 12.4068C13.3383 12.6412 13.47 12.9592 13.47 13.2907V14.2732L17.5158 9.91654L13.47 5.62238V6.62238C13.47 6.9539 13.3383 7.27184 13.1039 7.50626C12.8695 7.74068 12.5515 7.87238 12.22 7.87238H7.91667C6.48062 7.87414 5.10389 8.44539 4.08845 9.46083C3.07301 10.4763 2.50176 11.853 2.5 13.289V13.289C3.58087 12.476 4.89747 12.0377 6.25 12.0407ZM12.3333 4.41655L12.34 4.42321L12.3333 4.41655Z" fill="#939393"/>
</g>
<defs>
<clipPath id="clip0_236_465">
<rect width="20" height="20" fill="white"/>
</clipPath>
</defs>
</svg>
