<svg width="20" height="20" viewBox="0 0 20 20" fill="none" xmlns="http://www.w3.org/2000/svg">
<g clip-path="url(#clip0_241_840)">
<path d="M10 0C8.02219 0 6.08879 0.58649 4.4443 1.6853C2.79981 2.78412 1.51809 4.3459 0.761209 6.17317C0.00433286 8.00043 -0.193701 10.0111 0.192152 11.9509C0.578004 13.8907 1.53041 15.6725 2.92894 17.0711C4.32746 18.4696 6.10929 19.422 8.0491 19.8079C9.98891 20.1937 11.9996 19.9957 13.8268 19.2388C15.6541 18.4819 17.2159 17.2002 18.3147 15.5557C19.4135 13.9112 20 11.9778 20 10C19.9971 7.34872 18.9426 4.80684 17.0679 2.9321C15.1932 1.05736 12.6513 0.00286757 10 0V0ZM10 17.5C8.51664 17.5 7.0666 17.0601 5.83323 16.236C4.59986 15.4119 3.63857 14.2406 3.07091 12.8701C2.50325 11.4997 2.35473 9.99168 2.64411 8.53682C2.9335 7.08197 3.64781 5.74559 4.6967 4.6967C5.7456 3.64781 7.08197 2.9335 8.53683 2.64411C9.99168 2.35472 11.4997 2.50325 12.8701 3.0709C14.2406 3.63856 15.4119 4.59985 16.236 5.83322C17.0601 7.06659 17.5 8.51664 17.5 10C17.4976 11.9884 16.7066 13.8946 15.3006 15.3006C13.8946 16.7066 11.9884 17.4976 10 17.5V17.5Z" fill="#939393"/>
<path d="M9.621 7.9545H9.371C9.04348 7.94646 8.72477 8.06104 8.47734 8.27578C8.22992 8.49052 8.07162 8.78994 8.0335 9.11533C8.0117 9.44085 8.11803 9.762 8.32978 10.0102C8.54154 10.2584 8.84194 10.4139 9.16683 10.4437V14.3187C9.16683 14.6502 9.29853 14.9681 9.53295 15.2025C9.76737 15.437 10.0853 15.5687 10.4168 15.5687C10.7484 15.5687 11.0663 15.437 11.3007 15.2025C11.5351 14.9681 11.6668 14.6502 11.6668 14.3187V10.0003C11.6668 9.45774 11.4513 8.93738 11.0676 8.55371C10.684 8.17004 10.1636 7.9545 9.621 7.9545V7.9545Z" fill="#939393"/>
<path d="M9.85847 7.05531C10.1413 7.05531 10.4178 6.97145 10.6529 6.81431C10.8881 6.65718 11.0714 6.43385 11.1796 6.17255C11.2879 5.91125 11.3162 5.62373 11.261 5.34633C11.2058 5.06894 11.0696 4.81414 10.8696 4.61415C10.6696 4.41416 10.4148 4.27797 10.1375 4.22279C9.86006 4.16761 9.57253 4.19593 9.31123 4.30417C9.04993 4.4124 8.8266 4.59569 8.66947 4.83085C8.51234 5.06601 8.42847 5.34249 8.42847 5.62531C8.42836 5.81313 8.46527 5.99914 8.5371 6.17268C8.60892 6.34623 8.71425 6.50391 8.84706 6.63672C8.97987 6.76953 9.13756 6.87486 9.3111 6.94668C9.48465 7.01851 9.67065 7.05542 9.85847 7.05531V7.05531Z" fill="#939393"/>
</g>
<defs>
<clipPath id="clip0_241_840">
<rect width="20" height="20" fill="white"/>
</clipPath>
</defs>
</svg>
