<svg width="20" height="20" viewBox="0 0 20 20" fill="none" xmlns="http://www.w3.org/2000/svg">
<g clip-path="url(#clip0_247_876)">
<path d="M12.5 20C11.0409 20.001 9.59922 19.6827 8.27617 19.0674C6.95312 18.4522 5.78074 17.5548 4.84132 16.4383C3.90189 15.3219 3.21816 14.0133 2.83813 12.6046C2.45809 11.1958 2.39094 9.72095 2.6414 8.28348C2.89187 6.84602 3.45386 5.48078 4.28796 4.28357C5.12206 3.08636 6.20804 2.08618 7.46971 1.35322C8.73138 0.620268 10.1382 0.172292 11.5913 0.040732C13.0445 -0.0908283 14.5089 0.0972148 15.8817 0.591665C16.2928 0.739186 16.6569 0.9943 16.9358 1.33041C17.2148 1.66652 17.3985 2.07131 17.4678 2.50259C17.5371 2.93387 17.4894 3.37584 17.3297 3.78242C17.1701 4.18899 16.9043 4.54529 16.56 4.81417C12.31 8.08083 12.32 11.93 16.56 15.1858C16.9042 15.4548 17.17 15.8112 17.3295 16.2179C17.4891 16.6246 17.5366 17.0666 17.4671 17.4979C17.3977 17.9292 17.2138 18.334 16.9346 18.67C16.6555 19.006 16.2913 19.261 15.88 19.4083C14.795 19.7956 13.6521 19.9957 12.5 20V20ZM12.5 2.5C11.4098 2.4988 10.3325 2.73528 9.34302 3.19297C8.35356 3.65066 7.47578 4.31856 6.77081 5.15014C6.06584 5.98172 5.55064 6.95699 5.26109 8.00803C4.97154 9.05906 4.91461 10.1606 5.09425 11.2359C5.2739 12.3111 5.6858 13.3343 6.30127 14.2342C6.91675 15.134 7.72099 15.8888 8.65799 16.4461C9.59498 17.0034 10.6422 17.3497 11.7267 17.4609C12.8112 17.5721 13.9069 17.4455 14.9375 17.09C9.51167 12.8692 9.53 7.11583 14.9375 2.91C14.1521 2.64412 13.3292 2.5057 12.5 2.5V2.5Z" fill="#1C1C1C"/>
</g>
<defs>
<clipPath id="clip0_247_876">
<rect width="20" height="20" fill="white"/>
</clipPath>
</defs>
</svg>
