<svg width="20" height="20" viewBox="0 0 20 20" fill="none" xmlns="http://www.w3.org/2000/svg">
<g clip-path="url(#clip0_236_459)">
<path d="M8.91667 2.18773C8.68235 1.68952 8.31108 1.26827 7.84626 0.973219C7.38143 0.678165 6.84223 0.521484 6.29167 0.521484C5.7411 0.521484 5.2019 0.678165 4.73708 0.973219C4.27225 1.26827 3.90099 1.68952 3.66667 2.18773H1.25C0.918479 2.18773 0.600537 2.31943 0.366116 2.55385C0.131696 2.78827 0 3.10621 0 3.43773H0C0 3.76925 0.131696 4.08719 0.366116 4.32161C0.600537 4.55603 0.918479 4.68773 1.25 4.68773H3.6625C3.89682 5.18594 4.26808 5.60719 4.73291 5.90224C5.19774 6.19729 5.73693 6.35397 6.2875 6.35397C6.83807 6.35397 7.37726 6.19729 7.84209 5.90224C8.30692 5.60719 8.67818 5.18594 8.9125 4.68773H18.75C19.0815 4.68773 19.3995 4.55603 19.6339 4.32161C19.8683 4.08719 20 3.76925 20 3.43773C20 3.10621 19.8683 2.78827 19.6339 2.55385C19.3995 2.31943 19.0815 2.18773 18.75 2.18773H8.91667Z" fill="#939393"/>
<path d="M13.7125 7.08276C13.162 7.08374 12.623 7.24086 12.1582 7.53588C11.6935 7.83089 11.3219 8.25169 11.0867 8.74943H1.25C0.918479 8.74943 0.600537 8.88113 0.366116 9.11555C0.131696 9.34997 0 9.66791 0 9.99943H0C0 10.331 0.131696 10.6489 0.366116 10.8833C0.600537 11.1177 0.918479 11.2494 1.25 11.2494H11.0833C11.3177 11.7476 11.6889 12.1689 12.1537 12.4639C12.6186 12.759 13.1578 12.9157 13.7083 12.9157C14.2589 12.9157 14.7981 12.759 15.2629 12.4639C15.7278 12.1689 16.099 11.7476 16.3333 11.2494H18.75C19.0815 11.2494 19.3995 11.1177 19.6339 10.8833C19.8683 10.6489 20 10.331 20 9.99943C20 9.66791 19.8683 9.34997 19.6339 9.11555C19.3995 8.88113 19.0815 8.74943 18.75 8.74943H16.3375C16.1023 8.25182 15.7309 7.8311 15.2663 7.5361C14.8016 7.24109 14.2629 7.0839 13.7125 7.08276Z" fill="#939393"/>
<path d="M6.2875 13.6453C5.73713 13.6464 5.19836 13.8036 4.73373 14.0986C4.2691 14.3936 3.89765 14.8143 3.6625 15.3119H1.25C0.918479 15.3119 0.600537 15.4436 0.366116 15.678C0.131696 15.9125 0 16.2304 0 16.5619H0C0 16.8934 0.131696 17.2114 0.366116 17.4458C0.600537 17.6802 0.918479 17.8119 1.25 17.8119H3.6625C3.89682 18.3101 4.26808 18.7314 4.73291 19.0264C5.19774 19.3215 5.73693 19.4782 6.2875 19.4782C6.83807 19.4782 7.37726 19.3215 7.84209 19.0264C8.30692 18.7314 8.67818 18.3101 8.9125 17.8119H18.75C19.0815 17.8119 19.3995 17.6802 19.6339 17.4458C19.8683 17.2114 20 16.8934 20 16.5619C20 16.2304 19.8683 15.9125 19.6339 15.678C19.3995 15.4436 19.0815 15.3119 18.75 15.3119H8.91667C8.68121 14.8137 8.30912 14.3925 7.84368 14.0975C7.37823 13.8024 6.83858 13.6456 6.2875 13.6453Z" fill="#939393"/>
</g>
<defs>
<clipPath id="clip0_236_459">
<rect width="20" height="20" fill="white"/>
</clipPath>
</defs>
</svg>
