<svg width="20" height="20" viewBox="0 0 20 20" fill="none" xmlns="http://www.w3.org/2000/svg">
<g clip-path="url(#clip0_236_469)">
<path d="M5.70999 19.531C5.07399 19.5282 4.45523 19.324 3.94249 18.9477C3.4185 18.5791 3.0275 18.0512 2.82766 17.4425C2.62781 16.8338 2.6298 16.1768 2.83332 15.5694L3.80832 12.5535L1.24166 10.6769C0.727027 10.3009 0.344507 9.77172 0.148826 9.16514C-0.0468541 8.55857 -0.0456676 7.90565 0.152216 7.29979C0.3501 6.69393 0.734541 6.16619 1.25054 5.79206C1.76653 5.41793 2.38764 5.2166 3.02499 5.21686H6.16666L7.12082 2.24185C7.31665 1.63264 7.70078 1.10129 8.21789 0.724338C8.735 0.347388 9.35841 0.144287 9.99832 0.144287C10.6382 0.144287 11.2616 0.347388 11.7788 0.724338C12.2959 1.10129 12.68 1.63264 12.8758 2.24185L13.8333 5.21686H16.975C17.6123 5.21677 18.2333 5.41824 18.7491 5.79243C19.265 6.16662 19.6493 6.69437 19.8471 7.30019C20.0448 7.906 20.046 8.55885 19.8503 9.16534C19.6546 9.77183 19.2721 10.3009 18.7575 10.6769L16.1917 12.5535L17.1667 15.5694C17.3632 16.1777 17.3618 16.8327 17.1625 17.4402C16.9633 18.0477 16.5765 18.5763 16.0578 18.95C15.5391 19.3238 14.9153 19.5234 14.2759 19.5201C13.6366 19.5168 13.0148 19.3109 12.5 18.9319L9.99999 17.0935L7.49999 18.9327C6.98271 19.3185 6.35531 19.5282 5.70999 19.531ZM3.02499 7.71686C2.915 7.71684 2.80781 7.7516 2.71875 7.81616C2.6297 7.88072 2.56333 7.97178 2.52913 8.07632C2.49493 8.18086 2.49465 8.29354 2.52833 8.39826C2.56201 8.50297 2.62792 8.59435 2.71666 8.65936L6.01332 11.0685C6.2256 11.2237 6.38352 11.4419 6.46461 11.6921C6.54571 11.9423 6.54584 12.2116 6.46499 12.4619L5.21499 16.3369C5.1803 16.442 5.17995 16.5554 5.21398 16.6607C5.248 16.766 5.31465 16.8578 5.40428 16.9228C5.49391 16.9877 5.60187 17.0225 5.71255 17.022C5.82324 17.0215 5.93091 16.9859 6.01999 16.9202L9.26082 14.536C9.47552 14.378 9.7351 14.2928 10.0017 14.2928C10.2682 14.2928 10.5278 14.378 10.7425 14.536L13.9833 16.9194C14.0723 16.9857 14.1801 17.0218 14.2911 17.0226C14.402 17.0233 14.5103 16.9886 14.6002 16.9235C14.69 16.8584 14.7567 16.7663 14.7906 16.6606C14.8244 16.5549 14.8236 16.4412 14.7883 16.336L13.5383 12.461C13.4575 12.2108 13.4576 11.9414 13.5387 11.6913C13.6198 11.4411 13.7777 11.2229 13.99 11.0677L17.2858 8.65852C17.3745 8.59356 17.4404 8.50225 17.4741 8.39762C17.5078 8.29299 17.5076 8.18039 17.4735 8.07588C17.4394 7.97138 17.3732 7.88032 17.2842 7.81569C17.1953 7.75107 17.0882 7.71619 16.9783 7.71602H12.9167C12.6519 7.71596 12.394 7.63183 12.1802 7.47578C11.9663 7.31972 11.8075 7.09979 11.7267 6.84769L10.5 3.00519C10.4662 2.90002 10.3999 2.80829 10.3107 2.74322C10.2214 2.67814 10.1138 2.64308 10.0033 2.64308C9.89286 2.64308 9.78525 2.67814 9.696 2.74322C9.60674 2.80829 9.54044 2.90002 9.50666 3.00519L8.27082 6.84852C8.19012 7.10022 8.0317 7.31986 7.81834 7.47588C7.60497 7.63189 7.34765 7.71626 7.08332 7.71686H3.02499Z" fill="#939393"/>
</g>
<defs>
<clipPath id="clip0_236_469">
<rect width="20" height="20" fill="white"/>
</clipPath>
</defs>
</svg>
