<svg width="20" height="20" viewBox="0 0 20 20" fill="none" xmlns="http://www.w3.org/2000/svg">
<g clip-path="url(#clip0_236_419)">
<path d="M9.54368 11.6824C5.99223 12.0034 3.28653 15.0043 3.33368 18.5699V18.7507C3.33368 19.4411 3.89332 20.0007 4.58368 20.0007C5.27403 20.0007 5.83368 19.4411 5.83368 18.7507V18.5199C5.7961 16.3306 7.41172 14.4637 9.58368 14.1866C11.8764 13.9592 13.9193 15.6335 14.1466 17.9262C14.1601 18.0618 14.1669 18.1979 14.167 18.3341V18.7507C14.167 19.4411 14.7266 20.0007 15.417 20.0007C16.1073 20.0007 16.667 19.4411 16.667 18.7507V18.334C16.6629 14.648 13.6715 11.6632 9.98547 11.6672C9.83809 11.6674 9.69075 11.6725 9.54368 11.6824Z" fill="#939393"/>
<path d="M10.0004 10C12.7618 10 15.0004 7.76141 15.0004 5C15.0004 2.23859 12.7618 0 10.0004 0C7.23896 0 5.00037 2.23859 5.00037 5C5.0031 7.76027 7.24009 9.99723 10.0004 10ZM10.0004 2.5C11.3811 2.5 12.5004 3.6193 12.5004 5C12.5004 6.3807 11.3811 7.5 10.0004 7.5C8.61966 7.5 7.50037 6.3807 7.50037 5C7.50037 3.6193 8.61966 2.5 10.0004 2.5Z" fill="#939393"/>
</g>
<defs>
<clipPath id="clip0_236_419">
<rect width="20" height="20" fill="white"/>
</clipPath>
</defs>
</svg>
