<svg width="20" height="20" viewBox="0 0 20 20" fill="none" xmlns="http://www.w3.org/2000/svg">
<g clip-path="url(#clip0_236_474)">
<path d="M6.66667 17.5H2.84083C2.75051 17.4998 2.66394 17.4638 2.60007 17.3999C2.5362 17.3361 2.50022 17.2495 2.5 17.1592V2.84083C2.50022 2.75051 2.5362 2.66394 2.60007 2.60007C2.66394 2.5362 2.75051 2.50022 2.84083 2.5H6.66667C6.99819 2.5 7.31613 2.3683 7.55055 2.13388C7.78497 1.89946 7.91667 1.58152 7.91667 1.25C7.91667 0.918479 7.78497 0.600537 7.55055 0.366117C7.31613 0.131696 6.99819 0 6.66667 0L2.84083 0C2.08767 0.000882185 1.3656 0.300467 0.833035 0.833035C0.300467 1.3656 0.000882185 2.08767 0 2.84083L0 17.1592C0.000882185 17.9123 0.300467 18.6344 0.833035 19.167C1.3656 19.6995 2.08767 19.9991 2.84083 20H6.66667C6.99819 20 7.31613 19.8683 7.55055 19.6339C7.78497 19.3995 7.91667 19.0815 7.91667 18.75C7.91667 18.4185 7.78497 18.1005 7.55055 17.8661C7.31613 17.6317 6.99819 17.5 6.66667 17.5Z" fill="#939393"/>
<path d="M18.9018 7.34771L15.6668 4.11521C15.5507 3.99915 15.4129 3.9071 15.2612 3.84431C15.1095 3.78153 14.9469 3.74923 14.7828 3.74927C14.6186 3.74931 14.456 3.78168 14.3044 3.84454C14.1527 3.9074 14.0149 3.99951 13.8989 4.11562C13.7828 4.23173 13.6908 4.36957 13.628 4.52125C13.5652 4.67294 13.5329 4.8355 13.533 4.99967C13.533 5.33122 13.6648 5.64915 13.8993 5.88354L16.7426 8.72604L5.41681 8.74937C5.08529 8.74937 4.76735 8.88107 4.53293 9.11549C4.2985 9.34991 4.16681 9.66785 4.16681 9.99937C4.16681 10.3309 4.2985 10.6488 4.53293 10.8833C4.76735 11.1177 5.08529 11.2494 5.41681 11.2494V11.2494L16.7885 11.2285L13.8993 14.1177C13.6786 14.3548 13.5586 14.6682 13.5644 14.9921C13.5703 15.3159 13.7016 15.6248 13.9308 15.8537C14.1599 16.0826 14.4689 16.2137 14.7928 16.2192C15.1166 16.2248 15.43 16.1045 15.6668 15.8835L18.8993 12.651C19.2475 12.3028 19.5238 11.8894 19.7122 11.4344C19.9007 10.9795 19.9977 10.4918 19.9977 9.99937C19.9977 9.50691 19.9007 9.01927 19.7122 8.5643C19.5238 8.10933 19.2475 7.69593 18.8993 7.34771H18.9018Z" fill="#939393"/>
</g>
<defs>
<clipPath id="clip0_236_474">
<rect width="20" height="20" fill="white"/>
</clipPath>
</defs>
</svg>
