<svg width="20" height="20" viewBox="0 0 20 20" fill="none" xmlns="http://www.w3.org/2000/svg">
<g clip-path="url(#clip0_235_296)">
<path d="M15.4167 1.66667H15V1.25C15 0.918479 14.8683 0.600537 14.6339 0.366117C14.3995 0.131696 14.0815 0 13.75 0V0C13.4185 0 13.1005 0.131696 12.8661 0.366117C12.6317 0.600537 12.5 0.918479 12.5 1.25V1.66667H7.5V1.25C7.5 0.918479 7.3683 0.600537 7.13388 0.366117C6.89946 0.131696 6.58152 0 6.25 0V0C5.91848 0 5.60054 0.131696 5.36612 0.366117C5.1317 0.600537 5 0.918479 5 1.25V1.66667H4.58333C3.36776 1.66667 2.20197 2.14955 1.34243 3.00909C0.482886 3.86864 0 5.03442 0 6.25L0 15.4167C0 16.6322 0.482886 17.798 1.34243 18.6576C2.20197 19.5171 3.36776 20 4.58333 20H15.4167C16.6322 20 17.798 19.5171 18.6576 18.6576C19.5171 17.798 20 16.6322 20 15.4167V6.25C20 5.03442 19.5171 3.86864 18.6576 3.00909C17.798 2.14955 16.6322 1.66667 15.4167 1.66667V1.66667ZM15.4167 17.5H4.58333C4.0308 17.5 3.50089 17.2805 3.11019 16.8898C2.71949 16.4991 2.5 15.9692 2.5 15.4167V8.33333H17.5V15.4167C17.5 15.9692 17.2805 16.4991 16.8898 16.8898C16.4991 17.2805 15.9692 17.5 15.4167 17.5Z" fill="white"/>
</g>
<defs>
<clipPath id="clip0_235_296">
<rect width="20" height="20" fill="white"/>
</clipPath>
</defs>
</svg>
