<svg width="18" height="18" viewBox="0 0 18 18" fill="none" xmlns="http://www.w3.org/2000/svg">
<g clip-path="url(#clip0_236_210)">
<path d="M17.231 6.52142L11.9165 1.20693C10.3045 -0.401008 7.69513 -0.401008 6.08305 1.20693L0.768557 6.52142C0.274683 7.01266 -0.00213715 7.68105 -0.000203561 8.37767V16.1611C0.00144878 17.1771 0.825088 18.0001 1.84107 18.0009H16.1585C17.1745 18.0001 17.9981 17.1771 17.9998 16.1611V8.37767C18.0017 7.68105 17.7249 7.01266 17.231 6.52142ZM15.7498 15.7509H11.9998V13.3644C11.9998 11.7829 10.7178 10.5009 9.13629 10.5009H8.8633C7.28184 10.5009 5.9998 11.7829 5.9998 13.3644V15.7509H2.24979V8.37767C2.25004 8.27821 2.28934 8.18287 2.3593 8.11217L7.67379 2.79768C8.40592 2.06534 9.59311 2.0652 10.3254 2.79733C10.3256 2.79743 10.3257 2.79757 10.3258 2.79768L15.6403 8.11217C15.7102 8.18287 15.7496 8.27821 15.7498 8.37767V15.7509H15.7498Z" fill="white"/>
</g>
<defs>
<clipPath id="clip0_236_210">
<rect width="18" height="18" fill="white"/>
</clipPath>
</defs>
</svg>
