<svg width="20" height="20" viewBox="0 0 20 20" fill="none" xmlns="http://www.w3.org/2000/svg">
<g clip-path="url(#clip0_236_441)">
<path d="M10.0002 20.0002C9.37082 20.0051 8.75571 19.8126 8.24147 19.4496C7.72723 19.0866 7.33975 18.5716 7.13356 17.9769C7.10827 17.905 7.068 17.8393 7.01542 17.7841C6.96284 17.729 6.89915 17.6856 6.82856 17.6569C6.75862 17.6269 6.68304 17.6123 6.60696 17.6142C6.53088 17.6161 6.45611 17.6343 6.38773 17.6677C5.82024 17.9371 5.18328 18.0243 4.56427 17.9173C3.94525 17.8104 3.37451 17.5144 2.93036 17.0702C2.4862 16.626 2.19041 16.0552 2.08355 15.4361C1.9767 14.8171 2.06403 14.1801 2.33356 13.6127C2.36674 13.5438 2.38502 13.4686 2.38721 13.3921C2.38941 13.3156 2.37547 13.2395 2.34631 13.1687C2.31714 13.098 2.2734 13.0342 2.21794 12.9814C2.16248 12.9287 2.09653 12.8883 2.02439 12.8627C1.43246 12.6522 0.920202 12.2637 0.55795 11.7504C0.195699 11.2371 0.0012207 10.6243 0.0012207 9.99605C0.0012207 9.36781 0.195699 8.75498 0.55795 8.2417C0.920202 7.72842 1.43246 7.33986 2.02439 7.12939C2.09637 7.10364 2.16215 7.06306 2.21745 7.01028C2.27275 6.9575 2.31634 6.89369 2.34541 6.82298C2.37448 6.75227 2.38837 6.67625 2.38618 6.59984C2.384 6.52342 2.36579 6.44832 2.33273 6.37939C2.06617 5.8122 1.98121 5.17656 2.08945 4.55928C2.1977 3.942 2.49388 3.37319 2.93752 2.93054C3.38117 2.4879 3.95065 2.19302 4.56817 2.08617C5.18569 1.97932 5.82115 2.06571 6.38773 2.33356C6.45669 2.36673 6.53186 2.38501 6.60836 2.38721C6.68485 2.38941 6.76095 2.37547 6.8317 2.3463C6.90245 2.31714 6.96627 2.2734 7.019 2.21794C7.07172 2.16247 7.11218 2.09653 7.13773 2.02439C7.3482 1.43246 7.73676 0.920201 8.25004 0.55795C8.76332 0.195699 9.37616 0.0012207 10.0044 0.0012207C10.6326 0.0012207 11.2455 0.195699 11.7587 0.55795C12.272 0.920201 12.6606 1.43246 12.8711 2.02439C12.8966 2.09653 12.9371 2.16247 12.9898 2.21794C13.0425 2.2734 13.1063 2.31714 13.1771 2.3463C13.2478 2.37547 13.3239 2.38941 13.4004 2.38721C13.4769 2.38501 13.5521 2.36673 13.6211 2.33356C14.1882 2.06716 14.8237 1.9823 15.4408 2.09054C16.0579 2.19879 16.6266 2.49487 17.0692 2.93837C17.5118 3.38186 17.8067 3.95115 17.9137 4.5685C18.0206 5.18585 17.9345 5.82117 17.6669 6.38772C17.6334 6.45664 17.615 6.53185 17.6126 6.60842C17.6103 6.68499 17.6242 6.76119 17.6534 6.83201C17.6826 6.90284 17.7264 6.96669 17.782 7.01937C17.8376 7.07206 17.9038 7.11239 17.9761 7.13772C18.568 7.3482 19.0803 7.73675 19.4425 8.25003C19.8048 8.76331 19.9992 9.37615 19.9992 10.0044C19.9992 10.6326 19.8048 11.2455 19.4425 11.7587C19.0803 12.272 18.568 12.6606 17.9761 12.871C17.9038 12.8964 17.8376 12.9367 17.782 12.9894C17.7264 13.0421 17.6826 13.1059 17.6534 13.1768C17.6242 13.2476 17.6103 13.3238 17.6126 13.4003C17.615 13.4769 17.6334 13.5521 17.6669 13.621C17.9333 14.1881 18.0182 14.8236 17.9099 15.4408C17.8017 16.0579 17.5056 16.6266 17.0621 17.0692C16.6186 17.5117 16.0493 17.8067 15.432 17.9136C14.8146 18.0206 14.1793 17.9344 13.6127 17.6669C13.544 17.6346 13.4694 17.6169 13.3935 17.615C13.3176 17.6132 13.2421 17.6271 13.1719 17.656C13.1013 17.6848 13.0376 17.7281 12.985 17.7833C12.9325 17.8385 12.8922 17.9042 12.8669 17.976C12.6607 18.5708 12.2733 19.086 11.7591 19.4491C11.2448 19.8122 10.6297 20.0049 10.0002 20.0002ZM6.62106 15.116C7.24939 15.1157 7.8624 15.31 8.37586 15.6721C8.88932 16.0343 9.27803 16.5465 9.48856 17.1385C9.52208 17.2468 9.59041 17.3409 9.68294 17.4063C9.77547 17.4717 9.88701 17.5047 10.0002 17.5002C10.1134 17.5047 10.225 17.4717 10.3175 17.4063C10.41 17.3409 10.4784 17.2468 10.5119 17.1385C10.6547 16.7373 10.8801 16.3706 11.1736 16.0619C11.467 15.7533 11.8219 15.5097 12.2154 15.3468C12.6089 15.1839 13.0322 15.1054 13.4579 15.1163C13.8836 15.1272 14.3023 15.2274 14.6869 15.4102C14.7881 15.458 14.9017 15.4734 15.012 15.4542C15.1223 15.4351 15.224 15.3823 15.3031 15.3031C15.3823 15.2239 15.4351 15.1223 15.4542 15.012C15.4734 14.9016 15.458 14.7881 15.4102 14.6869C15.2274 14.3023 15.1272 13.8836 15.1163 13.4579C15.1054 13.0321 15.1839 12.6089 15.3468 12.2154C15.5097 11.8219 15.7533 11.467 16.062 11.1735C16.3706 10.8801 16.7374 10.6547 17.1386 10.5119C17.2445 10.4746 17.3362 10.4053 17.4011 10.3137C17.4659 10.222 17.5008 10.1125 17.5008 10.0002C17.5008 9.88793 17.4659 9.77841 17.4011 9.68677C17.3362 9.59512 17.2445 9.52586 17.1386 9.48855C16.7374 9.34573 16.3706 9.12032 16.062 8.82689C15.7533 8.53346 15.5097 8.17853 15.3468 7.78505C15.1839 7.39157 15.1054 6.9683 15.1163 6.54257C15.1272 6.11685 15.2274 5.69816 15.4102 5.31355C15.458 5.21232 15.4734 5.09878 15.4542 4.98848C15.4351 4.87818 15.3823 4.77649 15.3031 4.69732C15.224 4.61815 15.1223 4.56537 15.012 4.5462C14.9017 4.52703 14.7881 4.54241 14.6869 4.59022C14.3023 4.77308 13.8836 4.87321 13.4579 4.88414C13.0322 4.89506 12.6089 4.81655 12.2154 4.65366C11.8219 4.49077 11.467 4.24713 11.1736 3.9385C10.8801 3.62986 10.6547 3.26309 10.5119 2.86189C10.4746 2.75599 10.4053 2.66427 10.3137 2.5994C10.222 2.53452 10.1125 2.49968 10.0002 2.49968C9.88794 2.49968 9.77842 2.53452 9.68678 2.5994C9.59513 2.66427 9.52588 2.75599 9.48856 2.86189C9.34583 3.26306 9.12051 3.62982 8.82716 3.93845C8.53381 4.24708 8.17895 4.49072 7.78554 4.65361C7.39212 4.81651 6.9689 4.89504 6.54324 4.88412C6.11757 4.8732 5.69894 4.77307 5.31439 4.59022C5.21313 4.54212 5.09946 4.52652 4.98899 4.54557C4.87851 4.56461 4.77662 4.61736 4.6973 4.69659C4.61799 4.77582 4.56512 4.87764 4.54595 4.98809C4.52678 5.09855 4.54224 5.21223 4.59023 5.31355C4.77297 5.69813 4.87303 6.11675 4.88395 6.54239C4.89487 6.96804 4.81639 7.39124 4.6536 7.78467C4.49081 8.1781 4.24732 8.53302 3.93884 8.82651C3.63037 9.12 3.26377 9.34553 2.86273 9.48855C2.75682 9.52586 2.66511 9.59512 2.60023 9.68677C2.53536 9.77841 2.50051 9.88793 2.50051 10.0002C2.50051 10.1125 2.53536 10.222 2.60023 10.3137C2.66511 10.4053 2.75682 10.4746 2.86273 10.5119C3.26393 10.6547 3.6307 10.8801 3.93933 11.1735C4.24797 11.467 4.49161 11.8219 4.6545 12.2154C4.81739 12.6089 4.8959 13.0321 4.88498 13.4579C4.87405 13.8836 4.77392 14.3023 4.59106 14.6869C4.54308 14.7882 4.52761 14.9019 4.54678 15.0123C4.56595 15.1228 4.61882 15.2246 4.69814 15.3038C4.77746 15.3831 4.87934 15.4358 4.98982 15.4549C5.1003 15.4739 5.21396 15.4583 5.31523 15.4102C5.72331 15.2165 6.16935 15.1161 6.62106 15.116Z" fill="#939393"/>
</g>
<defs>
<clipPath id="clip0_236_441">
<rect width="20" height="20" fill="white"/>
</clipPath>
</defs>
</svg>
