<svg width="20" height="20" viewBox="0 0 20 20" fill="none" xmlns="http://www.w3.org/2000/svg">
<g clip-path="url(#clip0_247_556)">
<path d="M12.0834 20C11.857 20.0003 11.6348 19.9387 11.4409 19.8217L7.27426 17.3217C7.08907 17.2107 6.93579 17.0537 6.82933 16.8659C6.72286 16.6781 6.66685 16.4659 6.66676 16.25V11.9458L1.69509 5.8625C1.1353 5.22034 0.828931 4.39606 0.833423 3.54417C0.834525 2.60453 1.20828 1.7037 1.8727 1.03928C2.53712 0.374859 3.43796 0.00110273 4.37759 0L15.6226 0C16.3058 0.000248701 16.9743 0.1979 17.5478 0.569173C18.1213 0.940446 18.5753 1.46952 18.8552 2.09275C19.1351 2.71597 19.2289 3.40679 19.1254 4.08208C19.0219 4.75738 18.7254 5.38838 18.2718 5.89917L13.3334 11.985V18.75C13.3334 19.0815 13.2017 19.3995 12.9673 19.6339C12.7329 19.8683 12.4149 20 12.0834 20ZM9.16676 15.5417L10.8334 16.5417V11.5417C10.8332 11.2546 10.9318 10.9763 11.1126 10.7533L16.3668 4.28083C16.5559 4.08179 16.663 3.81873 16.6668 3.54417C16.6663 3.26737 16.5562 3.00204 16.3604 2.80632C16.1647 2.61059 15.8994 2.50044 15.6226 2.5H4.37759C4.17633 2.5002 3.9794 2.55851 3.81049 2.66793C3.64157 2.77735 3.50784 2.93322 3.42537 3.11681C3.34291 3.30041 3.31521 3.5039 3.34561 3.70286C3.37602 3.90181 3.46322 4.08775 3.59676 4.23833L8.88509 10.7092C9.06734 10.9324 9.16684 11.2118 9.16676 11.5V15.5417Z" fill="#1C1C1C"/>
</g>
<defs>
<clipPath id="clip0_247_556">
<rect width="20" height="20" fill="white"/>
</clipPath>
</defs>
</svg>
