<svg width="20" height="20" viewBox="0 0 20 20" fill="none" xmlns="http://www.w3.org/2000/svg">
<g clip-path="url(#clip0_236_437)">
<path d="M7.0616 0C6.1551 0 5.26896 0.268808 4.51524 0.772431C3.76152 1.27605 3.17406 1.99187 2.82716 2.82937C2.48026 3.66686 2.38949 4.58842 2.56634 5.4775C2.74319 6.36658 3.17971 7.18325 3.8207 7.82424C4.46169 8.46523 5.27836 8.90175 6.16744 9.0786C7.05652 9.25545 7.97807 9.16468 8.81556 8.81778C9.65306 8.47088 10.3689 7.88342 10.8725 7.1297C11.3761 6.37597 11.6449 5.48983 11.6449 4.58333C11.6436 3.36816 11.1603 2.20314 10.301 1.34389C9.44179 0.484634 8.27677 0.00132347 7.0616 0V0ZM7.0616 6.66667C6.64956 6.66667 6.24677 6.54448 5.90416 6.31556C5.56156 6.08664 5.29454 5.76127 5.13685 5.38059C4.97917 4.99991 4.93792 4.58102 5.0183 4.1769C5.09869 3.77277 5.2971 3.40155 5.58846 3.11019C5.87982 2.81883 6.25104 2.62042 6.65516 2.54003C7.05929 2.45964 7.47818 2.5009 7.85886 2.65858C8.23954 2.81627 8.56491 3.08329 8.79383 3.4259C9.02275 3.7685 9.14493 4.17129 9.14493 4.58333C9.14493 4.85692 9.09104 5.12783 8.98635 5.38059C8.88165 5.63335 8.72819 5.86302 8.53474 6.05647C8.34128 6.24993 8.11162 6.40339 7.85886 6.50808C7.6061 6.61278 7.33519 6.66667 7.0616 6.66667Z" fill="#939393"/>
<path d="M7.47667 11.9594C7.54003 12.2847 7.4716 12.6219 7.28642 12.8967C7.10124 13.1716 6.81447 13.3617 6.48917 13.4252C5.36567 13.6467 4.35385 14.2512 3.62635 15.1355C2.89885 16.0199 2.50076 17.1292 2.5 18.2744V18.7502C2.5 19.0817 2.3683 19.3997 2.13388 19.6341C1.89946 19.8685 1.58152 20.0002 1.25 20.0002C0.918479 20.0002 0.600537 19.8685 0.366117 19.6341C0.131696 19.3997 0 19.0817 0 18.7502L0 18.2744C0.00162619 16.5494 0.601714 14.8784 1.69789 13.5466C2.79406 12.2147 4.31839 11.3044 6.01083 10.971C6.17198 10.9397 6.33772 10.9403 6.4986 10.973C6.65948 11.0057 6.81235 11.0698 6.94846 11.1616C7.08458 11.2534 7.20129 11.371 7.29192 11.5079C7.38255 11.6448 7.44533 11.7982 7.47667 11.9594V11.9594Z" fill="#939393"/>
<path d="M14.1665 8.33276C13.0127 8.33276 11.8849 8.67488 10.9256 9.31586C9.96635 9.95683 9.21868 10.8679 8.77717 11.9338C8.33566 12.9997 8.22014 14.1726 8.44522 15.3041C8.6703 16.4357 9.22587 17.4751 10.0417 18.2909C10.8575 19.1067 11.8969 19.6623 13.0284 19.8873C14.16 20.1124 15.3329 19.9969 16.3988 19.5554C17.4647 19.1139 18.3757 18.3662 19.0167 17.4069C19.6577 16.4476 19.9998 15.3198 19.9998 14.1661C19.9998 12.619 19.3852 11.1353 18.2913 10.0413C17.1973 8.94735 15.7136 8.33276 14.1665 8.33276ZM16.8698 16.8703C16.7745 17.0374 16.6418 17.1803 16.4822 17.2878C16.3226 17.3952 16.1403 17.4644 15.9496 17.4899C15.7589 17.5154 15.5648 17.4965 15.3826 17.4347C15.2004 17.3729 15.0348 17.2698 14.899 17.1336L12.8656 15.1003C12.7496 14.9841 12.6575 14.8463 12.5948 14.6946C12.532 14.5429 12.4997 14.3803 12.4998 14.2161V11.2994C12.4998 10.9679 12.6315 10.65 12.8659 10.4155C13.1003 10.1811 13.4183 10.0494 13.7498 10.0494C14.0813 10.0494 14.3993 10.1811 14.6337 10.4155C14.8681 10.65 14.9998 10.9679 14.9998 11.2994V13.6978L16.6148 15.3128C16.8223 15.5085 16.9596 15.7669 17.0057 16.0484C17.0518 16.3298 17.004 16.6186 16.8698 16.8703V16.8703Z" fill="#939393"/>
</g>
<defs>
<clipPath id="clip0_236_437">
<rect width="20" height="20" fill="white"/>
</clipPath>
</defs>
</svg>
