<svg width="20" height="20" viewBox="0 0 20 20" fill="none" xmlns="http://www.w3.org/2000/svg">
<g clip-path="url(#clip0_262_1445)">
<path d="M17.5 9.58333V12.5H15C14.337 12.5 13.7011 12.7634 13.2322 13.2322C12.7634 13.7011 12.5 14.337 12.5 15V17.5H3.75C3.41848 17.5 3.10054 17.3683 2.86612 17.1339C2.6317 16.8995 2.5 16.5815 2.5 16.25V3.75C2.5 3.41848 2.6317 3.10054 2.86612 2.86612C3.10054 2.6317 3.41848 2.5 3.75 2.5H11.25C11.5815 2.5 11.8995 2.3683 12.1339 2.13388C12.3683 1.89946 12.5 1.58152 12.5 1.25C12.5 0.918479 12.3683 0.600537 12.1339 0.366116C11.8995 0.131696 11.5815 0 11.25 0L3.75 0C2.75544 0 1.80161 0.395088 1.09835 1.09835C0.395088 1.80161 0 2.75544 0 3.75L0 16.25C0 17.2446 0.395088 18.1984 1.09835 18.9016C1.80161 19.6049 2.75544 20 3.75 20H13.7367C14.7308 20 15.6843 19.6052 16.3875 18.9025L18.9017 16.3883C19.6047 15.6853 19.9998 14.7318 20 13.7375V9.58333C20 9.25181 19.8683 8.93387 19.6339 8.69945C19.3995 8.46503 19.0815 8.33333 18.75 8.33333C18.4185 8.33333 18.1005 8.46503 17.8661 8.69945C17.6317 8.93387 17.5 9.25181 17.5 9.58333Z" fill="#939393"/>
<path d="M14.8275 1.49416L4.41079 11.9108C4.2545 12.0671 4.16667 12.279 4.16663 12.5V15C4.16663 15.221 4.25442 15.433 4.4107 15.5893C4.56698 15.7455 4.77895 15.8333 4.99996 15.8333H7.49996C7.72096 15.8333 7.93288 15.7455 8.08913 15.5892L18.365 5.31333C18.7127 4.97803 18.9683 4.55892 19.1072 4.09628C19.2462 3.63365 19.2637 3.14306 19.1583 2.67166C19.0403 2.23325 18.8095 1.8334 18.4889 1.51195C18.1683 1.1905 17.769 0.958672 17.3309 0.839557C16.8928 0.720441 16.4312 0.718198 15.9919 0.833051C15.5527 0.947904 15.1512 1.17584 14.8275 1.49416Z" fill="#939393"/>
</g>
<defs>
<clipPath id="clip0_262_1445">
<rect width="20" height="20" fill="white"/>
</clipPath>
</defs>
</svg>
