<svg width="20" height="20" viewBox="0 0 20 20" fill="none" xmlns="http://www.w3.org/2000/svg">
<g clip-path="url(#clip0_236_428)">
<path d="M6.21041 11.6811C2.65908 12.0021 -0.0465401 15.0029 0.000606822 18.5684V18.7492C0.000606822 19.4396 0.560238 19.9992 1.25057 19.9992C1.9409 19.9992 2.50053 19.4396 2.50053 18.7492V18.5184C2.46295 16.3292 4.07853 14.4624 6.25041 14.1852C8.54304 13.9579 10.5859 15.6321 10.8132 17.9248C10.8267 18.0603 10.8335 18.1964 10.8336 18.3326V18.7493C10.8336 19.4396 11.3932 19.9992 12.0836 19.9992C12.7739 19.9992 13.3335 19.4396 13.3335 18.7493V18.3326C13.3294 14.6467 10.3381 11.662 6.6522 11.666C6.50478 11.6662 6.35744 11.6712 6.21041 11.6811Z" fill="#939393"/>
<path d="M6.66708 10.0002C9.4284 10.0002 11.6669 7.76165 11.6669 5.00033C11.6669 2.23901 9.4284 0.000488281 6.66708 0.000488281C3.90576 0.000488281 1.66724 2.23901 1.66724 5.00033C1.67001 7.76052 3.90689 9.9974 6.66708 10.0002ZM6.66708 2.50041C8.04774 2.50041 9.167 3.61967 9.167 5.00033C9.167 6.38099 8.04774 7.50025 6.66708 7.50025C5.28642 7.50025 4.16716 6.38099 4.16716 5.00033C4.16716 3.61967 5.28642 2.50041 6.66708 2.50041Z" fill="#939393"/>
<path d="M18.7502 8.33366H17.5002V7.0837C17.5002 6.39337 16.9406 5.83374 16.2502 5.83374C15.5599 5.83374 15.0003 6.39337 15.0003 7.0837V8.33366H13.7503C13.06 8.33366 12.5004 8.89329 12.5004 9.58362C12.5004 10.2739 13.06 10.8336 13.7503 10.8336H15.0003V12.0835C15.0003 12.7739 15.5599 13.3335 16.2502 13.3335C16.9406 13.3335 17.5002 12.7739 17.5002 12.0835V10.8336H18.7502C19.4405 10.8336 20.0001 10.2739 20.0001 9.58362C20.0001 8.89329 19.4405 8.33366 18.7502 8.33366Z" fill="#939393"/>
</g>
<defs>
<clipPath id="clip0_236_428">
<rect width="20" height="20" fill="white"/>
</clipPath>
</defs>
</svg>
