<svg width="40" height="40" viewBox="0 0 40 40" fill="none" xmlns="http://www.w3.org/2000/svg">
<g clip-path="url(#clip0_866_180)">
<path d="M36.2834 14.9138C36.0114 14.8165 35.7629 14.6633 35.5539 14.4639C35.3449 14.2646 35.1801 14.0236 35.0701 13.7565C34.9601 13.4894 34.9074 13.2022 34.9155 12.9135C34.9235 12.6248 34.9921 12.341 35.1167 12.0804C35.595 11.0739 35.7501 9.94392 35.5606 8.8457C35.3712 7.74748 34.8465 6.73482 34.0585 5.9467C33.2706 5.15858 32.258 4.63363 31.1599 4.44392C30.0617 4.2542 28.9317 4.40901 27.925 4.8871C27.6645 5.01147 27.3807 5.07982 27.092 5.08772C26.8034 5.09562 26.5163 5.04289 26.2493 4.93295C25.9823 4.82301 25.7413 4.65829 25.5419 4.44944C25.3425 4.24059 25.1892 3.99224 25.0917 3.72043C24.717 2.67223 24.0275 1.76549 23.1175 1.12438C22.2075 0.483276 21.1215 0.13916 20.0084 0.13916C18.8952 0.13916 17.8093 0.483276 16.8993 1.12438C15.9893 1.76549 15.2997 2.67223 14.925 3.72043C14.8278 3.9924 14.6746 4.24092 14.4752 4.44992C14.2759 4.65892 14.0348 4.82374 13.7678 4.93371C13.5007 5.04368 13.2135 5.09636 12.9248 5.08833C12.6361 5.0803 12.3523 5.01174 12.0917 4.8871C11.0845 4.40522 9.95265 4.2475 8.85208 4.43569C7.7515 4.62387 6.73635 5.14868 5.94647 5.93783C5.15659 6.72698 4.63083 7.74165 4.44163 8.84205C4.25243 9.94245 4.4091 11.0744 4.89004 12.0821C5.01496 12.3426 5.08372 12.6265 5.09188 12.9152C5.10004 13.204 5.04742 13.4913 4.93742 13.7585C4.82742 14.0256 4.6625 14.2667 4.45335 14.466C4.24421 14.6653 3.9955 14.8184 3.72338 14.9154C2.67592 15.2909 1.77002 15.9807 1.12957 16.8906C0.489118 17.8005 0.145386 18.8861 0.145386 19.9988C0.145386 21.1115 0.489118 22.197 1.12957 23.1069C1.77002 24.0168 2.67592 24.7067 3.72338 25.0821C3.99608 25.1785 4.24547 25.3311 4.45537 25.5301C4.66528 25.7291 4.83101 25.97 4.9418 26.2371C5.0526 26.5043 5.10599 26.7918 5.0985 27.0809C5.09102 27.37 5.02284 27.6544 4.89838 27.9154C4.41977 28.9214 4.2642 30.0508 4.45301 31.1487C4.64182 32.2465 5.16576 33.2591 5.95293 34.0474C6.74009 34.8356 7.75191 35.361 8.84953 35.5513C9.94714 35.7416 11.0768 35.5876 12.0834 35.1104C12.3439 34.9858 12.6277 34.9172 12.9165 34.9092C13.2052 34.9012 13.4924 34.9538 13.7594 35.0638C14.0265 35.1738 14.2675 35.3386 14.4669 35.5476C14.6662 35.7566 14.8195 36.0051 14.9167 36.2771C15.2914 37.3253 15.981 38.232 16.891 38.8731C17.801 39.5143 18.8869 39.8584 20 39.8584C21.1132 39.8584 22.1991 39.5143 23.1091 38.8731C24.0191 38.232 24.7087 37.3253 25.0834 36.2771C25.1806 36.0051 25.3339 35.7566 25.5332 35.5476C25.7326 35.3386 25.9736 35.1738 26.2407 35.0638C26.5077 34.9538 26.7949 34.9012 27.0836 34.9092C27.3723 34.9172 27.6562 34.9858 27.9167 35.1104C28.9233 35.5888 30.0532 35.7438 31.1514 35.5544C32.2497 35.3649 33.2623 34.8402 34.0504 34.0523C34.8386 33.2643 35.3635 32.2518 35.5532 31.1536C35.7429 30.0554 35.5881 28.9254 35.11 27.9188C34.9857 27.6582 34.9173 27.3744 34.9094 27.0858C34.9015 26.7971 34.9542 26.51 35.0642 26.243C35.1741 25.976 35.3388 25.735 35.5477 25.5357C35.7566 25.3363 36.0049 25.1829 36.2767 25.0854C37.3249 24.7107 38.2317 24.0212 38.8728 23.1112C39.5139 22.2012 39.858 21.1153 39.858 20.0021C39.858 18.8889 39.5139 17.803 38.8728 16.893C38.2317 15.983 37.3249 15.2934 36.2767 14.9188L36.2834 14.9138Z" fill="#EA9B2A"/>
</g>
<defs>
<clipPath id="clip0_866_180">
<rect width="40" height="40" fill="white"/>
</clipPath>
</defs>
</svg>
