<svg width="20" height="20" viewBox="0 0 20 20" fill="none" xmlns="http://www.w3.org/2000/svg">
<path d="M11.9141 10C11.9141 11.0571 11.0571 11.9141 10 11.9141C8.94289 11.9141 8.08594 11.0571 8.08594 10C8.08594 8.94289 8.94289 8.08594 10 8.08594C11.0571 8.08594 11.9141 8.94289 11.9141 10Z" fill="#1C1C1C"/>
<path d="M14.4763 6.61346C14.3843 6.36404 14.2375 6.13842 14.0468 5.95318C13.8616 5.76244 13.636 5.61566 13.3865 5.52365C13.1842 5.4451 12.8803 5.35154 12.3204 5.32607C11.7148 5.29846 11.5332 5.29248 10 5.29248C8.46666 5.29248 8.28509 5.2983 7.67962 5.32592C7.11978 5.35154 6.81564 5.44506 6.61349 5.52365C6.36403 5.61562 6.1384 5.76241 5.95322 5.95318C5.76248 6.13842 5.61565 6.36404 5.52353 6.61346C5.44498 6.8158 5.35142 7.1199 5.32595 7.67975C5.29833 8.28521 5.29236 8.46678 5.29236 10.0001C5.29236 11.5333 5.29833 11.7149 5.32595 12.3205C5.35142 12.8804 5.44498 13.1844 5.52353 13.3867C5.6156 13.6361 5.76237 13.8617 5.95306 14.0469C6.13827 14.2377 6.3639 14.3845 6.61334 14.4765C6.81568 14.5552 7.11978 14.6487 7.67962 14.6742C8.28509 14.7018 8.4665 14.7076 9.99986 14.7076C11.5334 14.7076 11.7149 14.7018 12.3202 14.6742C12.8801 14.6487 13.1842 14.5552 13.3865 14.4765C13.6342 14.3809 13.8591 14.2346 14.0468 14.0469C14.2345 13.8592 14.3808 13.6343 14.4763 13.3867C14.5549 13.1843 14.6485 12.8804 14.6741 12.3205C14.7017 11.7149 14.7075 11.5333 14.7075 10.0001C14.7075 8.46678 14.7017 8.28521 14.6741 7.67975C14.6486 7.1199 14.5551 6.81576 14.4763 6.61346ZM10 12.9486C8.37146 12.9486 7.05126 11.6285 7.05126 9.99998C7.05126 8.37143 8.37146 7.05139 10 7.05139C11.6285 7.05139 12.9486 8.37143 12.9486 9.99998C12.9486 11.6285 11.6285 12.9486 10 12.9486ZM13.0652 7.62389C12.6847 7.62389 12.3761 7.31533 12.3761 6.93482C12.3761 6.55432 12.6847 6.24572 13.0652 6.24572C13.4458 6.24572 13.7543 6.55424 13.7543 6.93479C13.7541 7.31533 13.4458 7.62389 13.0652 7.62389Z" fill="#1C1C1C"/>
<path d="M10 0C4.47801 0 0 4.47801 0 10C0 15.522 4.47801 20 10 20C15.522 20 20 15.522 20 10C20 4.47801 15.522 0 10 0ZM15.7075 12.3674C15.6798 12.9787 15.5826 13.396 15.4407 13.7613C15.2931 14.1427 15.0676 14.4892 14.7784 14.7784C14.4892 15.0676 14.1427 15.2931 13.7613 15.4407C13.3961 15.5826 12.9787 15.6796 12.3675 15.7075C11.7552 15.7355 11.5596 15.7422 10.0002 15.7422C8.44055 15.7422 8.24508 15.7355 7.63258 15.7075C7.02148 15.6796 6.60402 15.5826 6.23883 15.4407C5.85563 15.2965 5.50852 15.0705 5.22172 14.7783C4.92964 14.4915 4.70364 14.1444 4.55949 13.7613C4.41758 13.3961 4.32039 12.9787 4.29262 12.3675C4.26437 11.755 4.25781 11.5595 4.25781 10C4.25781 8.44055 4.26438 8.24492 4.29246 7.63262C4.3202 7.02133 4.41727 6.60402 4.55918 6.23871C4.70338 5.85554 4.92947 5.50847 5.22168 5.22172C5.50844 4.92954 5.85553 4.70348 6.23871 4.55934C6.60402 4.41742 7.02133 4.32039 7.63262 4.29246C8.24492 4.26453 8.44055 4.25781 10 4.25781C11.5595 4.25781 11.7551 4.26453 12.3674 4.29258C12.9787 4.32039 13.396 4.41742 13.7613 4.55918C14.1445 4.7034 14.4916 4.92949 14.7785 5.22168C15.0706 5.50848 15.2965 5.85557 15.4407 6.23871C15.5827 6.60402 15.6798 7.02133 15.7077 7.63262C15.7356 8.24492 15.7422 8.44055 15.7422 10C15.7422 11.5595 15.7356 11.7551 15.7075 12.3674Z" fill="#1C1C1C"/>
</svg>
