<svg width="20" height="20" viewBox="0 0 20 20" fill="none" xmlns="http://www.w3.org/2000/svg">
<g clip-path="url(#clip0_235_260)">
<path d="M4.58332 9.16668C2.05203 9.16668 0 7.11465 0 4.58332C0 2.05199 2.05203 0 4.58332 0C7.11461 0 9.16664 2.05203 9.16664 4.58332C9.16391 7.11352 7.11352 9.16391 4.58332 9.16668ZM4.58332 2.5C3.43273 2.5 2.5 3.43273 2.5 4.58332C2.5 5.73391 3.43273 6.66664 4.58332 6.66664C5.73391 6.66664 6.66664 5.73391 6.66664 4.58332C6.66664 3.43273 5.73395 2.5 4.58332 2.5Z" fill="#1C1C1C"/>
<path d="M15.4167 9.16668C12.8854 9.16668 10.8334 7.11465 10.8334 4.58336C10.8334 2.05207 12.8854 0 15.4167 0C17.948 0 20 2.05203 20 4.58332C19.9972 7.11352 17.9468 9.16391 15.4167 9.16668ZM15.4167 2.5C14.2661 2.5 13.3334 3.43273 13.3334 4.58332C13.3334 5.73391 14.2661 6.66664 15.4167 6.66664C16.5673 6.66664 17.5 5.73395 17.5 4.58332C17.5 3.4327 16.5673 2.5 15.4167 2.5Z" fill="#1C1C1C"/>
<path d="M4.58332 19.9999C2.05203 19.9999 0 17.9479 0 15.4166C0 12.8853 2.05203 10.8333 4.58332 10.8333C7.11461 10.8333 9.16664 12.8853 9.16664 15.4166C9.16391 17.9467 7.11352 19.9971 4.58332 19.9999ZM4.58332 13.3332C3.43273 13.3332 2.5 14.2659 2.5 15.4166C2.5 16.5672 3.43273 17.4999 4.58332 17.4999C5.73391 17.4999 6.66664 16.5672 6.66664 15.4166C6.66664 14.266 5.73395 13.3332 4.58332 13.3332Z" fill="#1C1C1C"/>
<path d="M15.4167 19.9999C12.8854 19.9999 10.8334 17.9479 10.8334 15.4166C10.8334 12.8853 12.8854 10.8333 15.4167 10.8333C17.948 10.8333 20 12.8852 20 15.4166C19.9972 17.9467 17.9468 19.9971 15.4167 19.9999ZM15.4167 13.3332C14.2661 13.3332 13.3334 14.2659 13.3334 15.4165C13.3334 16.5671 14.2661 17.4999 15.4167 17.4999C16.5673 17.4999 17.5 16.5672 17.5 15.4166C17.5 14.266 16.5673 13.3332 15.4167 13.3332Z" fill="#1C1C1C"/>
</g>
<defs>
<clipPath id="clip0_235_260">
<rect width="20" height="20" fill="white"/>
</clipPath>
</defs>
</svg>
