<?xml version="1.0" encoding="UTF-8"?>
<svg xmlns="http://www.w3.org/2000/svg" xmlns:xlink="http://www.w3.org/1999/xlink" xmlns:svgjs="http://svgjs.com/svgjs" version="1.1" width="512" height="512" x="0" y="0" viewBox="0 0 64 64" style="enable-background:new 0 0 512 512" xml:space="preserve" class="">
  <g>
    <path d="M61 55.184v-15.21c1.207-.914 2-2.348 2-3.974a5.006 5.006 0 0 0-6-4.899V27h1.535l1.91-2.866A3.283 3.283 0 0 0 61 22.303a3.306 3.306 0 0 0-2-3.033V11h2V5H38.878l-4.482-3.227c-1.404-1.012-3.39-1.012-4.792 0L25.122 5H3v6h2v8.27a3.306 3.306 0 0 0-2 3.033c0 .653.191 1.287.555 1.832L5.465 27H7v4.101A5.006 5.006 0 0 0 1 36c0 1.627.793 3.061 2 3.974v15.21A2.996 2.996 0 0 0 1 58v5h62v-5a2.996 2.996 0 0 0-2-2.816zM59 55h-2V40.899a4.995 4.995 0 0 0 2 0zm-40-8h-4V33h4zm36 2v2H9v-2zm-26-2h-4V33h4zm10 0h-4V33h4zm10 0h-4V33h4zM9 53h46v2H9zm52-17c0 1.654-1.346 3-3 3s-3-1.346-3-3 1.346-3 3-3 3 1.346 3 3zm-4-17.952L47.211 11H57zM59 7v2H44.434l-2.778-2zM30.773 3.396a2.129 2.129 0 0 1 2.454 0L54.9 19h-3.572L32 4.758 12.672 19H9.1zM47.957 19H16.043L32 7.242zM5 7h17.345l-2.778 2H5zm11.789 4L7 18.048V11zM5.219 23.026A1.302 1.302 0 0 1 6.303 21h51.395a1.304 1.304 0 0 1 1.083 2.026L57.465 25H6.535zM9 27h46v5.026c-1.207.914-2 2.348-2 3.974s.793 3.061 2 3.974V47h-4V31h-8v16h-2V31h-8v16h-2V31h-8v16h-2V31h-8v16H9v-7.026c1.207-.914 2-2.348 2-3.974s-.793-3.061-2-3.974zm-3 6c1.654 0 3 1.346 3 3s-1.346 3-3 3-3-1.346-3-3 1.346-3 3-3zm0 8c.342 0 .677-.035 1-.101V55H5V40.899c.323.066.658.101 1 .101zm55 20H3v-3c0-.551.448-1 1-1h56c.552 0 1 .449 1 1z" fill="#020202" data-original="#000000" class=""/>
    <path d="M29 14c0 1.654 1.346 3 3 3s3-1.346 3-3-1.346-3-3-3-3 1.346-3 3zm4 0a1.001 1.001 0 0 1-2 0 1.001 1.001 0 0 1 2 0z" fill="#020202" data-original="#000000" class=""/>
  </g>
</svg>
