<svg width="427" height="387" viewBox="0 0 427 387" fill="none" xmlns="http://www.w3.org/2000/svg">
<path d="M352.262 114.487C325.794 93.0735 293.839 90.687 267.177 94.3635C239.677 98.4915 217.47 108.747 190.55 123.453C164.34 137.772 134.903 150.156 108.435 154.8C82.2257 160.605 59.0502 158.734 51.6263 170.925C44.7189 181.632 52.2719 212.398 83.7105 245.745C114.181 278.059 168.472 312.954 233.157 309.019C297.389 307.794 348.905 265.998 368.271 222.977C389.123 179.439 377.89 134.74 352.262 114.487Z" fill="#BDE7FF"/>
<path d="M316.175 347.333H336.252C330.377 345.011 324.115 343.656 326.762 338.948C331.862 329.918 350.906 326.499 349.034 318.566C347.162 310.632 334.509 325.209 329.603 316.308C324.696 307.407 344.192 304.053 347.033 294.958C349.938 285.864 339.221 291.475 327.537 288.831C316.756 286.38 336.51 266.449 327.795 264.643C322.631 269.674 315.336 279.672 318.757 294.249C323.922 315.921 319.79 319.727 314.174 327.338C310.559 332.304 316.433 339.335 316.175 347.333Z" fill="#0D9FF0"/>
<path d="M301.263 334.11C291.967 335.142 290.74 343.527 290.676 347.397H316.175C316.498 339.334 310.623 332.369 314.238 327.402C319.855 319.791 323.986 315.986 318.822 294.313C315.336 279.736 322.695 269.674 327.86 264.708C327.085 264.579 326.117 264.514 324.955 264.643C309.655 266.32 312.689 290.057 312.947 295.41C313.27 300.764 300.488 295.862 298.035 305.666C295.582 315.47 313.399 332.756 301.263 334.11Z" fill="#1C1C1C"/>
<path d="M121.863 347.333H99.9139C106.369 344.817 113.212 343.334 110.307 338.109C104.691 328.176 83.8395 324.5 85.9053 315.792C87.9711 307.085 101.786 323.081 107.144 313.341C112.502 303.602 91.1989 299.925 88.0357 289.992C84.8724 280.059 96.557 286.187 109.404 283.284C121.217 280.575 99.5911 258.839 109.145 256.775C114.826 262.257 122.831 273.222 119.022 289.218C113.406 312.954 117.925 317.082 124.058 325.467C127.931 330.885 121.475 338.561 121.863 347.333Z" fill="#0D9FF0"/>
<path d="M138.131 332.82C148.331 333.917 149.622 343.076 149.686 347.333H121.798C121.475 338.561 127.931 330.885 123.929 325.467C117.796 317.147 113.277 313.019 118.893 289.218C122.702 273.222 114.697 262.257 109.016 256.775C109.855 256.581 110.888 256.581 112.179 256.71C128.899 258.516 125.607 284.51 125.284 290.444C124.961 296.313 138.97 290.96 141.617 301.667C144.393 312.438 124.897 331.337 138.131 332.82Z" fill="#1C1C1C"/>
<path d="M311.14 332.82C311.14 339.979 306.233 345.978 299.52 347.655C298.358 347.978 297.196 348.107 295.969 348.107H293.71L153.947 348.236C151.881 348.236 149.88 347.848 148.137 347.074C144.393 345.526 141.423 342.495 139.874 338.754C139.164 337.013 138.776 335.077 138.712 333.013H138.776L138.583 166.023L138.518 97.9755L138.453 55.599C138.453 47.1495 145.232 40.377 153.624 40.377L295.646 40.248C304.039 40.1835 310.881 47.0205 310.881 55.4055L310.946 96.234L309.332 97.8465L309.461 97.9755C310.429 98.943 310.946 100.233 310.946 101.523V106.877V118.745C310.946 120.035 310.43 121.325 309.526 122.292L310.946 123.711V130.548V137.062V144.609C310.752 145.512 310.3 146.286 309.655 146.931L310.946 148.157L311.075 148.285V149.769L311.14 332.82Z" fill="#0D9FF0"/>
<path d="M84.4851 347.72H344.579C345.29 347.72 345.871 347.139 345.871 346.43C345.871 345.72 345.29 345.14 344.579 345.14H84.4851C83.775 345.14 83.194 345.72 83.194 346.43C83.194 347.139 83.775 347.72 84.4851 347.72Z" fill="#1C1C1C"/>
<path d="M302.166 46.182C302.166 40.8285 297.777 36.507 292.483 36.507H156.981C151.623 36.507 147.298 40.8285 147.298 46.182L147.104 315.986C147.104 317.147 147.298 318.243 147.685 319.211C149.041 322.952 152.591 325.661 156.852 325.661H292.289C295.84 325.661 298.939 323.726 300.682 320.888C301.521 319.469 302.037 317.792 302.037 315.986L302.166 46.182Z" fill="#BDE7FF"/>
<path d="M292.225 31.218H156.787C149.105 31.218 142.908 37.41 142.908 45.0855V315.986C142.908 323.661 149.105 329.853 156.787 329.853H292.225C299.907 329.853 306.104 323.661 306.104 315.986V45.0855C306.169 37.4745 299.907 31.218 292.225 31.218ZM301.004 314.244C301.004 319.533 296.679 323.855 291.386 323.855H157.626C152.333 323.855 148.008 319.533 148.008 314.244V47.988C148.008 42.699 152.268 38.442 157.626 38.442H291.45C296.744 38.442 301.069 42.699 301.069 47.988V314.244H301.004Z" fill="#1C1C1C"/>
<path d="M348.776 165.572C348.776 166.152 349.228 166.604 349.809 166.604C350.39 166.604 350.841 166.152 350.841 165.572C350.841 164.991 350.39 164.54 349.809 164.54C349.228 164.54 348.776 164.991 348.776 165.572Z" fill="#0D9FF0"/>
<path d="M340.9 165.572C340.9 166.152 341.352 166.604 341.933 166.604C342.514 166.604 342.966 166.152 342.966 165.572C342.966 164.991 342.514 164.54 341.933 164.54C341.352 164.54 340.9 164.991 340.9 165.572Z" fill="#0D9FF0"/>
<path d="M332.959 165.572C332.959 166.152 333.411 166.604 333.992 166.604C334.573 166.604 335.025 166.152 335.025 165.572C335.025 164.991 334.573 164.54 333.992 164.54C333.476 164.54 332.959 164.991 332.959 165.572Z" fill="#0D9FF0"/>
<path d="M325.084 165.572C325.084 166.152 325.536 166.604 326.117 166.604C326.698 166.604 327.15 166.152 327.15 165.572C327.15 164.991 326.698 164.54 326.117 164.54C325.536 164.54 325.084 164.991 325.084 165.572Z" fill="#0D9FF0"/>
<path d="M352.907 170.022C352.907 170.603 353.359 171.054 353.94 171.054C354.521 171.054 354.973 170.603 354.973 170.022C354.973 169.442 354.521 168.99 353.94 168.99C353.359 168.99 352.907 169.442 352.907 170.022Z" fill="#0D9FF0"/>
<path d="M344.967 170.022C344.967 170.603 345.419 171.054 346 171.054C346.581 171.054 347.033 170.603 347.033 170.022C347.033 169.442 346.581 168.99 346 168.99C345.483 168.99 344.967 169.442 344.967 170.022Z" fill="#0D9FF0"/>
<path d="M337.091 170.022C337.091 170.603 337.543 171.054 338.124 171.054C338.705 171.054 339.157 170.603 339.157 170.022C339.157 169.442 338.705 168.99 338.124 168.99C337.543 168.99 337.091 169.442 337.091 170.022Z" fill="#0D9FF0"/>
<path d="M329.215 170.022C329.215 170.603 329.667 171.054 330.248 171.054C330.829 171.054 331.281 170.603 331.281 170.022C331.281 169.442 330.829 168.99 330.248 168.99C329.667 168.99 329.215 169.442 329.215 170.022Z" fill="#0D9FF0"/>
<path d="M66.9905 302.054C67.5715 302.054 68.0234 301.602 68.0234 301.022C68.0234 300.441 67.5715 299.99 66.9905 299.99C66.4095 299.99 65.9576 300.441 65.9576 301.022C65.9576 301.602 66.4095 302.054 66.9905 302.054Z" fill="#0D9FF0"/>
<path d="M66.9905 309.923C67.5715 309.923 68.0234 309.471 68.0234 308.891C68.0234 308.31 67.5715 307.859 66.9905 307.859C66.4095 307.859 65.9576 308.31 65.9576 308.891C65.9576 309.471 66.4095 309.923 66.9905 309.923Z" fill="#0D9FF0"/>
<path d="M66.9905 317.856C67.5715 317.856 68.0234 317.405 68.0234 316.824C68.0234 316.244 67.5715 315.792 66.9905 315.792C66.4095 315.792 65.9576 316.244 65.9576 316.824C65.9576 317.405 66.4095 317.856 66.9905 317.856Z" fill="#0D9FF0"/>
<path d="M66.9905 325.725C67.5715 325.725 68.0234 325.274 68.0234 324.693C68.0234 324.113 67.5715 323.661 66.9905 323.661C66.4095 323.661 65.9576 324.113 65.9576 324.693C65.9576 325.274 66.4095 325.725 66.9905 325.725Z" fill="#0D9FF0"/>
<path d="M71.4449 297.926C72.0259 297.926 72.4778 297.474 72.4778 296.894C72.4778 296.313 72.0259 295.862 71.4449 295.862C70.8639 295.862 70.412 296.313 70.412 296.894C70.412 297.474 70.8639 297.926 71.4449 297.926Z" fill="#0D9FF0"/>
<path d="M71.4449 305.859C72.0259 305.859 72.4778 305.408 72.4778 304.827C72.4778 304.247 72.0259 303.795 71.4449 303.795C70.8639 303.795 70.412 304.247 70.412 304.827C70.412 305.343 70.8639 305.859 71.4449 305.859Z" fill="#0D9FF0"/>
<path d="M71.4449 313.728C72.0259 313.728 72.4778 313.277 72.4778 312.696C72.4778 312.116 72.0259 311.664 71.4449 311.664C70.8639 311.664 70.412 312.116 70.412 312.696C70.412 313.277 70.8639 313.728 71.4449 313.728Z" fill="#0D9FF0"/>
<path d="M71.4449 321.597C72.0259 321.597 72.4778 321.146 72.4778 320.565C72.4778 319.985 72.0259 319.533 71.4449 319.533C70.8639 319.533 70.412 319.985 70.412 320.565C70.412 321.146 70.8639 321.597 71.4449 321.597Z" fill="#0D9FF0"/>
<path d="M164.211 111.456C164.599 111.843 186.612 111.456 186.612 111.456C186.612 111.456 187.128 99.201 175.25 99.201C164.211 99.201 164.211 111.456 164.211 111.456Z" fill="#0D9FF0"/>
<path d="M170.796 88.623C170.796 88.623 169.505 87.591 168.859 88.752C168.278 89.913 169.634 91.719 170.796 91.59V88.623Z" fill="#FECECC"/>
<g opacity="0.5">
<path d="M170.796 89.655C170.667 89.7195 170.538 89.784 170.409 89.9775C170.279 90.171 170.279 90.558 170.215 90.7515C170.15 91.074 170.279 91.461 169.828 91.332C170.15 91.5255 170.473 91.6545 170.796 91.6545V89.655Z" fill="#EAB2B2"/>
</g>
<path opacity="0.5" d="M169.505 88.8165C169.505 88.8165 169.053 89.268 169.182 89.784C169.311 90.3 170.021 91.074 170.021 91.074C170.021 91.074 169.376 90.171 169.569 89.5905C169.828 89.01 169.892 88.8165 169.505 88.8165Z" fill="#EAB2B2"/>
<path d="M180.996 88.623C180.996 88.623 182.287 87.591 182.932 88.752C183.513 89.913 182.158 91.719 180.996 91.59V88.623Z" fill="#FECECC"/>
<g opacity="0.5">
<path d="M180.996 89.655C181.125 89.7195 181.254 89.784 181.383 89.9775C181.512 90.171 181.512 90.558 181.577 90.7515C181.641 91.074 181.512 91.461 181.964 91.332C181.641 91.5255 181.318 91.6545 180.996 91.6545V89.655Z" fill="#EAB2B2"/>
</g>
<path opacity="0.5" d="M182.287 88.8165C182.287 88.8165 182.739 89.268 182.609 89.784C182.48 90.3 181.77 91.074 181.77 91.074C181.77 91.074 182.416 90.171 182.222 89.5905C181.964 89.01 181.964 88.8165 182.287 88.8165Z" fill="#EAB2B2"/>
<path d="M182.61 90.042C182.674 90.042 182.674 90.042 182.674 89.9775C182.997 89.139 182.158 88.6875 182.158 88.6875C182.093 88.6875 182.029 88.6875 182.029 88.752C182.029 88.8165 182.029 88.881 182.093 88.881C182.093 88.881 182.803 89.268 182.545 89.9775C182.545 89.913 182.545 89.9775 182.61 90.042Z" fill="#000141"/>
<path d="M169.182 90.042C169.117 90.042 169.117 90.042 169.117 89.9775C168.795 89.139 169.634 88.6875 169.634 88.6875C169.698 88.6875 169.763 88.6875 169.763 88.752C169.763 88.8165 169.763 88.881 169.698 88.881C169.698 88.881 168.988 89.268 169.247 89.9775C169.311 89.913 169.247 89.9775 169.182 90.042Z" fill="#000141"/>
<path d="M178.994 100.298C178.994 101.136 177.51 101.781 175.638 101.781C173.765 101.781 172.281 101.136 172.281 100.298C172.281 99.459 173.765 98.814 175.638 98.814C177.51 98.814 178.994 99.5235 178.994 100.298Z" fill="#1C1C1C"/>
<path d="M169.376 82.4955C168.407 83.85 168.472 86.301 170.086 89.01C171.7 91.719 181.318 89.913 181.318 89.913C181.318 89.913 184.934 83.592 181.06 81.8505C181.06 81.8505 181.189 77.529 176.864 78.1095C172.603 78.69 170.667 80.6895 169.376 82.4955Z" fill="#1C1C1C"/>
<path d="M178.091 99.846C178.091 99.846 177.251 101.136 175.767 101.136C174.282 101.136 173.249 99.9105 173.249 99.9105C173.249 99.9105 173.314 98.556 173.378 97.4595C173.378 96.75 173.443 96.0405 173.443 95.976H178.155V97.911L178.091 99.846Z" fill="#FECECC"/>
<path opacity="0.5" d="M178.026 97.8465C177.316 98.4915 176.477 98.8785 175.896 98.8785C175.121 98.8785 174.153 98.298 173.314 97.4595C173.314 96.75 173.378 96.0405 173.378 95.976H178.091L178.026 97.8465Z" fill="#EAB2B2"/>
<path d="M181.189 84.495C180.867 82.1085 170.99 82.1085 170.667 84.495C170.667 84.495 169.828 93.0735 170.99 94.557C172.152 96.105 174.411 97.8465 175.896 97.8465C177.381 97.8465 179.64 96.105 180.802 94.557C181.964 93.0735 181.189 84.495 181.189 84.495Z" fill="#FECECC"/>
<path d="M171.506 86.6235C171.248 86.817 171.506 87.1395 172.474 86.946C173.443 86.688 174.411 87.1395 174.605 86.6235C174.798 86.172 173.507 85.269 171.506 86.6235Z" fill="#000141"/>
<path d="M180.156 87.5265C180.415 87.333 180.156 87.0105 179.188 87.2685C178.22 87.5265 177.251 87.204 177.058 87.6555C176.864 88.107 178.22 88.9455 180.156 87.5265Z" fill="#000141"/>
<path d="M173.83 89.8485C173.83 90.171 173.572 90.4935 173.314 90.4935C172.991 90.4935 172.797 90.2355 172.797 89.8485C172.797 89.526 173.055 89.2035 173.314 89.2035C173.572 89.2035 173.83 89.4615 173.83 89.8485Z" fill="#000141"/>
<path opacity="0.5" d="M172.991 91.332C173.572 91.5255 173.959 92.106 173.83 92.5575C173.701 93.009 173.055 93.2025 172.474 93.009C171.893 92.8155 171.506 92.235 171.635 91.7835C171.764 91.332 172.41 91.1385 172.991 91.332Z" fill="#EAB2B2"/>
<path opacity="0.5" d="M178.736 91.332C178.155 91.5255 177.768 92.106 177.897 92.5575C178.026 93.009 178.672 93.2025 179.253 93.009C179.834 92.8155 180.221 92.235 180.092 91.7835C179.963 91.332 179.317 91.1385 178.736 91.332Z" fill="#EAB2B2"/>
<path d="M179.059 89.8485C179.059 90.171 178.801 90.4935 178.543 90.4935C178.22 90.4935 178.026 90.2355 178.026 89.8485C178.026 89.526 178.284 89.2035 178.543 89.2035C178.801 89.2035 179.059 89.4615 179.059 89.8485Z" fill="#000141"/>
<path d="M175.638 92.88C175.379 92.88 175.121 92.8156 174.992 92.6221C174.927 92.4931 174.927 92.3641 175.121 92.1061C175.444 91.7836 175.573 90.429 175.638 89.655C175.638 89.526 175.702 89.4615 175.831 89.4615C175.96 89.4615 176.025 89.526 176.025 89.655C176.025 89.8485 175.896 91.848 175.444 92.364L175.379 92.4286C175.508 92.4931 176.606 92.4285 176.606 92.493C176.67 92.622 176.025 92.88 175.638 92.88Z" fill="#000141"/>
<path d="M176.541 95.202C176.541 95.589 176.283 95.847 175.896 95.847C175.508 95.847 175.25 95.589 175.25 95.202C175.25 94.815 175.508 94.557 175.896 94.557C176.283 94.557 176.541 94.8795 176.541 95.202Z" fill="white"/>
<path opacity="0.5" d="M174.54 84.624C174.798 84.753 175.121 84.882 175.379 85.0755C175.638 85.269 175.896 85.527 176.154 85.785C176.67 86.2365 177.251 86.6235 177.962 86.7525C178.349 86.817 178.736 86.8815 179.124 86.817C179.511 86.7525 179.898 86.688 180.286 86.688C180.544 86.688 180.867 86.817 181.06 87.0105C181.189 87.204 181.189 87.3975 181.189 87.6555C181.189 87.978 181.254 88.4295 181.512 88.6875C181.448 86.43 181.254 84.4305 181.254 84.4305C180.996 82.431 174.024 82.1085 171.571 83.463C172.41 84.0435 173.572 84.237 174.54 84.624Z" fill="#EAB2B2"/>
<path d="M181.77 83.85C181.77 83.85 181.125 86.4945 178.543 85.527C175.896 84.5595 172.733 82.689 170.667 84.237C168.601 85.785 169.892 81.915 173.572 81.012C177.316 80.109 180.35 82.1085 181.77 83.85Z" fill="#000141"/>
<path d="M274.214 92.5575H200.04C194.552 92.5575 190.033 97.008 190.033 102.555C190.033 108.037 194.488 112.552 200.04 112.552H274.214C279.701 112.552 284.22 108.102 284.22 102.555C284.155 97.008 279.701 92.5575 274.214 92.5575Z" fill="white"/>
<path d="M217.663 97.266H200.298C199.846 97.266 199.459 97.5885 199.394 97.9755C199.329 98.4915 199.717 98.943 200.233 98.943H217.599C218.051 98.943 218.438 98.556 218.438 98.1045C218.502 97.653 218.115 97.266 217.663 97.266Z" fill="#0D9FF0"/>
<path d="M250.716 97.266H220.504C220.052 97.266 219.664 97.653 219.664 98.1045C219.664 98.556 220.052 98.943 220.504 98.943H250.78C251.297 98.943 251.684 98.4915 251.619 97.9755C251.555 97.524 251.168 97.266 250.716 97.266Z" fill="#0D9FF0"/>
<path d="M225.087 101.458H200.298C199.846 101.458 199.459 101.781 199.394 102.168C199.329 102.684 199.717 103.135 200.233 103.135H225.087C225.539 103.135 225.926 102.748 225.926 102.297C225.991 101.845 225.604 101.458 225.087 101.458Z" fill="#0D9FF0"/>
<path d="M225.087 105.651H200.298C199.846 105.651 199.459 105.973 199.394 106.36C199.329 106.876 199.717 107.328 200.233 107.328H225.087C225.539 107.328 225.926 106.941 225.926 106.49C225.991 106.038 225.604 105.651 225.087 105.651Z" fill="#0D9FF0"/>
<path d="M250.716 101.458H227.992C227.54 101.458 227.153 101.845 227.153 102.297C227.153 102.748 227.54 103.135 227.992 103.135H250.78C251.297 103.135 251.684 102.684 251.619 102.168C251.555 101.716 251.167 101.458 250.716 101.458Z" fill="#0D9FF0"/>
<path d="M261.045 102.168C261.045 105.78 264.014 108.747 267.629 108.747C271.244 108.747 274.214 105.78 274.214 102.168C274.214 98.556 271.244 95.589 267.629 95.589C263.95 95.589 261.045 98.556 261.045 102.168ZM262.077 102.168C262.077 99.1365 264.531 96.6855 267.565 96.6855C270.599 96.6855 273.052 99.1365 273.052 102.168C273.052 105.199 270.599 107.65 267.565 107.65C264.531 107.65 262.077 105.264 262.077 102.168Z" fill="#0D9FF0"/>
<path d="M268.339 104.683C268.21 104.683 268.146 104.683 268.017 104.619C267.629 104.554 267.242 104.296 266.984 103.909L264.66 100.297C264.208 99.588 264.401 98.6205 265.112 98.1045C265.822 97.653 266.79 97.8465 267.306 98.556L268.791 100.813L276.344 95.7825C277.054 95.2665 278.023 95.46 278.539 96.234C279.056 96.9435 278.862 97.911 278.087 98.427L269.243 104.361C268.985 104.619 268.662 104.683 268.339 104.683Z" fill="#0D9FF0"/>
<path d="M78.4168 87.9135H57.8882C54.0794 87.9135 51.0453 90.945 51.0453 94.7505V115.133C51.0453 118.938 54.0794 121.97 57.8882 121.97H78.4168C82.2256 121.97 85.2597 118.938 85.2597 115.133V94.7505C85.2597 90.945 82.1611 87.9135 78.4168 87.9135Z" fill="#0D9FF0"/>
<path d="M84.0332 98.298V94.7505C84.0332 91.6545 81.5155 89.139 78.4169 89.139H57.8882C54.7895 89.139 52.2719 91.6545 52.2719 94.7505V98.298H84.0332Z" fill="white"/>
<path d="M66.4741 111.908V114.23H57.5009V112.94L61.116 109.521C62.859 107.909 63.44 107.07 63.44 105.974C63.44 105.071 62.9235 104.619 62.1489 104.619C61.2451 104.619 60.8577 105.2 60.7286 106.361V106.554H57.6945V106.361C57.9527 103.781 59.5666 102.362 62.4071 102.362C65.1184 102.362 66.6032 103.652 66.6032 105.845C66.6032 107.199 65.9576 108.231 63.7627 110.424L62.2134 111.908H66.4741Z" fill="white"/>
<path d="M78.7396 110.811C78.7396 113.004 76.9321 114.488 74.0271 114.488C71.0575 114.488 69.3791 113.069 69.1208 110.747V110.553H72.155L72.2195 110.747C72.4132 111.521 72.9296 112.295 73.9625 112.295C74.9954 112.295 75.641 111.714 75.641 110.94C75.641 109.973 74.9308 109.457 73.7043 109.392H73.2524V107.457L73.7043 107.393C74.8017 107.328 75.3827 106.683 75.3827 105.909C75.3827 105.135 74.9308 104.684 74.0916 104.684C73.1878 104.684 72.8005 105.393 72.736 106.167V106.361H69.7018V106.167C69.8955 104.232 71.3803 102.491 74.3498 102.491C77.1903 102.491 78.4814 103.91 78.4814 105.587C78.4814 106.941 77.7713 107.844 76.2865 108.231C77.9004 108.489 78.7396 109.328 78.7396 110.811Z" fill="white"/>
<path d="M59.373 93.009H58.4047C58.3401 92.6865 58.211 92.493 57.8882 92.493C57.6945 92.493 57.5009 92.622 57.5009 92.8155C57.5009 93.0735 57.6945 93.2025 58.2755 93.3315C59.1148 93.525 59.4376 93.912 59.4376 94.4925C59.4376 95.202 58.7274 95.589 58.0173 95.589C57.049 95.589 56.468 95.202 56.4034 94.3635H57.3718C57.4363 94.686 57.6946 94.8795 58.0173 94.8795C58.2756 94.8795 58.4692 94.7505 58.4692 94.557C58.4692 94.3635 58.3401 94.17 57.8882 94.1055C57.049 93.912 56.5326 93.654 56.5326 92.88C56.5326 92.1705 57.1781 91.7835 57.9528 91.7835C58.8565 91.7835 59.2439 92.2995 59.373 93.009Z" fill="#1C1C1C"/>
<path d="M63.4399 93.912C63.4399 94.1055 63.4399 94.2345 63.4399 94.428C63.3754 95.073 62.988 95.589 61.826 95.589C60.664 95.589 60.2767 95.0085 60.2122 94.428C60.2122 94.2345 60.2122 94.1055 60.2122 93.912V91.848H61.1805V94.1055C61.1805 94.2345 61.1805 94.2345 61.1805 94.299C61.1805 94.686 61.4387 94.8795 61.826 94.8795C62.2779 94.8795 62.4716 94.686 62.4716 94.299C62.4716 94.2345 62.4716 94.17 62.4716 94.1055V91.848H63.4399V93.912Z" fill="#1C1C1C"/>
<path d="M66.6678 95.589L65.3121 93.138C65.3121 93.525 65.3121 93.8475 65.3121 94.041V95.589H64.3438V91.9125H65.5703L66.9905 94.428C66.9905 94.041 66.9905 93.654 66.9905 93.4605V91.9125H67.9589V95.589H66.6678Z" fill="#1C1C1C"/>
<path d="M72.3487 93.654C72.3487 94.815 71.6386 95.46 70.7994 95.5245C70.6057 95.5245 70.5411 95.5245 70.3475 95.5245H68.9272V91.848H70.3475C70.5411 91.848 70.6057 91.848 70.7994 91.848C71.6386 91.977 72.3487 92.493 72.3487 93.654ZM71.3158 93.654C71.3158 93.009 70.993 92.622 70.4766 92.622C70.3475 92.622 70.2829 92.622 70.1538 92.622H69.8956V94.815H70.2184C70.3475 94.815 70.412 94.815 70.5411 94.815C70.993 94.7505 71.3158 94.3635 71.3158 93.654Z" fill="#1C1C1C"/>
<path d="M74.027 94.6215L73.7043 95.589H72.6714L74.027 91.9125H75.189L76.5447 95.589H75.5118L75.189 94.6215H74.027ZM74.2853 93.8475H74.9954L74.6726 92.6865L74.2853 93.8475Z" fill="#1C1C1C"/>
<path d="M78.6105 95.589H77.6422V94.17L76.3511 91.9125H77.4485L78.1586 93.396L78.8687 91.9125H79.9016L78.6105 94.17V95.589Z" fill="#1C1C1C"/>
<path d="M270.341 182.599V190.984L253.233 183.631L270.341 182.599Z" fill="white"/>
<path d="M176.541 125.388H273.504C280.218 125.388 285.576 130.806 285.576 137.45V173.57C285.576 180.278 280.153 185.631 273.504 185.631H176.541C169.828 185.631 164.469 180.213 164.469 173.57V137.45C164.469 130.806 169.892 125.388 176.541 125.388Z" fill="white"/>
<path d="M181.964 153.833C178.349 153.833 175.444 156.735 175.444 160.347C175.444 163.959 178.349 166.862 181.964 166.862C185.579 166.862 188.484 163.959 188.484 160.347C188.484 156.735 185.579 153.833 181.964 153.833ZM181.964 165.765C178.93 165.765 176.541 163.314 176.541 160.347C176.541 157.316 178.995 154.929 181.964 154.929C184.998 154.929 187.387 157.38 187.387 160.347C187.451 163.314 184.998 165.765 181.964 165.765Z" fill="#1C1C1C"/>
<path d="M182.803 160.347C182.803 160.798 182.416 161.185 181.964 161.185C181.512 161.185 181.125 160.798 181.125 160.347C181.125 159.895 181.512 159.508 181.964 159.508C182.481 159.444 182.803 159.831 182.803 160.347Z" fill="#1C1C1C"/>
<path d="M181.964 155.703C181.641 155.703 181.383 155.961 181.383 156.284V160.089C181.383 160.412 181.641 160.67 181.964 160.67C182.287 160.67 182.545 160.412 182.545 160.089V156.284C182.545 155.961 182.287 155.703 181.964 155.703Z" fill="#1C1C1C"/>
<path d="M185.192 157.316C184.998 157.122 184.611 157.122 184.417 157.316L181.706 160.025C181.512 160.218 181.512 160.605 181.706 160.799C181.9 160.992 182.287 160.992 182.481 160.799L185.192 158.09C185.386 157.832 185.386 157.509 185.192 157.316Z" fill="#1C1C1C"/>
<path d="M213.209 155.316H196.101C195.65 155.316 195.262 155.574 195.198 156.026C195.133 156.542 195.52 156.993 196.037 156.993H213.209C213.661 156.993 214.048 156.606 214.048 156.155C214.048 155.703 213.661 155.316 213.209 155.316Z" fill="#1C1C1C"/>
<path d="M245.939 155.316H216.049C215.598 155.316 215.21 155.703 215.21 156.155C215.21 156.606 215.598 156.993 216.049 156.993H246.003C246.52 156.993 246.907 156.542 246.842 156.026C246.713 155.639 246.326 155.316 245.939 155.316Z" fill="#1C1C1C"/>
<path d="M220.568 159.509H196.037C195.585 159.509 195.198 159.767 195.133 160.218C195.069 160.734 195.456 161.186 195.973 161.186H220.568C221.02 161.186 221.407 160.799 221.407 160.347C221.407 159.896 221.02 159.509 220.568 159.509Z" fill="#1C1C1C"/>
<path d="M220.568 163.637H196.037C195.585 163.637 195.198 163.895 195.133 164.346C195.069 164.862 195.456 165.314 195.973 165.314H220.568C221.02 165.314 221.407 164.927 221.407 164.475C221.407 164.024 221.02 163.637 220.568 163.637Z" fill="#1C1C1C"/>
<path d="M245.939 159.509H223.473C223.021 159.509 222.634 159.896 222.634 160.347C222.634 160.799 223.021 161.186 223.473 161.186H246.003C246.52 161.186 246.907 160.734 246.842 160.218C246.713 159.767 246.326 159.509 245.939 159.509Z" fill="#1C1C1C"/>
<path d="M268.146 159.766C267.952 158.605 266.984 157.767 265.757 157.767C264.595 157.767 263.562 158.67 263.433 159.766V159.831C263.433 159.895 263.433 160.024 263.433 160.089C263.433 160.927 264.014 162.024 264.595 162.862C265.176 163.765 265.757 164.41 265.757 164.41C265.757 164.41 268.146 161.637 268.146 160.024C268.146 160.024 268.146 159.96 268.146 159.766ZM265.822 161.379C265.176 161.379 264.66 160.863 264.66 160.218C264.66 159.573 265.176 159.057 265.822 159.057C266.467 159.057 266.984 159.573 266.984 160.218C266.984 160.863 266.467 161.379 265.822 161.379Z" fill="#1C1C1C"/>
<path d="M266.984 160.218C266.984 160.863 266.467 161.379 265.822 161.379C265.176 161.379 264.66 160.863 264.66 160.218C264.66 159.573 265.176 159.057 265.822 159.057C266.467 159.057 266.984 159.573 266.984 160.218Z" fill="#1C1C1C"/>
<path d="M260.657 153.123H256.719V157.057H260.657V153.123Z" fill="#1C1C1C"/>
<path d="M268.92 153.123H264.983V155.703H268.92V153.123Z" fill="#1C1C1C"/>
<path d="M275.053 153.123H271.115V157.057H275.053V153.123Z" fill="#1C1C1C"/>
<path d="M263.821 153.123H261.174V154.09H263.821V153.123Z" fill="#1C1C1C"/>
<path d="M260.657 167.571H256.719V171.505H260.657V167.571Z" fill="#1C1C1C"/>
<path d="M275.053 167.571H271.115V171.505H275.053V167.571Z" fill="#1C1C1C"/>
<path d="M264.272 165.185H261.626V169.764H264.272V165.185Z" fill="#1C1C1C"/>
<path d="M269.87 158.392V161.037H275.035V158.392H269.87Z" fill="#1C1C1C"/>
<path d="M267.888 166.539H265.241V171.57H267.888V166.539Z" fill="#1C1C1C"/>
<path d="M260.657 158.799H256.719V166.023H260.657V158.799Z" fill="#1C1C1C"/>
<path d="M275.053 162.411H271.115V166.346H275.053V162.411Z" fill="#1C1C1C"/>
<path d="M268.931 169.556V171.555H269.9V169.556H268.931Z" fill="#1C1C1C"/>
<path d="M268.883 165.799V167.798H269.851V165.799H268.883Z" fill="#1C1C1C"/>
<path d="M166.6 143.77V137.449C166.6 131.967 171.054 127.516 176.541 127.516H273.504C278.991 127.516 283.445 131.967 283.445 137.449V143.77H166.6Z" fill="#0D9FF0"/>
<path d="M188.42 137.321L187.839 139.191H185.902L188.484 132.096H190.744L193.326 139.191H191.26L190.679 137.321H188.42ZM188.872 135.902H190.163L189.517 133.709L188.872 135.902Z" fill="white"/>
<path d="M200.233 134.354C200.233 135.773 199.265 136.482 198.297 136.611C197.909 136.676 197.651 136.676 197.199 136.676H196.36V139.191H194.488V132.096H197.135C197.587 132.096 197.845 132.096 198.232 132.161C199.33 132.225 200.233 132.999 200.233 134.354ZM198.297 134.354C198.297 133.838 198.038 133.515 197.522 133.515C197.393 133.515 197.199 133.515 197.006 133.515H196.295V135.257H197.006C197.199 135.257 197.393 135.257 197.522 135.257C198.038 135.192 198.297 134.934 198.297 134.354Z" fill="white"/>
<path d="M207.399 134.354C207.399 135.773 206.431 136.482 205.462 136.611C205.075 136.676 204.817 136.676 204.365 136.676H203.526V139.191H201.654V132.096H204.3C204.752 132.096 205.01 132.096 205.398 132.161C206.495 132.225 207.399 132.999 207.399 134.354ZM205.462 134.354C205.462 133.838 205.204 133.515 204.688 133.515C204.559 133.515 204.365 133.515 204.171 133.515H203.526V135.257H204.236C204.429 135.257 204.623 135.257 204.752 135.257C205.204 135.192 205.462 134.934 205.462 134.354Z" fill="white"/>
<path d="M215.856 135.644C215.856 137.901 214.435 139.32 212.241 139.32C210.046 139.32 208.625 137.901 208.625 135.644C208.625 133.386 210.046 131.967 212.241 131.967C214.435 131.903 215.856 133.322 215.856 135.644ZM213.984 135.644C213.984 134.16 213.338 133.322 212.241 133.322C211.143 133.322 210.498 134.16 210.498 135.644C210.498 137.127 211.143 137.966 212.241 137.966C213.273 137.966 213.984 137.127 213.984 135.644Z" fill="white"/>
<path d="M217.534 139.191V132.096H219.406V139.191H217.534Z" fill="white"/>
<path d="M225.733 139.191L223.151 134.482C223.215 135.192 223.215 135.837 223.215 136.224V139.126H221.343V132.031H223.667L226.378 136.933C226.314 136.224 226.314 135.514 226.314 135.063V132.031H228.186V139.126H225.733V139.191Z" fill="white"/>
<path d="M233.544 133.515V139.191H231.672V133.515H229.348V132.096H235.803V133.515H233.544Z" fill="white"/>
<path d="M245.228 139.191H243.356V136.224C243.356 135.579 243.356 134.676 243.356 133.967C243.227 134.676 243.034 135.579 242.84 136.224L242.065 139.191H240.193L239.418 136.224C239.225 135.579 239.031 134.676 238.967 133.967C238.967 134.676 238.967 135.579 238.967 136.224V139.191H237.094V132.096H239.999L241.226 137.385L242.453 132.096H245.293V139.191H245.228Z" fill="white"/>
<path d="M252.652 139.191H247.23V132.096H252.588V133.515H249.102V134.87H252.394V136.289H249.102V137.708H252.717V139.191H252.652Z" fill="white"/>
<path d="M258.721 139.191L256.138 134.482C256.203 135.192 256.203 135.837 256.203 136.224V139.126H254.331V132.031H256.655L259.366 136.933C259.302 136.224 259.302 135.514 259.302 135.063V132.031H261.174V139.126H258.721V139.191Z" fill="white"/>
<path d="M266.532 133.515V139.191H264.66V133.515H262.336V132.096H268.791V133.515H266.532Z" fill="white"/>
<path d="M249.747 194.596H175.573C170.086 194.596 165.567 199.047 165.567 204.594C165.567 210.076 170.021 214.591 175.573 214.591H249.747C255.235 214.591 259.753 210.141 259.753 204.594C259.753 199.047 255.299 194.596 249.747 194.596Z" fill="white"/>
<path d="M214.952 199.305H175.896C175.444 199.305 175.057 199.627 174.992 200.014C174.927 200.53 175.315 200.982 175.831 200.982H214.952C215.404 200.982 215.791 200.595 215.791 200.143C215.791 199.692 215.404 199.305 214.952 199.305Z" fill="#1C1C1C"/>
<path d="M248.069 199.305H217.857C217.405 199.305 217.018 199.692 217.018 200.143C217.018 200.595 217.405 200.982 217.857 200.982H248.069C248.585 200.982 248.973 200.53 248.908 200.014C248.844 199.627 248.456 199.305 248.069 199.305Z" fill="#1C1C1C"/>
<path d="M222.44 203.497H175.896C175.444 203.497 175.057 203.82 174.992 204.207C174.927 204.723 175.315 205.175 175.831 205.175H222.44C222.892 205.175 223.28 204.787 223.28 204.336C223.28 203.884 222.892 203.497 222.44 203.497Z" fill="#1C1C1C"/>
<path d="M222.44 207.69H175.896C175.444 207.69 175.057 208.013 174.992 208.4C174.927 208.916 175.315 209.367 175.831 209.367H222.44C222.892 209.367 223.28 208.98 223.28 208.528C223.28 208.077 222.892 207.69 222.44 207.69Z" fill="#1C1C1C"/>
<path d="M248.069 203.497H225.345C224.893 203.497 224.506 203.884 224.506 204.336C224.506 204.787 224.893 205.175 225.345 205.175H248.069C248.585 205.175 248.973 204.723 248.908 204.207C248.844 203.82 248.456 203.497 248.069 203.497Z" fill="#1C1C1C"/>
<path d="M263.82 219.881L261.432 231.426H265.951L268.598 219.881H263.82Z" fill="#FECECC"/>
<path d="M272.665 209.174C272.665 209.174 266.015 213.818 263.175 219.816C263.175 219.816 267.565 222.719 269.953 221.493C273.375 219.623 272.665 209.174 272.665 209.174Z" fill="#0D9FF0"/>
<path d="M285.576 231.426C285.447 221.687 282.542 208.98 274.73 208.851C268.468 208.722 264.531 221.3 263.82 231.426H285.576Z" fill="#0089D4"/>
<path d="M269.695 215.043C269.695 215.043 269.63 215.043 269.63 214.979C269.63 214.914 269.63 214.914 269.63 214.85C270.018 214.592 269.953 214.205 269.953 214.14C269.953 214.076 269.953 214.076 270.018 214.011C270.082 214.011 270.082 214.011 270.147 214.076C270.147 214.334 270.147 214.721 269.695 215.043Z" fill="#BDE7FF"/>
<path d="M271.761 219.042C271.761 219.042 271.696 219.042 271.696 218.978C271.696 218.913 271.696 218.913 271.696 218.849C272.084 218.591 272.019 218.204 272.019 218.139C272.019 218.075 272.019 218.075 272.084 218.01C272.148 218.01 272.148 218.01 272.213 218.075C272.277 218.397 272.277 218.784 271.761 219.042C271.825 219.042 271.825 219.042 271.761 219.042Z" fill="#BDE7FF"/>
<path d="M276.15 215.624C276.15 215.624 276.086 215.624 276.086 215.559C276.086 215.495 276.086 215.495 276.086 215.43C276.473 215.172 276.409 214.785 276.409 214.721C276.409 214.656 276.409 214.656 276.473 214.592C276.538 214.592 276.538 214.592 276.602 214.656C276.667 214.979 276.602 215.366 276.15 215.624Z" fill="#BDE7FF"/>
<path d="M270.082 221.429C270.082 221.429 270.082 221.493 270.018 221.493C269.953 221.493 269.953 221.493 269.889 221.493C269.63 221.106 269.243 221.171 269.179 221.171C269.114 221.171 269.114 221.171 269.049 221.106C269.049 221.042 269.049 221.042 269.114 220.977C269.372 220.913 269.824 220.913 270.082 221.429C270.082 221.364 270.082 221.364 270.082 221.429Z" fill="#BDE7FF"/>
<path d="M266.015 225.17C266.015 225.17 265.951 225.17 265.951 225.105C265.951 225.041 265.951 225.041 265.951 224.976C266.338 224.718 266.274 224.331 266.274 224.267C266.274 224.202 266.274 224.202 266.338 224.138C266.403 224.138 266.403 224.138 266.467 224.202C266.467 224.46 266.467 224.847 266.015 225.17Z" fill="#BDE7FF"/>
<path d="M269.179 216.849C269.179 216.849 269.179 216.785 269.243 216.785C269.308 216.785 269.308 216.785 269.372 216.785C269.63 217.172 270.082 217.043 270.082 217.043C270.147 217.043 270.147 217.043 270.211 217.107C270.211 217.172 270.211 217.172 270.147 217.236C269.889 217.236 269.437 217.301 269.179 216.849Z" fill="#BDE7FF"/>
<path d="M274.149 213.753C274.149 213.753 274.149 213.689 274.214 213.689C274.278 213.689 274.278 213.689 274.343 213.689C274.601 214.076 275.053 213.947 275.053 213.947C275.118 213.947 275.118 213.947 275.182 214.011C275.182 214.076 275.182 214.076 275.118 214.14C274.859 214.14 274.472 214.205 274.149 213.753Z" fill="#BDE7FF"/>
<path d="M271.051 224.847C271.051 224.847 271.051 224.783 271.115 224.783C271.18 224.783 271.18 224.783 271.244 224.783C271.503 225.17 271.954 225.041 271.954 225.041C272.019 225.041 272.019 225.041 272.084 225.105C272.084 225.17 272.084 225.17 272.019 225.234C271.825 225.234 271.373 225.299 271.051 224.847Z" fill="#BDE7FF"/>
<path d="M275.376 218.462C275.376 218.462 275.376 218.397 275.44 218.397C275.505 218.397 275.505 218.397 275.57 218.397C275.828 218.784 276.28 218.655 276.28 218.655C276.344 218.655 276.344 218.655 276.409 218.72C276.409 218.784 276.409 218.784 276.344 218.849C276.086 218.849 275.634 218.913 275.376 218.462Z" fill="#BDE7FF"/>
<path d="M265.628 221.751C265.628 221.751 265.628 221.687 265.692 221.687C265.757 221.687 265.757 221.687 265.822 221.687C266.08 222.074 266.532 221.945 266.532 221.945C266.596 221.945 266.596 221.945 266.661 222.009C266.661 222.074 266.661 222.074 266.596 222.138C266.403 222.203 265.951 222.203 265.628 221.751C265.692 221.816 265.628 221.816 265.628 221.751Z" fill="#BDE7FF"/>
<path d="M273.246 216.075C273.116 216.075 272.987 216.011 272.858 215.882C272.794 215.817 272.729 215.753 272.6 215.688C272.406 215.559 272.342 215.559 272.213 215.688C272.148 215.753 272.019 215.882 271.89 215.946C271.761 216.011 271.567 216.011 271.438 216.011C271.18 215.946 271.115 215.624 271.115 215.624C271.115 215.559 271.115 215.559 271.18 215.495C271.244 215.495 271.244 215.495 271.309 215.559C271.309 215.559 271.373 215.753 271.567 215.817C271.632 215.817 271.761 215.817 271.825 215.817C271.954 215.753 272.084 215.688 272.148 215.624C272.342 215.495 272.406 215.366 272.729 215.624C272.794 215.688 272.923 215.753 272.987 215.817C273.181 216.011 273.246 216.075 273.504 215.946C273.568 215.946 273.568 215.946 273.633 216.011C273.633 216.075 273.633 216.075 273.568 216.14C273.439 216.075 273.31 216.075 273.246 216.075Z" fill="#BDE7FF"/>
<path d="M274.859 224.525C274.73 224.525 274.601 224.46 274.472 224.331C274.408 224.267 274.343 224.202 274.214 224.138C274.02 224.009 273.956 224.009 273.827 224.138C273.762 224.202 273.633 224.331 273.504 224.396C273.375 224.46 273.181 224.46 273.052 224.46C272.794 224.396 272.729 224.073 272.729 224.073C272.729 224.009 272.729 224.009 272.794 223.944C272.858 223.944 272.858 223.944 272.923 224.009C272.923 224.009 272.987 224.202 273.181 224.267C273.246 224.267 273.375 224.267 273.439 224.267C273.568 224.202 273.697 224.138 273.762 224.073C273.956 223.944 274.02 223.815 274.343 224.073C274.408 224.138 274.537 224.202 274.601 224.267C274.795 224.46 274.859 224.525 275.118 224.396C275.182 224.396 275.182 224.396 275.247 224.46C275.247 224.525 275.247 224.525 275.182 224.589C275.053 224.525 274.924 224.525 274.859 224.525Z" fill="#BDE7FF"/>
<path d="M267.048 219.881C266.79 219.816 266.661 219.687 266.661 219.558C266.596 219.365 266.661 219.107 266.725 218.978C266.919 218.72 266.919 218.526 266.725 218.268C266.596 218.139 266.596 218.075 266.596 218.01C266.596 217.817 266.919 217.623 266.919 217.623C266.984 217.623 266.984 217.623 267.048 217.688C267.048 217.752 267.048 217.752 266.984 217.817C266.919 217.881 266.725 217.946 266.725 218.075C266.725 218.075 266.725 218.139 266.79 218.204C267.177 218.526 266.919 218.978 266.855 219.107C266.79 219.236 266.725 219.429 266.79 219.558C266.855 219.687 266.919 219.752 267.048 219.752C267.113 219.752 267.113 219.816 267.113 219.881C267.113 219.816 267.113 219.881 267.048 219.881Z" fill="#BDE7FF"/>
<path d="M268.856 230.459C268.597 230.394 268.468 230.265 268.468 230.136C268.404 229.943 268.468 229.685 268.533 229.556C268.727 229.298 268.727 229.104 268.533 228.846C268.404 228.717 268.404 228.653 268.404 228.588C268.404 228.395 268.727 228.201 268.727 228.201C268.791 228.201 268.791 228.201 268.856 228.266C268.856 228.33 268.856 228.33 268.791 228.395C268.727 228.459 268.533 228.524 268.533 228.653C268.533 228.653 268.533 228.717 268.597 228.782C268.985 229.104 268.727 229.556 268.662 229.685C268.597 229.814 268.533 230.007 268.597 230.136C268.662 230.265 268.727 230.33 268.856 230.33C268.92 230.33 268.92 230.394 268.92 230.459H268.856Z" fill="#BDE7FF"/>
<path d="M268.017 227.879C267.758 227.814 267.629 227.685 267.629 227.556C267.565 227.363 267.629 227.105 267.694 226.976C267.887 226.718 267.887 226.524 267.694 226.266C267.565 226.137 267.565 226.073 267.565 226.008C267.565 225.815 267.887 225.621 267.887 225.621C267.952 225.621 267.952 225.621 268.017 225.686C268.017 225.75 268.017 225.75 267.952 225.815C267.887 225.879 267.694 225.944 267.694 226.073C267.694 226.073 267.694 226.137 267.758 226.202C268.146 226.524 267.887 226.976 267.823 227.105C267.758 227.234 267.694 227.427 267.758 227.556C267.823 227.685 267.887 227.75 268.017 227.75C268.081 227.75 268.081 227.814 268.081 227.879C268.081 227.814 268.017 227.879 268.017 227.879Z" fill="#BDE7FF"/>
<path d="M274.214 220.655C274.214 220.719 274.214 220.719 274.214 220.655C274.278 220.913 274.214 221.042 274.149 221.171C274.02 221.364 273.762 221.429 273.633 221.429C273.31 221.429 273.116 221.493 273.052 221.816C273.052 221.945 272.987 222.074 272.923 222.074C272.729 222.203 272.406 222.074 272.406 222.009C272.342 222.009 272.342 221.945 272.342 221.88C272.342 221.816 272.406 221.816 272.471 221.816C272.535 221.816 272.729 221.945 272.858 221.88C272.858 221.88 272.923 221.816 272.923 221.751C272.987 221.235 273.439 221.171 273.633 221.171C273.762 221.171 273.956 221.106 274.02 220.977C274.085 220.913 274.085 220.784 274.02 220.655C274.02 220.59 274.02 220.59 274.085 220.526C274.149 220.655 274.214 220.655 274.214 220.655Z" fill="#BDE7FF"/>
<path d="M272.729 228.717C272.664 228.975 272.535 229.104 272.406 229.104C272.213 229.169 271.954 229.104 271.825 229.04C271.567 228.846 271.373 228.846 271.115 229.04C270.986 229.169 270.921 229.169 270.857 229.169C270.663 229.169 270.47 228.846 270.47 228.846C270.47 228.782 270.47 228.782 270.534 228.717C270.599 228.717 270.599 228.717 270.663 228.782C270.728 228.846 270.792 229.04 270.922 229.04C270.922 229.04 270.986 229.04 271.051 228.975C271.373 228.588 271.825 228.846 271.954 228.911C272.083 228.975 272.277 229.04 272.406 228.975C272.535 228.911 272.6 228.846 272.6 228.717C272.6 228.653 272.664 228.653 272.729 228.653C272.664 228.588 272.729 228.653 272.729 228.717Z" fill="#BDE7FF"/>
<path d="M268.856 225.105C268.597 225.105 268.404 224.912 268.404 224.654C268.404 224.396 268.597 224.202 268.856 224.202C269.114 224.202 269.308 224.396 269.308 224.654C269.308 224.912 269.114 225.105 268.856 225.105ZM268.856 224.396C268.727 224.396 268.597 224.525 268.597 224.654C268.597 224.783 268.727 224.912 268.856 224.912C268.985 224.912 269.114 224.783 269.114 224.654C269.114 224.525 268.985 224.396 268.856 224.396Z" fill="#BDE7FF"/>
<path d="M275.634 217.623C275.376 217.623 275.182 217.43 275.182 217.172C275.182 216.914 275.376 216.72 275.634 216.72C275.892 216.72 276.086 216.914 276.086 217.172C276.086 217.43 275.892 217.623 275.634 217.623ZM275.634 216.914C275.505 216.914 275.376 217.043 275.376 217.172C275.376 217.301 275.505 217.43 275.634 217.43C275.763 217.43 275.892 217.301 275.892 217.172C275.957 217.043 275.828 216.914 275.634 216.914Z" fill="#BDE7FF"/>
<path d="M268.662 218.591C268.404 218.591 268.21 218.397 268.21 218.139C268.21 217.881 268.404 217.688 268.662 217.688C268.92 217.688 269.114 217.881 269.114 218.139C269.114 218.397 268.92 218.591 268.662 218.591ZM268.662 217.817C268.533 217.817 268.404 217.946 268.404 218.075C268.404 218.204 268.533 218.333 268.662 218.333C268.791 218.333 268.92 218.204 268.92 218.075C268.92 217.946 268.791 217.817 268.662 217.817Z" fill="#BDE7FF"/>
<path d="M265.434 230.459C265.176 230.459 264.982 230.265 264.982 230.007C264.982 229.749 265.176 229.556 265.434 229.556C265.693 229.556 265.886 229.749 265.886 230.007C265.886 230.265 265.628 230.459 265.434 230.459ZM265.434 229.749C265.305 229.749 265.176 229.878 265.176 230.007C265.176 230.136 265.305 230.265 265.434 230.265C265.563 230.265 265.693 230.136 265.693 230.007C265.693 229.878 265.563 229.749 265.434 229.749Z" fill="#BDE7FF"/>
<path d="M272.471 213.882C272.213 213.882 272.019 213.689 272.019 213.431C272.019 213.173 272.213 212.979 272.471 212.979C272.729 212.979 272.923 213.173 272.923 213.431C272.923 213.689 272.729 213.882 272.471 213.882ZM272.471 213.173C272.342 213.173 272.213 213.302 272.213 213.431C272.213 213.56 272.342 213.689 272.471 213.689C272.6 213.689 272.729 213.56 272.729 213.431C272.729 213.302 272.6 213.173 272.471 213.173Z" fill="#BDE7FF"/>
<path d="M275.957 228.911C275.699 228.911 275.505 228.717 275.505 228.459C275.505 228.201 275.699 228.008 275.957 228.008C276.215 228.008 276.409 228.201 276.409 228.459C276.409 228.717 276.215 228.911 275.957 228.911ZM275.957 228.137C275.828 228.137 275.699 228.266 275.699 228.395C275.699 228.524 275.828 228.653 275.957 228.653C276.086 228.653 276.215 228.524 276.215 228.395C276.215 228.266 276.086 228.137 275.957 228.137Z" fill="#BDE7FF"/>
<path d="M273.116 206.271L272.6 209.238C272.6 209.238 273.116 212.011 276.925 209.883L276.021 205.69L273.116 206.271Z" fill="#FECECC"/>
<path opacity="0.1" d="M276.021 205.69L273.116 206.271L272.923 207.561C272.987 207.561 273.052 207.625 273.116 207.625C273.439 207.69 273.762 207.754 274.085 207.883C274.343 207.948 274.601 208.077 274.795 208.206C274.989 208.335 275.118 208.593 275.118 208.787C275.118 209.109 274.859 209.432 274.73 209.754C274.601 209.948 274.537 210.205 274.278 210.334C274.085 210.463 273.891 210.463 273.633 210.463C274.278 210.786 275.311 210.786 276.925 209.883L276.021 205.69Z" fill="#201135"/>
<path d="M270.534 198.144C270.534 198.144 268.791 207.626 272.342 207.819C275.892 208.013 278.281 204.272 278.281 204.272C278.281 204.272 279.766 204.014 279.83 202.272C279.895 200.853 279.056 201.111 279.056 201.111C279.056 201.111 279.766 197.499 277.183 196.79C274.666 196.08 270.534 198.144 270.534 198.144Z" fill="#FECECC"/>
<path opacity="0.1" d="M275.763 203.046C275.828 203.304 275.57 203.498 275.182 203.562C274.859 203.627 274.537 203.498 274.472 203.24C274.408 202.982 274.666 202.788 275.053 202.724C275.376 202.724 275.699 202.853 275.763 203.046Z" fill="#201135"/>
<path opacity="0.1" d="M271.825 203.11C271.89 203.368 271.632 203.562 271.244 203.626C270.922 203.691 270.599 203.562 270.534 203.304C270.47 203.046 270.728 202.852 271.115 202.788C271.438 202.723 271.761 202.852 271.825 203.11Z" fill="#201135"/>
<path d="M271.954 200.918C271.89 200.918 271.89 200.918 271.89 200.853C271.89 200.853 271.503 200.208 270.599 200.595C270.534 200.595 270.47 200.595 270.47 200.531C270.47 200.466 270.47 200.402 270.534 200.402C271.632 199.95 272.084 200.724 272.084 200.724C272.084 200.853 272.084 200.853 271.954 200.918Z" fill="#000141"/>
<path d="M273.827 200.918C273.762 200.918 273.698 200.853 273.762 200.788C273.762 200.788 274.149 199.95 275.376 200.208C275.441 200.208 275.441 200.273 275.441 200.337C275.441 200.402 275.376 200.402 275.311 200.402C274.214 200.144 273.891 200.853 273.891 200.853C273.956 200.917 273.891 200.918 273.827 200.918Z" fill="#000141"/>
<path d="M272.729 203.368C272.665 203.368 272.665 203.368 272.6 203.368C272.406 203.304 272.277 203.046 272.277 203.046V202.982C272.6 202.466 272.535 201.692 272.535 201.692C272.535 201.627 272.535 201.562 272.6 201.562C272.665 201.562 272.729 201.563 272.729 201.627C272.729 201.627 272.858 202.401 272.471 202.982C272.471 203.046 272.535 203.11 272.6 203.11C272.665 203.11 272.729 203.11 272.858 203.046C272.923 202.981 272.987 203.046 272.987 203.046C273.052 203.11 272.987 203.175 272.987 203.175C272.923 203.304 272.858 203.368 272.729 203.368Z" fill="#000141"/>
<path d="M271.503 204.658C271.503 204.658 272.6 205.174 273.827 204.594C274.149 205.11 272.665 206.4 271.503 204.658Z" fill="#FCFAF7"/>
<path d="M271.696 201.692C271.696 202.014 271.503 202.272 271.309 202.272C271.115 202.272 270.922 202.014 270.922 201.692C270.922 201.369 271.115 201.111 271.309 201.111C271.503 201.176 271.696 201.369 271.696 201.692Z" fill="#000141"/>
<path d="M275.053 201.692C275.053 202.014 274.859 202.272 274.666 202.272C274.472 202.272 274.278 202.014 274.278 201.692C274.278 201.369 274.472 201.111 274.666 201.111C274.859 201.176 275.053 201.369 275.053 201.692Z" fill="#000141"/>
<path opacity="0.1" d="M272.923 206.013C272.794 206.013 272.729 206.013 272.729 206.013C272.729 206.013 272.665 206.013 272.665 205.948L272.729 205.884C272.729 205.884 273.181 205.948 273.568 205.626H273.633V205.69C273.375 205.948 273.116 206.013 272.923 206.013Z" fill="#201135"/>
<path opacity="0.1" d="M278.926 201.691C278.926 201.691 279.508 201.433 279.637 201.82C279.766 202.207 279.378 203.239 278.862 203.497C278.862 203.497 279.83 202.53 279.507 201.949C279.12 201.369 278.926 202.014 278.926 201.691Z" fill="#201135"/>
<path d="M276.796 209.045C276.796 209.045 277.635 209.819 277.183 211.044C276.796 212.076 276.28 212.979 274.859 212.721C273.439 212.463 273.375 211.044 273.375 211.044C273.375 211.044 272.148 212.657 271.115 211.818C269.372 210.335 272.665 208.98 272.665 208.98C272.665 208.98 272.6 209.819 273.891 210.206C275.118 210.528 276.796 209.045 276.796 209.045Z" fill="#0D9FF0"/>
<path d="M275.828 197.37C275.828 197.37 274.795 199.241 273.697 199.176C272.6 199.112 272.471 198.918 272.471 198.918C272.471 198.918 271.825 199.886 270.211 199.821C268.598 199.757 268.468 198.596 268.468 198.596C268.468 198.596 267.242 198.209 267.629 196.854C267.952 195.5 269.114 195.951 269.114 195.951C269.114 195.951 268.533 195.113 269.695 194.21C270.857 193.307 272.019 194.919 272.019 194.919C272.019 194.919 272.342 194.468 273.956 193.952C275.57 193.436 276.667 195.177 276.667 195.177C276.667 195.177 278.862 194.468 279.314 196.596C279.314 196.596 280.799 197.499 280.153 198.789C280.153 198.789 281.25 201.369 278.991 201.434C278.991 201.434 278.604 202.724 277.7 202.659C276.796 202.595 277.313 201.305 277.119 200.789C276.861 200.144 275.376 199.692 275.828 197.37Z" fill="#1C1C1C"/>
<path d="M284.801 222.203C284.801 222.203 287.641 230.007 286.286 231.426H275.182C275.182 231.426 279.766 229.878 279.83 228.201C279.959 226.46 278.281 223.88 278.281 223.88L284.801 222.203Z" fill="#FECECC"/>
<path d="M277.635 225.17C277.635 225.17 282.8 226.718 285.64 223.106C285.64 223.106 284.349 214.14 279.056 210.335C275.892 211.044 277.635 225.17 277.635 225.17Z" fill="#0D9FF0"/>
<g opacity="0.55">
<path d="M164.276 266.901H172.668C173.184 266.901 173.572 266.514 173.572 265.998V257.613C173.572 257.097 173.184 256.71 172.668 256.71H164.276C163.759 256.71 163.372 257.097 163.372 257.613V265.998C163.307 266.514 163.759 266.901 164.276 266.901Z" fill="#0D9FF0"/>
<path d="M176.477 266.901H184.869C185.386 266.901 185.773 266.514 185.773 265.998V257.613C185.773 257.097 185.386 256.71 184.869 256.71H176.477C175.96 256.71 175.573 257.097 175.573 257.613V265.998C175.509 266.514 175.96 266.901 176.477 266.901Z" fill="#0D9FF0"/>
<path d="M170.602 270.19C170.086 270.19 169.698 270.577 169.698 271.093V279.478C169.698 279.994 170.086 280.381 170.602 280.381H178.994C179.511 280.381 179.898 279.994 179.898 279.478V271.093C179.898 270.577 179.511 270.19 178.994 270.19H170.602Z" fill="#0D9FF0"/>
<path d="M191.841 279.478V271.093C191.841 270.577 191.454 270.19 190.937 270.19H182.545C182.029 270.19 181.641 270.577 181.641 271.093V279.478C181.641 279.994 182.029 280.381 182.545 280.381H190.937C191.389 280.446 191.841 279.994 191.841 279.478Z" fill="#0D9FF0"/>
<path d="M203.719 279.478V271.093C203.719 270.577 203.332 270.19 202.815 270.19H194.423C193.907 270.19 193.519 270.577 193.519 271.093V279.478C193.519 279.994 193.907 280.381 194.423 280.381H202.815C203.267 280.446 203.719 279.994 203.719 279.478Z" fill="#0D9FF0"/>
<path d="M215.597 279.478V271.093C215.597 270.577 215.21 270.19 214.694 270.19H206.301C205.785 270.19 205.398 270.577 205.398 271.093V279.478C205.398 279.994 205.785 280.381 206.301 280.381H214.694C215.146 280.446 215.597 279.994 215.597 279.478Z" fill="#0D9FF0"/>
<path d="M227.476 279.478V271.093C227.476 270.577 227.088 270.19 226.572 270.19H218.18C217.663 270.19 217.276 270.577 217.276 271.093V279.478C217.276 279.994 217.663 280.381 218.18 280.381H226.572C227.024 280.446 227.476 279.994 227.476 279.478Z" fill="#0D9FF0"/>
<path d="M239.354 279.478V271.093C239.354 270.577 238.967 270.19 238.45 270.19H230.058C229.542 270.19 229.154 270.577 229.154 271.093V279.478C229.154 279.994 229.542 280.381 230.058 280.381H238.45C238.902 280.446 239.354 279.994 239.354 279.478Z" fill="#0D9FF0"/>
<path d="M251.232 279.478V271.093C251.232 270.577 250.845 270.19 250.328 270.19H241.936C241.42 270.19 241.032 270.577 241.032 271.093V279.478C241.032 279.994 241.42 280.381 241.936 280.381H250.328C250.78 280.446 251.232 279.994 251.232 279.478Z" fill="#0D9FF0"/>
<path d="M253.75 270.19C253.233 270.19 252.846 270.577 252.846 271.093V279.478C252.846 279.994 253.233 280.381 253.75 280.381H262.142C262.659 280.381 263.046 279.994 263.046 279.478V271.093C263.046 270.577 262.659 270.19 262.142 270.19H253.75Z" fill="#0D9FF0"/>
<path d="M264.724 271.093V279.478C264.724 279.994 265.112 280.381 265.628 280.381H274.02C274.537 280.381 274.924 279.994 274.924 279.478V271.093C274.924 270.577 274.537 270.19 274.02 270.19H265.628C265.176 270.19 264.724 270.577 264.724 271.093Z" fill="#0D9FF0"/>
<path d="M188.678 266.901H197.07C197.586 266.901 197.974 266.514 197.974 265.998V257.613C197.974 257.097 197.586 256.71 197.07 256.71H188.678C188.161 256.71 187.774 257.097 187.774 257.613V265.998C187.774 266.514 188.161 266.901 188.678 266.901Z" fill="#0D9FF0"/>
<path d="M200.879 266.901H209.271C209.787 266.901 210.175 266.514 210.175 265.998V257.613C210.175 257.097 209.787 256.71 209.271 256.71H200.879C200.362 256.71 199.975 257.097 199.975 257.613V265.998C199.975 266.514 200.362 266.901 200.879 266.901Z" fill="#0D9FF0"/>
<path d="M213.08 266.901H221.472C221.988 266.901 222.376 266.514 222.376 265.998V257.613C222.376 257.097 221.988 256.71 221.472 256.71H213.08C212.563 256.71 212.176 257.097 212.176 257.613V265.998C212.176 266.514 212.563 266.901 213.08 266.901Z" fill="#0D9FF0"/>
<path d="M225.281 266.901H233.673C234.189 266.901 234.577 266.514 234.577 265.998V257.613C234.577 257.097 234.189 256.71 233.673 256.71H225.281C224.764 256.71 224.377 257.097 224.377 257.613V265.998C224.377 266.514 224.764 266.901 225.281 266.901Z" fill="#0D9FF0"/>
<path d="M237.482 266.901H245.874C246.39 266.901 246.778 266.514 246.778 265.998V257.613C246.778 257.097 246.39 256.71 245.874 256.71H237.482C236.965 256.71 236.578 257.097 236.578 257.613V265.998C236.578 266.514 237.03 266.901 237.482 266.901Z" fill="#0D9FF0"/>
<path d="M249.747 266.901H258.14C258.656 266.901 259.043 266.514 259.043 265.998V257.613C259.043 257.097 258.656 256.71 258.14 256.71H249.747C249.231 256.71 248.844 257.097 248.844 257.613V265.998C248.779 266.514 249.231 266.901 249.747 266.901Z" fill="#0D9FF0"/>
<path d="M261.948 266.901H270.341C270.857 266.901 271.244 266.514 271.244 265.998V257.613C271.244 257.097 270.857 256.71 270.341 256.71H261.948C261.432 256.71 261.044 257.097 261.044 257.613V265.998C260.98 266.514 261.432 266.901 261.948 266.901Z" fill="#0D9FF0"/>
<path d="M282.542 256.71H274.149C273.633 256.71 273.246 257.097 273.246 257.613V265.998C273.246 266.514 273.633 266.901 274.149 266.901H282.542C283.058 266.901 283.445 266.514 283.445 265.998V257.613C283.445 257.097 283.058 256.71 282.542 256.71Z" fill="#0D9FF0"/>
<path d="M172.668 298.248H164.276C163.759 298.248 163.372 298.635 163.372 299.151V307.536C163.372 308.052 163.759 308.439 164.276 308.439H172.668C173.185 308.439 173.572 308.052 173.572 307.536V299.151C173.572 298.635 173.185 298.248 172.668 298.248Z" fill="#0D9FF0"/>
<path d="M184.869 298.248H176.477C175.96 298.248 175.573 298.635 175.573 299.151V307.536C175.573 308.052 175.96 308.439 176.477 308.439H184.869C185.385 308.439 185.773 308.052 185.773 307.536V299.151C185.773 298.635 185.385 298.248 184.869 298.248Z" fill="#0D9FF0"/>
<path d="M258.14 298.248H249.747C249.683 298.248 249.618 298.248 249.618 298.248C249.554 298.248 249.489 298.248 249.489 298.248H246.003H242.323H241.097H237.611H233.931H233.867H233.802H226.636H225.41H221.601H218.244H215.016H213.209H211.337H206.624H202.945H197.07H194.423H188.678C188.161 298.248 187.774 298.635 187.774 299.151V307.536C187.774 308.052 188.161 308.439 188.678 308.439H194.423H197.07H202.815H206.495H211.208H213.08H214.887H218.115H221.472H225.281H226.507H233.673H233.738H233.802H237.482H240.968H242.194H245.874H249.36C249.425 308.439 249.489 308.439 249.489 308.439C249.554 308.439 249.618 308.439 249.618 308.439H258.011C258.527 308.439 258.914 308.052 258.914 307.536V299.151C259.043 298.635 258.656 298.248 258.14 298.248Z" fill="#0D9FF0"/>
<path d="M270.341 298.248H261.948C261.432 298.248 261.045 298.635 261.045 299.151V307.536C261.045 308.052 261.432 308.439 261.948 308.439H270.341C270.857 308.439 271.244 308.052 271.244 307.536V299.151C271.244 298.635 270.857 298.248 270.341 298.248Z" fill="#0D9FF0"/>
<path d="M282.542 298.248H274.149C273.633 298.248 273.246 298.635 273.246 299.151V307.536C273.246 308.052 273.633 308.439 274.149 308.439H282.542C283.058 308.439 283.445 308.052 283.445 307.536V299.151C283.445 298.635 283.058 298.248 282.542 298.248Z" fill="#0D9FF0"/>
<path d="M172.668 283.284H164.276C163.759 283.284 163.372 283.671 163.372 284.187V292.572C163.372 293.088 163.759 293.475 164.276 293.475H172.668C173.185 293.475 173.572 293.088 173.572 292.572V284.187C173.572 283.671 173.185 283.284 172.668 283.284Z" fill="#0D9FF0"/>
<path d="M184.869 283.284H176.477C175.96 283.284 175.573 283.671 175.573 284.187V292.572C175.573 293.088 175.96 293.475 176.477 293.475H184.869C185.385 293.475 185.773 293.088 185.773 292.572V284.187C185.773 283.671 185.385 283.284 184.869 283.284Z" fill="#0D9FF0"/>
<path d="M188.678 293.539H197.07C197.586 293.539 197.974 293.152 197.974 292.636V284.251C197.974 283.735 197.586 283.348 197.07 283.348H188.678C188.161 283.348 187.774 283.735 187.774 284.251V292.636C187.774 293.088 188.161 293.539 188.678 293.539Z" fill="#0D9FF0"/>
<path d="M200.879 293.539H209.271C209.787 293.539 210.175 293.152 210.175 292.636V284.251C210.175 283.735 209.787 283.348 209.271 283.348H200.879C200.362 283.348 199.975 283.735 199.975 284.251V292.636C199.975 293.088 200.362 293.539 200.879 293.539Z" fill="#0D9FF0"/>
<path d="M213.08 293.539H221.472C221.988 293.539 222.376 293.152 222.376 292.636V284.251C222.376 283.735 221.988 283.348 221.472 283.348H213.08C212.563 283.348 212.176 283.735 212.176 284.251V292.636C212.176 293.088 212.563 293.539 213.08 293.539Z" fill="#0D9FF0"/>
<path d="M225.281 293.539H233.673C234.189 293.539 234.577 293.152 234.577 292.636V284.251C234.577 283.735 234.189 283.348 233.673 283.348H225.281C224.764 283.348 224.377 283.735 224.377 284.251V292.636C224.377 293.088 224.764 293.539 225.281 293.539Z" fill="#0D9FF0"/>
<path d="M237.482 293.539H245.874C246.39 293.539 246.778 293.152 246.778 292.636V284.251C246.778 283.735 246.39 283.348 245.874 283.348H237.482C236.965 283.348 236.578 283.735 236.578 284.251V292.636C236.578 293.088 237.03 293.539 237.482 293.539Z" fill="#0D9FF0"/>
<path d="M258.14 283.284H249.747C249.231 283.284 248.844 283.671 248.844 284.187V292.572C248.844 293.088 249.231 293.475 249.747 293.475H258.14C258.656 293.475 259.043 293.088 259.043 292.572V284.187C259.043 283.671 258.656 283.284 258.14 283.284Z" fill="#0D9FF0"/>
<path d="M282.542 283.284H275.053H274.149H266.661C266.145 283.284 265.757 283.671 265.757 284.187V292.572C265.757 293.088 266.145 293.475 266.661 293.475H274.149H275.053H282.542C283.058 293.475 283.445 293.088 283.445 292.572V284.187C283.445 283.671 283.058 283.284 282.542 283.284Z" fill="#0D9FF0"/>
</g>
<path opacity="0.5" d="M290.954 259.48V309.79C289.469 312.306 286.693 314.048 283.53 314.048H163.134C159.39 314.048 156.162 311.661 155 308.307V259.48C155 251.998 161.068 246 168.492 246H277.397C284.886 246 290.954 251.998 290.954 259.48Z" fill="white"/>
<path d="M157.175 297.474L158.853 298.57C158.853 298.57 159.111 306.375 155.561 313.986C152.656 320.242 150.138 322.5 148.201 321.339L157.175 297.474Z" fill="#A0C5FF"/>
<path d="M147.039 317.92C147.233 310.18 147.62 299.086 147.62 299.086C147.62 299.086 148.718 294.894 151.429 294.7C153.108 294.636 154.657 296.442 157.562 297.603C159.305 298.312 156.142 312.373 152.075 318.501C151.171 320.049 146.846 324.628 147.039 317.92Z" fill="#0D9FF0"/>
<path d="M144.909 290.185C145.167 290.379 151.494 295.668 151.494 295.668C151.494 295.668 153.43 299.022 150.654 301.473C147.943 303.924 139.68 297.087 139.68 297.087L144.909 290.185Z" fill="#FECECC"/>
<path d="M127.35 209.625L95.4596 191.372C95.4596 191.372 68.4108 251.55 82.7421 274.383C91.0052 287.541 123.348 282.897 142.391 300.828C142.391 300.828 147.62 299.796 148.46 292.121C148.46 292.121 125.672 267.804 108.048 253.808C118.506 239.36 127.479 224.396 127.35 209.625Z" fill="#1C1C1C"/>
<path d="M140.778 346.365L140.907 348.364C140.907 348.364 134.774 353.267 126.575 355.008C119.797 356.427 116.505 355.782 116.246 353.524L140.778 346.365Z" fill="#A0C5FF"/>
<path d="M118.312 350.557C124.639 346.042 133.741 339.721 133.741 339.721C133.741 339.721 137.808 338.109 139.486 340.173C140.584 341.463 140.067 343.785 140.842 346.816C141.294 348.622 128.189 354.556 120.83 355.008C119.151 355.137 112.89 354.427 118.312 350.557Z" fill="#0D9FF0"/>
<path d="M139.293 332.175C139.293 332.497 138.905 340.689 138.905 340.689C138.905 340.689 137.356 344.236 133.741 343.527C130.126 342.817 130.642 332.11 130.642 332.11H139.293V332.175Z" fill="#FECECC"/>
<path d="M150.461 191.049L112.696 198.273C112.696 198.273 114.245 271.997 129.222 336.497C129.222 336.497 133.16 340.044 139.809 336.109C139.809 336.109 144.264 252.646 147.556 238.263C150.913 223.879 157.885 206.142 150.461 191.049Z" fill="#1C1C1C"/>
<path d="M95.7823 134.289C95.7823 134.289 85.0661 154.22 90.4242 159.509C95.7178 164.733 98.6228 164.024 98.6228 164.024L107.015 138.03L95.7823 134.289Z" fill="#EAB2B2"/>
<path d="M111.534 108.553C111.534 108.553 91.3925 128.161 94.1039 135.643C96.8152 143.125 107.08 141.255 107.08 141.255L111.534 108.553Z" fill="#0D9FF0"/>
<path d="M124.832 101.394C97.8481 100.749 85.6471 182.599 97.3317 199.885C105.53 212.011 134.58 209.947 153.043 193.435C160.273 173.698 156.4 102.103 124.832 101.394Z" fill="#0089D4"/>
<path d="M110.178 119.325C110.114 119.325 109.985 119.261 109.985 119.196C109.92 119.067 109.92 118.938 110.049 118.874C111.276 118.164 110.953 116.939 110.953 116.874C110.888 116.745 111.017 116.616 111.147 116.552C111.276 116.487 111.405 116.616 111.469 116.745C111.598 117.326 111.598 118.551 110.372 119.261C110.243 119.325 110.243 119.325 110.178 119.325Z" fill="#BDE7FF"/>
<path d="M116.311 131.064C116.246 131.064 116.117 131 116.117 130.935C116.053 130.806 116.053 130.677 116.182 130.613C117.408 129.903 117.086 128.678 117.086 128.613C117.021 128.484 117.15 128.355 117.279 128.291C117.408 128.226 117.538 128.355 117.602 128.484C117.731 129.065 117.731 130.29 116.505 131C116.376 131.064 116.311 131.064 116.311 131.064Z" fill="#BDE7FF"/>
<path d="M128.899 121.131C128.835 121.131 128.706 121.067 128.706 121.002C128.641 120.873 128.641 120.744 128.77 120.68C129.997 119.97 129.674 118.745 129.674 118.68C129.609 118.551 129.738 118.422 129.868 118.358C129.997 118.293 130.126 118.422 130.19 118.551C130.319 119.132 130.32 120.357 129.093 121.067C129.028 121.131 128.964 121.131 128.899 121.131Z" fill="#BDE7FF"/>
<path d="M111.276 137.837C111.276 137.901 111.211 138.03 111.146 138.03C111.017 138.095 110.888 138.095 110.824 137.966C110.114 136.74 108.887 137.063 108.822 137.063C108.693 137.127 108.564 136.998 108.5 136.869C108.435 136.74 108.564 136.611 108.693 136.547C109.274 136.418 110.501 136.418 111.211 137.643C111.276 137.708 111.276 137.772 111.276 137.837Z" fill="#BDE7FF"/>
<path d="M127.285 153.768C127.285 153.833 127.221 153.962 127.156 153.962C127.027 154.026 126.898 154.026 126.833 153.897C126.123 152.672 124.897 152.994 124.832 152.994C124.703 153.059 124.574 152.93 124.509 152.801C124.445 152.672 124.574 152.543 124.703 152.478C125.284 152.349 126.511 152.349 127.221 153.575C127.285 153.704 127.285 153.704 127.285 153.768Z" fill="#BDE7FF"/>
<path d="M99.591 148.608C99.5265 148.608 99.3974 148.544 99.3974 148.479C99.3328 148.35 99.3328 148.221 99.4619 148.157C100.688 147.447 100.366 146.222 100.366 146.157C100.301 146.028 100.43 145.899 100.559 145.835C100.688 145.77 100.818 145.899 100.882 146.028C101.011 146.609 101.011 147.834 99.7847 148.544C99.6556 148.608 99.591 148.608 99.591 148.608Z" fill="#BDE7FF"/>
<path d="M108.629 124.614C108.629 124.55 108.629 124.421 108.758 124.356C108.887 124.292 109.016 124.292 109.081 124.421C109.92 125.517 111.082 125.13 111.147 125.13C111.276 125.066 111.405 125.13 111.469 125.259C111.534 125.388 111.469 125.517 111.34 125.582C110.824 125.775 109.533 125.84 108.693 124.743C108.693 124.679 108.629 124.614 108.629 124.614Z" fill="#BDE7FF"/>
<path d="M123.089 115.649C123.089 115.584 123.089 115.455 123.218 115.391C123.347 115.326 123.477 115.326 123.541 115.455C124.38 116.552 125.542 116.165 125.607 116.165C125.736 116.1 125.865 116.165 125.93 116.294C125.994 116.423 125.93 116.552 125.801 116.616C125.284 116.81 123.993 116.874 123.154 115.778C123.154 115.778 123.089 115.713 123.089 115.649Z" fill="#BDE7FF"/>
<path d="M114.181 147.769C114.181 147.705 114.181 147.576 114.31 147.511C114.439 147.447 114.568 147.447 114.697 147.576C115.536 148.672 116.698 148.285 116.763 148.285C116.892 148.221 117.021 148.285 117.086 148.414C117.15 148.543 117.086 148.672 116.957 148.737C116.44 148.93 115.149 148.995 114.31 147.898C114.245 147.898 114.181 147.834 114.181 147.769Z" fill="#BDE7FF"/>
<path d="M126.575 129.258C126.575 129.194 126.575 129.065 126.704 129C126.834 128.936 126.963 128.936 127.092 129.065C127.931 130.161 129.093 129.774 129.158 129.774C129.287 129.71 129.416 129.774 129.48 129.903C129.545 130.032 129.48 130.161 129.351 130.226C128.835 130.419 127.544 130.484 126.704 129.387C126.64 129.323 126.64 129.323 126.575 129.258Z" fill="#BDE7FF"/>
<path d="M98.5582 138.933C98.5582 138.868 98.5582 138.739 98.6873 138.675C98.8165 138.61 98.9456 138.61 99.0101 138.739C99.8493 139.836 101.011 139.449 101.076 139.449C101.205 139.384 101.334 139.449 101.399 139.578C101.463 139.707 101.399 139.836 101.27 139.9C100.753 140.094 99.462 140.158 98.6228 139.062C98.5582 138.997 98.5582 138.933 98.5582 138.933Z" fill="#BDE7FF"/>
<path d="M114.181 185.567C114.181 185.502 114.181 185.373 114.31 185.309C114.439 185.244 114.568 185.244 114.697 185.373C115.536 186.47 116.698 186.083 116.763 186.083C116.892 186.018 117.021 186.083 117.086 186.212C117.15 186.341 117.086 186.47 116.957 186.534C116.44 186.728 115.149 186.792 114.31 185.696C114.245 185.631 114.181 185.567 114.181 185.567Z" fill="#BDE7FF"/>
<path d="M120.507 122.421C120.055 122.421 119.732 122.163 119.345 121.776C119.151 121.647 118.958 121.454 118.7 121.26C118.119 120.809 117.989 120.873 117.602 121.26C117.408 121.454 117.086 121.712 116.634 121.97C116.182 122.163 115.795 122.228 115.407 122.099C114.762 121.841 114.503 121.067 114.439 121.002C114.374 120.873 114.439 120.744 114.568 120.68C114.697 120.615 114.826 120.68 114.891 120.809C114.891 120.809 115.084 121.389 115.536 121.583C115.795 121.647 116.053 121.647 116.311 121.518C116.698 121.325 116.957 121.067 117.215 120.873C117.731 120.422 118.054 120.164 118.958 120.809C119.216 121.002 119.474 121.196 119.668 121.389C120.249 121.905 120.443 122.099 121.217 121.647C121.346 121.583 121.475 121.647 121.54 121.776C121.605 121.905 121.54 122.034 121.411 122.099C121.088 122.357 120.765 122.421 120.507 122.421Z" fill="#BDE7FF"/>
<path d="M123.025 144.48C122.573 144.48 122.25 144.222 121.863 143.835C121.669 143.706 121.475 143.513 121.217 143.319C120.636 142.868 120.507 142.932 120.12 143.319C119.926 143.513 119.603 143.771 119.151 144.029C118.699 144.222 118.312 144.287 117.925 144.158C117.279 143.9 117.021 143.126 116.956 143.061C116.892 142.932 116.956 142.803 117.086 142.739C117.215 142.674 117.344 142.739 117.408 142.868C117.408 142.868 117.602 143.448 118.054 143.642C118.312 143.706 118.57 143.706 118.829 143.577C119.216 143.384 119.474 143.126 119.732 142.932C120.249 142.481 120.572 142.223 121.475 142.868C121.734 143.061 121.992 143.255 122.185 143.448C122.766 143.964 122.96 144.158 123.735 143.706C123.864 143.642 123.993 143.706 124.058 143.835C124.122 143.964 124.058 144.093 123.928 144.158C123.606 144.351 123.283 144.48 123.025 144.48Z" fill="#BDE7FF"/>
<path d="M111.792 173.828C111.34 173.828 111.017 173.57 110.63 173.183C110.436 173.054 110.243 172.86 109.984 172.667C109.403 172.215 109.274 172.28 108.887 172.667C108.693 172.86 108.371 173.118 107.919 173.376C107.467 173.57 107.079 173.634 106.692 173.505C106.047 173.247 105.788 172.473 105.724 172.409C105.659 172.28 105.724 172.151 105.853 172.086C105.982 172.022 106.111 172.086 106.176 172.215C106.176 172.215 106.369 172.796 106.821 172.989C107.079 173.054 107.338 173.054 107.596 172.925C107.983 172.731 108.241 172.473 108.5 172.28C109.016 171.828 109.339 171.57 110.243 172.215C110.501 172.409 110.759 172.602 110.953 172.796C111.534 173.312 111.727 173.505 112.502 173.054C112.631 172.989 112.76 173.054 112.825 173.183C112.889 173.312 112.825 173.441 112.696 173.505C112.373 173.763 112.05 173.828 111.792 173.828Z" fill="#BDE7FF"/>
<path d="M142.908 195.048C142.52 195.306 142.069 195.242 141.552 195.113C141.294 195.048 141.036 195.048 140.713 194.984C140.003 194.919 139.938 195.048 139.809 195.564C139.745 195.822 139.615 196.209 139.357 196.661C139.099 197.048 138.776 197.306 138.389 197.37C137.679 197.499 137.033 196.983 137.033 196.919C136.904 196.854 136.904 196.661 136.969 196.532C137.033 196.403 137.227 196.403 137.356 196.467C137.356 196.467 137.808 196.854 138.324 196.79C138.583 196.725 138.776 196.596 138.97 196.274C139.228 195.887 139.293 195.564 139.422 195.242C139.615 194.597 139.809 194.21 140.907 194.339C141.229 194.339 141.552 194.403 141.81 194.468C142.585 194.597 142.843 194.661 143.295 193.887C143.36 193.758 143.553 193.758 143.618 193.823C143.747 193.887 143.747 194.081 143.682 194.145C143.36 194.661 143.101 194.919 142.908 195.048Z" fill="#BDE7FF"/>
<path d="M104.239 137.45C103.529 137.256 103.206 136.869 103.077 136.547C102.819 135.966 103.013 135.257 103.271 134.805C103.723 134.031 103.916 133.451 103.206 132.806C102.819 132.483 102.819 132.161 102.819 131.967C102.883 131.322 103.658 130.871 103.787 130.806C103.916 130.742 104.045 130.806 104.11 130.871C104.175 131 104.11 131.129 104.045 131.193C103.852 131.322 103.4 131.645 103.335 131.967C103.335 132.032 103.335 132.161 103.529 132.354C104.691 133.322 103.981 134.547 103.723 134.999C103.529 135.321 103.4 135.837 103.594 136.289C103.723 136.611 103.981 136.805 104.368 136.869C104.497 136.934 104.562 137.063 104.562 137.192C104.497 137.385 104.368 137.45 104.239 137.45Z" fill="#BDE7FF"/>
<path d="M109.21 167.765C108.5 167.571 108.177 167.184 108.048 166.862C107.79 166.281 107.983 165.572 108.242 165.12C108.693 164.346 108.887 163.766 108.177 163.121C107.79 162.798 107.79 162.476 107.79 162.282C107.854 161.637 108.629 161.186 108.758 161.121C108.887 161.057 109.016 161.121 109.081 161.186C109.145 161.315 109.081 161.444 109.016 161.508C108.823 161.637 108.371 161.96 108.306 162.282C108.306 162.347 108.306 162.476 108.5 162.669C109.662 163.637 108.952 164.862 108.693 165.314C108.5 165.636 108.371 166.152 108.564 166.604C108.693 166.926 108.952 167.12 109.339 167.184C109.468 167.249 109.533 167.378 109.533 167.507C109.468 167.7 109.339 167.765 109.21 167.765Z" fill="#BDE7FF"/>
<path d="M103.271 187.179C103.206 187.179 103.206 187.179 103.271 187.179C102.561 186.986 102.238 186.599 102.109 186.276C101.85 185.696 102.044 184.986 102.302 184.535C102.754 183.761 102.948 183.18 102.238 182.535C101.85 182.213 101.85 181.89 101.85 181.697C101.915 181.052 102.69 180.6 102.819 180.536C102.948 180.471 103.077 180.536 103.142 180.6C103.206 180.729 103.142 180.858 103.077 180.923C102.883 181.052 102.431 181.374 102.367 181.697C102.367 181.761 102.367 181.89 102.561 182.084C103.723 183.051 103.012 184.277 102.754 184.728C102.561 185.051 102.431 185.567 102.625 186.018C102.754 186.341 103.012 186.534 103.4 186.599C103.529 186.663 103.593 186.792 103.593 186.921C103.464 187.115 103.335 187.179 103.271 187.179Z" fill="#BDE7FF"/>
<path d="M123.154 133.515C123.412 134.225 123.218 134.676 123.025 134.999C122.637 135.515 121.992 135.773 121.475 135.837C120.572 135.902 119.991 136.095 119.861 136.998C119.797 137.45 119.603 137.708 119.41 137.772C118.829 138.095 117.989 137.708 117.925 137.643C117.796 137.579 117.731 137.45 117.796 137.321C117.86 137.192 117.989 137.127 118.118 137.192C118.312 137.256 118.893 137.514 119.151 137.321C119.216 137.321 119.345 137.256 119.345 136.934C119.539 135.386 120.894 135.321 121.411 135.321C121.798 135.321 122.315 135.128 122.573 134.741C122.766 134.483 122.766 134.16 122.637 133.773C122.573 133.644 122.637 133.515 122.766 133.451C122.96 133.386 123.089 133.386 123.154 133.515Z" fill="#BDE7FF"/>
<path d="M107.919 195.113C107.725 195.822 107.338 196.145 107.015 196.274C106.434 196.532 105.724 196.338 105.272 196.08C104.497 195.629 103.916 195.435 103.271 196.145C102.948 196.532 102.625 196.532 102.432 196.532C101.786 196.467 101.334 195.693 101.27 195.564C101.205 195.435 101.27 195.306 101.334 195.242C101.463 195.177 101.592 195.242 101.657 195.306C101.786 195.5 102.109 195.951 102.432 196.016C102.496 196.016 102.625 196.016 102.819 195.822C103.787 194.661 105.014 195.371 105.466 195.629C105.788 195.822 106.305 195.951 106.757 195.758C107.08 195.629 107.273 195.371 107.338 194.984C107.402 194.855 107.531 194.79 107.661 194.79C107.854 194.855 107.919 194.984 107.919 195.113Z" fill="#BDE7FF"/>
<path d="M101.14 172.086C101.399 172.796 101.205 173.247 101.011 173.57C100.624 174.086 99.9784 174.344 99.4619 174.408C98.5582 174.473 97.9772 174.666 97.8481 175.569C97.7835 176.021 97.5898 176.279 97.3962 176.343C96.8152 176.666 95.9759 176.279 95.9114 176.214C95.7823 176.15 95.7177 176.021 95.7823 175.892C95.8468 175.763 95.976 175.698 96.1051 175.763C96.2987 175.827 96.8797 176.085 97.138 175.892C97.2025 175.892 97.3316 175.827 97.3316 175.505C97.5253 173.957 98.881 173.892 99.3974 173.892C99.7847 173.892 100.301 173.699 100.559 173.312C100.753 173.054 100.753 172.731 100.624 172.344C100.559 172.215 100.624 172.086 100.753 172.022C100.947 171.957 101.076 172.022 101.14 172.086Z" fill="#BDE7FF"/>
<path d="M107.79 148.544C107.08 148.544 106.499 147.963 106.499 147.254C106.499 146.544 107.08 145.964 107.79 145.964C108.5 145.964 109.081 146.544 109.081 147.254C109.145 147.963 108.564 148.544 107.79 148.544ZM107.79 146.48C107.338 146.48 107.015 146.867 107.015 147.254C107.015 147.705 107.402 148.027 107.79 148.027C108.177 148.027 108.564 147.641 108.564 147.254C108.629 146.802 108.242 146.48 107.79 146.48Z" fill="#BDE7FF"/>
<path d="M127.479 126.936C126.769 126.936 126.188 126.356 126.188 125.646C126.188 124.937 126.769 124.356 127.479 124.356C128.189 124.356 128.77 124.937 128.77 125.646C128.835 126.356 128.254 126.936 127.479 126.936ZM127.479 124.808C127.027 124.808 126.704 125.195 126.704 125.582C126.704 126.033 127.092 126.356 127.479 126.356C127.866 126.356 128.254 125.969 128.254 125.582C128.318 125.195 127.931 124.808 127.479 124.808Z" fill="#BDE7FF"/>
<path d="M107.209 129.58C106.498 129.58 105.917 129 105.917 128.29C105.917 127.581 106.498 127 107.209 127C107.919 127 108.5 127.581 108.5 128.29C108.5 129 107.919 129.58 107.209 129.58ZM107.209 127.516C106.757 127.516 106.434 127.903 106.434 128.29C106.434 128.742 106.821 129.064 107.209 129.064C107.66 129.064 107.983 128.677 107.983 128.29C107.983 127.839 107.66 127.516 107.209 127.516Z" fill="#BDE7FF"/>
<path d="M101.399 165.378C100.689 165.378 100.108 164.798 100.108 164.088C100.108 163.379 100.689 162.798 101.399 162.798C102.109 162.798 102.69 163.379 102.69 164.088C102.69 164.733 102.109 165.378 101.399 165.378ZM101.399 163.25C100.947 163.25 100.624 163.637 100.624 164.024C100.624 164.475 101.011 164.798 101.399 164.798C101.786 164.798 102.173 164.411 102.173 164.024C102.173 163.572 101.851 163.25 101.399 163.25Z" fill="#BDE7FF"/>
<path d="M111.276 181.116C110.565 181.116 109.984 180.536 109.984 179.826C109.984 179.117 110.565 178.536 111.276 178.536C111.986 178.536 112.567 179.117 112.567 179.826C112.631 180.536 112.05 181.116 111.276 181.116ZM111.276 178.988C110.824 178.988 110.501 179.375 110.501 179.762C110.501 180.213 110.888 180.536 111.276 180.536C111.727 180.536 112.05 180.149 112.05 179.762C112.115 179.375 111.727 178.988 111.276 178.988Z" fill="#BDE7FF"/>
<path d="M118.248 116.1C117.538 116.1 116.957 115.52 116.957 114.81C116.957 114.101 117.538 113.52 118.248 113.52C118.958 113.52 119.539 114.101 119.539 114.81C119.603 115.455 118.958 116.1 118.248 116.1ZM118.248 113.972C117.796 113.972 117.473 114.359 117.473 114.746C117.473 115.197 117.86 115.52 118.248 115.52C118.7 115.52 119.022 115.133 119.022 114.746C119.087 114.294 118.7 113.972 118.248 113.972Z" fill="#BDE7FF"/>
<path d="M133.547 180.342C132.837 180.342 132.256 179.762 132.256 179.052C132.256 178.343 132.837 177.762 133.547 177.762C134.257 177.762 134.838 178.343 134.838 179.052C134.903 179.697 134.257 180.342 133.547 180.342ZM133.547 178.214C133.095 178.214 132.773 178.601 132.773 178.988C132.773 179.439 133.16 179.762 133.547 179.762C133.999 179.762 134.322 179.375 134.322 178.988C134.387 178.536 133.999 178.214 133.547 178.214Z" fill="#BDE7FF"/>
<path d="M116.763 175.633C116.698 175.633 116.569 175.569 116.569 175.504C116.505 175.375 116.505 175.246 116.634 175.182C117.86 174.472 117.537 173.247 117.537 173.182C117.473 173.053 117.602 172.924 117.731 172.86C117.86 172.795 117.989 172.924 118.054 173.053C118.183 173.634 118.183 174.859 116.956 175.569C116.827 175.569 116.763 175.633 116.763 175.633Z" fill="#BDE7FF"/>
<path d="M138.841 179.375C138.841 179.31 138.841 179.181 138.97 179.117C139.099 179.052 139.228 179.052 139.293 179.181C140.132 180.278 141.294 179.891 141.359 179.891C141.488 179.826 141.617 179.891 141.681 180.02C141.746 180.149 141.681 180.278 141.552 180.342C141.036 180.536 139.745 180.6 138.905 179.504C138.841 179.504 138.841 179.439 138.841 179.375Z" fill="#BDE7FF"/>
<path d="M152.914 176.15C152.462 176.15 152.139 175.892 151.752 175.505C151.558 175.376 151.365 175.182 151.106 174.989C150.525 174.537 150.396 174.602 150.009 174.989C149.815 175.182 149.493 175.44 149.041 175.698C148.589 175.892 148.201 175.956 147.814 175.827C147.169 175.569 146.91 174.795 146.846 174.731C146.781 174.602 146.846 174.473 146.975 174.408C147.104 174.344 147.233 174.408 147.298 174.537C147.298 174.537 147.491 175.118 147.943 175.311C148.201 175.376 148.46 175.376 148.718 175.247C149.105 175.053 149.363 174.795 149.622 174.602C150.138 174.15 150.461 173.892 151.365 174.537C151.623 174.731 151.881 174.924 152.075 175.118C152.656 175.634 152.849 175.827 153.624 175.376C153.753 175.311 153.882 175.376 153.947 175.505C154.011 175.634 153.947 175.763 153.818 175.827C153.43 176.085 153.172 176.15 152.914 176.15Z" fill="#BDE7FF"/>
<path d="M121.088 196.532C120.378 196.338 120.055 195.951 119.926 195.629C119.668 195.048 119.862 194.339 120.12 193.887C120.572 193.113 120.765 192.533 120.055 191.888C119.668 191.565 119.668 191.243 119.668 191.049C119.732 190.404 120.507 189.953 120.636 189.888C120.765 189.824 120.894 189.888 120.959 189.953C121.024 190.082 120.959 190.211 120.894 190.275C120.701 190.404 120.249 190.727 120.184 191.049C120.184 191.114 120.184 191.243 120.378 191.436C121.54 192.404 120.83 193.629 120.572 194.081C120.378 194.403 120.249 194.919 120.443 195.371C120.572 195.693 120.83 195.887 121.217 195.951C121.346 196.016 121.411 196.145 121.411 196.274C121.346 196.467 121.217 196.532 121.088 196.532Z" fill="#BDE7FF"/>
<path d="M123.864 181.826C123.154 181.632 122.831 181.245 122.702 180.923C122.444 180.342 122.637 179.633 122.896 179.181C123.348 178.407 123.541 177.827 122.831 177.182C122.444 176.859 122.444 176.537 122.444 176.343C122.508 175.698 123.283 175.247 123.412 175.182C123.541 175.118 123.67 175.182 123.735 175.247C123.799 175.376 123.735 175.505 123.67 175.569C123.477 175.698 123.025 176.021 122.96 176.343C122.96 176.408 122.96 176.537 123.154 176.73C124.316 177.698 123.606 178.923 123.347 179.375C123.154 179.697 123.025 180.213 123.218 180.665C123.348 180.987 123.606 181.181 123.993 181.245C124.122 181.31 124.187 181.439 124.187 181.568C124.122 181.761 123.993 181.826 123.864 181.826Z" fill="#BDE7FF"/>
<path d="M136.904 189.759C136.711 190.469 136.323 190.791 136 190.92C135.419 191.178 134.709 190.985 134.257 190.727C133.483 190.275 132.902 190.082 132.256 190.791C131.933 191.178 131.611 191.178 131.417 191.178C130.771 191.114 130.32 190.34 130.255 190.211C130.19 190.082 130.255 189.953 130.32 189.888C130.449 189.824 130.578 189.888 130.642 189.953C130.771 190.146 131.094 190.598 131.417 190.662C131.482 190.662 131.611 190.662 131.804 190.469C132.773 189.308 133.999 190.017 134.451 190.275C134.774 190.469 135.29 190.598 135.742 190.404C136.065 190.275 136.259 190.017 136.323 189.63C136.388 189.501 136.517 189.437 136.646 189.437C136.84 189.501 136.904 189.63 136.904 189.759Z" fill="#BDE7FF"/>
<path d="M116.827 201.692C116.117 201.692 115.536 201.111 115.536 200.402C115.536 199.692 116.117 199.112 116.827 199.112C117.537 199.112 118.118 199.692 118.118 200.402C118.118 201.047 117.537 201.692 116.827 201.692ZM116.827 199.563C116.375 199.563 116.053 199.95 116.053 200.337C116.053 200.789 116.44 201.111 116.827 201.111C117.215 201.111 117.602 200.724 117.602 200.337C117.602 199.886 117.279 199.563 116.827 199.563Z" fill="#BDE7FF"/>
<path d="M128.835 200.337C128.125 200.337 127.544 199.757 127.544 199.047C127.544 198.338 128.125 197.757 128.835 197.757C129.545 197.757 130.126 198.338 130.126 199.047C130.126 199.757 129.545 200.337 128.835 200.337ZM128.835 198.209C128.383 198.209 128.06 198.596 128.06 198.983C128.06 199.434 128.447 199.757 128.835 199.757C129.222 199.757 129.609 199.37 129.609 198.983C129.609 198.596 129.287 198.209 128.835 198.209Z" fill="#BDE7FF"/>
<path d="M145.49 186.47C144.78 186.47 144.199 185.889 144.199 185.18C144.199 184.47 144.78 183.89 145.49 183.89C146.2 183.89 146.781 184.47 146.781 185.18C146.781 185.889 146.2 186.47 145.49 186.47ZM145.49 184.341C145.038 184.341 144.715 184.728 144.715 185.115C144.715 185.567 145.103 185.889 145.49 185.889C145.942 185.889 146.265 185.502 146.265 185.115C146.265 184.728 145.942 184.341 145.49 184.341Z" fill="#BDE7FF"/>
<path d="M116.698 94.3635L117.279 103.006C117.279 103.006 120.701 110.424 129.868 101.974L124.445 90.7515L116.698 94.3635Z" fill="#FECECC"/>
<path opacity="0.1" d="M124.445 90.7515L116.698 94.3635L116.957 98.1045C117.15 98.1045 118.7 101.071 119.539 100.491C121.798 98.814 123.864 99.5235 123.993 100.104C124.316 101.071 123.799 102.103 123.541 103.071C123.348 103.716 123.348 104.49 122.767 105.07C122.315 105.457 121.669 105.715 121.024 105.909C123.025 106.296 125.93 105.651 129.932 101.974L124.445 90.7515Z" fill="#201135"/>
<path d="M98.8165 78.045C98.8165 78.045 103.529 105.457 113.406 102.555C123.219 99.6525 126.124 87.0105 126.124 87.0105C126.124 87.0105 129.868 84.882 128.383 79.98C127.156 76.0455 125.026 77.5935 125.026 77.5935C125.026 77.5935 123.219 67.0155 115.666 67.596C107.983 68.241 98.8165 78.045 98.8165 78.045Z" fill="#FECECC"/>
<path opacity="0.1" d="M117.86 86.1075C118.183 86.688 117.731 87.591 116.827 88.107C115.924 88.623 114.955 88.5585 114.633 87.978C114.31 87.3975 114.762 86.4945 115.665 85.9785C116.505 85.4625 117.538 85.527 117.86 86.1075Z" fill="#201135"/>
<path opacity="0.1" d="M107.144 90.1064C107.467 90.6869 107.015 91.5899 106.111 92.1059C105.207 92.6219 104.239 92.5575 103.916 91.977C103.594 91.3965 104.045 90.4934 104.949 89.9774C105.788 89.4614 106.821 89.5259 107.144 90.1064Z" fill="#201135"/>
<path d="M105.466 84.0434C105.401 84.1079 105.272 84.0434 105.207 83.9789C105.143 83.9144 103.464 82.6244 101.399 84.6239C101.27 84.7529 101.076 84.7529 101.011 84.6239C100.882 84.4949 100.882 84.3659 101.011 84.2369C103.464 81.8504 105.53 83.5274 105.595 83.5274C105.724 83.6564 105.724 83.7854 105.659 83.9144C105.53 84.0434 105.466 84.0434 105.466 84.0434Z" fill="#000141"/>
<path d="M110.566 82.2375C110.501 82.2375 110.501 82.2375 110.436 82.2375C110.307 82.2375 110.178 82.1085 110.178 81.9795C110.178 81.9795 110.307 79.2705 114.052 78.7545C114.181 78.7545 114.374 78.819 114.374 79.0125C114.374 79.1415 114.31 79.335 114.116 79.335C110.824 79.7865 110.759 81.9795 110.759 81.9795C110.759 82.1085 110.695 82.173 110.566 82.2375Z" fill="#000141"/>
<path d="M114.955 81.27C115.02 81.27 115.02 81.27 115.084 81.27C115.214 81.27 115.343 81.399 115.343 81.5925C115.343 81.5925 115.084 84.237 111.276 84.5595C111.147 84.5595 110.953 84.4305 110.953 84.3015C110.953 84.1725 111.082 83.979 111.211 83.979C114.503 83.721 114.762 81.528 114.762 81.528C114.762 81.399 114.826 81.27 114.955 81.27Z" fill="#000141"/>
<path d="M105.272 85.3979C105.337 85.3979 105.337 85.3979 105.401 85.3979C105.53 85.3979 105.659 85.5269 105.659 85.7204C105.659 85.7204 105.401 88.365 101.592 88.6875C101.463 88.6875 101.27 88.5585 101.27 88.4295C101.27 88.3005 101.399 88.107 101.528 88.107C104.82 87.849 105.078 85.656 105.078 85.656C105.078 85.527 105.143 85.4624 105.272 85.3979Z" fill="#000141"/>
<path d="M109.985 89.9774C109.92 90.0419 109.791 90.0419 109.726 90.0419C109.081 90.1064 108.629 89.5259 108.629 89.5259C108.564 89.4614 108.564 89.3969 108.564 89.2679C108.952 87.4619 107.983 85.5914 107.983 85.5914C107.919 85.4624 107.983 85.2689 108.112 85.2044C108.242 85.1399 108.435 85.2044 108.5 85.3334C108.564 85.3979 109.533 87.3329 109.145 89.2679C109.274 89.3969 109.468 89.5259 109.726 89.5259C109.92 89.5259 110.114 89.3324 110.307 89.0744C110.372 88.9454 110.566 88.8809 110.695 89.0099C110.824 89.0744 110.888 89.2679 110.759 89.3969C110.501 89.6549 110.307 89.8484 109.985 89.9774Z" fill="#000141"/>
<path d="M107.854 94.6214C107.854 94.6214 111.405 94.8794 114.181 92.0414C115.472 93.2024 112.825 98.3624 107.854 94.6214Z" fill="#FCFAF7"/>
<path opacity="0.1" d="M113.148 96.9435C112.89 97.0725 112.696 97.0725 112.631 97.0725C112.567 97.0725 112.502 97.008 112.502 96.9435C112.502 96.879 112.567 96.8145 112.631 96.8145C112.631 96.8145 113.923 96.621 114.633 95.331C114.697 95.2665 114.762 95.2665 114.826 95.2665C114.891 95.331 114.891 95.3955 114.891 95.46C114.374 96.363 113.664 96.75 113.148 96.9435Z" fill="#201135"/>
<path opacity="0.1" d="M125.091 79.335C125.091 79.335 126.382 78.045 127.092 79.0125C127.802 79.98 127.867 83.076 126.575 84.3015C126.575 84.3015 128.318 80.6895 126.834 79.464C125.413 78.174 125.478 80.0445 125.091 79.335Z" fill="#201135"/>
<path d="M128.835 99.717C128.835 99.717 131.74 101.329 131.288 105.006C130.901 108.166 130.061 111.004 125.865 111.262C121.669 111.52 120.572 107.586 120.572 107.586C120.572 107.586 118.183 113.004 114.697 111.262C108.823 108.36 117.15 102.168 117.15 102.168C117.15 102.168 117.602 104.554 121.346 104.748C125.155 104.941 128.835 99.717 128.835 99.717Z" fill="#0D9FF0"/>
<path d="M112.502 70.563C112.502 70.563 111.599 76.626 108.5 77.529C105.466 78.432 104.949 77.9805 104.949 77.9805C104.949 77.9805 104.175 81.27 99.7203 82.689C95.2014 84.108 93.7812 81.2055 93.7812 81.2055C93.7812 81.2055 90.1016 81.399 89.7142 77.3355C89.3269 73.272 92.8774 73.3365 92.8774 73.3365C92.8774 73.3365 90.4243 71.724 92.6838 68.112C94.9432 64.5 99.6558 67.7895 99.6558 67.7895C99.6558 67.7895 100.043 66.177 103.852 63.21C107.725 60.1785 112.438 63.7905 112.438 63.7905C112.438 63.7905 117.731 59.598 121.088 64.9515C121.088 64.9515 125.994 65.8545 125.478 70.047C125.478 70.047 131.159 75.981 124.897 78.3675C124.897 78.3675 125.155 82.302 122.573 83.0115C119.991 83.721 120.12 79.6575 119.087 78.4965C117.925 77.2065 113.471 77.4645 112.502 70.563Z" fill="#1C1C1C"/>
<path d="M151.817 135.644L131.352 139.32L133.547 157.638L97.0089 148.028L97.7836 158.154C97.7836 158.154 125.155 178.601 143.747 174.15C162.404 169.764 151.817 135.644 151.817 135.644Z" fill="#FECECC"/>
<path d="M128.706 145.577C128.706 145.577 148.266 153.252 156.4 142.803C156.4 142.803 152.656 116.939 137.292 105.78C128.125 107.909 128.706 145.577 128.706 145.577Z" fill="#0D9FF0"/>
<path d="M85.2598 137.256L79.127 141.578C78.6751 141.9 78.6751 142.932 79.1916 143.835L90.6179 164.604C91.1344 165.507 91.9736 166.088 92.49 165.83L99.2684 162.54C99.8494 162.282 99.8494 161.25 99.3329 160.283L87.1965 138.417C86.6155 137.385 85.7763 136.934 85.2598 137.256Z" fill="#1C1C1C"/>
<path d="M79.7726 151.769C79.7726 151.769 76.9322 148.479 78.0296 147.447C79.127 146.415 81.1283 150.027 81.1283 150.027C81.1283 150.027 81.7738 145.383 84.1624 144.932C86.5509 144.48 85.9054 147.447 85.9054 147.447C85.9054 147.447 87.9712 145.577 89.004 147.447C89.9724 149.318 88.4876 150.414 88.4876 150.414C88.4876 150.414 90.4888 148.866 91.5863 150.414C92.7483 151.962 90.9407 153.188 90.9407 153.188C90.9407 153.188 92.2964 154.091 92.7483 155.51C93.2002 156.929 85.5826 160.412 83.0004 159.573C80.4182 158.735 79.7726 151.769 79.7726 151.769Z" fill="#EAB2B2"/>
<path d="M91.5862 162.476C92.3609 162.218 93.3292 161.702 94.7495 160.799C94.7495 160.799 94.7494 160.799 94.6849 160.799C95.395 160.412 96.1051 159.896 96.8152 159.38C98.0418 158.477 98.881 157.767 99.3975 157.251C100.237 156.477 100.495 156.026 100.495 156.026C100.495 156.026 99.5266 147.77 96.6861 147.254C93.3292 146.673 87.261 141.642 86.8091 144.158C86.3572 146.673 91.3926 148.608 91.3926 148.608C91.3926 148.608 91.328 148.608 91.1989 148.673C90.4242 148.802 87.6483 149.447 85.3889 150.801C84.7433 151.188 84.1623 151.64 83.7104 152.156C83.6459 152.22 83.5168 152.349 83.4522 152.414C83.3231 152.607 83.194 152.736 83.0649 152.93L83.0003 152.994C82.9358 153.059 82.8712 153.188 82.8067 153.252C82.7421 153.575 82.7421 153.897 82.9358 154.349C83.5168 155.832 84.7433 155.51 84.7433 155.51C84.7433 155.51 83.9041 156.413 84.5497 157.509C85.2598 158.67 86.099 158.09 86.099 158.09C86.099 158.09 85.518 159.315 86.099 160.218C86.7446 161.186 87.7129 160.476 87.7129 160.476C87.7129 160.476 87.1965 161.25 87.9066 162.411C88.6812 163.637 91.5862 162.476 91.5862 162.476Z" fill="#FECECC"/>
<path opacity="0.2" d="M87.8421 157.896C87.8421 157.961 87.8421 157.961 87.8421 158.025C88.294 158.541 88.6813 159.057 88.7459 159.767C88.7459 160.025 88.8104 160.283 89.0041 160.412C89.0686 160.476 89.1978 160.541 89.3269 160.605C89.456 160.67 89.5851 160.799 89.6496 160.863C89.9724 161.25 90.1661 161.702 90.3598 162.153C90.4243 162.347 90.4889 162.605 90.5534 162.798C89.6496 162.992 88.5522 163.185 88.1649 162.605C87.4548 161.508 87.9712 160.67 87.9712 160.67C87.9712 160.67 87.0029 161.315 86.3573 160.412C85.7763 159.509 86.3573 158.283 86.3573 158.283C86.3573 158.283 85.5181 158.864 84.808 157.703C84.1624 156.606 85.0016 155.703 85.0016 155.703C85.0016 155.703 83.7751 155.961 83.1941 154.542C83.0004 154.091 83.0004 153.704 83.065 153.446C83.1295 153.317 83.1941 153.252 83.2586 153.188L83.3232 153.123C83.4523 152.93 83.5814 152.736 83.7105 152.607C83.7751 152.543 83.9042 152.414 83.9688 152.349C84.0333 152.736 84.1624 153.123 84.2915 153.446C84.4852 153.833 84.6789 154.22 85.0662 154.413C85.4535 154.607 85.9054 154.607 86.3573 154.8C86.8092 154.994 87.0029 155.445 87.0674 155.897C87.132 156.284 87.0029 156.671 87.1965 156.993C87.0674 157.316 87.4548 157.574 87.8421 157.896C87.7775 157.896 87.7775 157.832 87.8421 157.896Z" fill="white"/>
<path opacity="0.2" d="M87.4547 143.9C87.4547 143.9 89.1332 144.996 89.5205 144.867C89.8433 144.738 89.7787 144.287 89.7787 144.287C89.7787 144.287 88.0357 143.513 87.4547 143.9Z" fill="white"/>
<path d="M233.996 58.179C233.996 59.469 235.029 60.4365 236.255 60.4365C237.546 60.4365 238.515 59.4045 238.515 58.179C238.515 56.889 237.482 55.9215 236.255 55.9215C235.029 55.857 233.996 56.889 233.996 58.179Z" fill="#0D9FF0"/>
<path d="M225.797 60.4365C227.045 60.4365 228.057 59.4258 228.057 58.179C228.057 56.9322 227.045 55.9215 225.797 55.9215C224.549 55.9215 223.538 56.9322 223.538 58.179C223.538 59.4258 224.549 60.4365 225.797 60.4365Z" fill="#0D9FF0"/>
<path d="M215.275 60.4364C216.523 60.4364 217.534 59.4257 217.534 58.1789C217.534 56.9322 216.523 55.9214 215.275 55.9214C214.027 55.9214 213.015 56.9322 213.015 58.1789C213.015 59.4257 214.027 60.4364 215.275 60.4364Z" fill="#0D9FF0"/>
<path d="M337.866 139.449L349.292 125.453L352.649 139.901C352.907 140.997 352.197 142.094 351.1 142.352L327.214 147.834C326.117 148.092 325.019 147.383 324.761 146.286L321.598 132.419L337.866 139.449Z" fill="#0D9FF0"/>
<path d="M350.712 140.933C350.97 140.868 351.164 140.546 351.1 140.288L348.453 128.871L338.253 141.32L323.663 135.063L326.181 146.028C326.246 146.286 326.568 146.48 326.827 146.415L350.712 140.933Z" fill="#0D9FF0"/>
<path d="M322.501 131.322L347.355 125.646L337.414 137.772L322.501 131.322Z" fill="#0D9FF0"/>
<path d="M318.047 192.984L332.572 190.985L326.181 201.563C325.665 202.401 324.632 202.659 323.857 202.208L307.137 192.081C306.363 191.63 306.104 190.598 306.621 189.759L312.754 179.633L318.047 192.984Z" fill="#0D9FF0"/>
<path d="M324.503 201.111C324.696 201.24 324.954 201.176 325.084 200.918L330.119 192.597L317.143 194.339L312.431 182.406L307.589 190.404C307.46 190.598 307.524 190.92 307.718 190.985L324.503 201.111Z" fill="#0D9FF0"/>
<path d="M313.98 179.504L331.346 190.017L318.822 191.759L313.98 179.504Z" fill="#0D9FF0"/>
</svg>
