<svg width="314" height="220" viewBox="0 0 314 220" fill="none" xmlns="http://www.w3.org/2000/svg">
<path d="M288.742 17.995C264.3 0.278474 234.784 -1.76753 210.203 1.30147C184.783 4.74247 164.299 13.252 139.438 25.435C115.229 37.339 88.041 47.569 63.6459 51.475C39.4835 56.311 18.0214 54.73 11.1778 64.8205C4.79965 73.702 11.783 99.2305 40.7871 126.851C68.9066 153.682 119.047 182.605 178.731 179.396C238.043 178.373 285.623 143.684 303.453 108.019C322.774 71.8885 312.392 34.7815 288.742 17.995Z" fill="#BDE7FF"/>
<path d="M70.3965 211.156H288.323C288.928 211.156 289.394 210.691 289.394 210.086C289.394 209.482 288.928 209.017 288.323 209.017H70.3965C69.7912 209.017 69.3257 209.482 69.3257 210.086C69.3257 210.691 69.7912 211.156 70.3965 211.156Z" fill="#1C1C1C"/>
<path d="M302.103 86.6755C301.731 86.6755 301.405 87.001 301.405 87.373C301.405 87.745 301.731 88.0705 302.103 88.0705C302.476 88.0705 302.802 87.745 302.802 87.373C302.802 87.001 302.476 86.6755 302.103 86.6755Z" fill="#0D9FF0"/>
<path d="M302.103 81.328C301.731 81.328 301.405 81.6535 301.405 82.0255C301.405 82.3975 301.731 82.723 302.103 82.723C302.476 82.723 302.802 82.3975 302.802 82.0255C302.802 81.607 302.476 81.328 302.103 81.328Z" fill="#0D9FF0"/>
<path d="M302.103 75.934C301.731 75.934 301.405 76.2595 301.405 76.6315C301.405 77.0035 301.731 77.329 302.103 77.329C302.476 77.329 302.802 77.0035 302.802 76.6315C302.802 76.2595 302.476 75.934 302.103 75.934Z" fill="#0D9FF0"/>
<path d="M302.103 70.5865C301.731 70.5865 301.405 70.912 301.405 71.284C301.405 71.656 301.731 71.9815 302.103 71.9815C302.476 71.9815 302.802 71.656 302.802 71.284C302.802 70.912 302.476 70.5865 302.103 70.5865Z" fill="#0D9FF0"/>
<path d="M299.077 89.4655C298.705 89.4655 298.379 89.791 298.379 90.163C298.379 90.535 298.705 90.8605 299.077 90.8605C299.45 90.8605 299.776 90.535 299.776 90.163C299.776 89.791 299.45 89.4655 299.077 89.4655Z" fill="#0D9FF0"/>
<path d="M299.077 84.118C298.705 84.118 298.379 84.4435 298.379 84.8155C298.379 85.1875 298.705 85.513 299.077 85.513C299.45 85.513 299.776 85.1875 299.776 84.8155C299.776 84.4435 299.45 84.118 299.077 84.118Z" fill="#0D9FF0"/>
<path d="M299.077 78.7705C298.705 78.7705 298.379 79.096 298.379 79.468C298.379 79.84 298.705 80.1655 299.077 80.1655C299.45 80.1655 299.776 79.84 299.776 79.468C299.776 79.0495 299.45 78.7705 299.077 78.7705Z" fill="#0D9FF0"/>
<path d="M299.077 73.3765C298.705 73.3765 298.379 73.702 298.379 74.074C298.379 74.446 298.705 74.7715 299.077 74.7715C299.45 74.7715 299.776 74.446 299.776 74.074C299.776 73.702 299.45 73.3765 299.077 73.3765Z" fill="#0D9FF0"/>
<path d="M214.253 16.879C214.253 17.251 214.579 17.5765 214.951 17.5765C215.324 17.5765 215.65 17.251 215.65 16.879C215.65 16.507 215.324 16.1815 214.951 16.1815C214.579 16.1815 214.253 16.507 214.253 16.879Z" fill="white"/>
<path d="M208.899 16.879C208.899 17.251 209.225 17.5765 209.598 17.5765C209.97 17.5765 210.296 17.251 210.296 16.879C210.296 16.507 209.97 16.1815 209.598 16.1815C209.225 16.1815 208.899 16.507 208.899 16.879Z" fill="white"/>
<path d="M203.499 16.879C203.499 17.251 203.825 17.5765 204.197 17.5765C204.569 17.5765 204.895 17.251 204.895 16.879C204.895 16.507 204.569 16.1815 204.197 16.1815C203.825 16.1815 203.499 16.507 203.499 16.879Z" fill="white"/>
<path d="M198.145 16.879C198.145 17.251 198.471 17.5765 198.843 17.5765C199.216 17.5765 199.541 17.251 199.541 16.879C199.541 16.507 199.216 16.1815 198.843 16.1815C198.471 16.1815 198.145 16.507 198.145 16.879Z" fill="white"/>
<path d="M217.093 19.9015C217.093 20.2735 217.419 20.599 217.791 20.599C218.164 20.599 218.49 20.2735 218.49 19.9015C218.49 19.5295 218.164 19.204 217.791 19.204C217.372 19.204 217.093 19.5295 217.093 19.9015Z" fill="white"/>
<path d="M211.693 19.9015C211.693 20.2735 212.018 20.599 212.391 20.599C212.763 20.599 213.089 20.2735 213.089 19.9015C213.089 19.5295 212.763 19.204 212.391 19.204C212.018 19.204 211.693 19.5295 211.693 19.9015Z" fill="white"/>
<path d="M206.339 19.9015C206.339 20.2735 206.665 20.599 207.037 20.599C207.409 20.599 207.735 20.2735 207.735 19.9015C207.735 19.5295 207.409 19.204 207.037 19.204C206.665 19.204 206.339 19.5295 206.339 19.9015Z" fill="white"/>
<path d="M200.938 19.9015C200.938 20.2735 201.264 20.599 201.636 20.599C202.009 20.599 202.335 20.2735 202.335 19.9015C202.335 19.5295 202.009 19.204 201.636 19.204C201.264 19.204 200.938 19.5295 200.938 19.9015Z" fill="white"/>
<path d="M292.653 62.6815V187.116C292.653 199.438 282.643 209.436 270.306 209.436H91.7189C79.3816 209.436 69.3722 199.438 69.3722 187.116V62.6815H292.653Z" fill="#0D9FF0"/>
<path d="M292.653 50.824V62.728H69.3722V50.824C69.3722 38.5015 79.3816 28.504 91.7189 28.504H270.306C282.643 28.504 292.653 38.455 292.653 50.824Z" fill="#1C1C1C"/>
<path d="M112.622 78.166H90.4618C90.2756 78.166 90.0894 77.98 90.0894 77.794V75.469C90.0894 75.283 90.2756 75.097 90.4618 75.097H112.622C112.808 75.097 112.995 75.283 112.995 75.469V77.794C112.995 77.98 112.855 78.166 112.622 78.166Z" fill="#A0C5FF"/>
<path d="M144.513 78.166H122.352C122.166 78.166 121.98 77.98 121.98 77.794V75.469C121.98 75.283 122.166 75.097 122.352 75.097H144.513C144.699 75.097 144.885 75.283 144.885 75.469V77.794C144.885 77.98 144.699 78.166 144.513 78.166Z" fill="#E7F0FE"/>
<path d="M176.357 78.166H154.196C154.01 78.166 153.824 77.98 153.824 77.794V75.469C153.824 75.283 154.01 75.097 154.196 75.097H176.357C176.543 75.097 176.729 75.283 176.729 75.469V77.794C176.729 77.98 176.59 78.166 176.357 78.166Z" fill="#E7F0FE"/>
<path d="M208.201 78.166H186.04C185.854 78.166 185.668 77.98 185.668 77.794V75.469C185.668 75.283 185.854 75.097 186.04 75.097H208.201C208.387 75.097 208.573 75.283 208.573 75.469V77.794C208.62 77.98 208.434 78.166 208.201 78.166Z" fill="#E7F0FE"/>
<path d="M240.091 78.166H217.931C217.745 78.166 217.559 77.98 217.559 77.794V75.469C217.559 75.283 217.745 75.097 217.931 75.097H240.091C240.278 75.097 240.464 75.283 240.464 75.469V77.794C240.464 77.98 240.278 78.166 240.091 78.166Z" fill="#E7F0FE"/>
<path d="M271.935 78.166H249.775C249.589 78.166 249.403 77.98 249.403 77.794V75.469C249.403 75.283 249.589 75.097 249.775 75.097H271.935C272.122 75.097 272.308 75.283 272.308 75.469V77.794C272.308 77.98 272.168 78.166 271.935 78.166Z" fill="#E7F0FE"/>
<path d="M112.203 114.25H91.8586C91.4396 114.25 91.0671 113.878 91.0671 113.46V91.93C91.0671 91.5115 91.4396 91.1395 91.8586 91.1395H112.203C112.622 91.1395 112.995 91.5115 112.995 91.93V113.46C112.995 113.925 112.669 114.25 112.203 114.25Z" fill="#1C1C1C"/>
<path d="M144.001 114.25H123.656C123.237 114.25 122.865 113.878 122.865 113.46V91.93C122.865 91.5115 123.237 91.1395 123.656 91.1395H144.001C144.42 91.1395 144.792 91.5115 144.792 91.93V113.46C144.792 113.925 144.42 114.25 144.001 114.25Z" fill="#E7F0FE"/>
<path d="M175.752 114.25H155.407C154.988 114.25 154.615 113.878 154.615 113.46V91.93C154.615 91.5115 154.988 91.1395 155.407 91.1395H175.752C176.171 91.1395 176.543 91.5115 176.543 91.93V113.46C176.543 113.925 176.171 114.25 175.752 114.25Z" fill="#1C1C1C"/>
<path d="M207.503 114.25H187.158C186.739 114.25 186.366 113.878 186.366 113.46V91.93C186.366 91.5115 186.739 91.1395 187.158 91.1395H207.503C207.922 91.1395 208.294 91.5115 208.294 91.93V113.46C208.294 113.925 207.968 114.25 207.503 114.25Z" fill="#E7F0FE"/>
<path d="M239.3 114.25H218.955C218.536 114.25 218.164 113.878 218.164 113.46V91.93C218.164 91.5115 218.536 91.1395 218.955 91.1395H239.3C239.719 91.1395 240.091 91.5115 240.091 91.93V113.46C240.091 113.925 239.719 114.25 239.3 114.25Z" fill="#E7F0FE"/>
<path d="M271.051 114.25H250.706C250.287 114.25 249.915 113.878 249.915 113.46V91.93C249.915 91.5115 250.287 91.1395 250.706 91.1395H271.051C271.47 91.1395 271.842 91.5115 271.842 91.93V113.46C271.842 113.925 271.47 114.25 271.051 114.25Z" fill="#E7F0FE"/>
<path d="M112.203 148.753H91.8586C91.4396 148.753 91.0671 148.381 91.0671 147.963V126.433C91.0671 126.015 91.4396 125.643 91.8586 125.643H112.203C112.622 125.643 112.995 126.015 112.995 126.433V147.963C112.995 148.381 112.669 148.753 112.203 148.753Z" fill="#1C1C1C"/>
<path d="M144.001 148.753H123.656C123.237 148.753 122.865 148.381 122.865 147.963V126.433C122.865 126.015 123.237 125.643 123.656 125.643H144.001C144.42 125.643 144.792 126.015 144.792 126.433V147.963C144.792 148.381 144.42 148.753 144.001 148.753Z" fill="#E7F0FE"/>
<path d="M207.503 148.753H187.158C186.739 148.753 186.366 148.381 186.366 147.963V126.433C186.366 126.015 186.739 125.643 187.158 125.643H207.503C207.922 125.643 208.294 126.015 208.294 126.433V147.963C208.294 148.381 207.968 148.753 207.503 148.753Z" fill="#E7F0FE"/>
<path d="M239.3 148.753H218.955C218.536 148.753 218.164 148.381 218.164 147.963V126.433C218.164 126.015 218.536 125.643 218.955 125.643H239.3C239.719 125.643 240.091 126.015 240.091 126.433V147.963C240.091 148.381 239.719 148.753 239.3 148.753Z" fill="#E7F0FE"/>
<path d="M271.051 148.753H250.706C250.287 148.753 249.915 148.381 249.915 147.963V126.433C249.915 126.015 250.287 125.643 250.706 125.643H271.051C271.47 125.643 271.842 126.015 271.842 126.433V147.963C271.842 148.381 271.47 148.753 271.051 148.753Z" fill="#E7F0FE"/>
<path d="M112.203 183.209H91.8586C91.4396 183.209 91.0671 182.838 91.0671 182.419V160.889C91.0671 160.471 91.4396 160.099 91.8586 160.099H112.203C112.622 160.099 112.995 160.471 112.995 160.889V182.419C112.995 182.838 112.669 183.209 112.203 183.209Z" fill="#1C1C1C"/>
<path d="M144.001 183.209H123.656C123.237 183.209 122.865 182.838 122.865 182.419V160.889C122.865 160.471 123.237 160.099 123.656 160.099H144.001C144.42 160.099 144.792 160.471 144.792 160.889V182.419C144.792 182.838 144.42 183.209 144.001 183.209Z" fill="#E7F0FE"/>
<path d="M175.752 183.209H155.407C154.988 183.209 154.615 182.838 154.615 182.419V160.889C154.615 160.471 154.988 160.099 155.407 160.099H175.752C176.171 160.099 176.543 160.471 176.543 160.889V182.419C176.543 182.838 176.171 183.209 175.752 183.209Z" fill="#E7F0FE"/>
<path d="M207.503 183.209H187.158C186.739 183.209 186.366 182.838 186.366 182.419V160.889C186.366 160.471 186.739 160.099 187.158 160.099H207.503C207.922 160.099 208.294 160.471 208.294 160.889V182.419C208.294 182.838 207.968 183.209 207.503 183.209Z" fill="#E7F0FE"/>
<path d="M239.3 183.209H218.955C218.536 183.209 218.164 182.838 218.164 182.419V160.889C218.164 160.471 218.536 160.099 218.955 160.099H239.3C239.719 160.099 240.091 160.471 240.091 160.889V182.419C240.091 182.838 239.719 183.209 239.3 183.209Z" fill="#E7F0FE"/>
<path d="M271.051 183.209H250.706C250.287 183.209 249.915 182.838 249.915 182.419V160.889C249.915 160.471 250.287 160.099 250.706 160.099H271.051C271.47 160.099 271.842 160.471 271.842 160.889V182.419C271.842 182.838 271.47 183.209 271.051 183.209Z" fill="#E7F0FE"/>
<path d="M175.752 148.753H155.407C154.988 148.753 154.615 148.381 154.615 147.963V126.433C154.615 126.015 154.988 125.643 155.407 125.643H175.752C176.171 125.643 176.543 126.015 176.543 126.433V147.963C176.543 148.381 176.171 148.753 175.752 148.753Z" fill="#E7F0FE"/>
<path d="M144.001 114.25H123.656C123.237 114.25 122.865 113.878 122.865 113.46V91.93C122.865 91.5115 123.237 91.1395 123.656 91.1395H144.001C144.42 91.1395 144.792 91.5115 144.792 91.93V113.46C144.792 113.925 144.42 114.25 144.001 114.25Z" fill="#E7F0FE"/>
<path d="M139.857 93.4645H125.239V95.464H139.857V93.4645Z" fill="#A0C5FF"/>
<path d="M132.548 96.673H125.239V98.6725H132.548V96.673Z" fill="#A0C5FF"/>
<path d="M268.025 128.758H253.406V130.758H268.025V128.758Z" fill="#A0C5FF"/>
<path d="M260.715 131.92H253.406V133.92H260.715V131.92Z" fill="#A0C5FF"/>
<path d="M206.525 141.034H191.906V143.034H206.525V141.034Z" fill="#1C1C1C"/>
<path d="M199.216 144.196H191.906V146.196H199.216V144.196Z" fill="#1C1C1C"/>
<path d="M204.476 162.331H189.858V164.331H204.476V162.331Z" fill="#1C1C1C"/>
<path d="M197.167 165.493H189.858V167.493H197.167V165.493Z" fill="#1C1C1C"/>
<path d="M172.213 162.331H157.595V164.331H172.213V162.331Z" fill="#1C1C1C"/>
<path d="M164.904 165.493H157.595V167.493H164.904V165.493Z" fill="#1C1C1C"/>
<path d="M196.748 127.317H188.182V135.361H196.748V127.317Z" fill="#1C1C1C"/>
<path d="M206.525 106.95H191.906V108.949H206.525V106.95Z" fill="#1C1C1C"/>
<path d="M199.216 110.158H191.906V112.158H199.216V110.158Z" fill="#1C1C1C"/>
<path d="M196.748 93.2785H188.182V101.323H196.748V93.2785Z" fill="#1C1C1C"/>
<path d="M270.492 106.159H255.874V108.159H270.492V106.159Z" fill="#A0C5FF"/>
<path d="M263.183 109.321H255.874V111.321H263.183V109.321Z" fill="#A0C5FF"/>
<path d="M260.716 92.4415H252.149V100.486H260.716V92.4415Z" fill="#A0C5FF"/>
<path d="M266.302 176.235L263.09 172.189L267 169.12C267.792 168.516 267.932 167.353 267.28 166.563C266.675 165.772 265.511 165.633 264.766 166.284L260.855 169.353L257.317 164.842C256.712 164.052 255.548 163.912 254.756 164.563C253.965 165.168 253.825 166.33 254.477 167.074L258.015 171.585L253.36 175.258C252.568 175.863 252.429 177.025 253.08 177.769C253.686 178.56 254.849 178.699 255.594 178.095L260.25 174.421L263.462 178.467C264.068 179.257 265.231 179.397 265.976 178.746C266.768 178.141 266.907 176.979 266.302 176.235Z" fill="#A0C5FF"/>
<path opacity="0.25" d="M165.09 62.1235H96.6537C91.9516 62.1235 88.0875 65.7505 88.0875 70.261V94.534C88.0875 99.0445 91.9051 102.672 96.6537 102.672H155.5L165.416 104.811L162.902 102.672H165.137C169.839 102.672 173.703 99.0445 173.703 94.534V70.261C173.657 65.7505 169.839 62.1235 165.09 62.1235Z" fill="#202234"/>
<path d="M165.416 98.2075V104.811L151.869 98.998L165.416 98.2075Z" fill="white"/>
<path d="M91.2068 52.963H167.884C173.191 52.963 177.474 57.241 177.474 62.542V91.093C177.474 96.394 173.191 100.672 167.884 100.672H91.2068C85.8994 100.672 81.6163 96.394 81.6163 91.093V62.542C81.6629 57.241 85.946 52.963 91.2068 52.963Z" fill="white"/>
<path d="M161.273 73.3765C157.269 73.3765 154.057 76.6315 154.057 80.584C154.057 84.5365 157.316 87.7915 161.273 87.7915C165.277 87.7915 168.489 84.5365 168.489 80.584C168.489 76.6315 165.23 73.3765 161.273 73.3765ZM161.273 86.629C157.921 86.629 155.221 83.932 155.221 80.584C155.221 77.236 157.921 74.539 161.273 74.539C164.625 74.539 167.325 77.236 167.325 80.584C167.279 83.932 164.578 86.629 161.273 86.629Z" fill="#0D9FF0"/>
<path d="M120.211 76.6315H106.663C106.337 76.6315 106.011 76.864 105.965 77.1895C105.918 77.608 106.198 77.98 106.617 77.98H120.211C120.583 77.98 120.863 77.701 120.863 77.329C120.863 76.957 120.537 76.6315 120.211 76.6315Z" fill="#0D9FF0"/>
<path d="M146.049 76.6315H122.446C122.073 76.6315 121.794 76.9105 121.794 77.2825C121.794 77.6545 122.073 77.9335 122.446 77.9335H146.096C146.515 77.9335 146.841 77.5615 146.748 77.143C146.701 76.864 146.375 76.6315 146.049 76.6315Z" fill="#0D9FF0"/>
<path d="M126.03 79.933H106.663C106.337 79.933 106.011 80.1655 105.965 80.491C105.918 80.9095 106.198 81.2815 106.617 81.2815H126.03C126.403 81.2815 126.682 81.0025 126.682 80.6305C126.682 80.212 126.403 79.933 126.03 79.933Z" fill="#0D9FF0"/>
<path d="M126.03 83.188H106.663C106.337 83.188 106.011 83.4205 105.965 83.746C105.918 84.1645 106.198 84.5366 106.617 84.5366H126.03C126.403 84.5366 126.682 84.2575 126.682 83.8855C126.682 83.5135 126.403 83.188 126.03 83.188Z" fill="#0D9FF0"/>
<path d="M146.049 79.933H128.265C127.893 79.933 127.613 80.212 127.613 80.584C127.613 80.956 127.893 81.235 128.265 81.235H146.096C146.515 81.235 146.841 80.863 146.748 80.4445C146.701 80.1655 146.375 79.933 146.049 79.933Z" fill="#0D9FF0"/>
<path d="M83.3389 67.5175V62.4955C83.3389 58.171 86.8771 54.637 91.2068 54.637H167.884C172.213 54.637 175.752 58.171 175.752 62.4955V67.5175H83.3389Z" fill="#1C1C1C"/>
<path d="M100.611 62.4025L100.145 63.844H98.6091L100.658 58.2175H102.427L104.475 63.844H102.892L102.427 62.4025H100.611ZM100.983 61.2865H102.008L101.496 59.566L100.983 61.2865Z" fill="white"/>
<path d="M109.969 60.0775C109.969 61.1935 109.224 61.7515 108.432 61.8445C108.153 61.891 107.92 61.891 107.548 61.891H106.896V63.844H105.453V58.2175H107.548C107.92 58.2175 108.106 58.2175 108.432 58.264C109.224 58.4035 109.969 58.9615 109.969 60.0775ZM108.432 60.0775C108.432 59.659 108.2 59.4265 107.827 59.38C107.734 59.38 107.594 59.38 107.455 59.38H106.896V60.7285H107.455C107.594 60.7285 107.734 60.7285 107.827 60.7285C108.2 60.7285 108.432 60.496 108.432 60.0775Z" fill="white"/>
<path d="M115.648 60.0775C115.648 61.1935 114.904 61.7515 114.112 61.8445C113.833 61.891 113.6 61.891 113.228 61.891H112.576V63.844H111.133V58.2175H113.228C113.6 58.2175 113.786 58.2175 114.112 58.264C114.904 58.4035 115.648 58.9615 115.648 60.0775ZM114.112 60.0775C114.112 59.659 113.879 59.4265 113.507 59.38C113.414 59.38 113.274 59.38 113.134 59.38H112.576V60.7285H113.134C113.274 60.7285 113.414 60.7285 113.507 60.7285C113.879 60.7285 114.112 60.496 114.112 60.0775Z" fill="white"/>
<path d="M122.306 61.054C122.306 62.8675 121.189 63.9835 119.419 63.9835C117.65 63.9835 116.533 62.8675 116.533 61.054C116.533 59.2405 117.65 58.1245 119.419 58.1245C121.189 58.1245 122.306 59.2405 122.306 61.054ZM120.816 61.054C120.816 59.845 120.304 59.194 119.419 59.194C118.581 59.194 118.023 59.845 118.023 61.054C118.023 62.263 118.535 62.914 119.419 62.914C120.257 62.914 120.816 62.2165 120.816 61.054Z" fill="white"/>
<path d="M123.609 63.844V58.2175H125.053V63.844H123.609Z" fill="white"/>
<path d="M130.081 63.8441L128.032 60.1241C128.079 60.6821 128.079 61.1936 128.079 61.5191V63.8441H126.636V58.2176H128.451L130.593 62.0771C130.546 61.5191 130.546 60.9146 130.546 60.5891V58.1711H131.99V63.7976H130.081V63.8441Z" fill="white"/>
<path d="M136.273 59.38V63.844H134.829V59.38H133.014V58.264H138.135V59.38H136.273Z" fill="white"/>
<path d="M145.537 63.844H144.094V61.4725C144.094 61.0075 144.094 60.2635 144.094 59.7055C144.001 60.2635 143.815 61.0075 143.721 61.4725L143.116 63.844H141.626L141.021 61.4725C140.882 61.0075 140.742 60.2635 140.649 59.7055C140.649 60.2635 140.649 61.0075 140.649 61.4725V63.844H139.206V58.2175H141.487L142.418 62.4025L143.349 58.2175H145.584V63.844H145.537Z" fill="white"/>
<path d="M151.403 63.844H147.12V58.2175H151.357V59.3335H148.61V60.403H151.217V61.519H148.61V62.635H151.45V63.844H151.403Z" fill="white"/>
<path d="M156.198 63.8441L154.15 60.1241C154.196 60.6821 154.196 61.1936 154.196 61.5191V63.8441H152.707V58.2176H154.522L156.664 62.0771C156.617 61.5191 156.617 60.9146 156.617 60.5891V58.1711H158.061V63.7976H156.198V63.8441Z" fill="white"/>
<path d="M162.39 59.38V63.844H160.947V59.38H159.131V58.264H164.252V59.38H162.39Z" fill="white"/>
<path d="M54.614 213.388L54.7071 214.551C54.7071 214.551 58.6178 216.875 63.4596 217.201C67.4633 217.48 69.279 216.829 69.279 215.527L54.614 213.388Z" fill="#1C1C1C"/>
<path d="M67.8358 213.993C63.8786 211.947 58.1057 209.017 58.1057 209.017C58.1057 209.017 55.6382 208.413 54.8468 209.715C54.3347 210.552 54.8002 211.854 54.614 213.667C54.4743 214.737 62.5284 217.108 66.765 216.736C67.7427 216.69 71.2809 215.76 67.8358 213.993Z" fill="#0D9FF0"/>
<path d="M54.3347 205.111C54.3813 205.297 55.2658 209.994 55.2658 209.994C55.2658 209.994 56.4297 211.9 58.4782 211.203C60.4801 210.505 59.3162 204.414 59.3162 204.414L54.3347 205.111Z" fill="#1C1C1C"/>
<path d="M59.2231 211.854C59.2231 211.854 57.873 208.599 59.13 207.576C60.387 206.506 62.0164 210.97 62.0164 210.97C62.0164 210.97 66.9979 213.156 67.4169 213.76C67.8824 214.411 65.1357 215.574 59.2231 211.854Z" fill="#0D9FF0"/>
<path d="M36.5505 125.085L58.8041 126.201C58.8041 126.201 63.8786 168.609 60.4801 206.832C60.4801 206.832 58.4782 209.203 54.3347 207.483C54.3347 207.483 45.0236 159.96 41.9975 151.962C38.9249 143.964 33.4779 134.338 36.5505 125.085Z" fill="#1C1C1C"/>
<path d="M38.1799 215.062V216.225C38.1799 216.225 41.8578 218.875 46.653 219.666C50.6103 220.317 52.519 219.852 52.6122 218.55L38.1799 215.062Z" fill="#1C1C1C"/>
<path d="M51.2621 216.876C47.4911 214.458 42.0441 211.017 42.0441 211.017C42.0441 211.017 39.6697 210.18 38.6921 211.435C38.0868 212.226 38.4593 213.528 38.0868 215.341C37.8541 216.411 45.6288 219.48 49.9119 219.526C50.9362 219.526 54.5675 218.968 51.2621 216.876Z" fill="#0D9FF0"/>
<path d="M38.6455 206.832C38.6455 207.018 39.1111 211.761 39.1111 211.761C39.1111 211.761 40.0887 213.76 42.1837 213.249C44.2322 212.737 43.627 206.553 43.627 206.553L38.6455 206.832Z" fill="#1C1C1C"/>
<path d="M42.882 213.993C42.882 213.993 41.8578 210.645 43.2079 209.715C44.558 208.785 45.815 213.388 45.815 213.388C45.815 213.388 50.6103 215.992 50.9362 216.643C51.262 217.294 48.4222 218.224 42.882 213.993Z" fill="#0D9FF0"/>
<path d="M28.2636 125.457L50.331 128.619C50.331 128.619 51.4949 171.306 44.5581 209.064C44.5581 209.064 42.37 211.249 38.4127 209.157C38.4127 209.157 33.5244 160.983 31.1966 152.752C28.9154 144.475 24.3995 134.431 28.2636 125.457Z" fill="#1C1C1C"/>
<path d="M67.6496 101.23L68.1152 107.833L82.175 105.462L83.9441 109.089C83.9441 109.089 70.443 123.643 62.063 114.901C52.1932 104.671 59.6886 93.418 59.6886 93.418L67.6496 101.23Z" fill="#FECECC"/>
<path d="M59.9679 77.4221C59.9679 77.4221 68.6738 87.5126 70.7688 98.4401C70.7688 98.4401 61.0387 109.182 57.7333 106.159C52.8915 101.742 59.9679 77.4221 59.9679 77.4221Z" fill="#0089D4"/>
<path d="M79.4747 106.206C79.4747 106.206 82.8733 105.508 83.1061 104.997C83.5716 104.16 82.9198 104.253 85.6666 102.114C87.5754 100.626 87.3892 98.9051 88.2272 98.9981C89.8566 99.2306 87.9013 102.904 87.9013 102.904C87.9013 102.904 94.3259 98.1611 94.9777 99.4166C95.3502 100.114 90.5084 103.648 90.5084 103.648C90.5084 103.648 91.9051 103.509 92.0447 104.206C92.231 105.229 91.0205 105.648 91.0205 105.648C91.0205 105.648 91.7654 105.834 91.6723 106.624C91.5792 107.508 90.5549 107.601 90.5549 107.601C90.5549 107.601 91.1602 107.74 91.2533 108.159C91.3464 108.577 91.2533 109.414 88.9255 109.647C87.0167 109.833 84.7821 108.298 80.8248 110.577L79.4747 106.206Z" fill="#FECECC"/>
<path d="M87.2029 100.533V100.486C87.2029 100.44 87.2494 100.44 87.296 100.44C87.5288 100.533 87.6684 100.533 87.8081 100.44C88.1806 100.161 88.0874 99.1841 88.0874 99.1841C88.0874 99.1376 88.134 99.0911 88.134 99.0911C88.1805 99.0911 88.2271 99.1376 88.2271 99.1376C88.2271 99.1841 88.3668 100.207 87.9012 100.533C87.715 100.626 87.4822 100.672 87.2029 100.533Z" fill="#FECECC"/>
<path d="M88.2737 107.275C88.0875 106.996 88.0409 106.671 88.0875 106.392C88.134 105.927 88.5065 105.601 88.972 105.601C89.0186 105.601 89.0651 105.648 89.0651 105.648C89.0651 105.694 89.0186 105.741 89.0186 105.741C88.5996 105.741 88.3202 106.02 88.2737 106.438C88.2271 106.857 88.4134 107.415 88.9255 107.554C89.81 107.833 90.648 107.601 90.648 107.601C90.6946 107.601 90.7411 107.601 90.7411 107.647C90.7411 107.694 90.7411 107.74 90.6946 107.74C90.648 107.74 89.81 108.019 88.8789 107.694C88.5996 107.601 88.4134 107.461 88.2737 107.275Z" fill="#FECECC"/>
<path d="M88.041 105.369C87.9944 105.276 87.9479 105.183 87.9479 105.043C88.041 104.439 89.0652 103.555 90.5084 103.555C90.555 103.555 90.6015 103.602 90.6015 103.648C90.6015 103.695 90.555 103.741 90.5084 103.741C89.2049 103.741 88.1341 104.532 88.0876 105.09C88.041 105.322 88.2738 105.462 88.4134 105.508C89.4842 105.787 90.974 105.648 90.974 105.648C91.0205 105.648 91.0671 105.694 91.0671 105.694C91.0671 105.741 91.0205 105.787 91.0205 105.787C91.0205 105.787 89.4842 105.927 88.4134 105.648C88.2272 105.601 88.1341 105.508 88.041 105.369Z" fill="#FECECC"/>
<path d="M88.4133 108.996C88.3202 108.81 88.2737 108.624 88.2737 108.484C88.3202 108.066 88.6461 107.601 89.2514 107.647C89.2979 107.647 89.3445 107.694 89.3445 107.74C89.3445 107.787 89.2979 107.833 89.2514 107.833C88.7392 107.833 88.4599 108.205 88.4133 108.577C88.4133 108.903 88.6461 109.321 89.3445 109.414C89.9497 109.461 90.6946 109.182 90.6946 109.182C90.7411 109.182 90.7877 109.182 90.7877 109.228C90.7877 109.275 90.7877 109.321 90.7411 109.321C90.6946 109.321 89.9497 109.647 89.2979 109.554C88.8789 109.414 88.5996 109.228 88.4133 108.996Z" fill="#FECECC"/>
<path d="M85.4338 106.764C85.4338 106.764 85.4338 106.717 85.4338 106.671C85.4338 106.624 85.4804 106.624 85.527 106.624C85.9925 106.857 86.4115 106.857 86.7374 106.671C87.4823 106.252 87.6685 104.997 87.6685 104.997C87.6685 104.95 87.7151 104.95 87.7616 104.95C87.8082 104.95 87.8082 104.997 87.8082 105.043C87.8082 105.09 87.6219 106.392 86.7839 106.81C86.4581 107.043 85.9925 107.043 85.4338 106.764C85.4804 106.764 85.4804 106.764 85.4338 106.764Z" fill="#FECECC"/>
<path d="M83.8975 108.484C83.8509 108.438 83.8509 108.391 83.8043 108.345C83.6181 107.88 83.8974 107.229 83.9906 106.996C83.7112 106.903 83.525 106.764 83.4319 106.531C83.1991 106.113 83.3853 105.601 83.3853 105.555C83.3853 105.508 83.4319 105.508 83.4784 105.508C83.525 105.508 83.525 105.555 83.525 105.601C83.525 105.601 83.3853 106.066 83.5716 106.438C83.6647 106.624 83.8509 106.764 84.1302 106.857C84.1302 106.857 84.1768 106.857 84.1768 106.903V106.95C84.1768 106.95 83.7578 107.74 83.9906 108.252C84.0837 108.438 84.2233 108.577 84.4096 108.624C84.4561 108.624 84.4561 108.67 84.4561 108.717C84.4561 108.763 84.4096 108.763 84.363 108.763C84.1302 108.717 83.9906 108.624 83.8975 108.484Z" fill="#FECECC"/>
<path d="M86.0856 107.461C86.0856 107.461 86.0856 107.415 86.0856 107.368C86.0856 107.368 86.5046 106.717 87.3891 107.089C87.4357 107.089 87.4357 107.136 87.4357 107.182C87.4357 107.229 87.3891 107.229 87.3426 107.229C86.5511 106.903 86.2252 107.461 86.2252 107.461C86.1787 107.461 86.1321 107.461 86.0856 107.461Z" fill="#FECECC"/>
<path d="M88.0875 104.811C88.0875 104.764 88.0875 104.718 88.1341 104.718C88.1806 104.718 88.7393 104.485 89.1583 104.764C89.4376 104.904 89.5773 105.229 89.6239 105.648C89.6239 105.694 89.5773 105.741 89.5773 105.741C89.5307 105.741 89.4842 105.694 89.4842 105.694C89.4376 105.322 89.3445 105.043 89.1117 104.904C88.7393 104.671 88.2272 104.904 88.2272 104.904C88.1341 104.857 88.0875 104.857 88.0875 104.811Z" fill="#FECECC"/>
<path d="M88.1341 106.578C88.1341 106.485 88.1341 106.485 88.1807 106.485C88.2272 106.485 89.1118 106.438 89.5773 106.903C89.7635 107.089 89.8567 107.415 89.8101 107.74C89.8101 107.787 89.7636 107.787 89.717 107.787C89.6704 107.787 89.6704 107.74 89.6704 107.694C89.717 107.415 89.6239 107.136 89.4842 106.996C89.0652 106.578 88.2272 106.624 88.2272 106.624C88.1807 106.624 88.1341 106.624 88.1341 106.578Z" fill="#FECECC"/>
<path d="M88.3203 108.298C88.3203 108.205 88.3203 108.205 88.3669 108.205C88.4134 108.205 89.298 108.205 89.717 108.717C89.9032 108.903 89.9498 109.135 89.9032 109.414C89.9032 109.461 89.8566 109.461 89.8101 109.461C89.7635 109.461 89.7635 109.414 89.7635 109.368C89.8101 109.135 89.7635 108.903 89.6239 108.763C89.2514 108.345 88.3669 108.298 88.3669 108.298C88.3669 108.345 88.3669 108.345 88.3203 108.298Z" fill="#FECECC"/>
<path d="M92.2775 100.533C92.2775 100.486 92.2775 100.486 92.2775 100.44C92.324 100.393 92.3706 100.393 92.3706 100.44L92.8827 100.951C92.9292 100.998 92.9292 101.044 92.8827 101.044C92.8361 101.091 92.7896 101.091 92.7896 101.044L92.2775 100.533Z" fill="#FECECC"/>
<path d="M90.4618 101.835C90.4618 101.788 90.4618 101.788 90.4618 101.742C90.5083 101.695 90.5549 101.695 90.5549 101.742L91.1136 102.346C91.1601 102.393 91.1601 102.439 91.1136 102.439C91.067 102.486 91.0205 102.486 91.0205 102.439L90.4618 101.835Z" fill="#FECECC"/>
<path d="M90.3221 102.114C90.3221 102.067 90.3221 102.067 90.3221 102.021C90.3687 101.974 90.4153 101.974 90.4153 102.021L90.8343 102.346C90.8808 102.393 90.8808 102.439 90.8343 102.439C90.7877 102.486 90.7411 102.486 90.7411 102.439L90.3221 102.114Z" fill="#FECECC"/>
<path d="M56.6625 75.655C71.8396 79.3285 66.4857 126.945 57.4074 134.896C51.0293 140.43 35.0607 134.989 27.1463 122.992C26.029 110.902 38.8783 71.377 56.6625 75.655Z" fill="#0D9FF0"/>
<path d="M52.8915 78.166C53.6364 78.7705 54.4744 79.189 55.4055 79.4215C56.3366 79.7005 58.0592 79.561 58.8972 79.003C61.4112 77.422 58.0126 76.0735 56.3366 75.7015C54.7072 75.3295 52.4725 74.7715 51.588 76.0735C51.1224 76.864 52.1932 77.5615 52.8915 78.166Z" fill="#0089D4"/>
<path d="M62.2027 87.8845C62.2492 87.8845 62.2958 87.8845 62.3423 87.838C62.3889 87.7915 62.3889 87.6985 62.3423 87.652C61.7837 87.0475 62.1096 86.443 62.1561 86.3965C62.2027 86.3035 62.1561 86.257 62.1096 86.2105C62.063 86.164 61.9699 86.2105 61.9233 86.257C61.7371 86.536 61.5974 87.2335 62.1561 87.838C62.1561 87.8845 62.1561 87.8845 62.2027 87.8845Z" fill="#BDE7FF"/>
<path d="M57.0349 93.5575C57.0815 93.5575 57.1281 93.5575 57.1746 93.511C57.2212 93.4645 57.2212 93.3715 57.1746 93.325C56.6159 92.7205 56.9418 92.116 56.9884 92.0695C57.0349 91.9765 56.9884 91.93 56.9418 91.8835C56.8953 91.837 56.8022 91.8835 56.7556 91.93C56.5694 92.209 56.4297 92.9065 56.9884 93.511C56.9884 93.5575 56.9884 93.5575 57.0349 93.5575Z" fill="#BDE7FF"/>
<path d="M51.4483 86.1175C51.4948 86.1175 51.5414 86.1175 51.5879 86.071C51.6345 86.0245 51.6345 85.9315 51.5879 85.885C51.0293 85.2805 51.3552 84.676 51.4017 84.6295C51.4483 84.5365 51.4017 84.49 51.3552 84.4435C51.3086 84.397 51.2155 84.4435 51.1689 84.49C50.9827 84.769 50.8431 85.4665 51.4017 86.071C51.4017 86.1175 51.4017 86.1175 51.4483 86.1175Z" fill="#BDE7FF"/>
<path d="M58.8041 98.068C58.8041 98.1145 58.8041 98.161 58.8506 98.2075C58.8972 98.254 58.9903 98.254 59.0369 98.2075C59.6421 97.6495 60.2473 97.975 60.2939 98.0215C60.387 98.068 60.4335 98.0215 60.4801 97.975C60.5266 97.9285 60.4801 97.8355 60.4335 97.789C60.1542 97.603 59.4559 97.4635 58.8506 98.0215L58.8041 98.068Z" fill="#BDE7FF"/>
<path d="M63.7856 105.88C63.8321 105.88 63.8787 105.88 63.9252 105.834C63.9718 105.787 63.9718 105.694 63.9252 105.648C63.3666 105.043 63.6924 104.439 63.739 104.392C63.7856 104.299 63.739 104.253 63.6924 104.206C63.6459 104.16 63.5528 104.206 63.5062 104.253C63.32 104.532 63.1803 105.229 63.739 105.834C63.739 105.88 63.739 105.88 63.7856 105.88Z" fill="#BDE7FF"/>
<path d="M62.2491 91.0931C62.2491 91.0466 62.2491 91.0001 62.2491 90.9536C62.2026 90.9071 62.1095 90.8606 62.0629 90.9071C61.4111 91.4186 60.8525 91.0001 60.8059 91.0001C60.7594 90.9536 60.6662 90.9536 60.6197 91.0466C60.5731 91.0931 60.5731 91.1861 60.6662 91.2326C60.9456 91.4186 61.5974 91.6511 62.2491 91.1396V91.0931Z" fill="#BDE7FF"/>
<path d="M55.4986 83.9321C55.4986 83.8856 55.4986 83.8391 55.4986 83.7926C55.4521 83.7461 55.359 83.6996 55.3124 83.7461C54.6606 84.2576 54.102 83.8391 54.0554 83.8391C54.0089 83.7926 53.9158 83.7926 53.8692 83.8856C53.8226 83.9321 53.8226 84.0251 53.9158 84.0716C54.1951 84.2576 54.8469 84.4901 55.4986 83.9786V83.9321Z" fill="#BDE7FF"/>
<path d="M55.6848 103.23C55.6848 103.183 55.6848 103.137 55.6848 103.09C55.6383 103.044 55.5451 102.997 55.4986 103.044C54.8468 103.555 54.2881 103.137 54.2416 103.137C54.195 103.09 54.1019 103.09 54.0554 103.183C54.0088 103.23 54.0088 103.323 54.1019 103.369C54.3812 103.555 55.033 103.788 55.6848 103.276V103.23Z" fill="#BDE7FF"/>
<path d="M50.8896 93.697C50.8896 93.6505 50.8896 93.604 50.8896 93.5575C50.8431 93.511 50.75 93.4645 50.7034 93.511C50.0516 94.0225 49.493 93.604 49.4464 93.604C49.3999 93.5575 49.3068 93.5575 49.2602 93.6505C49.2136 93.697 49.2136 93.79 49.3067 93.8365C49.5861 94.0225 50.2379 94.255 50.8896 93.7435C50.8431 93.7435 50.8896 93.7435 50.8896 93.697Z" fill="#BDE7FF"/>
<path d="M65.7875 100.579C65.7875 100.533 65.7875 100.486 65.7875 100.44C65.7409 100.393 65.6478 100.347 65.6012 100.393C64.9495 100.905 64.3908 100.486 64.3442 100.486C64.2977 100.44 64.2046 100.44 64.158 100.533C64.1115 100.579 64.1115 100.672 64.2046 100.719C64.4839 100.905 65.1357 101.137 65.7875 100.626C65.7875 100.626 65.7875 100.626 65.7875 100.579Z" fill="#BDE7FF"/>
<path d="M49.4464 113.32C49.4464 113.274 49.4464 113.227 49.4464 113.181C49.3998 113.134 49.3067 113.088 49.2602 113.134C48.6084 113.646 48.0497 113.227 48.0032 113.227C47.9566 113.181 47.8635 113.181 47.817 113.274C47.7704 113.32 47.7704 113.413 47.8635 113.46C48.1428 113.646 48.7946 113.878 49.4464 113.367C49.3998 113.367 49.3998 113.32 49.4464 113.32Z" fill="#BDE7FF"/>
<path d="M55.9176 88.0705C56.1969 88.117 56.3831 88.0241 56.6625 87.8846C56.8021 87.8381 56.9418 87.745 57.128 87.6985C57.547 87.559 57.547 87.6055 57.7333 87.838C57.8264 87.9775 57.966 88.1635 58.1988 88.396C58.4316 88.582 58.6178 88.675 58.8506 88.6285C59.2696 88.582 59.5489 88.21 59.5489 88.1635C59.5955 88.117 59.5955 88.024 59.5024 87.9775C59.4558 87.931 59.3627 87.9311 59.3161 88.0241C59.3161 88.0241 59.1299 88.3031 58.8506 88.3496C58.7109 88.3496 58.5713 88.303 58.4316 88.1635C58.2454 87.9775 58.1057 87.7916 58.0126 87.6521C57.8264 87.3266 57.6401 87.1405 57.0349 87.373C56.8487 87.466 56.709 87.5125 56.5694 87.6055C56.1504 87.7915 56.0107 87.8845 55.6383 87.5125C55.5917 87.466 55.4986 87.466 55.452 87.5125C55.4055 87.559 55.4055 87.652 55.452 87.6985C55.6383 87.9775 55.7779 88.0705 55.9176 88.0705Z" fill="#BDE7FF"/>
<path d="M47.7704 101.463C48.0497 101.509 48.2359 101.416 48.5153 101.277C48.6549 101.23 48.7946 101.137 48.9808 101.091C49.3998 100.951 49.3998 100.998 49.586 101.23C49.6791 101.37 49.8188 101.556 50.0516 101.788C50.2844 101.974 50.4706 102.067 50.7034 102.021C51.1224 101.974 51.4017 101.602 51.4017 101.556C51.4483 101.509 51.4483 101.416 51.3551 101.37C51.3086 101.323 51.2155 101.323 51.1689 101.416C51.1689 101.416 50.9827 101.695 50.7034 101.742C50.5637 101.742 50.424 101.695 50.2844 101.556C50.0981 101.37 49.9585 101.184 49.8654 101.044C49.6791 100.719 49.4929 100.533 48.8877 100.765C48.7015 100.858 48.5618 100.905 48.4221 100.998C48.0031 101.184 47.8635 101.277 47.491 100.905C47.4445 100.858 47.3514 100.858 47.3048 100.905C47.2583 100.951 47.2583 101.044 47.3048 101.091C47.491 101.323 47.6307 101.416 47.7704 101.463Z" fill="#BDE7FF"/>
<path d="M53.1709 118.156C53.4502 118.203 53.6364 118.11 53.9158 117.97C54.0554 117.924 54.1951 117.831 54.3813 117.784C54.8003 117.645 54.8003 117.691 54.9866 117.924C55.0797 118.063 55.2193 118.249 55.4521 118.482C55.6849 118.668 55.8711 118.761 56.1039 118.714C56.5229 118.668 56.8022 118.296 56.8022 118.249C56.8488 118.203 56.8488 118.11 56.7557 118.063C56.7091 118.017 56.616 118.017 56.5694 118.11C56.5694 118.11 56.3832 118.389 56.1039 118.435C55.9642 118.435 55.8246 118.389 55.6849 118.249C55.4987 118.063 55.359 117.877 55.2659 117.738C55.0797 117.412 54.8934 117.226 54.2882 117.459C54.102 117.552 53.9623 117.598 53.8227 117.691C53.4037 117.877 53.264 117.97 52.8916 117.598C52.845 117.552 52.7519 117.552 52.7053 117.598C52.6588 117.645 52.6588 117.738 52.7053 117.784C52.845 118.017 53.0312 118.11 53.1709 118.156Z" fill="#BDE7FF"/>
<path d="M32.5933 125.41C32.7795 125.596 33.0123 125.643 33.3382 125.643C33.4779 125.643 33.6175 125.689 33.8038 125.689C34.2228 125.782 34.2228 125.829 34.2228 126.154C34.2228 126.34 34.2228 126.573 34.3159 126.852C34.409 127.131 34.5486 127.317 34.7814 127.41C35.1539 127.596 35.5729 127.363 35.6194 127.363C35.7125 127.317 35.7125 127.224 35.7125 127.177C35.666 127.084 35.5729 127.084 35.5263 127.084C35.5263 127.084 35.2004 127.224 34.9211 127.131C34.7814 127.084 34.6883 126.945 34.6418 126.759C34.5486 126.48 34.5486 126.294 34.5486 126.154C34.5486 125.782 34.5021 125.55 33.8503 125.41C33.6641 125.364 33.4779 125.364 33.3382 125.364C32.8727 125.317 32.733 125.317 32.5933 124.806C32.5933 124.713 32.5002 124.666 32.4071 124.713C32.314 124.713 32.2674 124.806 32.314 124.899C32.4071 125.131 32.5002 125.317 32.5933 125.41Z" fill="#BDE7FF"/>
<path d="M64.3908 96.8591C64.8098 96.8591 65.0426 96.6731 65.1822 96.5336C65.415 96.2546 65.415 95.8361 65.3219 95.5571C65.1822 95.0456 65.1822 94.6736 65.6478 94.4411C65.8806 94.3481 65.9737 94.1621 65.9737 94.0226C66.0202 93.6506 65.6478 93.2786 65.6012 93.2321C65.5547 93.1856 65.4616 93.1856 65.415 93.2321C65.3685 93.2786 65.3685 93.3716 65.415 93.4181C65.5081 93.5111 65.7409 93.7901 65.6943 93.9761C65.6943 94.0226 65.6944 94.0691 65.5081 94.1621C64.7167 94.5341 64.9495 95.3246 65.0426 95.6036C65.0891 95.7896 65.0891 96.1151 64.9495 96.3476C64.8563 96.4871 64.6701 96.5801 64.4373 96.5801C64.3442 96.5801 64.2977 96.6266 64.2977 96.7196C64.2511 96.7661 64.2977 96.8591 64.3908 96.8591Z" fill="#BDE7FF"/>
<path d="M55.4986 115.134C55.9176 115.134 56.1504 114.948 56.2901 114.808C56.5228 114.529 56.5228 114.111 56.4297 113.832C56.2901 113.32 56.2901 112.948 56.7556 112.716C56.9884 112.623 57.0815 112.437 57.0815 112.297C57.1281 111.925 56.7556 111.553 56.7091 111.507C56.6625 111.46 56.5694 111.46 56.5228 111.507C56.4763 111.553 56.4763 111.646 56.5228 111.693C56.616 111.786 56.8487 112.065 56.8022 112.251C56.8022 112.297 56.8022 112.344 56.616 112.437C55.8245 112.809 56.0573 113.599 56.1504 113.878C56.197 114.064 56.197 114.39 56.0573 114.622C55.9642 114.762 55.778 114.855 55.5452 114.855C55.4521 114.855 55.4055 114.901 55.4055 114.994C55.4055 115.087 55.4521 115.134 55.4986 115.134Z" fill="#BDE7FF"/>
<path d="M59.4094 109.414C59.8284 109.414 60.0611 109.228 60.2008 109.089C60.4336 108.81 60.4336 108.391 60.3405 108.112C60.2008 107.601 60.2008 107.229 60.6664 106.996C60.8991 106.903 60.9922 106.717 60.9922 106.578C61.0388 106.206 60.6663 105.834 60.6198 105.787C60.5732 105.741 60.4801 105.741 60.4336 105.787C60.387 105.834 60.387 105.927 60.4336 105.973C60.5267 106.066 60.7595 106.345 60.7129 106.531C60.7129 106.578 60.7129 106.624 60.5267 106.717C59.7352 107.089 59.968 107.88 60.0611 108.159C60.1077 108.345 60.1077 108.67 59.968 108.903C59.8749 109.042 59.6887 109.135 59.4559 109.135C59.3628 109.135 59.3162 109.182 59.3162 109.275C59.2697 109.368 59.3162 109.414 59.4094 109.414Z" fill="#BDE7FF"/>
<path d="M52.426 95.1386C52.3794 95.1386 52.3794 95.1386 52.426 95.1386C52.1932 95.5106 52.1932 95.7896 52.2863 95.9756C52.426 96.3476 52.7519 96.5801 53.0312 96.6731C53.5433 96.8126 53.8227 97.0451 53.7761 97.5566C53.7295 97.8356 53.8227 97.9751 53.9158 98.0681C54.1951 98.3471 54.7072 98.2541 54.8003 98.2076C54.8934 98.2076 54.94 98.1146 54.8934 98.0216C54.8934 97.9286 54.8003 97.8821 54.7072 97.9286C54.6141 97.9286 54.2417 97.9751 54.102 97.8356C54.102 97.8356 54.0089 97.7426 54.0554 97.6031C54.1951 96.7196 53.4037 96.4871 53.1243 96.3941C52.9381 96.3476 52.6588 96.1616 52.5656 95.8826C52.5191 95.6966 52.5191 95.5106 52.6588 95.3246C52.7053 95.2781 52.7053 95.1851 52.6122 95.1386C52.5191 95.0921 52.4725 95.0921 52.426 95.1386Z" fill="#BDE7FF"/>
<path d="M48.8412 108.577C48.8412 108.996 49.0274 109.228 49.1671 109.368C49.4464 109.6 49.8654 109.6 50.1447 109.507C50.6569 109.368 51.0293 109.368 51.2621 109.833C51.3552 110.065 51.5414 110.158 51.6811 110.158C52.0535 110.205 52.426 109.833 52.4725 109.786C52.5191 109.74 52.5191 109.647 52.4725 109.6C52.426 109.554 52.3329 109.554 52.2863 109.6C52.1932 109.693 51.9139 109.926 51.7276 109.879C51.6811 109.879 51.6345 109.879 51.5414 109.693C51.169 108.903 50.3775 109.135 50.0982 109.228C49.912 109.275 49.5861 109.275 49.3533 109.135C49.2136 109.042 49.1205 108.856 49.1205 108.624C49.1205 108.531 49.074 108.484 48.9809 108.484C48.9343 108.438 48.8877 108.484 48.8412 108.577Z" fill="#BDE7FF"/>
<path d="M60.0145 116.436C59.7817 116.808 59.7817 117.087 59.8748 117.273C60.0145 117.645 60.3404 117.877 60.6197 117.97C61.1318 118.11 61.4112 118.342 61.3646 118.854C61.318 119.133 61.4112 119.272 61.5043 119.365C61.7836 119.644 62.2957 119.551 62.3888 119.505C62.4819 119.505 62.5285 119.412 62.4819 119.319C62.4819 119.226 62.3888 119.179 62.2957 119.226C62.2026 119.226 61.8302 119.272 61.6905 119.133C61.6905 119.133 61.5974 119.04 61.6439 118.9C61.7836 118.017 60.9922 117.784 60.7128 117.691C60.5266 117.645 60.2473 117.459 60.1542 117.18C60.1076 116.994 60.1076 116.808 60.2473 116.622C60.2938 116.575 60.2938 116.482 60.2007 116.436C60.1542 116.389 60.061 116.389 60.0145 116.436Z" fill="#BDE7FF"/>
<path d="M58.6178 103.695C58.7109 103.276 59.1299 103.044 59.5489 103.137C59.9679 103.23 60.2007 103.648 60.1076 104.067C60.0145 104.485 59.5955 104.718 59.1765 104.625C58.7575 104.485 58.5247 104.067 58.6178 103.695ZM58.8971 103.741C58.8506 103.974 58.9902 104.253 59.223 104.299C59.4558 104.346 59.7351 104.206 59.7817 103.974C59.8282 103.741 59.6886 103.462 59.4558 103.416C59.223 103.369 58.9902 103.509 58.8971 103.741Z" fill="#BDE7FF"/>
<path d="M50.8431 88.6285C50.9362 88.21 51.3552 87.9775 51.7742 88.0705C52.1932 88.1635 52.426 88.582 52.3329 89.0005C52.2398 89.419 51.8208 89.6515 51.4018 89.5585C50.9362 89.4655 50.7034 89.047 50.8431 88.6285ZM51.1224 88.7215C51.0759 88.954 51.2156 89.233 51.4483 89.2795C51.6811 89.326 51.9604 89.1865 52.007 88.954C52.0536 88.7215 51.9139 88.4425 51.6811 88.396C51.4483 88.3495 51.169 88.489 51.1224 88.7215Z" fill="#BDE7FF"/>
<path d="M61.7837 93.1855C61.8768 92.767 62.2958 92.5345 62.7148 92.6275C63.1338 92.7205 63.3666 93.139 63.2735 93.5575C63.1804 93.976 62.7614 94.2085 62.3424 94.1155C61.9234 93.976 61.6906 93.5575 61.7837 93.1855ZM62.1096 93.232C62.063 93.4645 62.2027 93.7435 62.4355 93.79C62.6682 93.8365 62.9476 93.697 62.9941 93.4645C63.0407 93.232 62.901 92.953 62.6682 92.9065C62.3889 92.86 62.1561 92.9995 62.1096 93.232Z" fill="#BDE7FF"/>
<path d="M61.9233 113.832C62.0164 113.413 62.4354 113.181 62.8544 113.274C63.2734 113.367 63.5062 113.785 63.4131 114.204C63.32 114.622 62.901 114.855 62.482 114.762C62.063 114.669 61.8302 114.25 61.9233 113.832ZM62.2027 113.925C62.1561 114.157 62.2958 114.436 62.5286 114.483C62.7613 114.529 63.0407 114.39 63.0872 114.157C63.1338 113.925 62.9941 113.646 62.7613 113.599C62.5286 113.506 62.2492 113.646 62.2027 113.925Z" fill="#BDE7FF"/>
<path d="M51.8208 121.411C51.9139 120.993 52.3329 120.76 52.7519 120.853C53.1709 120.946 53.4037 121.365 53.3106 121.783C53.2175 122.202 52.7985 122.434 52.3795 122.341C51.9605 122.202 51.7277 121.783 51.8208 121.411ZM52.1001 121.458C52.0536 121.69 52.1932 121.969 52.426 122.016C52.6588 122.062 52.9381 121.923 52.9847 121.69C53.0312 121.458 52.8916 121.179 52.6588 121.132C52.426 121.086 52.1467 121.225 52.1001 121.458Z" fill="#BDE7FF"/>
<path d="M57.6402 83.9321C57.7333 83.5136 58.1523 83.2811 58.5713 83.3741C58.9903 83.4671 59.2231 83.8856 59.13 84.3041C59.0369 84.7226 58.6179 84.9551 58.1989 84.8621C57.7333 84.7691 57.5006 84.3506 57.6402 83.9321ZM57.9196 84.0251C57.873 84.2576 58.0127 84.5365 58.2455 84.583C58.4782 84.6295 58.7576 84.4901 58.8041 84.2576C58.8507 84.0251 58.711 83.7461 58.4782 83.6996C58.2455 83.6066 57.9661 83.7461 57.9196 84.0251Z" fill="#BDE7FF"/>
<path d="M45.5357 106.764C45.6288 106.345 46.0478 106.113 46.4668 106.206C46.8858 106.299 47.1186 106.717 47.0255 107.136C46.9324 107.554 46.5134 107.787 46.0944 107.694C45.6754 107.601 45.3961 107.182 45.5357 106.764ZM45.8151 106.81C45.7685 107.043 45.9082 107.322 46.1409 107.368C46.3737 107.415 46.6531 107.275 46.6996 107.043C46.7462 106.81 46.6065 106.531 46.3737 106.485C46.1409 106.438 45.8616 106.578 45.8151 106.81Z" fill="#BDE7FF"/>
<path d="M50.1448 118.435C50.1914 118.435 50.2379 118.435 50.2845 118.389C50.331 118.342 50.331 118.249 50.2845 118.203C49.7258 117.598 50.0517 116.994 50.0983 116.947C50.1448 116.854 50.0982 116.808 50.0517 116.761C50.0051 116.715 49.912 116.761 49.8655 116.808C49.6793 117.087 49.5396 117.784 50.0983 118.389C50.0983 118.389 50.0982 118.435 50.1448 118.435Z" fill="#BDE7FF"/>
<path d="M43.8597 112.251C43.8597 112.204 43.8597 112.158 43.8597 112.111C43.8132 112.065 43.7201 112.018 43.6735 112.065C43.0217 112.576 42.4631 112.158 42.4165 112.158C42.37 112.111 42.2768 112.111 42.2303 112.204C42.1837 112.251 42.1837 112.344 42.2768 112.39C42.5562 112.576 43.208 112.809 43.8597 112.297C43.8132 112.297 43.8597 112.297 43.8597 112.251Z" fill="#BDE7FF"/>
<path d="M29.8 113.367C30.0793 113.413 30.2655 113.32 30.5449 113.181C30.6845 113.134 30.8242 113.041 31.0104 112.995C31.4294 112.855 31.4294 112.902 31.6156 113.134C31.7087 113.274 31.8484 113.46 32.0812 113.692C32.314 113.878 32.5002 113.971 32.733 113.925C33.152 113.878 33.4313 113.506 33.4313 113.46C33.4779 113.413 33.4779 113.32 33.3847 113.274C33.3382 113.227 33.2451 113.227 33.1985 113.32C33.1985 113.32 33.0123 113.599 32.733 113.646C32.5933 113.646 32.4536 113.599 32.314 113.46C32.1277 113.274 31.9881 113.088 31.895 112.948C31.7087 112.623 31.5225 112.437 30.9173 112.669C30.7311 112.762 30.5914 112.809 30.4517 112.902C30.0327 113.088 29.8931 113.181 29.5206 112.809C29.4741 112.762 29.381 112.762 29.3344 112.809C29.2879 112.855 29.2879 112.948 29.3344 112.995C29.5206 113.227 29.6603 113.32 29.8 113.367Z" fill="#BDE7FF"/>
<path d="M44.5581 129.502C44.9771 129.502 45.2099 129.316 45.3495 129.177C45.5823 128.898 45.5823 128.479 45.4892 128.2C45.3495 127.689 45.3495 127.317 45.8151 127.084C46.0479 126.991 46.141 126.805 46.141 126.666C46.1875 126.294 45.8151 125.922 45.7685 125.875C45.722 125.829 45.6289 125.829 45.5823 125.875C45.5357 125.922 45.5357 126.015 45.5823 126.061C45.6754 126.154 45.9082 126.433 45.8616 126.619C45.8616 126.666 45.8616 126.712 45.6754 126.805C44.884 127.177 45.1167 127.968 45.2099 128.247C45.2564 128.433 45.2564 128.758 45.1167 128.991C45.0236 129.13 44.8374 129.223 44.6046 129.223C44.5115 129.223 44.465 129.27 44.465 129.363C44.465 129.409 44.5115 129.502 44.5581 129.502Z" fill="#BDE7FF"/>
<path d="M45.2098 120.853C45.6288 120.853 45.8616 120.667 46.0013 120.528C46.234 120.249 46.234 119.83 46.1409 119.551C46.0013 119.04 46.0013 118.668 46.4668 118.435C46.6996 118.342 46.7927 118.156 46.7927 118.017C46.8393 117.645 46.4668 117.273 46.4203 117.226C46.3737 117.18 46.2806 117.18 46.234 117.226C46.1875 117.273 46.1875 117.366 46.234 117.412C46.3271 117.505 46.5599 117.784 46.5134 117.97C46.5134 118.017 46.5134 118.063 46.3271 118.156C45.5357 118.528 45.7685 119.319 45.8616 119.598C45.9081 119.784 45.9081 120.109 45.7685 120.342C45.6754 120.481 45.4891 120.574 45.2564 120.574C45.1633 120.574 45.1167 120.621 45.1167 120.714C45.1167 120.76 45.1633 120.807 45.2098 120.853Z" fill="#BDE7FF"/>
<path d="M36.7368 123.318C36.7368 123.364 36.7368 123.364 36.7368 123.318C36.7368 123.736 36.923 123.969 37.0626 124.108C37.342 124.341 37.761 124.341 38.0403 124.248C38.5524 124.108 38.9249 124.108 39.1577 124.573C39.2508 124.806 39.437 124.899 39.5766 124.899C39.9491 124.945 40.3215 124.573 40.3681 124.527C40.4146 124.48 40.4146 124.387 40.3681 124.341C40.3215 124.294 40.2284 124.294 40.1819 124.341C40.0888 124.434 39.8094 124.666 39.6232 124.62C39.5767 124.62 39.5301 124.62 39.437 124.434C39.0645 123.643 38.2731 123.876 37.9938 123.969C37.8075 124.015 37.4816 124.015 37.2489 123.876C37.1092 123.783 37.0161 123.597 37.0161 123.364C37.0161 123.271 36.9695 123.225 36.8764 123.225C36.8299 123.225 36.7833 123.271 36.7368 123.318Z" fill="#BDE7FF"/>
<path d="M45.6754 132.06C45.7685 131.641 46.1875 131.409 46.6065 131.502C47.0255 131.595 47.2583 132.013 47.1652 132.432C47.0721 132.85 46.6531 133.083 46.2341 132.99C45.8151 132.897 45.5823 132.478 45.6754 132.06ZM45.9547 132.153C45.9082 132.385 46.0478 132.664 46.2806 132.711C46.5134 132.757 46.7927 132.618 46.8393 132.385C46.8859 132.153 46.7462 131.874 46.5134 131.827C46.2806 131.734 46.0013 131.92 45.9547 132.153Z" fill="#BDE7FF"/>
<path d="M39.1577 129.549C39.2508 129.13 39.6698 128.898 40.0888 128.991C40.5078 129.084 40.7406 129.502 40.6474 129.921C40.5543 130.339 40.1353 130.572 39.7163 130.479C39.2973 130.386 39.018 129.967 39.1577 129.549ZM39.437 129.642C39.3904 129.874 39.5301 130.153 39.7629 130.2C39.9957 130.246 40.275 130.107 40.3216 129.874C40.3681 129.642 40.2284 129.363 39.9957 129.316C39.7629 129.223 39.4836 129.363 39.437 129.642Z" fill="#BDE7FF"/>
<path d="M31.895 119.319C31.9881 118.9 32.4071 118.668 32.8261 118.761C33.2451 118.854 33.4779 119.272 33.3848 119.691C33.2916 120.109 32.8726 120.342 32.4536 120.249C32.0346 120.109 31.7553 119.691 31.895 119.319ZM32.1743 119.365C32.1278 119.598 32.2674 119.877 32.5002 119.923C32.733 119.97 33.0123 119.83 33.0589 119.598C33.1054 119.365 32.9658 119.086 32.733 119.04C32.5002 118.993 32.2209 119.133 32.1743 119.365Z" fill="#BDE7FF"/>
<path d="M58.6178 77.8874C58.6178 77.8874 58.4781 78.8174 56.1038 78.3524C55.2658 78.2129 54.1484 77.7479 52.7052 76.9109L54.2415 72.0284L58.385 73.0049L58.6178 77.8874Z" fill="#FECECC"/>
<path opacity="0.1" d="M58.3384 74.9576C57.8729 75.0506 57.3608 75.1436 56.8952 75.2831C56.5228 75.3761 56.1503 75.5156 55.871 75.7481C55.5916 75.9806 55.4054 76.2596 55.4054 76.5386C55.3589 77.0501 55.6848 77.5151 55.9175 77.9336C55.9641 78.0731 56.0106 78.2126 56.1038 78.3056C55.2658 78.1661 54.1484 77.7011 52.7052 76.8641L54.2415 71.9816L58.385 72.9581C58.385 73.0511 58.4315 74.9576 58.3384 74.9576Z" fill="#201135"/>
<path d="M62.4819 61.4725C62.4819 61.4725 64.5303 75.1435 59.4558 75.3295C54.3347 75.469 51.0292 69.982 51.0292 69.982C51.0292 69.982 48.9342 69.5635 48.8411 67.0525C48.7946 65.0065 50.0516 65.425 50.0516 65.425C50.0516 65.425 49.2601 60.1705 52.938 59.2405C56.6159 58.3105 62.4819 61.4725 62.4819 61.4725Z" fill="#FECECC"/>
<path opacity="0.1" d="M54.7537 68.2615C54.7071 68.587 55.033 68.959 55.5451 69.052C56.0572 69.145 56.5228 68.959 56.5693 68.6335C56.6159 68.308 56.29 67.936 55.7779 67.843C55.3123 67.75 54.8468 67.936 54.7537 68.2615Z" fill="#201135"/>
<path opacity="0.1" d="M60.4335 68.4941C60.3869 68.8196 60.7128 69.1916 61.2249 69.2846C61.737 69.3776 62.2026 69.1916 62.2492 68.8661C62.2957 68.5406 61.9698 68.1686 61.4577 68.0756C60.9922 67.9826 60.5266 68.1686 60.4335 68.4941Z" fill="#201135"/>
<path d="M60.2938 65.3786C60.3403 65.3786 60.3869 65.3786 60.4335 65.3321C60.48 65.2856 61.0387 64.4021 62.3422 65.0531C62.4353 65.0996 62.4819 65.0531 62.5285 65.0066C62.575 64.9601 62.5285 64.8671 62.4819 64.8206C60.9456 64.0766 60.2472 65.1926 60.2007 65.1926C60.1541 65.2391 60.2007 65.3321 60.2472 65.3786H60.2938Z" fill="#000141"/>
<path d="M57.5936 65.3321H57.6401C57.7332 65.2856 57.7332 65.2391 57.7332 65.1461C57.7332 65.1461 57.2677 63.8906 55.4054 64.2161C55.3123 64.2161 55.2658 64.3091 55.3123 64.3556C55.3123 64.4486 55.4054 64.4951 55.452 64.4486C57.0814 64.1696 57.4539 65.1926 57.4539 65.1926C57.5004 65.2856 57.547 65.3321 57.5936 65.3321Z" fill="#000141"/>
<path d="M59.0833 68.866C59.1299 68.866 59.1764 68.866 59.223 68.866C59.5023 68.773 59.642 68.4475 59.642 68.4475C59.642 68.401 59.642 68.3545 59.642 68.308C59.1764 67.5175 59.3161 66.4945 59.3161 66.4945C59.3161 66.4015 59.2695 66.355 59.223 66.355C59.1299 66.355 59.0833 66.4015 59.0833 66.448C59.0833 66.4945 58.8971 67.564 59.4092 68.401C59.3626 68.494 59.2695 68.587 59.1764 68.587C59.0833 68.6335 58.9436 68.587 58.8505 68.4475C58.804 68.401 58.7109 68.401 58.6643 68.4475C58.6178 68.494 58.6178 68.587 58.6643 68.6335C58.7574 68.8195 58.9436 68.866 59.0833 68.866Z" fill="#000141"/>
<path d="M60.8059 70.726C60.8059 70.726 59.1765 71.377 57.4073 70.4935C56.9883 71.2375 59.0368 73.2835 60.8059 70.726Z" fill="#FCFAF7"/>
<path d="M60.7128 66.4945C60.7128 66.913 60.9455 67.285 61.2249 67.285C61.5042 67.285 61.7835 66.9595 61.7835 66.4945C61.7835 66.076 61.5508 65.704 61.2714 65.704C60.9456 65.7505 60.7128 66.076 60.7128 66.4945Z" fill="#000141"/>
<path d="M55.8245 66.3551C55.8245 66.7736 56.0572 67.1456 56.3366 67.1456C56.6159 67.1456 56.8952 66.8201 56.8952 66.3551C56.8952 65.9366 56.6625 65.5646 56.3831 65.5646C56.1038 65.5646 55.8245 65.9366 55.8245 66.3551Z" fill="#000141"/>
<path opacity="0.1" d="M58.6643 72.6791C58.804 72.6791 58.8971 72.6791 58.8971 72.6791C58.9436 72.6791 58.9436 72.6326 58.9436 72.5861C58.9436 72.5396 58.8971 72.5396 58.8505 72.5396C58.8505 72.5396 58.2453 72.6791 57.6866 72.1676C57.6401 72.1211 57.5935 72.1211 57.5935 72.1676C57.547 72.2141 57.547 72.2606 57.5935 72.2606C58.0125 72.5861 58.4315 72.6326 58.6643 72.6791Z" fill="#201135"/>
<path opacity="0.1" d="M50.2843 66.2155C50.2843 66.2155 49.4929 65.797 49.3067 66.355C49.1204 66.913 49.586 68.401 50.3774 68.773C50.3774 68.773 48.9808 67.3315 49.4929 66.541C49.9584 65.704 50.2378 66.5875 50.2843 66.2155Z" fill="#201135"/>
<path d="M54.8934 60.124C54.8934 60.124 56.2901 62.8675 57.8729 62.7745C59.4558 62.728 59.5955 62.4025 59.5955 62.4025C59.5955 62.4025 60.4801 63.844 62.8078 63.7975C65.1356 63.751 65.4149 62.17 65.4149 62.17C65.4149 62.17 67.184 61.6585 66.7185 59.7055C66.2529 57.7525 64.6235 58.3105 64.6235 58.3105C64.6235 58.3105 65.5546 57.148 63.8786 55.7995C62.2492 54.451 60.5266 56.7295 60.5266 56.7295C60.5266 56.7295 60.1076 56.032 57.8264 55.195C55.5452 54.358 53.8692 56.8225 53.8692 56.8225C53.8692 56.8225 50.7034 55.7065 49.9585 58.729C49.9585 58.729 47.7704 59.938 48.6549 61.8445C48.6549 61.8445 46.9324 65.518 50.2378 65.6575C50.2378 65.6575 50.7499 67.564 52.0535 67.471C53.4036 67.4245 52.7053 65.518 52.9846 64.774C53.3105 64.0765 55.4986 63.5185 54.8934 60.124Z" fill="#1C1C1C"/>
<path d="M89.1583 77.1895L94.9777 83.1415L99.5402 87.838L11.0846 173.956L10.7122 174.328C9.78108 174.561 7.40675 173.119 4.98586 170.748C4.79964 170.562 4.61342 170.376 4.42719 170.19C1.91319 167.586 0.190639 164.842 0.28375 163.726L0.79586 163.215L89.1583 77.1895Z" fill="#1C1C1C"/>
<path opacity="0.5" d="M94.9777 83.1415L99.5402 87.838L11.0846 173.956L10.7122 174.328C9.78106 174.561 7.40673 173.119 4.98584 170.748L7.68606 168.144L94.9777 83.1415Z" fill="#A0C5FF"/>
<path d="M89.1583 77.1895L99.5402 87.838L107.315 69.889L89.1583 77.1895Z" fill="#BDE7FF"/>
<path d="M93.0224 83.839C95.9089 86.7685 98.7953 88.582 99.5868 87.838C100.332 87.094 98.6091 84.118 95.7692 81.1885C92.8828 78.259 89.9963 76.4455 89.2049 77.1895C88.46 77.9335 90.136 80.863 93.0224 83.839Z" fill="#BDE7FF"/>
<path d="M105.36 74.3995L107.315 69.889L102.846 71.7025C103.404 72.865 104.289 73.9345 105.36 74.3995Z" fill="#1C1C1C"/>
<path d="M53.6364 133.827C53.2174 133.594 52.7053 133.222 52.007 132.571C51.6345 132.246 51.2621 131.92 50.9362 131.548C50.331 130.897 49.9585 130.432 49.6792 130.06C49.3067 129.502 49.2136 129.27 49.2136 129.27C49.2136 129.27 50.6103 124.666 52.2863 124.666C54.2416 124.666 58.2454 122.434 58.2454 123.922C58.2454 125.41 55.1727 126.015 55.1727 126.015C55.1727 126.015 55.2193 126.015 55.2658 126.061C55.6848 126.201 57.2212 126.852 58.3851 127.921C58.711 128.2 58.9903 128.526 59.2231 128.898C59.2696 128.944 59.3162 129.037 59.3162 129.084C59.3627 129.177 59.4558 129.316 59.5024 129.409C59.5024 129.409 59.5024 129.456 59.549 129.456C59.5955 129.502 59.5955 129.595 59.5955 129.642C59.5955 129.828 59.549 130.014 59.4093 130.246C58.8972 131.037 58.2454 130.711 58.2454 130.711C58.2454 130.711 58.6178 131.316 58.1523 131.874C57.6402 132.478 57.2212 132.06 57.2212 132.06C57.2212 132.06 57.4074 132.804 56.9884 133.269C56.5228 133.734 56.0573 133.269 56.0573 133.269C56.0573 133.269 56.2901 133.78 55.7314 134.338C55.1727 134.803 53.6364 133.827 53.6364 133.827Z" fill="#FECECC"/>
<path opacity="0.2" d="M56.2901 131.595C56.2901 131.641 56.2901 131.641 56.2436 131.688C55.9643 131.967 55.6849 132.199 55.5453 132.618C55.4987 132.757 55.4521 132.897 55.359 132.99C55.3125 133.036 55.2194 133.036 55.1728 133.036C55.0797 133.083 55.0331 133.129 54.94 133.176C54.7073 133.362 54.5676 133.594 54.4279 133.873C54.3814 133.966 54.2883 134.106 54.2417 134.245C54.7073 134.478 55.359 134.664 55.6384 134.385C56.1505 133.827 55.9643 133.315 55.9643 133.315C55.9643 133.315 56.4298 133.78 56.8954 133.315C57.3144 132.85 57.1281 132.106 57.1281 132.106C57.1281 132.106 57.5471 132.525 58.0593 131.92C58.5714 131.362 58.1524 130.758 58.1524 130.758C58.1524 130.758 58.8041 131.037 59.3163 130.293C59.4559 130.06 59.5025 129.828 59.5025 129.688C59.5025 129.642 59.4559 129.549 59.4559 129.502C59.4559 129.502 59.4559 129.456 59.4094 129.456C59.3628 129.316 59.3163 129.223 59.2231 129.13C59.1766 129.084 59.13 128.991 59.13 128.944C59.0835 129.177 58.9438 129.363 58.8507 129.549C58.711 129.735 58.5248 129.967 58.292 130.014C58.0593 130.107 57.7799 130.014 57.5471 130.107C57.2678 130.153 57.0816 130.432 57.035 130.665C56.9885 130.897 56.9885 131.083 56.8488 131.269C56.7557 131.362 56.5229 131.455 56.2901 131.595Z" fill="white"/>
<path opacity="0.2" d="M57.9195 123.643C57.9195 123.643 56.8488 124.108 56.6625 124.015C56.4763 123.922 56.5694 123.643 56.5694 123.643C56.5694 123.643 57.6868 123.411 57.9195 123.643Z" fill="white"/>
<path d="M34.6883 93.046L44.6512 99.649L40.0422 111.739L52.7984 125.503L50.75 129.549C50.75 129.549 35.2935 124.992 31.1967 114.669C27.1463 104.392 34.6883 93.046 34.6883 93.046Z" fill="#FECECC"/>
<path d="M44.9306 100.951C44.9306 100.951 35.8522 101.23 32.8261 94.162C32.8261 94.162 39.2042 80.2585 49.493 76.2595C54.2882 78.817 44.9306 100.951 44.9306 100.951Z" fill="#0089D4"/>
<path d="M302.569 206.506L296.517 193.719L273.146 207.855L297.448 214.551C301.591 214.551 304.338 210.226 302.569 206.506Z" fill="#0089D4"/>
<path d="M223.75 206.506C221.981 210.226 224.728 214.551 228.872 214.551L253.174 207.855L229.803 193.719L223.75 206.506Z" fill="#0089D4"/>
<path d="M301.172 151.45C321.75 191.347 275.66 231.477 239.207 207.204C226.916 199.345 219.002 183.535 220.166 168.934C222.168 126.294 281.526 113.181 301.172 151.45Z" fill="#1C1C1C"/>
<path opacity="0.1" d="M283.714 133.547C284.18 135.686 285.623 137.36 287.206 138.848C287.997 139.592 288.835 140.29 289.627 141.08C290.371 141.824 291.023 142.568 291.722 143.359C293.072 144.893 294.422 146.614 294.934 148.66C295.353 150.38 295.167 152.194 295.306 153.961C295.399 154.937 295.586 155.867 296.005 156.751C296.424 157.727 297.075 158.611 297.681 159.494C298.845 161.215 300.055 162.935 300.66 164.935C301.219 166.888 301.126 169.027 300.288 170.84C299.45 172.607 298.007 174.002 296.656 175.397C296.284 175.769 295.912 176.141 295.586 176.513C295.306 176.839 295.074 177.211 294.794 177.536C294.375 178.141 293.91 178.699 293.584 179.35C292.979 180.466 292.885 181.628 293.398 182.791C294.003 184.325 295.167 185.534 296.144 186.836C296.796 187.673 297.355 188.557 297.122 189.673C296.982 190.324 296.703 190.882 296.377 191.44C295.912 192.23 295.399 192.974 294.841 193.672C293.77 195.02 292.606 196.322 291.768 197.81C290.93 199.345 290.697 201.112 291.256 202.786C291.349 203.018 291.396 203.204 291.489 203.437C305.083 191.486 311.554 171.398 301.219 151.403C296.889 143.126 290.744 137.221 283.714 133.547Z" fill="#878787"/>
<path d="M294.562 154.891C285.39 137.547 263.928 130.897 246.516 140.011C229.151 149.172 222.493 170.608 231.618 187.999C240.79 205.344 262.299 211.993 279.664 202.879C297.076 193.719 303.733 172.236 294.562 154.891Z" fill="#0D9FF0"/>
<path d="M233.806 186.929C228.685 177.257 228.871 166.191 233.294 157.03C234.598 154.287 236.32 151.729 238.369 149.451C239.3 148.428 240.278 147.451 241.348 146.521C243.257 144.847 245.352 143.406 247.68 142.197C250.706 140.616 253.872 139.5 257.084 138.942C271.004 136.338 285.53 142.941 292.466 156.1C294.887 160.657 296.098 165.539 296.284 170.422C296.47 176.374 295.074 182.233 292.234 187.441C291.582 188.65 290.837 189.813 289.999 190.975C288.23 193.393 286.135 195.625 283.714 197.578C282.131 198.834 280.409 199.949 278.593 200.926C262.392 209.342 242.326 203.111 233.806 186.929Z" fill="white"/>
<path d="M292.513 156.053C294.934 160.657 296.144 165.493 296.331 170.375C296.517 176.327 295.12 182.186 292.28 187.394C291.628 188.603 290.884 189.812 290.046 190.928C288.276 193.346 286.181 195.578 283.761 197.531C283.667 197.624 283.574 197.671 283.481 197.764C284.133 196.787 284.738 195.811 285.297 194.788C288.137 189.58 289.533 183.721 289.347 177.769C289.161 172.933 287.951 168.05 285.53 163.493C278.593 150.334 264.021 143.777 250.147 146.335C246.935 146.939 243.769 148.009 240.743 149.59C239.021 150.52 237.391 151.543 235.901 152.659C236.646 151.543 237.484 150.473 238.415 149.497C239.347 148.474 240.324 147.497 241.395 146.567C243.304 144.893 245.399 143.452 247.727 142.243C250.753 140.662 253.918 139.546 257.131 138.988C271.004 136.337 285.576 142.894 292.513 156.053Z" fill="#ECECEC"/>
<path d="M238.183 188.325C238.136 188.278 238.136 188.232 238.09 188.185C238.043 188.139 238.043 188.092 237.996 188.046L237.298 188.511L237.484 188.79L238.183 188.325Z" fill="#EA9B2A"/>
<path d="M290.046 184.884L290.79 185.256L290.93 184.93L290.185 184.558C290.139 184.698 290.092 184.791 290.046 184.884Z" fill="#EA9B2A"/>
<path d="M237.717 185.023L237.531 184.744L235.715 185.674L235.855 186L237.717 185.023Z" fill="#EA9B2A"/>
<path d="M291.302 182.001L292.047 182.28L292.187 181.954L291.442 181.675C291.396 181.768 291.349 181.908 291.302 182.001Z" fill="#EA9B2A"/>
<path d="M234.132 179.443L233.341 179.676L233.434 180.001L234.225 179.769C234.179 179.676 234.132 179.583 234.132 179.443Z" fill="#EA9B2A"/>
<path d="M240.091 190.836C240.045 190.789 239.998 190.743 239.998 190.696C239.952 190.65 239.905 190.603 239.905 190.557L239.3 191.068L239.533 191.347L240.091 190.836Z" fill="#EA9B2A"/>
<path d="M249.309 199.066L249.635 199.206L250.008 198.462C249.915 198.415 249.822 198.369 249.682 198.322L249.309 199.066Z" fill="#EA9B2A"/>
<path d="M258.527 201.996L258.853 202.042L258.946 201.252C258.853 201.252 258.714 201.205 258.62 201.205L258.527 201.996Z" fill="#EA9B2A"/>
<path d="M237.07 154.864L236.896 155.139L238.668 156.255L238.842 155.979L237.07 154.864Z" fill="#EA9B2A"/>
<path d="M255.362 201.345L255.687 201.438L255.874 200.647C255.781 200.601 255.641 200.601 255.548 200.554L255.362 201.345Z" fill="#EA9B2A"/>
<path d="M252.289 200.368L252.615 200.508L252.894 199.764C252.801 199.717 252.661 199.671 252.568 199.624L252.289 200.368Z" fill="#EA9B2A"/>
<path d="M292.28 179.025L293.072 179.211L293.165 178.885L292.373 178.699C292.327 178.792 292.28 178.885 292.28 179.025Z" fill="#EA9B2A"/>
<path d="M235.11 182.466L234.365 182.745L234.505 183.07L235.25 182.791C235.203 182.652 235.157 182.559 235.11 182.466Z" fill="#EA9B2A"/>
<path d="M233.481 176.746C233.481 176.653 233.434 176.514 233.434 176.421L232.643 176.56L232.689 176.886L233.481 176.746Z" fill="#EA9B2A"/>
<path d="M292.885 175.909L293.677 176.002L293.723 175.677L292.932 175.584C292.932 175.677 292.885 175.816 292.885 175.909Z" fill="#EA9B2A"/>
<path d="M234.319 170.515V170.143L232.224 170.097V170.283V170.422L234.319 170.515Z" fill="#EA9B2A"/>
<path d="M284.133 149.916C284.179 149.962 284.226 150.009 284.273 150.055L284.831 149.451L284.598 149.218L284.04 149.823C284.04 149.823 284.086 149.869 284.133 149.916Z" fill="#EA9B2A"/>
<path d="M233.062 173.259L232.27 173.305V173.631L233.062 173.584C233.108 173.491 233.062 173.398 233.062 173.259Z" fill="#EA9B2A"/>
<path d="M286.135 152.101C286.181 152.148 286.228 152.194 286.228 152.241C286.275 152.287 286.321 152.334 286.321 152.38L286.926 151.869L286.694 151.59L286.135 152.101Z" fill="#EA9B2A"/>
<path d="M261.786 200.973L261.74 202.275L262.112 202.321L262.159 200.229H261.833L261.786 200.973Z" fill="#EA9B2A"/>
<path d="M268.071 201.112L268.211 201.903L268.537 201.856L268.397 201.066C268.304 201.066 268.164 201.112 268.071 201.112Z" fill="#EA9B2A"/>
<path d="M238.788 152.38L238.695 152.473L239.346 152.985C239.393 152.938 239.393 152.892 239.44 152.845C239.486 152.799 239.533 152.752 239.533 152.706L238.881 152.194L238.788 152.38Z" fill="#EA9B2A"/>
<path d="M288.044 154.612C288.09 154.659 288.09 154.705 288.137 154.752C288.183 154.798 288.183 154.845 288.23 154.891L288.928 154.426L288.742 154.147L288.044 154.612Z" fill="#EA9B2A"/>
<path d="M236.181 158.007L235.436 157.635L235.296 157.96L236.041 158.332C236.088 158.239 236.134 158.1 236.181 158.007Z" fill="#EA9B2A"/>
<path d="M264.952 201.484L264.999 202.275H265.324L265.278 201.81L265.231 201.438C265.185 201.438 265.045 201.438 264.952 201.484Z" fill="#EA9B2A"/>
<path d="M247.913 195.904L247.587 195.718L246.516 197.485L246.795 197.671L247.913 195.904Z" fill="#EA9B2A"/>
<path d="M233.341 166.981L232.549 166.888L232.503 167.214L233.294 167.307C233.341 167.214 233.341 167.074 233.341 166.981Z" fill="#EA9B2A"/>
<path d="M233.993 163.912L233.201 163.726L233.108 164.052L233.899 164.238C233.946 164.098 233.946 164.005 233.993 163.912Z" fill="#EA9B2A"/>
<path d="M240.836 150.055L241.442 150.613C241.488 150.567 241.535 150.52 241.581 150.474C241.628 150.427 241.674 150.381 241.721 150.334L241.116 149.776L240.836 150.055Z" fill="#EA9B2A"/>
<path d="M242.14 192.975C242.093 192.928 242.047 192.882 242 192.835L241.442 193.44L241.674 193.672L242.233 193.068C242.233 193.068 242.186 193.021 242.14 192.975Z" fill="#EA9B2A"/>
<path d="M244.514 195.067C244.468 195.021 244.421 194.974 244.375 194.974L243.862 195.625L244.142 195.858L244.654 195.207C244.607 195.16 244.561 195.114 244.514 195.067Z" fill="#EA9B2A"/>
<path d="M234.924 160.89L234.179 160.611L234.039 160.936L234.784 161.215C234.877 161.122 234.877 161.029 234.924 160.89Z" fill="#EA9B2A"/>
<path d="M292.746 166.191C292.746 166.284 292.792 166.423 292.792 166.516L293.584 166.377L293.537 166.051L292.746 166.191Z" fill="#EA9B2A"/>
<path d="M291.954 172.375L291.908 172.747L294.003 172.84V172.654V172.468L291.954 172.375Z" fill="#EA9B2A"/>
<path d="M276.917 143.824L276.591 143.685L276.219 144.429C276.312 144.475 276.405 144.522 276.544 144.568L276.917 143.824Z" fill="#EA9B2A"/>
<path d="M260.902 140.662V140.755L260.948 141.453C261.041 141.453 261.181 141.453 261.274 141.453L261.228 140.662H260.902Z" fill="#EA9B2A"/>
<path d="M271.377 201.205L271.703 201.112L271.47 200.322C271.377 200.368 271.237 200.368 271.144 200.415L271.377 201.205Z" fill="#EA9B2A"/>
<path d="M287.614 186.68L287.441 186.956L289.213 188.071L289.387 187.796L287.614 186.68Z" fill="#EA9B2A"/>
<path d="M267.233 141.685C267.326 141.685 267.466 141.732 267.559 141.732L267.652 140.941L267.326 140.895L267.233 141.685Z" fill="#EA9B2A"/>
<path d="M270.353 142.243C270.446 142.29 270.585 142.29 270.678 142.336L270.865 141.546L270.539 141.453L270.353 142.243Z" fill="#EA9B2A"/>
<path d="M291.116 160.471L291.861 160.192L291.722 159.867L290.977 160.146C291.07 160.239 291.116 160.332 291.116 160.471Z" fill="#EA9B2A"/>
<path d="M288.556 157.867L288.695 158.193L290.558 157.216L290.371 156.891L288.556 157.867Z" fill="#EA9B2A"/>
<path d="M292.14 163.447L292.932 163.215L292.839 162.889L292.047 163.122C292.094 163.215 292.094 163.308 292.14 163.447Z" fill="#EA9B2A"/>
<path d="M293.165 169.632L293.956 169.585V169.26L293.165 169.306C293.165 169.399 293.165 169.539 293.165 169.632Z" fill="#EA9B2A"/>
<path d="M279.477 145.219L278.36 146.986L278.639 147.172L279.757 145.405L279.477 145.219Z" fill="#EA9B2A"/>
<path d="M281.619 147.73C281.666 147.777 281.712 147.777 281.759 147.823C281.805 147.87 281.852 147.916 281.898 147.916L282.41 147.265L282.131 147.033L281.619 147.73Z" fill="#EA9B2A"/>
<path d="M273.379 143.173C273.472 143.22 273.611 143.266 273.705 143.313L273.984 142.569L273.658 142.429L273.379 143.173Z" fill="#EA9B2A"/>
<path d="M254.57 141.778L254.803 142.569C254.896 142.522 255.036 142.522 255.129 142.476L254.896 141.685L254.57 141.778Z" fill="#EA9B2A"/>
<path d="M279.85 196.416C279.803 196.462 279.757 196.462 279.71 196.509L280.176 197.206L280.455 197.02L279.99 196.323C279.943 196.369 279.896 196.416 279.85 196.416Z" fill="#EA9B2A"/>
<path d="M286.88 189.906C286.833 189.952 286.833 189.999 286.787 190.045C286.74 190.092 286.693 190.138 286.693 190.185L287.345 190.696L287.438 190.603L287.578 190.417L286.88 189.906Z" fill="#EA9B2A"/>
<path d="M274.124 199.438L274.403 200.182L274.729 200.043L274.449 199.299C274.356 199.345 274.217 199.392 274.124 199.438Z" fill="#EA9B2A"/>
<path d="M282.364 194.556C282.317 194.602 282.271 194.649 282.224 194.649L282.736 195.253L283.016 195.021L282.504 194.416C282.457 194.463 282.41 194.509 282.364 194.556Z" fill="#EA9B2A"/>
<path d="M257.829 141.871C257.922 141.871 258.062 141.825 258.155 141.825L258.015 141.034L257.689 141.081L257.829 141.871Z" fill="#EA9B2A"/>
<path d="M243.49 147.637L243.211 147.87L243.723 148.474C243.769 148.428 243.816 148.381 243.862 148.381C243.909 148.335 243.956 148.288 244.002 148.288L243.49 147.637Z" fill="#EA9B2A"/>
<path d="M284.831 192.277C284.785 192.324 284.738 192.37 284.692 192.417C284.645 192.463 284.599 192.51 284.552 192.556L285.157 193.114L285.39 192.882L284.831 192.277Z" fill="#EA9B2A"/>
<path d="M245.771 145.87L246.237 146.568C246.283 146.521 246.33 146.521 246.376 146.475C246.423 146.428 246.47 146.428 246.516 146.382L246.051 145.684L245.771 145.87Z" fill="#EA9B2A"/>
<path d="M251.777 143.592C251.87 143.545 252.01 143.499 252.103 143.452L251.823 142.708L251.498 142.848L251.777 143.592Z" fill="#EA9B2A"/>
<path d="M264.068 142.662H264.393L264.44 142.197L264.486 140.616H264.161L264.068 142.662Z" fill="#EA9B2A"/>
<path d="M276.688 196.864L276.4 197.016L277.376 198.867L277.664 198.715L276.688 196.864Z" fill="#EA9B2A"/>
<path d="M248.856 144.076L248.568 144.228L249.544 146.079L249.832 145.928L248.856 144.076Z" fill="#EA9B2A"/>
<path d="M265.092 170.422C265.65 171.445 265.231 172.747 264.207 173.259C263.183 173.817 261.879 173.398 261.367 172.375C260.809 171.352 261.228 170.05 262.252 169.539C263.23 168.981 264.533 169.399 265.092 170.422Z" fill="#5D74E4"/>
<path d="M267.559 148.846L262.717 170.422L264.254 170.887L272.448 150.381L271.144 145.917L267.559 148.846Z" fill="#1C1C1C"/>
<path d="M263.835 172.933C264.347 172.7 264.719 172.142 264.719 171.538C264.719 170.701 264.021 170.003 263.136 170.003C262.298 170.003 261.6 170.701 261.6 171.584C261.6 172.235 261.973 172.747 262.531 172.979L261.274 188.324L263.183 191.114L265.092 188.324L263.835 172.933Z" fill="#1C1C1C"/>
<path d="M236.088 178.374C235.855 178.699 235.575 178.932 235.25 179.071C233.946 179.629 232.223 178.839 232.223 178.839L231.665 174.933L234.551 174.7L235.343 174.654L236.088 178.374Z" fill="#FECECC"/>
<path opacity="0.2" d="M236.739 180.28C236.926 181.21 231.292 185.256 230.594 185.349L230.128 185.395C230.175 185.256 230.315 185.163 230.687 185.163C231.944 185.07 235.575 180.559 235.808 180.048C235.948 179.676 235.575 179.304 235.296 179.025C235.156 178.885 235.017 178.792 235.017 178.746C235.017 178.699 234.97 178.467 234.877 178.141C234.644 177.165 234.225 175.398 234.179 175.305L234.644 174.607L235.436 174.561L236.134 178.327C236.088 178.374 236.553 179.397 236.739 180.28Z" fill="#0F1019"/>
<path d="M236.693 182.419C236.46 183.024 231.199 185.721 229.104 185.907C228.639 185.953 227.754 185.814 226.963 185.488C226.637 185.349 226.311 185.209 226.032 185.07C225.519 184.744 225.194 184.326 225.426 183.861C225.985 182.652 231.572 180.141 231.991 179.955H232.037C232.037 179.955 231.339 178.281 231.991 177.583C231.991 177.583 234.086 177.769 235.436 177.862C235.901 177.909 236.274 178.002 236.413 178.188C236.879 178.839 236.972 181.815 236.693 182.419Z" fill="#000141"/>
<path opacity="0.4" d="M226.078 185.116C225.566 184.791 225.24 184.372 225.473 183.907C226.032 182.698 231.618 180.187 232.037 180.001H232.084C232.084 180.001 234.97 179.583 235.575 181.21C236.041 182.605 229.57 185.442 226.078 185.116Z" fill="#383B4B"/>
<path d="M269.235 117.366C270.399 128.619 232.317 140.476 232.317 140.476C232.317 140.476 240.185 166.33 236.274 176.281C235.808 177.397 231.386 176.235 231.386 176.235C231.386 176.235 212.81 156.379 210.808 136.989C208.853 117.598 236.367 108.996 236.367 108.996C236.367 108.996 268.351 108.903 269.235 117.366Z" fill="#0089D4"/>
<path opacity="0.5" d="M269.235 117.366C268.49 110.251 245.445 109.182 238.415 109.042C237.857 110.763 237.205 112.483 236.274 114.064C235.157 115.924 235.017 117.459 235.064 119.551C235.11 121.132 235.11 122.946 234.319 124.387C232.968 126.805 229.803 127.177 228.173 129.27C225.845 132.153 226.404 136.198 227.335 139.5C228.313 143.08 229.104 146.382 229.384 150.102C229.523 151.915 229.663 153.682 230.175 155.403C230.641 156.891 231.246 158.332 231.758 159.774C233.434 164.703 235.157 171.492 231.339 175.863C231.293 175.909 231.246 175.956 231.246 175.956C231.386 176.095 231.432 176.188 231.432 176.188C231.432 176.188 235.901 177.351 236.32 176.235C240.231 166.237 232.363 140.43 232.363 140.43C232.363 140.43 270.446 128.572 269.235 117.366Z" fill="#0095E7"/>
<path d="M258.714 178.374C258.481 178.699 258.202 178.932 257.876 179.071C256.572 179.629 254.85 178.839 254.85 178.839L254.291 174.933L257.177 174.7L257.969 174.654L258.714 178.374Z" fill="#FECECC"/>
<path opacity="0.2" d="M259.319 180.28C259.505 181.21 253.872 185.256 253.174 185.349L252.708 185.395C252.755 185.256 252.894 185.163 253.267 185.163C254.524 185.07 258.155 180.559 258.388 180.048C258.527 179.676 258.155 179.304 257.876 179.025C257.736 178.885 257.596 178.792 257.596 178.746C257.596 178.699 257.55 178.467 257.457 178.141C257.224 177.165 256.805 175.398 256.758 175.305L257.224 174.607L258.015 174.561L258.714 178.327C258.714 178.374 259.133 179.397 259.319 180.28Z" fill="#0F1019"/>
<path d="M259.319 182.419C259.086 183.024 253.825 185.721 251.73 185.907C251.265 185.953 250.38 185.814 249.589 185.488C249.263 185.349 248.937 185.209 248.658 185.07C248.146 184.744 247.82 184.326 248.052 183.861C248.611 182.652 254.198 180.141 254.617 179.955H254.663C254.663 179.955 253.965 178.281 254.617 177.583C254.617 177.583 256.758 177.769 258.062 177.862C258.527 177.909 258.9 178.002 259.04 178.188C259.459 178.839 259.552 181.815 259.319 182.419Z" fill="#000141"/>
<path opacity="0.4" d="M248.704 185.116C248.192 184.791 247.866 184.372 248.099 183.907C248.658 182.698 254.244 180.187 254.663 180.001H254.71C254.71 180.001 257.596 179.583 258.202 181.21C258.667 182.605 252.149 185.442 248.704 185.116Z" fill="#383B4B"/>
<path d="M277.103 112.297C282.55 136.849 253.872 135.036 253.872 135.036C253.872 135.036 262.81 166.284 258.9 176.281C258.434 177.397 254.011 176.235 254.011 176.235C254.011 176.235 235.436 156.379 233.434 136.989C231.479 117.598 258.993 108.996 258.993 108.996C258.993 108.996 275.241 104.02 277.103 112.297Z" fill="#0089D4"/>
<path d="M202.707 70.0285C202.707 70.0285 201.497 69.61 200.985 68.8195C200.473 68.029 199.448 67.378 199.402 67.0525C199.355 66.727 199.635 66.3085 200.333 66.7735C201.311 67.3315 201.311 67.936 202.056 68.0755C202.8 68.215 203.545 68.587 204.197 69.517C204.849 70.4005 203.685 70.3075 202.707 70.0285Z" fill="#FECECC"/>
<path d="M197.4 66.541C199.169 67.3315 201.45 68.5405 202.195 68.587C202.614 68.6335 202.987 68.68 203.359 68.8195C203.592 68.866 203.778 68.959 204.011 69.0985C205.268 70.9585 203.871 71.749 203.778 71.8885C203.499 71.7955 202.568 71.5165 202.381 71.4235C200.566 70.5865 200.24 69.703 199.216 69.052C198.145 68.401 195.072 66.355 195.212 65.983C195.258 65.6575 196.236 66.0295 197.4 66.541Z" fill="#EAB2B2"/>
<path d="M200.892 68.8195C201.078 68.959 201.264 69.0985 201.45 69.1915C201.543 69.238 201.636 69.331 201.73 69.3775C201.823 69.424 201.916 69.4705 202.055 69.517C202.288 69.5635 202.521 69.61 202.754 69.61C202.987 69.6565 203.219 69.703 203.406 69.8425C203.173 69.7495 202.94 69.7495 202.754 69.703C202.521 69.703 202.288 69.6565 202.055 69.61C201.823 69.5635 201.636 69.3775 201.45 69.238C201.264 69.145 201.078 69.0055 200.892 68.8195Z" fill="#E8AD80"/>
<path opacity="0.2" d="M195.258 65.983C195.258 65.983 195.91 66.262 195.91 66.355C195.864 66.448 195.864 66.4945 195.771 66.448C195.631 66.4015 195.165 66.076 195.258 65.983Z" fill="white"/>
<path d="M206.199 70.354C207.084 71.377 209.737 71.377 209.923 71.563C210.156 71.749 209.411 73.5625 209.039 73.8415C209.039 73.8415 205.082 72.4465 203.266 71.6095C201.45 70.7725 201.124 69.889 200.1 69.238C199.029 68.587 195.957 66.541 196.096 66.169C196.19 65.89 197.121 66.262 198.331 66.82C200.1 67.6105 202.381 68.8195 203.126 68.866C203.545 68.9125 203.918 68.959 204.29 69.0985C204.989 69.2845 205.594 69.703 206.199 70.354Z" fill="#FECECC"/>
<path opacity="0.2" d="M199.961 68.1685C199.635 68.029 199.402 67.843 199.123 67.6105C198.843 67.378 198.517 67.1455 198.191 66.9595C198.005 66.82 197.819 66.6805 197.633 66.541C197.866 66.634 198.052 66.727 198.331 66.82C200.1 67.6105 202.381 68.8195 203.126 68.866C203.545 68.9125 203.918 68.959 204.29 69.0985C204.989 69.331 205.594 69.703 206.199 70.354C206.152 70.4005 206.059 70.447 205.966 70.447C205.733 70.54 205.454 70.54 205.221 70.4935C204.895 70.4005 204.57 70.2145 204.29 70.075C203.964 69.889 203.592 69.703 203.266 69.517C202.568 69.145 201.823 68.773 201.078 68.587C200.659 68.401 200.333 68.3545 199.961 68.1685Z" fill="white"/>
<path opacity="0.2" d="M196.19 66.262C196.19 66.262 196.841 66.541 196.841 66.634C196.841 66.727 196.795 66.7735 196.702 66.727C196.562 66.6805 196.096 66.355 196.19 66.262Z" fill="white"/>
<path d="M246.516 55.8925C242.605 57.52 232.782 65.3785 226.218 76.8175L208.108 70.4005L206.432 73.516C206.432 73.516 219.141 95.9755 232.084 93.5575C245.026 91.186 255.688 52.0795 246.516 55.8925Z" fill="#1C1C1C"/>
<path opacity="0.25" d="M241.023 85.0945C240.138 82.2115 239.393 79.282 239.207 76.2595C239.021 73.4695 239.44 70.726 239.626 67.9825C237.298 70.447 235.901 73.609 234.179 76.492C233.387 77.794 232.503 78.91 231.292 79.84C230.129 80.77 228.872 81.514 227.708 82.444C226.544 83.374 225.101 83.746 223.611 83.6995C222.866 83.653 222.121 83.56 221.423 83.281C220.771 83.0485 220.166 82.63 219.654 82.2115C218.583 81.3745 217.605 80.491 216.208 80.305C214.998 80.119 213.694 80.212 212.531 80.5375C212.205 80.6305 211.832 80.77 211.553 80.9095C216.441 87.187 224.263 95.0455 232.177 93.5575C235.482 92.953 238.648 89.9305 241.348 85.885C241.162 85.6525 241.069 85.3735 241.023 85.0945Z" fill="#939393"/>
<path d="M253.406 52.684C233.341 54.637 232.084 107.136 235.808 111.414C239.533 115.738 248.332 116.296 248.332 116.296C248.332 116.296 272.029 116.064 276.172 108.252C280.362 100.44 268.77 51.196 253.406 52.684Z" fill="#1C1C1C"/>
<path opacity="0.25" d="M264.952 82.0255C264.3 82.5835 263.602 83.002 262.811 83.374C262.066 83.6995 261.321 83.9785 260.576 84.304C259.784 84.6295 259.04 85.048 258.388 85.6525C257.736 86.257 257.224 86.9545 256.526 87.5125C255.269 88.489 253.779 88.954 252.289 89.326C250.799 89.6515 249.216 89.884 247.773 90.4885C247.028 90.814 246.283 91.2325 245.632 91.744C245.026 92.2555 244.654 92.953 244.281 93.6505C243.956 94.348 243.63 95.1385 243.257 95.836C242.885 96.58 242.373 97.231 241.814 97.789C240.883 98.7655 239.766 99.463 238.602 100.068C241.674 100.114 244.747 99.4165 247.68 98.6725C249.17 98.3005 250.613 97.8355 252.056 97.417C253.686 96.9055 255.222 96.2545 256.712 95.557C259.552 94.2085 262.392 92.86 265.371 91.6975C267.978 90.721 270.585 89.791 273.099 88.582C273.705 88.303 274.31 87.9775 274.868 87.652C274.124 84.2575 273.146 80.7235 272.029 77.236C271.982 77.236 271.982 77.1895 271.935 77.1895C269.515 75.097 268.583 71.935 266.535 69.5635C266.302 70.9585 266.442 72.4 266.535 73.795C266.675 75.4225 266.861 77.05 266.582 78.6775C266.582 79.933 266.023 81.1885 264.952 82.0255Z" fill="#939393"/>
<path opacity="0.25" d="M268.583 97.789C264.161 98.812 259.598 99.0445 255.082 99.184C252.615 99.277 250.194 99.37 247.773 99.7885C245.306 100.207 242.885 100.719 240.417 101.277C239.347 101.509 238.229 101.788 237.158 101.974C236.367 102.114 235.576 102.3 234.784 102.486C234.598 102.532 234.458 102.579 234.272 102.625C234.458 107.229 235.063 110.484 235.855 111.46C236.134 111.786 236.414 112.065 236.693 112.297C237.624 112.344 238.555 112.483 239.486 112.623C240.231 112.762 240.929 112.948 241.674 113.134C242.605 113.367 243.537 113.553 244.468 113.646C245.119 113.692 246.004 113.832 246.563 113.46C246.889 113.227 247.121 112.948 247.075 112.53C247.028 112.065 246.935 111.553 246.795 111.135C246.516 110.112 246.051 109.135 245.911 108.019C245.818 106.996 246.097 106.066 246.982 105.508C247.82 104.95 248.844 104.904 249.822 104.904C250.939 104.904 252.056 105.09 253.22 105.229C254.617 105.415 255.967 105.555 257.364 105.648C260.157 105.787 262.95 105.601 265.65 104.904C266.721 104.625 267.792 104.299 268.863 104.02C269.608 103.834 270.446 103.648 271.237 103.741C273.239 103.974 273.332 106.206 273.006 107.74C272.68 109.368 271.889 110.856 271.191 112.344C273.472 111.274 275.287 109.972 276.172 108.252C277.289 106.159 277.289 101.184 276.358 94.999C273.891 96.208 271.284 97.138 268.583 97.789Z" fill="#000141"/>
<path d="M248.611 33.4795C248.844 33.4795 249.077 33.526 249.263 33.526C249.682 33.1075 250.287 32.8285 250.939 32.8285C251.265 32.8285 251.591 32.875 251.87 33.0145C252.289 32.8285 252.755 32.689 253.267 32.689C254.244 32.689 255.129 33.1075 255.734 33.7585C255.92 33.712 256.107 33.6655 256.339 33.6655C257.41 33.6655 258.248 34.549 258.295 35.572C259.272 35.851 259.971 36.781 259.971 37.8505C259.971 38.3155 259.831 38.734 259.598 39.106C260.064 39.5245 260.343 40.129 260.343 40.8265C260.343 41.896 259.645 42.733 258.714 43.0585C258.9 43.3375 259.04 43.7095 259.04 44.035C259.04 44.9185 258.388 45.6625 257.55 45.802C257.27 46.6855 256.851 47.476 256.339 48.034C256.339 48.034 254.477 44.3605 252.382 42.6865C251.218 41.7565 251.73 40.3615 252.848 39.4315C252.289 39.3385 251.73 39.1525 251.311 38.827C250.706 39.664 249.728 40.1755 248.611 40.1755C246.749 40.1755 245.213 38.641 245.213 36.781C245.166 34.9675 246.702 33.4795 248.611 33.4795Z" fill="#000141"/>
<path d="M250.706 53.428C245.212 55.0555 244.747 60.775 250.939 60.8215C254.384 60.8215 261.228 57.241 258.295 54.2185C255.362 51.196 250.706 53.428 250.706 53.428Z" fill="#202234"/>
<path d="M246.19 42.64C246.19 42.64 248.611 40.129 251.172 39.664C253.732 39.2455 255.734 42.361 255.734 42.361C255.734 42.361 256.246 41.431 256.665 42.5935C257.084 43.756 256.107 44.7325 256.107 44.7325C256.107 44.7325 256.293 50.4985 256.479 53.8465C256.712 57.1945 251.172 59.1476 249.309 58.5896C247.447 58.0316 249.961 50.7775 249.961 50.7775C249.961 50.7775 248.518 52.7305 246.656 51.196C244.049 49.0105 246.19 42.64 246.19 42.64Z" fill="#FECECC"/>
<path opacity="0.5" d="M250.194 50.9635C250.52 50.731 250.799 50.4055 251.125 50.173C251.544 49.8475 252.056 49.522 252.522 49.243C252.382 49.522 252.196 49.801 252.056 50.0335C251.684 50.5915 251.358 51.196 251.032 51.8005C250.753 52.3585 250.38 53.056 250.427 53.707C250.427 53.9395 250.52 54.172 250.706 54.358C250.846 54.4975 251.125 54.637 251.125 54.8695C251.079 55.102 251.172 55.381 251.451 55.4275C253.08 55.7065 254.663 54.823 256.06 54.079C256.2 53.986 256.339 53.9395 256.479 53.8465C256.712 57.1945 251.172 59.1475 249.309 58.5895C247.727 58.1245 249.309 52.777 249.822 51.196C249.961 51.103 250.101 51.0565 250.194 50.9635Z" fill="#EAB2B2"/>
<path d="M232.736 85.7455C232.736 85.7455 238.648 108.856 244.887 111.367L225.24 111.972C225.24 111.972 213.415 94.441 213.881 87.4195L232.736 85.7455Z" fill="white"/>
<path d="M211.739 88.6285C211.739 88.6285 212.158 86.536 214.346 86.3965C216.534 86.257 232.736 85.7455 232.736 85.7455C232.736 85.7455 230.222 85.8385 230.035 87.9775C230.082 87.9775 219.328 87.2335 211.739 88.6285Z" fill="#A0C5FF"/>
<path d="M235.948 103.602C236.227 103.555 236.6 103.462 237.159 103.23C237.438 103.137 237.717 102.997 237.997 102.904C238.462 102.672 238.835 102.486 239.067 102.346C239.393 102.114 239.533 102.021 239.533 102.021C239.533 102.021 241.674 102.346 242.28 102.021C243.211 100.812 241.488 98.533 241.488 98.533C240.93 98.161 239.812 99.0445 238.835 98.6725C237.717 98.254 235.948 96.0685 235.622 96.9055C235.296 97.7425 236.926 98.7655 236.926 98.7655H236.879C236.6 98.7655 235.576 98.7655 234.691 99.091C234.458 99.184 234.226 99.3235 233.993 99.463C233.946 99.5095 233.9 99.5095 233.9 99.556C233.853 99.6025 233.76 99.649 233.713 99.6955C233.713 99.6955 233.713 99.6955 233.667 99.742C233.62 99.7885 233.62 99.7885 233.574 99.835C233.527 99.928 233.527 100.068 233.527 100.254C233.62 100.812 234.086 100.765 234.086 100.765C234.086 100.765 233.713 100.998 233.9 101.463C234.086 101.928 234.412 101.788 234.412 101.788C234.412 101.788 234.132 102.16 234.272 102.532C234.412 102.904 234.831 102.718 234.831 102.718C234.831 102.718 234.598 102.951 234.784 103.416C234.831 103.788 235.948 103.602 235.948 103.602Z" fill="#FECECC"/>
<path opacity="0.2" d="M234.97 101.742V101.788C235.064 102.021 235.203 102.207 235.157 102.439C235.157 102.532 235.157 102.625 235.203 102.672C235.25 102.718 235.25 102.718 235.296 102.765C235.343 102.811 235.343 102.858 235.389 102.904C235.483 103.044 235.529 103.23 235.529 103.416C235.529 103.509 235.529 103.555 235.529 103.648C235.203 103.648 234.784 103.648 234.691 103.416C234.505 102.997 234.738 102.718 234.738 102.718C234.738 102.718 234.365 102.904 234.179 102.532C234.039 102.16 234.319 101.788 234.319 101.788C234.319 101.788 233.993 101.928 233.807 101.463C233.667 101.044 233.993 100.765 233.993 100.765C233.993 100.765 233.527 100.765 233.434 100.254C233.388 100.068 233.434 99.9745 233.481 99.835C233.527 99.7885 233.527 99.7885 233.574 99.742C233.574 99.742 233.574 99.742 233.62 99.6955C233.667 99.649 233.713 99.6025 233.807 99.556C233.853 99.5095 233.9 99.5095 233.9 99.463C233.9 99.6025 233.9 99.742 233.946 99.8815C233.993 100.021 234.039 100.161 234.132 100.3C234.272 100.393 234.412 100.44 234.551 100.533C234.691 100.626 234.738 100.812 234.738 100.951C234.738 101.091 234.645 101.184 234.691 101.37C234.738 101.509 234.831 101.602 234.97 101.742Z" fill="#F2FAFF"/>
<path opacity="0.2" d="M235.808 96.859C235.808 96.859 236.32 97.3705 236.46 97.3705C236.6 97.3705 236.6 97.1845 236.6 97.1845C236.6 97.1845 236.041 96.766 235.808 96.859Z" fill="#F2FAFF"/>
<path d="M260.855 55.8925L270.958 83.3275L240.464 98.44L241.348 102.16C241.348 102.16 270.213 107.647 280.502 96.2545C290.79 84.8155 269.189 58.7755 260.855 55.8925Z" fill="#1C1C1C"/>
<path opacity="0.5" d="M250.66 47.569C250.66 47.848 250.287 48.0805 249.868 48.0805C249.403 48.0805 249.077 47.848 249.077 47.5225C249.077 47.2435 249.449 47.011 249.868 47.011C250.287 47.011 250.66 47.2435 250.66 47.569Z" fill="#EAB2B2"/>
<path d="M247.121 44.221C247.121 44.221 247.075 44.1745 247.075 44.128C247.075 44.0815 246.935 43.291 246.237 43.663C246.19 43.663 246.144 43.663 246.144 43.57C246.144 43.5235 246.19 43.4305 246.19 43.4305C247.028 42.9655 247.168 43.9885 247.168 44.035C247.214 44.128 247.214 44.1745 247.121 44.221C247.168 44.221 247.168 44.221 247.121 44.221Z" fill="#000141"/>
<path d="M248.518 44.221C248.425 44.1745 248.378 44.0815 248.425 44.035C248.425 44.035 249.077 43.0585 250.613 43.663C250.66 43.7095 250.706 43.756 250.66 43.8025C250.613 43.849 250.566 43.8955 250.52 43.849C249.17 43.291 248.658 44.0815 248.658 44.128C248.611 44.221 248.565 44.221 248.518 44.221Z" fill="#000141"/>
<path d="M246.935 47.29C246.889 47.29 246.842 47.29 246.795 47.2435C246.563 47.104 246.47 46.825 246.47 46.825C246.47 46.7785 246.47 46.732 246.516 46.732C247.075 46.1275 247.121 45.1975 247.121 45.1975C247.121 45.151 247.168 45.058 247.261 45.058C247.308 45.058 247.401 45.1045 247.401 45.1975C247.401 45.244 247.354 46.174 246.795 46.825C246.842 46.918 246.889 47.011 246.935 47.0575C247.028 47.104 247.121 47.0575 247.261 47.011C247.308 46.9645 247.401 47.011 247.447 47.0575C247.494 47.104 247.447 47.197 247.401 47.2435C247.214 47.29 247.075 47.3365 246.935 47.29Z" fill="#000141"/>
<path d="M246.423 49.15C246.423 49.15 247.494 49.615 248.704 49.057C248.937 49.5685 247.54 50.8705 246.423 49.15Z" fill="#FCFAF7"/>
<path d="M249.635 45.4765C249.589 45.8485 249.309 46.1275 249.03 46.081C248.751 46.0345 248.611 45.709 248.658 45.337C248.704 44.965 248.984 44.686 249.263 44.7325C249.542 44.7325 249.728 45.1045 249.635 45.4765Z" fill="#000141"/>
<path d="M246.749 45.337C246.702 45.709 246.469 45.988 246.33 45.988C246.144 45.9415 246.05 45.616 246.144 45.244C246.19 44.872 246.423 44.593 246.563 44.593C246.749 44.6395 246.842 44.965 246.749 45.337Z" fill="#000141"/>
<path d="M256.013 42.64C256.013 42.4075 256.526 42.2215 256.526 42.6865C256.572 43.1515 256.153 44.1745 256.153 44.1745C256.153 44.1745 256.479 43.198 256.386 42.9655C256.293 42.733 255.967 42.8725 256.013 42.64Z" fill="#000141"/>
<path d="M255.734 42.4075C255.734 42.4075 255.874 43.8025 255.362 44.1745C254.85 44.5465 254.803 42.268 254.011 41.71C253.22 41.1055 252.382 40.9195 249.682 41.5705C246.982 42.2215 247.214 42.919 246.051 42.64C244.887 42.3145 243.35 38.5015 245.026 37.8505C246.702 37.1995 244.514 35.3395 253.965 34.7815C263.416 34.2235 257.131 49.057 256.386 48.6385C255.641 48.22 258.434 43.5235 257.736 41.524C257.038 39.4315 255.687 41.617 255.734 42.4075Z" fill="#000141"/>
<path d="M162.344 83.7925C162.25 83.7925 162.111 83.7925 162.018 83.746C161.552 83.653 161.18 83.374 160.947 83.002L158.433 79.096C157.921 78.3055 158.154 77.236 158.945 76.7245C159.736 76.213 160.807 76.4455 161.319 77.236L162.902 79.7005L171.049 74.26C171.841 73.7485 172.912 73.9345 173.424 74.725C173.936 75.5155 173.75 76.585 172.958 77.0965L163.368 83.5135C162.995 83.6995 162.669 83.7925 162.344 83.7925Z" fill="#0D9FF0"/>
</svg>
