<svg width="314" height="330" viewBox="0 0 314 330" fill="none" xmlns="http://www.w3.org/2000/svg">
<path d="M288.42 80.7252C263.228 58.4311 232.807 55.8983 207.444 59.7352C181.25 64.0486 160.138 74.7317 134.482 90.0542C109.534 105.001 81.508 117.865 56.316 122.73C31.3928 128.774 9.27956 126.818 2.24242 139.507C-4.33047 150.667 2.87771 182.691 32.7856 217.399C61.7894 251.078 113.493 287.391 175.043 283.328C236.203 282.049 285.219 238.489 303.642 193.726C323.508 148.335 312.805 101.74 288.42 80.7252Z" fill="#BDE7FF"/>
<path d="M222.08 15.2471C222.08 9.80521 217.755 5.36646 212.453 5.36646H78.1119C72.7852 5.36646 68.4847 9.78014 68.4847 15.2471L68.2648 290.149C68.2648 291.303 68.4603 292.431 68.8268 293.46C70.1462 297.297 73.7137 300.03 77.9164 300.03H212.257C215.776 300.03 218.879 298.074 220.565 295.14C221.42 293.66 221.909 291.955 221.909 290.124L222.08 15.2471Z" fill="white"/>
<path d="M212.209 0H77.8675C70.2439 0 64.0864 6.34467 64.0864 14.1438V304.293C64.0864 312.093 70.2439 318.437 77.8675 318.437H212.209C219.808 318.437 225.99 312.093 225.99 304.293V14.1438C225.99 6.34467 219.832 0 212.209 0ZM220.932 288.319C220.932 293.711 216.656 298.099 211.402 298.099H78.6494C73.396 298.099 69.1199 293.711 69.1199 288.319V17.0779C69.1199 11.6862 73.3715 7.3227 78.6494 7.3227H211.402C216.656 7.3227 220.932 11.6862 220.932 17.0779V288.319Z" fill="#1C1C1C"/>
<path d="M207.932 117.941V188.56C207.932 195.556 202.41 201.224 195.593 201.224H96.9748C90.1576 201.224 84.6354 195.556 84.6354 188.56V117.941H207.932Z" fill="#1C1C1C"/>
<path d="M207.932 111.195V117.941H84.6356V111.195C84.6356 104.198 90.1578 98.5305 96.975 98.5305H195.593C202.41 98.5305 207.932 104.198 207.932 111.195Z" fill="#1C1C1C"/>
<path d="M108.532 126.718H96.2663C96.1685 126.718 96.0708 126.618 96.0708 126.517V125.188C96.0708 125.088 96.1685 124.987 96.2663 124.987H108.532C108.63 124.987 108.728 125.088 108.728 125.188V126.517C108.752 126.618 108.655 126.718 108.532 126.718Z" fill="#A0C5FF"/>
<path d="M126.15 126.718H113.884C113.786 126.718 113.688 126.618 113.688 126.517V125.188C113.688 125.088 113.786 124.987 113.884 124.987H126.15C126.248 124.987 126.345 125.088 126.345 125.188V126.517C126.345 126.618 126.248 126.718 126.15 126.718Z" fill="#E7F0FE"/>
<path d="M143.743 126.718H131.477C131.379 126.718 131.281 126.618 131.281 126.517V125.188C131.281 125.088 131.379 124.987 131.477 124.987H143.743C143.84 124.987 143.938 125.088 143.938 125.188V126.517C143.938 126.618 143.84 126.718 143.743 126.718Z" fill="#E7F0FE"/>
<path d="M161.336 126.718H149.069C148.972 126.718 148.874 126.618 148.874 126.517V125.188C148.874 125.088 148.972 124.987 149.069 124.987H161.336C161.433 124.987 161.531 125.088 161.531 125.188V126.517C161.531 126.618 161.433 126.718 161.336 126.718Z" fill="#E7F0FE"/>
<path d="M178.928 126.718H166.662C166.565 126.718 166.467 126.618 166.467 126.517V125.188C166.467 125.088 166.565 124.987 166.662 124.987H178.928C179.026 124.987 179.124 125.088 179.124 125.188V126.517C179.124 126.618 179.026 126.718 178.928 126.718Z" fill="#E7F0FE"/>
<path d="M196.521 126.718H184.255C184.157 126.718 184.06 126.618 184.06 126.517V125.188C184.06 125.088 184.157 124.987 184.255 124.987H196.521C196.619 124.987 196.717 125.088 196.717 125.188V126.517C196.717 126.618 196.619 126.718 196.521 126.718Z" fill="#E7F0FE"/>
<path d="M108.313 147.206H97.024C96.8041 147.206 96.6086 147.006 96.6086 146.78V134.517C96.6086 134.291 96.8041 134.091 97.024 134.091H108.313C108.533 134.091 108.728 134.291 108.728 134.517V146.78C108.753 147.006 108.557 147.206 108.313 147.206Z" fill="#0D9FF0"/>
<path d="M125.856 147.206H114.568C114.348 147.206 114.152 147.006 114.152 146.78V134.517C114.152 134.291 114.348 134.091 114.568 134.091H125.856C126.076 134.091 126.272 134.291 126.272 134.517V146.78C126.296 147.006 126.101 147.206 125.856 147.206Z" fill="#E7F0FE"/>
<path d="M143.401 147.206H132.112C131.892 147.206 131.697 147.006 131.697 146.78V134.517C131.697 134.291 131.892 134.091 132.112 134.091H143.401C143.621 134.091 143.816 134.291 143.816 134.517V146.78C143.816 147.006 143.645 147.206 143.401 147.206Z" fill="#E7F0FE"/>
<path d="M160.945 147.206H149.656C149.436 147.206 149.241 147.006 149.241 146.78V134.517C149.241 134.291 149.436 134.091 149.656 134.091H160.945C161.165 134.091 161.36 134.291 161.36 134.517V146.78C161.36 147.006 161.189 147.206 160.945 147.206Z" fill="#E7F0FE"/>
<path d="M178.489 147.206H167.2C166.98 147.206 166.784 147.006 166.784 146.78V134.517C166.784 134.291 166.98 134.091 167.2 134.091H178.489C178.708 134.091 178.904 134.291 178.904 134.517V146.78C178.904 147.006 178.733 147.206 178.489 147.206Z" fill="#E7F0FE"/>
<path d="M196.032 147.206H184.744C184.524 147.206 184.328 147.006 184.328 146.78V134.517C184.328 134.291 184.524 134.091 184.744 134.091H196.032C196.252 134.091 196.448 134.291 196.448 134.517V146.78C196.448 147.006 196.277 147.206 196.032 147.206Z" fill="#E7F0FE"/>
<path d="M108.313 166.767H97.024C96.8041 166.767 96.6086 166.566 96.6086 166.341V154.078C96.6086 153.852 96.8041 153.651 97.024 153.651H108.313C108.533 153.651 108.728 153.852 108.728 154.078V166.341C108.753 166.566 108.557 166.767 108.313 166.767Z" fill="#0D9FF0"/>
<path d="M125.856 166.767H114.568C114.348 166.767 114.152 166.566 114.152 166.341V154.078C114.152 153.852 114.348 153.651 114.568 153.651H125.856C126.076 153.651 126.272 153.852 126.272 154.078V166.341C126.296 166.566 126.101 166.767 125.856 166.767Z" fill="#E7F0FE"/>
<path d="M160.945 166.767H149.656C149.436 166.767 149.241 166.566 149.241 166.341V154.078C149.241 153.852 149.436 153.651 149.656 153.651H160.945C161.165 153.651 161.36 153.852 161.36 154.078V166.341C161.36 166.566 161.189 166.767 160.945 166.767Z" fill="#E7F0FE"/>
<path d="M178.489 166.767H167.2C166.98 166.767 166.784 166.566 166.784 166.341V154.078C166.784 153.852 166.98 153.651 167.2 153.651H178.489C178.708 153.651 178.904 153.852 178.904 154.078V166.341C178.904 166.566 178.733 166.767 178.489 166.767Z" fill="#E7F0FE"/>
<path d="M196.032 166.767H184.744C184.524 166.767 184.328 166.566 184.328 166.341V154.078C184.328 153.852 184.524 153.651 184.744 153.651H196.032C196.252 153.651 196.448 153.852 196.448 154.078V166.341C196.448 166.566 196.277 166.767 196.032 166.767Z" fill="#E7F0FE"/>
<path d="M108.313 186.328H97.024C96.8041 186.328 96.6086 186.127 96.6086 185.901V173.638C96.6086 173.413 96.8041 173.212 97.024 173.212H108.313C108.533 173.212 108.728 173.413 108.728 173.638V185.901C108.753 186.127 108.557 186.328 108.313 186.328Z" fill="#0D9FF0"/>
<path d="M125.856 186.328H114.568C114.348 186.328 114.152 186.127 114.152 185.901V173.638C114.152 173.413 114.348 173.212 114.568 173.212H125.856C126.076 173.212 126.272 173.413 126.272 173.638V185.901C126.296 186.127 126.101 186.328 125.856 186.328Z" fill="#E7F0FE"/>
<path d="M143.401 186.328H132.112C131.892 186.328 131.697 186.127 131.697 185.901V173.638C131.697 173.413 131.892 173.212 132.112 173.212H143.401C143.621 173.212 143.816 173.413 143.816 173.638V185.901C143.816 186.127 143.645 186.328 143.401 186.328Z" fill="#E7F0FE"/>
<path d="M160.945 186.328H149.656C149.436 186.328 149.241 186.127 149.241 185.901V173.638C149.241 173.413 149.436 173.212 149.656 173.212H160.945C161.165 173.212 161.36 173.413 161.36 173.638V185.901C161.36 186.127 161.189 186.328 160.945 186.328Z" fill="#E7F0FE"/>
<path d="M178.489 186.328H167.2C166.98 186.328 166.784 186.127 166.784 185.901V173.638C166.784 173.413 166.98 173.212 167.2 173.212H178.489C178.708 173.212 178.904 173.413 178.904 173.638V185.901C178.904 186.127 178.733 186.328 178.489 186.328Z" fill="#E7F0FE"/>
<path d="M196.032 186.328H184.744C184.524 186.328 184.328 186.127 184.328 185.901V173.638C184.328 173.413 184.524 173.212 184.744 173.212H196.032C196.252 173.212 196.448 173.413 196.448 173.638V185.901C196.448 186.127 196.277 186.328 196.032 186.328Z" fill="#E7F0FE"/>
<path d="M143.401 166.767H132.112C131.892 166.767 131.697 166.566 131.697 166.341V154.078C131.697 153.852 131.892 153.651 132.112 153.651H143.401C143.621 153.651 143.816 153.852 143.816 154.078V166.341C143.816 166.566 143.645 166.767 143.401 166.767Z" fill="#E7F0FE"/>
<path d="M125.856 147.206H114.568C114.348 147.206 114.152 147.006 114.152 146.78V134.517C114.152 134.291 114.348 134.091 114.568 134.091H125.856C126.076 134.091 126.272 134.291 126.272 134.517V146.78C126.296 147.006 126.101 147.206 125.856 147.206Z" fill="#E7F0FE"/>
<path d="M123.56 135.42H115.497V136.548H123.56V135.42Z" fill="#0D9FF0"/>
<path d="M119.528 137.225H115.497V138.354H119.528V137.225Z" fill="#0D9FF0"/>
<path d="M194.346 155.432H186.283V156.56H194.346V155.432Z" fill="#0D9FF0"/>
<path d="M190.315 157.237H186.283V158.366H190.315V157.237Z" fill="#0D9FF0"/>
<path d="M160.358 162.404H152.295V163.532H160.358V162.404Z" fill="#0D9FF0"/>
<path d="M156.327 164.209H152.295V165.338H156.327V164.209Z" fill="#0D9FF0"/>
<path d="M159.234 174.491H151.171V175.619H159.234V174.491Z" fill="#0D9FF0"/>
<path d="M155.202 176.297H151.17V177.425H155.202V176.297Z" fill="#0D9FF0"/>
<path d="M141.421 174.491H133.358V175.619H141.421V174.491Z" fill="#0D9FF0"/>
<path d="M137.39 176.297H133.358V177.425H137.39V176.297Z" fill="#0D9FF0"/>
<path d="M154.958 154.629H150.243V159.194H154.958V154.629Z" fill="#0D9FF0"/>
<path d="M160.358 143.069H152.295V144.197H160.358V143.069Z" fill="#0D9FF0"/>
<path d="M156.327 144.874H152.295V146.003H156.327V144.874Z" fill="#0D9FF0"/>
<path d="M154.958 135.295H150.243V139.859H154.958V135.295Z" fill="#0D9FF0"/>
<path d="M195.69 142.592H187.627V143.721H195.69V142.592Z" fill="#0D9FF0"/>
<path d="M191.659 144.398H187.627V145.526H191.659V144.398Z" fill="#0D9FF0"/>
<path d="M190.291 134.818H185.575V139.382H190.291V134.818Z" fill="#0D9FF0"/>
<path d="M193.393 182.365L191.634 180.058L193.784 178.303C194.224 177.952 194.297 177.3 193.955 176.873C193.613 176.422 192.978 176.347 192.563 176.698L190.412 178.453L188.458 175.895C188.115 175.444 187.48 175.369 187.065 175.72C186.625 176.071 186.552 176.723 186.894 177.149L188.849 179.707L186.283 181.789C185.843 182.14 185.77 182.792 186.112 183.218C186.454 183.669 187.089 183.745 187.505 183.394L190.07 181.312L191.83 183.619C192.172 184.071 192.807 184.146 193.222 183.795C193.662 183.444 193.735 182.817 193.393 182.365Z" fill="#0D9FF0"/>
<path d="M104.892 37.5163L104.917 37.6919H101.765L101.74 37.5163C101.471 36.1872 100.689 35.5603 99.4189 35.5603C97.9039 35.5603 96.7799 36.8643 96.7799 39.5476C96.7799 42.6823 98.0505 43.7356 99.4433 43.7356C100.665 43.7356 101.471 42.9582 101.716 41.604L101.74 41.4285H104.892L104.868 41.604C104.575 44.5882 102.351 46.118 99.3211 46.118C96.0713 46.118 93.4568 43.9613 93.4568 39.7482C93.4568 35.4349 96.1446 33.2029 99.4433 33.2029C102.889 33.1779 104.648 35.0587 104.892 37.5163Z" fill="#0D9FF0"/>
<path d="M110.268 42.6322L109.241 45.8421H105.894L110.268 33.4286H114.128L118.502 45.8421H115.057L114.031 42.6322H110.268ZM111.05 40.0993H113.298L112.174 36.2875L111.05 40.0993Z" fill="#0D9FF0"/>
<path d="M129.864 45.8421H120.579V33.4286H123.731V43.1087H129.839V45.8421H129.864Z" fill="#0D9FF0"/>
<path d="M141.837 45.8421H132.552V33.4286H141.642V35.9364H135.704V38.3439H141.299V40.8517H135.704V43.3093H141.813V45.8421H141.837Z" fill="#0D9FF0"/>
<path d="M152.197 45.8421L147.799 37.6417C147.897 38.8956 147.897 39.999 147.897 40.7263V45.8421H144.745V33.4286H148.679L153.272 42.0052C153.175 40.7514 153.175 39.4724 153.175 38.7451V33.4286H156.327V45.8421H152.197Z" fill="#0D9FF0"/>
<path d="M170.865 39.4724C170.865 43.3594 168.544 45.4409 165.734 45.7669C165.123 45.8421 164.83 45.8421 164.194 45.8421H159.625V33.4286H164.194C164.854 33.4286 165.123 33.4286 165.734 33.5039C168.544 33.8299 170.865 35.5853 170.865 39.4724ZM167.566 39.5225C167.566 37.3157 166.491 36.112 164.903 35.9866C164.488 35.9615 164.219 35.9615 163.755 35.9615H162.777V43.3344H163.755C164.219 43.3344 164.488 43.3344 164.903 43.3093C166.467 43.1588 167.566 41.7545 167.566 39.5225Z" fill="#0D9FF0"/>
<path d="M176.436 42.6322L175.41 45.8421H172.062L176.436 33.4286H180.297L184.671 45.8421H181.225L180.199 42.6322H176.436ZM177.218 40.0993H179.466L178.342 36.2875L177.218 40.0993Z" fill="#0D9FF0"/>
<path d="M197.108 45.8421H193.662C193.393 44.9644 193.198 44.2372 193.1 43.3594C192.954 41.9802 192.416 41.2027 191.61 41.1526C191.268 41.1275 190.95 41.1275 190.608 41.1275H189.899V45.8421H186.772V33.4286H191.585C192.343 33.4286 192.831 33.4537 193.467 33.529C195.226 33.7547 196.741 34.6324 196.741 36.8141C196.741 38.369 195.91 39.4222 194.298 39.8987C195.568 40.3752 196.008 41.3281 196.179 42.8077C196.35 44.2372 196.619 45.1149 197.108 45.8421ZM191.048 38.7953C191.39 38.7953 191.659 38.7953 191.879 38.7702C192.685 38.695 193.418 38.4191 193.418 37.3659C193.418 36.3126 192.758 36.0367 191.952 35.9615C191.732 35.9364 191.439 35.9364 191.121 35.9364H189.899V38.7702H191.048V38.7953Z" fill="#0D9FF0"/>
<path d="M103.084 217.374C97.4886 217.374 92.9682 222.013 92.9682 227.756C92.9682 233.499 97.4886 238.138 103.084 238.138C108.68 238.138 113.2 233.499 113.2 227.756C113.2 222.038 108.68 217.374 103.084 217.374ZM103.084 236.458C98.4171 236.458 94.6053 232.571 94.6053 227.781C94.6053 222.991 98.3927 219.104 103.084 219.104C107.751 219.104 111.538 222.991 111.538 227.781C111.538 232.571 107.751 236.458 103.084 236.458Z" fill="#0D9FF0"/>
<path d="M104.403 227.781C104.403 228.534 103.817 229.16 103.059 229.16C102.326 229.16 101.715 228.559 101.715 227.781C101.715 227.029 102.302 226.402 103.059 226.402C103.817 226.402 104.403 227.029 104.403 227.781Z" fill="#0D9FF0"/>
<path d="M103.084 220.408C102.619 220.408 102.228 220.81 102.228 221.286V227.38C102.228 227.856 102.619 228.258 103.084 228.258C103.548 228.258 103.939 227.856 103.939 227.38V221.286C103.939 220.81 103.548 220.408 103.084 220.408Z" fill="#0D9FF0"/>
<path d="M108.068 222.916C107.726 222.565 107.188 222.565 106.871 222.916L102.668 227.229C102.326 227.581 102.326 228.132 102.668 228.458C103.01 228.809 103.548 228.809 103.865 228.458L108.068 224.145C108.41 223.819 108.41 223.267 108.068 222.916Z" fill="#0D9FF0"/>
<path d="M151.586 219.806H124.952C124.293 219.806 123.682 220.258 123.584 220.935C123.462 221.788 124.073 222.515 124.879 222.515H151.586C152.319 222.515 152.906 221.913 152.906 221.161C152.906 220.408 152.319 219.806 151.586 219.806Z" fill="#0D9FF0"/>
<path d="M202.46 219.807H156.01C155.277 219.807 154.69 220.408 154.69 221.161C154.69 221.913 155.277 222.515 156.01 222.515H202.533C203.339 222.515 203.975 221.788 203.828 220.935C203.73 220.258 203.119 219.807 202.46 219.807Z" fill="#0D9FF0"/>
<path d="M163.071 226.427H124.953C124.293 226.427 123.682 226.878 123.584 227.555C123.462 228.408 124.073 229.135 124.879 229.135H163.071C163.804 229.135 164.39 228.533 164.39 227.781C164.39 227.029 163.804 226.427 163.071 226.427Z" fill="#0D9FF0"/>
<path d="M163.071 233.048H124.953C124.293 233.048 123.682 233.499 123.584 234.176C123.462 235.029 124.073 235.756 124.879 235.756H163.071C163.804 235.756 164.39 235.154 164.39 234.402C164.39 233.649 163.804 233.048 163.071 233.048Z" fill="#0D9FF0"/>
<path d="M202.46 226.427H167.494C166.761 226.427 166.174 227.029 166.174 227.781C166.174 228.533 166.761 229.135 167.494 229.135H202.533C203.339 229.135 203.974 228.408 203.828 227.555C203.73 226.878 203.119 226.427 202.46 226.427Z" fill="#0D9FF0"/>
<path d="M103.084 249.122C97.4886 249.122 92.9682 253.762 92.9682 259.504C92.9682 265.247 97.4886 269.887 103.084 269.887C108.68 269.887 113.2 265.247 113.2 259.504C113.2 253.787 108.68 249.122 103.084 249.122ZM103.084 268.206C98.4171 268.206 94.6053 264.319 94.6053 259.53C94.6053 254.74 98.3927 250.853 103.084 250.853C107.751 250.853 111.538 254.74 111.538 259.53C111.538 264.319 107.751 268.206 103.084 268.206Z" fill="#0D9FF0"/>
<path d="M104.403 259.53C104.403 260.282 103.817 260.909 103.059 260.909C102.326 260.909 101.715 260.307 101.715 259.53C101.715 258.777 102.302 258.15 103.059 258.15C103.817 258.15 104.403 258.777 104.403 259.53Z" fill="#0D9FF0"/>
<path d="M103.084 252.157C102.619 252.157 102.228 252.558 102.228 253.035V259.128C102.228 259.605 102.619 260.006 103.084 260.006C103.548 260.006 103.939 259.605 103.939 259.128V253.035C103.939 252.558 103.548 252.157 103.084 252.157Z" fill="#0D9FF0"/>
<path d="M108.068 254.664C107.726 254.313 107.188 254.313 106.871 254.664L102.668 258.978C102.326 259.329 102.326 259.881 102.668 260.207C103.01 260.558 103.548 260.558 103.865 260.207L108.068 255.893C108.41 255.567 108.41 255.016 108.068 254.664Z" fill="#0D9FF0"/>
<path d="M151.586 251.555H124.952C124.293 251.555 123.682 252.006 123.584 252.683C123.462 253.536 124.073 254.263 124.879 254.263H151.586C152.319 254.263 152.906 253.661 152.906 252.909C152.906 252.157 152.319 251.555 151.586 251.555Z" fill="#0D9FF0"/>
<path d="M202.46 251.555H156.01C155.277 251.555 154.69 252.157 154.69 252.909C154.69 253.661 155.277 254.263 156.01 254.263H202.533C203.339 254.263 203.975 253.536 203.828 252.683C203.73 252.006 203.119 251.555 202.46 251.555Z" fill="#0D9FF0"/>
<path d="M163.071 258.175H124.953C124.293 258.175 123.682 258.627 123.584 259.304C123.462 260.156 124.073 260.884 124.879 260.884H163.071C163.804 260.884 164.39 260.282 164.39 259.53C164.39 258.777 163.804 258.175 163.071 258.175Z" fill="#0D9FF0"/>
<path d="M163.071 264.796H124.953C124.293 264.796 123.682 265.247 123.584 265.924C123.462 266.777 124.073 267.504 124.879 267.504H163.071C163.804 267.504 164.39 266.902 164.39 266.15C164.39 265.398 163.804 264.796 163.071 264.796Z" fill="#0D9FF0"/>
<path d="M202.46 258.175H167.494C166.761 258.175 166.174 258.777 166.174 259.53C166.174 260.282 166.761 260.884 167.494 260.884H202.533C203.339 260.884 203.974 260.156 203.828 259.304C203.73 258.627 203.119 258.175 202.46 258.175Z" fill="#0D9FF0"/>
<path d="M279.843 61.7665H257.95C253.918 61.7665 250.668 65.127 250.668 69.2397V91.5589C250.668 95.6967 253.943 99.0321 257.95 99.0321H279.843C283.875 99.0321 287.125 95.6717 287.125 91.5589V69.2397C287.125 65.1019 283.875 61.7665 279.843 61.7665Z" fill="white"/>
<path d="M285.854 73.1519V69.2398C285.854 65.8543 283.166 63.0957 279.868 63.0957H257.974C254.676 63.0957 251.988 65.8543 251.988 69.2398V73.1519H285.854Z" fill="#1C1C1C"/>
<path d="M262.641 69.3902L262.372 70.2428H261.468L262.641 66.9326H263.667L264.84 70.2428H263.912L263.643 69.3902H262.641ZM262.836 68.7131H263.447L263.154 67.6849L262.836 68.7131Z" fill="white"/>
<path d="M268.017 68.0109C268.017 68.6629 267.601 69.014 267.112 69.0642C266.941 69.0892 266.819 69.0893 266.599 69.0893H266.233V70.2428H265.378V66.9326H266.599C266.795 66.9326 266.941 66.9326 267.112 66.9576C267.577 67.0078 268.017 67.3589 268.017 68.0109ZM267.137 68.0109C267.137 67.7601 267.015 67.6347 266.795 67.6097C266.746 67.6097 266.648 67.6097 266.575 67.6097H266.257V68.4121H266.575C266.673 68.4121 266.746 68.4121 266.795 68.4121C267.015 68.3871 267.137 68.2617 267.137 68.0109Z" fill="white"/>
<path d="M271.437 70.2428H270.509C270.436 70.0171 270.387 69.8165 270.362 69.5908C270.313 69.2146 270.191 69.014 269.971 68.9889C269.874 68.9889 269.8 68.9889 269.703 68.9889H269.507V70.2428H268.652V66.9326H269.947C270.142 66.9326 270.289 66.9326 270.46 66.9576C270.924 67.0078 271.34 67.2586 271.34 67.8354C271.34 68.2617 271.12 68.5375 270.68 68.6629C271.022 68.7883 271.144 69.0391 271.193 69.4403C271.242 69.8165 271.315 70.0422 271.437 70.2428ZM269.825 68.362C269.922 68.362 269.996 68.362 270.045 68.362C270.265 68.3369 270.46 68.2617 270.46 67.9858C270.46 67.71 270.289 67.6347 270.069 67.6097C270.02 67.6097 269.922 67.6097 269.849 67.6097H269.532V68.362H269.825Z" fill="white"/>
<path d="M272.121 70.2428V66.9326H272.977V70.2428H272.121Z" fill="white"/>
<path d="M276.324 70.2428H273.832V66.9326H274.687V69.5156H276.324V70.2428Z" fill="white"/>
<path d="M267.138 88.023V90.606H257.559V89.1766L261.444 85.44C263.277 83.6595 263.912 82.7818 263.912 81.5529C263.912 80.6 263.399 80.0734 262.519 80.0734C261.591 80.0734 261.127 80.6752 261.004 82.0043L260.98 82.1799H257.755L257.779 82.0043C258.048 79.2207 259.758 77.6408 262.788 77.6408C265.672 77.6408 267.284 79.0452 267.284 81.4276C267.284 82.9071 266.624 84.0607 264.254 86.3929L262.617 88.023H267.138Z" fill="#0D9FF0"/>
<path d="M280.234 86.8193C280.234 89.2519 278.304 90.8318 275.177 90.8318C272.049 90.8318 270.216 89.277 269.972 86.7441L269.948 86.5686H273.173L273.197 86.7441C273.368 87.6218 273.979 88.4243 275.03 88.4243C276.129 88.4243 276.838 87.7723 276.838 86.9196C276.838 85.8413 276.081 85.2896 274.786 85.2394L274.297 85.2144V83.0828L274.786 83.0577C275.958 82.9574 276.545 82.3053 276.545 81.4527C276.545 80.6251 276.056 80.1236 275.177 80.1236C274.224 80.1236 273.833 80.901 273.759 81.7286L273.735 81.9041H270.51L270.534 81.7286C270.754 79.5969 272.293 77.691 275.494 77.691C278.524 77.691 279.917 79.2709 279.917 81.0765C279.917 82.5561 279.184 83.5592 277.571 83.9605C279.355 84.2865 280.234 85.1893 280.234 86.8193Z" fill="#0D9FF0"/>
<path d="M40.751 49.5536L26.8722 38.5194V53.3153C26.8722 54.4438 27.7763 55.3717 28.8758 55.3717H52.6506C53.7502 55.3717 54.6543 54.4438 54.6543 53.3153V39.1464L40.751 49.5536Z" fill="#0D9FF0"/>
<path d="M28.8758 53.8421C28.5825 53.8421 28.3626 53.5914 28.3626 53.3155V41.6293L40.7509 51.4598L53.2125 42.1308V53.3155C53.2125 53.6164 52.9682 53.8421 52.6994 53.8421H28.8758Z" fill="#0D9FF0"/>
<path d="M53.5304 38.2186H28.7294L40.7512 47.7733L53.5304 38.2186Z" fill="#0D9FF0"/>
<path d="M42.5102 161.2L28.5825 159.269L34.7156 169.676C35.1798 170.479 36.1817 170.754 36.9147 170.278L52.9438 160.322C53.6768 159.871 53.9211 158.843 53.4325 158.04L47.5437 148.059L42.5102 161.2Z" fill="#0D9FF0"/>
<path d="M36.2794 169.2C36.0839 169.325 35.8151 169.25 35.693 169.049L30.8305 160.824L43.2432 162.554L47.7636 150.768L52.4062 158.642C52.5284 158.843 52.4795 159.118 52.284 159.244L36.2794 169.2Z" fill="#0D9FF0"/>
<path d="M46.3956 147.884L29.7068 158.266L41.7775 159.946L46.3956 147.884Z" fill="#0D9FF0"/>
<path d="M247.003 23.2471L241.872 9.80542L236.008 20.3882C235.568 21.1907 235.812 22.2189 236.57 22.6703L252.843 32.1748C253.6 32.6262 254.578 32.3252 255.018 31.4977L260.638 21.3663L247.003 23.2471Z" fill="#0D9FF0"/>
<path d="M237.156 21.5668C236.961 21.4414 236.887 21.1907 237.01 20.965L241.652 12.6141L246.221 24.6012L258.439 22.921L253.992 30.9208C253.869 31.1215 253.625 31.2218 253.43 31.0964L237.156 21.5668Z" fill="#0D9FF0"/>
<path d="M260.222 20.2628L243.265 10.3571L247.712 21.9932L260.222 20.2628Z" fill="#0D9FF0"/>
<path opacity="0.1" d="M155.3 81.6783V116.988C155.3 123.508 150.144 128.799 143.791 128.799H140.786L138.758 138.504L129.009 128.799H64.1349L64.0616 69.8416H143.791C150.144 69.8416 155.3 75.158 155.3 81.6783Z" fill="#000141"/>
<path d="M153.248 79.9228V115.207C153.248 121.727 148.093 127.019 141.74 127.019H138.734V138.479L126.957 127.019H49.4503C43.0973 127.019 37.9417 121.727 37.9417 115.207V79.9228C37.9417 73.4026 43.0973 68.1111 49.4503 68.1111H141.74C148.093 68.1111 153.248 73.4026 153.248 79.9228Z" fill="#0D9FF0"/>
<path d="M57.9286 94.167C52.6752 94.167 48.3991 98.5305 48.3991 103.947C48.3991 109.339 52.6507 113.728 57.9286 113.728C63.182 113.728 67.458 109.364 67.458 103.947C67.458 98.5556 63.182 94.167 57.9286 94.167ZM57.9286 112.098C53.5304 112.098 49.9629 108.436 49.9629 103.947C49.9629 99.4584 53.5304 95.797 57.9286 95.797C62.3268 95.797 65.8698 99.4584 65.8698 103.947C65.8698 108.436 62.3268 112.098 57.9286 112.098Z" fill="#1C1C1C"/>
<path d="M59.1749 103.947C59.1749 104.65 58.6129 105.226 57.9287 105.226C57.2445 105.226 56.6826 104.65 56.6826 103.947C56.6826 103.245 57.2445 102.668 57.9287 102.668C58.6129 102.668 59.1749 103.245 59.1749 103.947Z" fill="#1C1C1C"/>
<path d="M57.9283 97.0259C57.4884 97.0259 57.1219 97.4021 57.1219 97.8535V103.571C57.1219 104.023 57.4884 104.399 57.9283 104.399C58.3681 104.399 58.7346 104.023 58.7346 103.571V97.8535C58.7346 97.4021 58.3681 97.0259 57.9283 97.0259Z" fill="#1C1C1C"/>
<path d="M62.6199 99.3832C62.3023 99.0572 61.7892 99.0572 61.496 99.3832L57.5376 103.446C57.2199 103.772 57.2199 104.298 57.5376 104.599C57.8552 104.925 58.3683 104.925 58.6615 104.599L62.6199 100.537C62.9376 100.236 62.9376 99.7093 62.6199 99.3832Z" fill="#1C1C1C"/>
<path d="M87.7143 96.4491H75.8147C75.2038 96.4491 74.6174 96.8754 74.5196 97.5024C74.3975 98.3049 74.9839 98.982 75.7414 98.982H87.7143C88.3985 98.982 88.9604 98.4052 88.9604 97.703C88.9604 97.0008 88.3985 96.4491 87.7143 96.4491Z" fill="#1C1C1C"/>
<path d="M117.573 96.4491H91.8676C91.1834 96.4491 90.6215 97.0259 90.6215 97.7281C90.6215 98.4302 91.1834 99.007 91.8676 99.007H117.646C118.404 99.007 118.99 98.3299 118.868 97.5274C118.77 96.8754 118.208 96.4491 117.573 96.4491Z" fill="#1C1C1C"/>
<path d="M98.5142 102.668H75.8146C75.2037 102.668 74.6173 103.095 74.5195 103.722C74.3973 104.524 74.9838 105.201 75.7412 105.201H98.5142C99.1984 105.201 99.7604 104.625 99.7604 103.922C99.736 103.245 99.1984 102.668 98.5142 102.668Z" fill="#1C1C1C"/>
<path d="M98.5142 108.913H75.8146C75.2037 108.913 74.6173 109.339 74.5195 109.966C74.3973 110.769 74.9838 111.446 75.7412 111.446H98.5142C99.1984 111.446 99.7604 110.869 99.7604 110.167C99.736 109.464 99.1984 108.913 98.5142 108.913Z" fill="#1C1C1C"/>
<path d="M117.573 102.668H102.644C101.96 102.668 101.398 103.245 101.398 103.947C101.398 104.65 101.96 105.226 102.644 105.226H117.622C118.38 105.226 118.966 104.549 118.844 103.747C118.771 103.12 118.209 102.668 117.573 102.668Z" fill="#1C1C1C"/>
<path d="M136.632 101.741H136.608C136.437 100.637 135.508 99.7845 134.384 99.7845C133.26 99.7845 132.332 100.637 132.161 101.741H132.136L132.161 101.791C132.161 101.891 132.136 101.966 132.136 102.067C132.136 102.869 132.698 103.947 133.26 104.8C133.822 105.678 134.384 106.33 134.384 106.33C134.384 106.33 136.632 103.647 136.632 102.042C136.632 101.941 136.632 101.841 136.608 101.766L136.632 101.741ZM134.384 103.346C133.773 103.346 133.26 102.844 133.26 102.192C133.26 101.565 133.773 101.038 134.384 101.038C134.995 101.038 135.508 101.565 135.508 102.192C135.508 102.819 135.019 103.346 134.384 103.346Z" fill="#1C1C1C"/>
<path d="M129.473 95.2203H125.71V99.0823H129.473V95.2203Z" fill="#1C1C1C"/>
<path d="M137.39 95.2203H133.627V97.7783H137.39V95.2203Z" fill="#1C1C1C"/>
<path d="M143.229 95.2203H139.466V99.0823H143.229V95.2203Z" fill="#1C1C1C"/>
<path d="M132.502 95.2203H129.986V96.1733H132.502V95.2203Z" fill="#1C1C1C"/>
<path d="M129.473 109.389H125.71V113.251H129.473V109.389Z" fill="#1C1C1C"/>
<path d="M143.229 109.389H139.466V113.251H143.229V109.389Z" fill="#1C1C1C"/>
<path d="M132.942 107.057H130.426V111.546H132.942V107.057Z" fill="#1C1C1C"/>
<path d="M138.286 100.408V102.991H143.222V100.408H138.286Z" fill="#1C1C1C"/>
<path d="M136.388 108.361H133.871V113.251H136.388V108.361Z" fill="#1C1C1C"/>
<path d="M129.473 100.763H125.71V107.809H129.473V100.763Z" fill="#1C1C1C"/>
<path d="M143.229 104.299H139.466V108.161H143.229V104.299Z" fill="#1C1C1C"/>
<path d="M137.357 111.316V113.247H138.285V111.316H137.357Z" fill="#1C1C1C"/>
<path d="M137.368 107.643V109.574H138.297V107.643H137.368Z" fill="#1C1C1C"/>
<path d="M39.9691 86.1171V79.9229C39.9691 74.5562 44.2207 70.1927 49.4497 70.1927H141.739C146.968 70.1927 151.22 74.5562 151.22 79.9229V86.1171H39.9691Z" fill="#1C1C1C"/>
<path d="M60.7381 79.7723L60.1762 81.5779H58.2947L60.7381 74.6314H62.8884L65.3318 81.5779H63.4015L62.8395 79.7723H60.7381ZM61.178 78.368H62.4241L61.7888 76.2364L61.178 78.368Z" fill="#E7F0FE"/>
<path d="M71.9783 76.8884C71.9783 78.2677 71.0986 78.9699 70.0968 79.0952C69.7303 79.1454 69.4615 79.1454 69.0461 79.1454H68.2642V81.5779H66.5049V74.6314H69.0461C69.4615 74.6314 69.7303 74.6314 70.0968 74.6816C71.0986 74.807 71.9783 75.5342 71.9783 76.8884ZM70.1457 76.8884C70.1457 76.3618 69.8769 76.0859 69.4371 76.0608C69.3149 76.0608 69.1439 76.0608 68.9728 76.0608H68.2886V77.7411H68.9728C69.1683 77.7411 69.3149 77.7411 69.4371 77.7411C69.8769 77.6909 70.1457 77.415 70.1457 76.8884Z" fill="#E7F0FE"/>
<path d="M78.8446 76.8884C78.8446 78.2677 77.9649 78.9699 76.9631 79.0952C76.5966 79.1454 76.3278 79.1454 75.9124 79.1454H75.1305V81.5779H73.3712V74.6314H75.9124C76.3278 74.6314 76.5966 74.6314 76.9631 74.6816C77.9405 74.807 78.8446 75.5342 78.8446 76.8884ZM76.9875 76.8884C76.9875 76.3618 76.7188 76.0859 76.2789 76.0608C76.1568 76.0608 75.9857 76.0608 75.8147 76.0608H75.1305V77.7411H75.8147C76.0101 77.7411 76.1568 77.7411 76.2789 77.7411C76.7188 77.6909 76.9875 77.415 76.9875 76.8884Z" fill="#E7F0FE"/>
<path d="M86.8584 78.1172C86.8584 80.3492 85.5145 81.7284 83.3887 81.7284C81.2874 81.7284 79.9435 80.3492 79.9435 78.1172C79.9435 75.8853 81.2874 74.506 83.3887 74.506C85.5145 74.506 86.8584 75.8853 86.8584 78.1172ZM85.0503 78.1172C85.0503 76.6377 84.415 75.8352 83.3887 75.8352C82.3625 75.8352 81.7272 76.6377 81.7272 78.1172C81.7272 79.5968 82.3625 80.3993 83.3887 80.3993C84.415 80.3993 85.0503 79.5718 85.0503 78.1172Z" fill="#E7F0FE"/>
<path d="M88.4472 81.5779V74.6314H90.2065V81.5779H88.4472Z" fill="#E7F0FE"/>
<path d="M96.2415 81.5779L93.7736 76.9887C93.8225 77.6909 93.8225 78.3178 93.8225 78.7191V81.5779H92.0632V74.6314H94.2623L96.828 79.4213C96.7791 78.7191 96.7791 77.9918 96.7791 77.5906V74.6314H98.5384V81.5779H96.2415Z" fill="#E7F0FE"/>
<path d="M103.694 76.0608V81.5779H101.935V76.0608H99.7357V74.6565H105.893V76.0608H103.694Z" fill="#E7F0FE"/>
<path d="M114.836 81.5779H113.077V78.6689C113.077 78.0671 113.077 77.1643 113.101 76.4621C112.979 77.1643 112.784 78.042 112.637 78.6689L111.904 81.5779H110.096L109.338 78.6689C109.192 78.0671 108.996 77.1643 108.874 76.4621C108.899 77.1643 108.899 78.0671 108.899 78.6689V81.5779H107.139V74.6314H109.9L111.049 79.7974L112.197 74.6314H114.885V81.5779H114.836Z" fill="#E7F0FE"/>
<path d="M121.874 81.5779H116.693V74.6314H121.776V76.0358H118.453V77.39H121.58V78.7943H118.453V80.1736H121.874V81.5779Z" fill="#E7F0FE"/>
<path d="M127.64 81.5779L125.172 76.9887C125.221 77.6909 125.221 78.3178 125.221 78.7191V81.5779H123.462V74.6314H125.661L128.227 79.4213C128.178 78.7191 128.178 77.9918 128.178 77.5906V74.6314H129.937V81.5779H127.64Z" fill="#E7F0FE"/>
<path d="M135.117 76.0608V81.5779H133.358V76.0608H131.159V74.6565H137.316V76.0608H135.117Z" fill="#E7F0FE"/>
<path d="M207.957 318.136L207.883 320.193C207.883 320.193 201.408 324.581 193.125 325.584C186.332 326.387 183.107 325.434 183.033 323.127L207.957 318.136Z" fill="#1C1C1C"/>
<path d="M185.404 320.293C192.026 316.331 201.604 310.738 201.604 310.738C201.604 310.738 205.758 309.459 207.273 311.716C208.201 313.121 207.493 315.453 208.03 318.613C208.348 320.468 194.811 325.308 187.53 325.058C185.77 324.982 179.662 323.729 185.404 320.293Z" fill="#0D9FF0"/>
<path d="M207.761 303.591C207.737 303.917 206.564 312.218 206.564 312.218C206.564 312.218 204.707 315.679 201.213 314.625C197.718 313.572 199.209 302.789 199.209 302.789L207.761 303.591Z" fill="#1C1C1C"/>
<path d="M199.991 315.854C199.991 315.854 201.995 310.061 199.771 308.331C197.548 306.6 195.08 314.575 195.08 314.575C195.08 314.575 186.699 318.813 186.039 319.917C185.379 320.995 190.144 322.851 199.991 315.854Z" fill="#0D9FF0"/>
<path d="M236.716 155.507L191.171 155.432C191.171 155.432 195.178 242.803 197.45 307.052C197.45 307.052 201.042 311.014 207.982 307.654C207.957 307.679 242.703 171.507 236.716 155.507Z" fill="#1C1C1C"/>
<path d="M251.157 318.889L251.426 320.92C251.426 320.92 245.757 326.362 237.743 328.744C231.17 330.7 227.847 330.299 227.407 328.042L251.157 318.889Z" fill="#1C1C1C"/>
<path d="M229.264 324.857C235.153 319.816 243.705 312.669 243.705 312.669C243.705 312.669 247.59 310.688 249.447 312.669C250.596 313.898 250.278 316.306 251.304 319.34C251.915 321.121 239.356 328.192 232.123 329.17C230.388 329.421 224.157 329.221 229.264 324.857Z" fill="#0D9FF0"/>
<path d="M248.591 304.569C248.616 304.895 248.811 313.271 248.811 313.271C248.811 313.271 247.541 317.008 243.924 316.557C240.308 316.105 240.039 305.221 240.039 305.221L248.591 304.569Z" fill="#1C1C1C"/>
<path d="M242.947 317.986C242.947 317.986 243.998 311.942 241.506 310.588C239.038 309.259 237.889 317.535 237.889 317.535C237.889 317.535 230.315 323.152 229.85 324.356C229.362 325.559 234.371 326.563 242.947 317.986Z" fill="#0D9FF0"/>
<path d="M248.811 154.655L204.78 156.56C204.78 156.56 223.937 246.665 238.989 309.76C238.989 309.76 243.167 313.071 249.471 308.557C249.471 308.557 252.012 173.663 248.811 154.655Z" fill="#1C1C1C"/>
<path d="M191.024 108.587L187.31 119.596L165.123 109.188L160.628 114.555C160.628 114.555 176.51 145.351 194.274 134.341C215.092 121.451 207.688 98.9316 207.688 98.9316L191.024 108.587Z" fill="#FECECC"/>
<path d="M214.334 71.1707C214.334 71.1707 195.3 84.7879 187.017 102.468C187.017 102.468 198.403 125.138 205.196 121.502C215.116 116.16 214.334 71.1707 214.334 71.1707Z" fill="#0089D4"/>
<path d="M169.204 111.721C169.204 111.721 163.902 109.013 163.706 108.06C163.34 106.405 164.342 106.906 160.725 102.041C158.208 98.6809 159.308 95.797 157.891 95.5963C155.081 95.2202 156.694 102.392 156.694 102.392C156.694 102.392 148.19 91.4083 146.529 93.239C145.625 94.2171 152.075 102.417 152.075 102.417C152.075 102.417 149.827 101.565 149.29 102.693C148.532 104.348 150.365 105.627 150.365 105.627C150.365 105.627 149.021 105.627 148.826 106.982C148.581 108.562 150.218 109.138 150.218 109.138C150.218 109.138 149.168 109.138 148.826 109.815C148.484 110.493 148.264 111.922 152.002 113.402C155.056 114.605 159.43 112.95 165.001 118.693L169.204 111.721Z" fill="#FECECC"/>
<path d="M158.99 98.5807C159.015 98.5556 159.039 98.5055 159.039 98.4553C159.039 98.3801 158.966 98.33 158.893 98.355C158.502 98.4052 158.208 98.3299 158.037 98.1293C157.549 97.5024 158.16 95.8974 158.16 95.8974C158.184 95.8222 158.16 95.772 158.086 95.7219C158.013 95.6968 157.964 95.7219 157.915 95.7971C157.891 95.8723 157.256 97.5525 157.818 98.2798C158.037 98.5807 158.404 98.681 158.893 98.6058C158.942 98.6058 158.966 98.5807 158.99 98.5807Z" fill="#EAB2B2"/>
<path d="M154.177 109.54C154.592 109.189 154.837 108.637 154.91 108.135C155.008 107.283 154.592 106.631 153.835 106.38C153.761 106.355 153.713 106.405 153.688 106.455C153.664 106.53 153.713 106.58 153.761 106.606C154.421 106.806 154.763 107.383 154.665 108.085C154.568 108.837 154.006 109.64 153.126 109.69C151.513 109.79 150.267 108.988 150.267 108.988C150.218 108.963 150.145 108.963 150.096 109.038C150.072 109.088 150.072 109.163 150.145 109.214C150.194 109.239 151.489 110.066 153.151 109.966C153.541 109.966 153.908 109.79 154.177 109.54Z" fill="#EAB2B2"/>
<path d="M155.423 106.48C155.569 106.355 155.643 106.179 155.692 105.978C155.838 104.95 154.47 102.969 152.1 102.317C152.026 102.292 151.977 102.342 151.953 102.417C151.929 102.493 151.977 102.543 152.051 102.568C154.225 103.17 155.594 105 155.472 105.953C155.423 106.405 155.032 106.48 154.714 106.48C152.808 106.455 150.438 105.552 150.414 105.527C150.34 105.502 150.291 105.527 150.267 105.602C150.243 105.678 150.267 105.728 150.34 105.753C150.365 105.753 152.784 106.681 154.739 106.706C154.983 106.706 155.252 106.63 155.423 106.48Z" fill="#EAB2B2"/>
<path d="M153.175 112.449C153.444 112.223 153.59 111.922 153.639 111.621C153.786 110.894 153.395 109.991 152.393 109.715C152.32 109.69 152.271 109.74 152.246 109.816C152.222 109.891 152.271 109.941 152.344 109.966C153.199 110.192 153.517 110.944 153.419 111.571C153.297 112.148 152.735 112.775 151.489 112.574C150.487 112.424 149.363 111.571 149.363 111.571C149.314 111.521 149.241 111.546 149.192 111.596C149.143 111.646 149.168 111.721 149.217 111.772C149.265 111.797 150.389 112.674 151.465 112.825C152.271 112.95 152.833 112.775 153.175 112.449Z" fill="#EAB2B2"/>
<path d="M159.088 109.966C159.113 109.941 159.137 109.891 159.137 109.84C159.137 109.765 159.064 109.715 158.99 109.74C158.135 109.891 157.451 109.74 156.962 109.289C155.887 108.261 156.132 106.054 156.132 106.029C156.132 105.953 156.083 105.903 156.034 105.878C155.961 105.878 155.912 105.928 155.887 105.978C155.887 106.079 155.643 108.336 156.791 109.464C157.329 109.991 158.086 110.166 159.039 109.991C159.039 109.991 159.064 109.991 159.088 109.966Z" fill="#EAB2B2"/>
<path d="M160.897 113.577C160.97 113.502 161.043 113.427 161.092 113.351C161.605 112.624 161.459 111.42 161.385 110.994C161.849 110.969 162.216 110.793 162.485 110.493C163.047 109.866 162.973 108.913 162.973 108.888C162.973 108.812 162.9 108.762 162.851 108.762C162.778 108.762 162.729 108.837 162.729 108.888C162.729 108.888 162.778 109.765 162.314 110.317C162.069 110.593 161.703 110.743 161.239 110.743C161.19 110.743 161.165 110.768 161.141 110.793C161.116 110.819 161.116 110.869 161.116 110.894C161.116 110.919 161.434 112.424 160.872 113.201C160.677 113.477 160.383 113.627 160.017 113.652C159.944 113.652 159.895 113.728 159.895 113.778C159.895 113.853 159.968 113.903 160.017 113.903C160.408 113.878 160.677 113.778 160.897 113.577Z" fill="#EAB2B2"/>
<path d="M157.744 110.819C157.769 110.794 157.793 110.743 157.793 110.693C157.793 110.668 157.402 109.414 155.79 109.59C155.716 109.59 155.667 109.665 155.692 109.74C155.692 109.815 155.765 109.866 155.838 109.841C157.256 109.665 157.573 110.718 157.573 110.743C157.598 110.819 157.671 110.844 157.72 110.819C157.695 110.844 157.72 110.844 157.744 110.819Z" fill="#EAB2B2"/>
<path d="M155.594 105.502C155.594 105.477 155.594 105.477 155.594 105.502C155.643 105.427 155.643 105.352 155.594 105.301C155.57 105.276 154.714 104.624 153.884 104.875C153.371 105.026 152.98 105.477 152.735 106.204C152.711 106.279 152.735 106.33 152.809 106.355C152.882 106.38 152.931 106.355 152.955 106.279C153.175 105.627 153.517 105.226 153.933 105.101C154.641 104.875 155.423 105.477 155.423 105.477C155.472 105.527 155.545 105.527 155.594 105.502Z" fill="#EAB2B2"/>
<path d="M154.763 108.461C154.788 108.436 154.788 108.436 154.788 108.411C154.812 108.336 154.788 108.286 154.714 108.261C154.641 108.236 153.199 107.709 152.222 108.311C151.807 108.587 151.538 109.013 151.44 109.615C151.44 109.69 151.465 109.74 151.538 109.765C151.611 109.765 151.66 109.74 151.685 109.665C151.758 109.138 151.978 108.762 152.344 108.537C153.199 108.01 154.592 108.511 154.617 108.511C154.69 108.486 154.714 108.486 154.763 108.461Z" fill="#EAB2B2"/>
<path d="M153.639 111.295C153.664 111.27 153.664 111.245 153.688 111.22C153.713 111.145 153.664 111.094 153.59 111.069C153.517 111.044 152.002 110.643 151.122 111.295C150.756 111.546 150.56 111.922 150.512 112.424C150.512 112.499 150.56 112.549 150.609 112.574C150.683 112.574 150.732 112.524 150.756 112.474C150.805 112.047 150.976 111.721 151.269 111.521C152.075 110.944 153.517 111.345 153.541 111.345C153.566 111.32 153.615 111.32 153.639 111.295Z" fill="#EAB2B2"/>
<path d="M150.536 96.3236C150.585 96.2734 150.585 96.2232 150.561 96.1731C150.536 96.1229 150.463 96.0979 150.39 96.1229L149.314 96.7248C149.266 96.7499 149.241 96.8251 149.266 96.9003C149.29 96.9505 149.363 96.9756 149.437 96.9505L150.536 96.3236C150.512 96.3236 150.512 96.3236 150.536 96.3236Z" fill="#EAB2B2"/>
<path d="M152.98 99.3079C153.028 99.2578 153.028 99.2076 153.004 99.1324C152.955 99.0822 152.882 99.0571 152.833 99.1073L151.636 99.9098C151.587 99.9599 151.562 100.035 151.611 100.085C151.66 100.135 151.733 100.161 151.782 100.11L152.98 99.3079Z" fill="#EAB2B2"/>
<path d="M153.126 99.8345C153.175 99.8094 153.175 99.7342 153.151 99.6841C153.126 99.6088 153.053 99.5838 152.98 99.6088L152.149 99.985C152.076 100.01 152.051 100.085 152.076 100.161C152.1 100.236 152.173 100.261 152.247 100.236L153.077 99.8596C153.102 99.8596 153.126 99.8345 153.126 99.8345Z" fill="#EAB2B2"/>
<path d="M220.419 70.1174C193.663 69.4905 188.067 162.955 188.067 162.955C188.067 162.955 222.251 170.704 251.744 162.955C248.225 139.859 251.695 70.8697 220.419 70.1174Z" fill="#0D9FF0"/>
<path d="M205.855 88.4243C205.782 88.4243 205.684 88.3741 205.636 88.2989C205.562 88.1735 205.611 88.023 205.709 87.9478C206.906 87.1955 206.588 85.9917 206.588 85.9416C206.564 85.8162 206.637 85.6657 206.76 85.6155C206.882 85.5654 207.028 85.6657 207.077 85.7911C207.224 86.3428 207.199 87.6218 205.978 88.3741C205.929 88.3992 205.904 88.4243 205.855 88.4243Z" fill="#BDE7FF"/>
<path d="M211.916 100.361C211.842 100.361 211.744 100.311 211.696 100.236C211.622 100.11 211.671 99.96 211.769 99.8848C212.966 99.1325 212.649 97.9287 212.649 97.8786C212.624 97.7532 212.697 97.6027 212.82 97.5526C212.942 97.5024 213.088 97.6027 213.137 97.7281C213.284 98.2798 213.259 99.5588 212.038 100.311C212.013 100.336 211.964 100.361 211.916 100.361Z" fill="#BDE7FF"/>
<path d="M224.45 90.255C224.377 90.255 224.279 90.2048 224.23 90.1296C224.157 90.0042 224.206 89.8538 224.304 89.7785C225.501 89.0262 225.183 87.8225 225.183 87.7723C225.159 87.6469 225.232 87.4965 225.354 87.4463C225.476 87.3961 225.623 87.4964 225.672 87.6218C225.818 88.1735 225.794 89.4525 224.572 90.2048C224.548 90.255 224.499 90.255 224.45 90.255Z" fill="#BDE7FF"/>
<path d="M209.325 110.267C209.325 110.342 209.277 110.443 209.203 110.493C209.081 110.568 208.934 110.518 208.861 110.417C208.128 109.189 206.955 109.515 206.906 109.515C206.784 109.54 206.638 109.465 206.589 109.339C206.54 109.214 206.638 109.063 206.76 109.013C207.297 108.863 208.544 108.888 209.277 110.142C209.325 110.192 209.325 110.242 209.325 110.267Z" fill="#BDE7FF"/>
<path d="M195.325 118.267C195.251 118.267 195.153 118.217 195.105 118.141C195.031 118.016 195.08 117.866 195.178 117.79C196.375 117.038 196.058 115.834 196.058 115.784C196.033 115.659 196.106 115.508 196.229 115.458C196.351 115.408 196.497 115.508 196.546 115.634C196.693 116.185 196.668 117.464 195.447 118.217C195.422 118.242 195.373 118.267 195.325 118.267Z" fill="#BDE7FF"/>
<path d="M204.341 93.7658C204.341 93.6906 204.365 93.5903 204.439 93.5401C204.561 93.4649 204.708 93.49 204.781 93.5903C205.612 94.7439 206.76 94.3176 206.809 94.2925C206.931 94.2423 207.078 94.3175 207.127 94.4429C207.175 94.5683 207.102 94.7188 206.98 94.7689C206.442 94.9696 205.221 95.0699 204.365 93.8912C204.365 93.8661 204.341 93.816 204.341 93.7658Z" fill="#BDE7FF"/>
<path d="M218.684 84.6626C218.684 84.5874 218.708 84.4871 218.782 84.4369C218.904 84.3617 219.051 84.3868 219.124 84.4871C219.955 85.6407 221.103 85.2143 221.152 85.1893C221.274 85.1391 221.421 85.2143 221.47 85.3397C221.518 85.4651 221.445 85.6156 221.323 85.6657C220.785 85.8664 219.564 85.9667 218.708 84.788C218.708 84.7629 218.684 84.7128 218.684 84.6626Z" fill="#BDE7FF"/>
<path d="M209.838 117.389C209.838 117.314 209.863 117.213 209.936 117.163C210.058 117.088 210.205 117.113 210.278 117.213C211.109 118.367 212.257 117.941 212.306 117.916C212.428 117.865 212.575 117.941 212.624 118.066C212.673 118.191 212.599 118.342 212.477 118.392C211.94 118.593 210.718 118.693 209.863 117.514C209.863 117.489 209.838 117.439 209.838 117.389Z" fill="#BDE7FF"/>
<path d="M222.154 98.5305C222.154 98.4553 222.178 98.355 222.251 98.3049C222.374 98.2296 222.52 98.2547 222.593 98.355C223.424 99.5086 224.573 99.0823 224.621 99.0572C224.744 99.007 224.89 99.0823 224.939 99.2076C224.988 99.333 224.915 99.4835 224.793 99.5337C224.255 99.7343 223.033 99.8346 222.178 98.6559C222.154 98.6058 222.154 98.5807 222.154 98.5305Z" fill="#BDE7FF"/>
<path d="M197.328 109.941C197.328 109.866 197.353 109.765 197.426 109.715C197.548 109.64 197.695 109.665 197.768 109.765C198.599 110.919 199.747 110.493 199.796 110.467C199.918 110.417 200.065 110.493 200.114 110.618C200.163 110.743 200.089 110.894 199.967 110.944C199.43 111.145 198.208 111.245 197.353 110.066C197.353 110.041 197.353 109.991 197.328 109.941Z" fill="#BDE7FF"/>
<path d="M215.776 137.376C215.776 137.301 215.8 137.2 215.874 137.15C215.996 137.075 216.142 137.1 216.216 137.2C217.047 138.354 218.195 137.928 218.244 137.903C218.366 137.852 218.513 137.928 218.562 138.053C218.61 138.178 218.537 138.329 218.415 138.379C217.877 138.58 216.656 138.68 215.8 137.501C215.8 137.451 215.776 137.426 215.776 137.376Z" fill="#BDE7FF"/>
<path d="M216.118 91.559C215.654 91.559 215.336 91.2831 214.945 90.932C214.75 90.7565 214.554 90.5809 214.286 90.3803C213.699 89.9289 213.601 90.0041 213.21 90.3803C212.991 90.5809 212.697 90.8568 212.233 91.1076C211.793 91.3333 211.402 91.3834 211.036 91.2079C210.376 90.932 210.107 90.1546 210.107 90.1295C210.058 90.0041 210.132 89.8537 210.254 89.8035C210.376 89.7534 210.523 89.8286 210.572 89.954C210.572 89.954 210.791 90.5558 211.231 90.7314C211.451 90.8317 211.72 90.8066 212.013 90.6311C212.429 90.4054 212.673 90.1797 212.893 89.9791C213.381 89.5277 213.724 89.2769 214.603 89.954C214.872 90.1546 215.092 90.3552 215.287 90.5308C215.874 91.0574 216.069 91.2329 216.827 90.8066C216.949 90.7314 217.096 90.7815 217.169 90.9069C217.242 91.0323 217.193 91.1828 217.071 91.258C216.68 91.4837 216.363 91.559 216.118 91.559Z" fill="#BDE7FF"/>
<path d="M220.687 116.436C220.223 116.436 219.905 116.16 219.514 115.784C219.319 115.608 219.124 115.433 218.855 115.232C218.268 114.781 218.171 114.856 217.78 115.232C217.56 115.433 217.266 115.709 216.802 115.96C216.362 116.185 215.971 116.235 215.605 116.06C214.945 115.784 214.676 115.007 214.676 114.982C214.628 114.856 214.701 114.706 214.823 114.656C214.945 114.605 215.092 114.681 215.141 114.806C215.141 114.806 215.361 115.408 215.8 115.583C216.02 115.684 216.289 115.659 216.582 115.483C216.998 115.257 217.242 115.032 217.462 114.831C217.951 114.38 218.293 114.129 219.172 114.806C219.441 115.007 219.661 115.207 219.857 115.383C220.443 115.909 220.638 116.085 221.396 115.659C221.518 115.583 221.665 115.634 221.738 115.759C221.811 115.884 221.762 116.035 221.64 116.11C221.225 116.361 220.932 116.436 220.687 116.436Z" fill="#BDE7FF"/>
<path d="M207.493 143.921C207.029 143.921 206.711 143.645 206.32 143.269C206.125 143.094 205.929 142.918 205.66 142.717C205.074 142.266 204.976 142.341 204.585 142.717C204.365 142.918 204.072 143.194 203.608 143.445C203.168 143.67 202.777 143.721 202.411 143.545C201.751 143.269 201.482 142.492 201.482 142.467C201.433 142.341 201.507 142.191 201.629 142.141C201.751 142.091 201.898 142.166 201.946 142.291C201.946 142.291 202.166 142.893 202.606 143.069C202.826 143.169 203.095 143.144 203.388 142.968C203.803 142.743 204.048 142.517 204.268 142.316C204.756 141.865 205.099 141.614 205.978 142.291C206.247 142.492 206.467 142.692 206.662 142.868C207.249 143.395 207.444 143.57 208.202 143.144C208.324 143.069 208.47 143.119 208.544 143.244C208.617 143.369 208.568 143.52 208.446 143.595C208.031 143.821 207.737 143.921 207.493 143.921Z" fill="#BDE7FF"/>
<path d="M200.798 106.029C200.774 106.029 200.749 106.029 200.725 106.029C200.065 105.853 199.772 105.427 199.65 105.101C199.405 104.499 199.576 103.772 199.845 103.345C200.309 102.568 200.48 101.941 199.796 101.339C199.454 101.038 199.381 100.712 199.405 100.512C199.454 99.8596 200.26 99.358 200.358 99.3079C200.48 99.2326 200.627 99.2828 200.7 99.4082C200.774 99.5336 200.725 99.684 200.603 99.7593C200.431 99.8596 199.943 100.211 199.918 100.562C199.918 100.612 199.894 100.762 200.138 100.963C201.311 101.991 200.578 103.195 200.309 103.646C200.114 103.972 199.992 104.499 200.163 104.95C200.285 105.251 200.529 105.477 200.92 105.577C201.067 105.602 201.14 105.753 201.091 105.903C201.018 105.953 200.92 106.029 200.798 106.029Z" fill="#BDE7FF"/>
<path d="M204.927 137.727C204.903 137.727 204.878 137.727 204.854 137.727C204.194 137.552 203.901 137.125 203.779 136.799C203.534 136.197 203.705 135.47 203.974 135.044C204.439 134.266 204.61 133.639 203.925 133.038C203.583 132.737 203.51 132.411 203.534 132.21C203.583 131.558 204.39 131.056 204.487 131.006C204.61 130.931 204.756 130.981 204.829 131.107C204.903 131.232 204.854 131.382 204.732 131.458C204.561 131.558 204.072 131.909 204.048 132.26C204.048 132.31 204.023 132.461 204.267 132.661C205.44 133.69 204.707 134.893 204.439 135.345C204.243 135.671 204.121 136.197 204.292 136.649C204.414 136.95 204.658 137.175 205.049 137.276C205.196 137.301 205.269 137.451 205.22 137.602C205.123 137.652 205.025 137.727 204.927 137.727Z" fill="#BDE7FF"/>
<path d="M201.018 126.241C200.993 126.241 200.969 126.241 200.944 126.241C200.285 126.066 199.991 125.64 199.869 125.314C199.625 124.712 199.796 123.984 200.065 123.558C200.529 122.781 200.7 122.154 200.016 121.552C199.674 121.251 199.601 120.925 199.625 120.724C199.674 120.072 200.48 119.571 200.578 119.521C200.7 119.445 200.847 119.496 200.92 119.621C200.993 119.746 200.944 119.897 200.822 119.972C200.651 120.072 200.163 120.423 200.138 120.775C200.138 120.825 200.114 120.975 200.358 121.176C201.531 122.204 200.798 123.408 200.529 123.859C200.334 124.185 200.211 124.712 200.382 125.163C200.505 125.464 200.749 125.69 201.115 125.79C201.262 125.815 201.335 125.966 201.287 126.116C201.238 126.166 201.14 126.241 201.018 126.241Z" fill="#BDE7FF"/>
<path d="M218.855 105.126C218.855 105.151 218.879 105.151 218.879 105.176C219.124 105.853 218.928 106.33 218.733 106.631C218.366 107.182 217.706 107.433 217.218 107.458C216.338 107.483 215.727 107.709 215.629 108.637C215.581 109.113 215.361 109.339 215.165 109.439C214.603 109.765 213.772 109.364 213.675 109.314C213.552 109.239 213.504 109.088 213.552 108.963C213.626 108.837 213.772 108.787 213.895 108.837C214.066 108.938 214.628 109.138 214.921 108.988C214.97 108.963 215.092 108.888 215.116 108.587C215.287 107.032 216.656 106.957 217.193 106.932C217.56 106.906 218.073 106.731 218.317 106.33C218.488 106.054 218.537 105.728 218.39 105.352C218.342 105.226 218.415 105.076 218.537 105.026C218.684 104.976 218.806 105.026 218.855 105.126Z" fill="#BDE7FF"/>
<path d="M214.555 128.724C214.555 128.749 214.555 128.774 214.555 128.799C214.384 129.477 213.968 129.777 213.651 129.903C213.064 130.154 212.355 129.978 211.94 129.702C211.183 129.226 210.572 129.05 209.985 129.752C209.692 130.103 209.374 130.179 209.179 130.154C208.544 130.103 208.055 129.276 208.006 129.176C207.933 129.05 207.982 128.9 208.104 128.825C208.226 128.749 208.373 128.799 208.446 128.925C208.544 129.1 208.886 129.602 209.228 129.627C209.277 129.627 209.423 129.652 209.619 129.401C210.621 128.198 211.793 128.95 212.233 129.226C212.551 129.426 213.064 129.552 213.504 129.376C213.797 129.251 214.017 129 214.115 128.624C214.139 128.473 214.286 128.398 214.432 128.448C214.481 128.524 214.555 128.624 214.555 128.724Z" fill="#BDE7FF"/>
<path d="M196.888 137.903C196.888 137.928 196.913 137.928 196.913 137.953C197.157 138.63 196.962 139.106 196.766 139.407C196.4 139.959 195.74 140.21 195.251 140.235C194.372 140.26 193.761 140.486 193.663 141.413C193.614 141.89 193.394 142.116 193.199 142.216C192.637 142.542 191.806 142.141 191.708 142.091C191.586 142.015 191.537 141.865 191.586 141.739C191.659 141.614 191.806 141.564 191.928 141.614C192.099 141.714 192.661 141.915 192.954 141.765C193.003 141.739 193.125 141.664 193.15 141.363C193.321 139.808 194.689 139.733 195.227 139.708C195.593 139.683 196.106 139.508 196.351 139.106C196.522 138.83 196.571 138.504 196.424 138.128C196.375 138.003 196.449 137.852 196.571 137.802C196.717 137.777 196.84 137.802 196.888 137.903Z" fill="#BDE7FF"/>
<path d="M203.51 118.192C202.801 118.192 202.215 117.59 202.215 116.862C202.215 116.135 202.801 115.533 203.51 115.533C204.219 115.533 204.805 116.135 204.805 116.862C204.805 117.59 204.219 118.192 203.51 118.192ZM203.51 116.035C203.07 116.035 202.704 116.411 202.704 116.862C202.704 117.314 203.07 117.69 203.51 117.69C203.95 117.69 204.316 117.314 204.316 116.862C204.316 116.386 203.95 116.035 203.51 116.035Z" fill="#BDE7FF"/>
<path d="M224.964 111.395C224.255 111.395 223.669 110.794 223.669 110.066C223.669 109.339 224.255 108.737 224.964 108.737C225.672 108.737 226.259 109.339 226.259 110.066C226.283 110.794 225.697 111.395 224.964 111.395ZM224.964 109.239C224.524 109.239 224.157 109.615 224.157 110.066C224.157 110.518 224.524 110.894 224.964 110.894C225.404 110.894 225.77 110.518 225.77 110.066C225.77 109.615 225.404 109.239 224.964 109.239Z" fill="#BDE7FF"/>
<path d="M223.033 96.1482C222.325 96.1482 221.738 95.5463 221.738 94.819C221.738 94.0918 222.325 93.4899 223.033 93.4899C223.742 93.4899 224.328 94.0918 224.328 94.819C224.328 95.5463 223.766 96.1482 223.033 96.1482ZM223.033 94.0166C222.593 94.0166 222.227 94.3927 222.227 94.8441C222.227 95.2955 222.593 95.6717 223.033 95.6717C223.473 95.6717 223.84 95.2955 223.84 94.8441C223.84 94.3677 223.473 94.0166 223.033 94.0166Z" fill="#BDE7FF"/>
<path d="M206.369 103.621C205.66 103.621 205.074 103.02 205.074 102.292C205.074 101.565 205.66 100.963 206.369 100.963C207.078 100.963 207.664 101.565 207.664 102.292C207.664 103.02 207.078 103.621 206.369 103.621ZM206.369 101.465C205.929 101.465 205.563 101.841 205.563 102.292C205.563 102.744 205.929 103.12 206.369 103.12C206.809 103.12 207.175 102.744 207.175 102.292C207.175 101.841 206.809 101.465 206.369 101.465Z" fill="#BDE7FF"/>
<path d="M193.59 133.94C192.881 133.94 192.295 133.339 192.295 132.611C192.295 131.884 192.881 131.282 193.59 131.282C194.298 131.282 194.885 131.884 194.885 132.611C194.885 133.364 194.298 133.94 193.59 133.94ZM193.59 131.809C193.15 131.809 192.783 132.185 192.783 132.636C192.783 133.088 193.15 133.464 193.59 133.464C194.029 133.464 194.396 133.088 194.396 132.636C194.396 132.16 194.029 131.809 193.59 131.809Z" fill="#BDE7FF"/>
<path d="M206.979 151.344C206.271 151.344 205.684 150.742 205.684 150.015C205.684 149.288 206.271 148.686 206.979 148.686C207.688 148.686 208.275 149.288 208.275 150.015C208.275 150.742 207.688 151.344 206.979 151.344ZM206.979 149.188C206.54 149.188 206.173 149.564 206.173 150.015C206.173 150.467 206.54 150.843 206.979 150.843C207.419 150.843 207.786 150.467 207.786 150.015C207.761 149.564 207.419 149.188 206.979 149.188Z" fill="#BDE7FF"/>
<path d="M213.87 85.0889C213.162 85.0889 212.575 84.487 212.575 83.7598C212.575 83.0325 213.162 82.4307 213.87 82.4307C214.579 82.4307 215.165 83.0325 215.165 83.7598C215.165 84.487 214.579 85.0889 213.87 85.0889ZM213.87 82.9322C213.43 82.9322 213.064 83.3084 213.064 83.7598C213.064 84.2112 213.43 84.5873 213.87 84.5873C214.31 84.5873 214.677 84.2112 214.677 83.7598C214.677 83.3084 214.31 82.9322 213.87 82.9322Z" fill="#BDE7FF"/>
<path d="M223.839 129.326C223.131 129.326 222.544 128.724 222.544 127.997C222.544 127.27 223.131 126.668 223.839 126.668C224.548 126.668 225.134 127.27 225.134 127.997C225.134 128.724 224.548 129.326 223.839 129.326ZM223.839 127.169C223.4 127.169 223.033 127.546 223.033 127.997C223.033 128.448 223.4 128.824 223.839 128.824C224.279 128.824 224.646 128.448 224.646 127.997C224.621 127.546 224.279 127.169 223.839 127.169Z" fill="#BDE7FF"/>
<path d="M212.356 145.727C212.282 145.727 212.185 145.677 212.136 145.601C212.062 145.476 212.111 145.326 212.209 145.25C213.406 144.498 213.089 143.294 213.089 143.244C213.064 143.119 213.137 142.968 213.26 142.918C213.382 142.868 213.528 142.968 213.577 143.094C213.724 143.645 213.699 144.924 212.478 145.677C212.453 145.727 212.404 145.727 212.356 145.727Z" fill="#BDE7FF"/>
<path d="M225.452 138.078C225.452 138.003 225.476 137.903 225.55 137.853C225.672 137.777 225.819 137.802 225.892 137.903C226.723 139.056 227.871 138.63 227.92 138.605C228.042 138.555 228.189 138.63 228.238 138.755C228.286 138.881 228.213 139.031 228.091 139.081C227.553 139.282 226.332 139.382 225.476 138.204C225.476 138.179 225.452 138.128 225.452 138.078Z" fill="#BDE7FF"/>
<path d="M248.225 146.304C247.761 146.304 247.443 146.028 247.052 145.677C246.857 145.501 246.661 145.326 246.393 145.125C245.806 144.674 245.708 144.749 245.318 145.125C245.098 145.326 244.804 145.601 244.34 145.852C243.9 146.078 243.509 146.128 243.143 145.953C242.483 145.677 242.214 144.899 242.214 144.874C242.165 144.749 242.239 144.598 242.361 144.548C242.483 144.498 242.63 144.573 242.679 144.699C242.679 144.699 242.898 145.301 243.338 145.476C243.558 145.576 243.827 145.551 244.12 145.376C244.536 145.15 244.78 144.924 245 144.724C245.489 144.272 245.831 144.022 246.71 144.699C246.979 144.899 247.199 145.1 247.394 145.275C247.981 145.802 248.176 145.978 248.934 145.551C249.056 145.476 249.203 145.526 249.276 145.652C249.349 145.777 249.3 145.927 249.178 146.003C248.763 146.203 248.47 146.304 248.225 146.304Z" fill="#BDE7FF"/>
<path d="M237.181 162.228C237.156 162.228 237.132 162.228 237.107 162.228C236.448 162.053 236.154 161.626 236.032 161.3C235.788 160.698 235.959 159.971 236.228 159.545C236.692 158.767 236.863 158.14 236.179 157.539C235.837 157.238 235.763 156.912 235.788 156.711C235.837 156.059 236.643 155.557 236.741 155.507C236.863 155.432 237.01 155.482 237.083 155.608C237.156 155.733 237.107 155.883 236.985 155.959C236.814 156.059 236.325 156.41 236.301 156.761C236.301 156.811 236.277 156.962 236.521 157.162C237.694 158.191 236.961 159.394 236.692 159.846C236.497 160.172 236.374 160.698 236.545 161.15C236.668 161.451 236.912 161.676 237.303 161.777C237.449 161.802 237.523 161.952 237.474 162.103C237.376 162.153 237.278 162.228 237.181 162.228Z" fill="#BDE7FF"/>
<path d="M219.441 152.071C219.417 152.071 219.392 152.071 219.368 152.071C218.708 151.896 218.415 151.47 218.293 151.144C218.049 150.542 218.22 149.815 218.488 149.388C218.953 148.611 219.124 147.984 218.44 147.382C218.097 147.081 218.024 146.755 218.049 146.554C218.097 145.902 218.904 145.401 219.002 145.351C219.124 145.275 219.27 145.326 219.344 145.451C219.417 145.576 219.368 145.727 219.246 145.802C219.075 145.902 218.586 146.253 218.562 146.605C218.562 146.655 218.537 146.805 218.782 147.006C219.954 148.034 219.221 149.238 218.953 149.689C218.757 150.015 218.635 150.542 218.806 150.993C218.928 151.294 219.173 151.52 219.564 151.62C219.71 151.645 219.783 151.796 219.735 151.946C219.661 151.996 219.564 152.071 219.441 152.071Z" fill="#BDE7FF"/>
<path d="M232.343 160.121C232.343 160.147 232.343 160.172 232.343 160.197C232.172 160.874 231.757 161.175 231.439 161.3C230.853 161.551 230.144 161.375 229.729 161.099C228.971 160.623 228.36 160.447 227.774 161.15C227.481 161.501 227.163 161.576 226.967 161.551C226.332 161.501 225.843 160.673 225.795 160.573C225.721 160.447 225.77 160.297 225.892 160.222C226.015 160.147 226.161 160.197 226.234 160.322C226.332 160.498 226.674 160.999 227.016 161.024C227.065 161.024 227.212 161.049 227.407 160.799C228.409 159.595 229.582 160.347 230.022 160.623C230.339 160.824 230.853 160.949 231.292 160.773C231.586 160.648 231.806 160.397 231.903 159.996C231.928 159.846 232.074 159.77 232.221 159.821C232.27 159.896 232.343 160.021 232.343 160.121Z" fill="#BDE7FF"/>
<path d="M240.87 156.786C240.162 156.786 239.575 156.184 239.575 155.457C239.575 154.73 240.162 154.128 240.87 154.128C241.579 154.128 242.165 154.73 242.165 155.457C242.165 156.209 241.579 156.786 240.87 156.786ZM240.87 154.655C240.431 154.655 240.064 155.031 240.064 155.482C240.064 155.934 240.431 156.31 240.87 156.31C241.31 156.31 241.677 155.934 241.677 155.482C241.652 155.006 241.31 154.655 240.87 154.655Z" fill="#BDE7FF"/>
<path d="M215.8 62.6693L214.358 71.3462C214.358 71.3462 215.922 79.4965 226.747 73.3023L224.108 60.8888L215.8 62.6693Z" fill="#FECECC"/>
<path opacity="0.1" d="M224.108 60.8888L215.801 62.6693L215.19 66.431C215.385 66.4811 215.581 66.5564 215.776 66.6065C216.729 66.8573 217.706 67.083 218.635 67.3839C219.368 67.6096 220.101 67.9106 220.639 68.362C221.201 68.8384 221.494 69.4152 221.518 70.0422C221.592 71.0704 220.859 71.9732 220.37 72.901C220.052 73.5029 219.881 74.2803 219.148 74.7066C218.635 75.0076 217.951 75.1079 217.291 75.1079C219.124 75.9856 222.08 75.9856 226.772 73.3023L224.108 60.8888Z" fill="#201135"/>
<path d="M209.057 44.7889C209.057 44.7889 204.878 68.1864 213.406 68.7381C221.934 69.2898 227.774 59.986 227.774 59.986C227.774 59.986 231.317 59.4092 231.561 55.0206C231.756 51.4846 229.631 52.1366 229.631 52.1366C229.631 52.1366 231.268 43.1337 225.159 41.3783C219.05 39.6229 209.057 44.7889 209.057 44.7889Z" fill="#FECECC"/>
<path opacity="0.1" d="M221.616 56.9015C221.714 57.4783 221.103 58.0551 220.272 58.2055C219.441 58.356 218.684 58.0049 218.586 57.4281C218.488 56.8513 219.099 56.2745 219.93 56.1241C220.761 55.9736 221.518 56.3247 221.616 56.9015Z" fill="#201135"/>
<path opacity="0.1" d="M212.111 56.9515C212.209 57.5283 211.598 58.1051 210.767 58.2556C209.936 58.406 209.179 58.055 209.081 57.4782C208.983 56.9014 209.594 56.3246 210.425 56.1741C211.256 56.0237 212.013 56.3747 212.111 56.9515Z" fill="#201135"/>
<path d="M212.502 51.5849C212.429 51.5849 212.331 51.5348 212.306 51.4596C212.257 51.3843 211.353 49.8546 209.13 50.8577C209.008 50.9078 208.861 50.8577 208.812 50.7323C208.763 50.6069 208.812 50.4564 208.934 50.4063C211.549 49.2026 212.697 51.1837 212.697 51.2088C212.771 51.3342 212.722 51.4595 212.6 51.5348C212.575 51.5849 212.551 51.5849 212.502 51.5849Z" fill="#000141"/>
<path d="M217.047 51.635C217.022 51.635 216.998 51.6351 216.949 51.61C216.827 51.5598 216.778 51.4093 216.827 51.309C216.827 51.284 217.682 49.1774 220.761 49.8545C220.883 49.8796 220.956 50.005 220.932 50.1304C220.907 50.2558 220.785 50.3561 220.663 50.3059C217.951 49.7041 217.267 51.4344 217.242 51.4595C217.242 51.5849 217.144 51.635 217.047 51.635Z" fill="#000141"/>
<path d="M214.383 57.6538C214.31 57.6538 214.212 57.6538 214.139 57.6287C213.65 57.4782 213.43 56.9014 213.43 56.8763C213.406 56.8011 213.406 56.7259 213.455 56.6506C214.286 55.3215 214.066 53.541 214.066 53.5159C214.041 53.3905 214.139 53.2652 214.261 53.2401C214.383 53.215 214.506 53.3153 214.53 53.4407C214.53 53.5159 214.774 55.3215 213.919 56.776C213.992 56.9014 214.115 57.077 214.286 57.1271C214.432 57.1773 214.628 57.1021 214.848 56.9265C214.945 56.8513 215.092 56.8764 215.165 56.9767C215.239 57.077 215.214 57.2274 215.116 57.3027C214.872 57.5535 214.628 57.6538 214.383 57.6538Z" fill="#000141"/>
<path d="M211.378 60.7886C211.378 60.7886 214.041 62.0425 217.047 60.613C217.731 61.892 214.163 65.2273 211.378 60.7886Z" fill="#FCFAF7"/>
<path d="M211.793 53.541C211.793 54.2933 211.378 54.8952 210.889 54.8952C210.401 54.8952 209.985 54.2933 209.985 53.541C209.985 52.7886 210.401 52.1868 210.889 52.1868C211.378 52.1868 211.793 52.7886 211.793 53.541Z" fill="#000141"/>
<path d="M219.93 53.541C219.93 54.2933 219.515 54.8952 219.026 54.8952C218.538 54.8952 218.122 54.2933 218.122 53.541C218.122 52.7886 218.538 52.1868 219.026 52.1868C219.539 52.1868 219.93 52.7886 219.93 53.541Z" fill="#000141"/>
<path opacity="0.1" d="M214.848 64.1992C214.603 64.1992 214.432 64.149 214.432 64.149C214.359 64.124 214.335 64.0738 214.335 63.9986C214.359 63.9233 214.408 63.8983 214.481 63.8983C214.481 63.8983 215.532 64.1239 216.46 63.2964C216.509 63.2462 216.583 63.2713 216.631 63.3215C216.68 63.3716 216.68 63.4469 216.631 63.497C215.947 64.0989 215.263 64.1992 214.848 64.1992Z" fill="#201135"/>
<path opacity="0.1" d="M229.239 53.5661C229.239 53.5661 230.608 52.914 230.876 53.8921C231.145 54.8952 230.29 57.3779 228.97 57.9547C228.97 57.9547 231.365 55.5974 230.583 54.1679C229.801 52.7636 229.313 54.2682 229.239 53.5661Z" fill="#201135"/>
<path d="M226.307 70.8447C226.307 70.8447 228.751 73.1518 227.431 76.6878C226.307 79.6971 224.865 82.3303 220.76 81.603C216.655 80.8758 216.509 76.6878 216.509 76.6878C216.509 76.6878 212.966 81.5027 210.009 78.9699C205 74.6565 214.481 70.5187 214.481 70.5187C214.481 70.5187 214.334 72.9763 217.926 74.0546C221.542 75.1581 226.307 70.8447 226.307 70.8447Z" fill="#0089D4"/>
<path d="M221.885 42.8329C221.885 42.8329 219.417 47.4472 216.778 47.2466C214.139 47.046 213.895 46.5444 213.895 46.5444C213.895 46.5444 212.355 48.9519 208.446 48.7513C204.536 48.5506 204.219 45.7921 204.219 45.7921C204.219 45.7921 201.311 44.8642 202.166 41.5038C203.021 38.1685 205.758 39.1966 205.758 39.1966C205.758 39.1966 204.292 37.1653 207.102 34.9334C209.912 32.7015 212.624 36.7139 212.624 36.7139C212.624 36.7139 213.382 35.5604 217.242 34.2563C221.103 32.9523 223.766 37.2406 223.766 37.2406C223.766 37.2406 229.117 35.4601 230.217 40.7264C230.217 40.7264 233.809 42.9081 232.196 46.1181C232.196 46.1181 234.908 52.5631 229.337 52.5882C229.337 52.5882 228.409 55.8232 226.161 55.6476C223.913 55.447 225.208 52.2621 224.719 51.0083C224.23 49.7544 220.663 48.6259 221.885 42.8329Z" fill="#1C1C1C"/>
<path d="M249.104 109.565L229.703 116.26L231.976 138.88L204.78 156.535L206.417 164.334C206.417 164.334 234.004 163.557 245.268 147.908C256.557 132.26 249.104 109.565 249.104 109.565Z" fill="#FECECC"/>
<path d="M228.701 118.392C228.701 118.392 243.606 122.956 251.694 112.323C251.694 112.323 247.394 85.9665 232.147 74.5812C223.057 76.7629 228.701 118.392 228.701 118.392Z" fill="#0089D5"/>
<path d="M195.471 144.222L189.093 148.084C188.605 148.385 188.531 149.413 188.947 150.366L198.599 172.384C199.038 173.362 199.82 173.989 200.358 173.764L207.322 170.955C207.908 170.704 208.03 169.676 207.566 168.648L197.279 145.451C196.839 144.448 196.033 143.896 195.471 144.222Z" fill="#1C1C1C"/>
<path d="M199.747 170.353C200.504 170.127 201.555 169.701 203.021 168.924H202.996C203.754 168.573 204.511 168.121 205.244 167.67C206.515 166.867 207.395 166.19 207.981 165.689C208.861 164.936 209.129 164.56 209.129 164.56C209.129 164.56 208.861 156.084 206.051 155.357C202.801 154.479 197.181 148.861 196.521 151.419C195.861 153.952 200.724 156.335 200.724 156.335C200.724 156.335 200.651 156.335 200.528 156.36C199.771 156.435 196.937 156.836 194.591 158.09C193.931 158.441 193.32 158.842 192.807 159.344C192.709 159.419 192.636 159.519 192.538 159.62C192.392 159.77 192.245 159.946 192.099 160.121C192.074 160.146 192.05 160.171 192.025 160.222C191.952 160.322 191.903 160.397 191.83 160.497C191.756 160.798 191.732 161.175 191.879 161.651C192.367 163.181 193.589 162.98 193.589 162.98C193.589 162.98 192.685 163.833 193.247 164.986C193.858 166.24 194.737 165.739 194.737 165.739C194.737 165.739 194.078 166.917 194.591 167.87C195.128 168.899 196.155 168.272 196.155 168.272C196.155 168.272 195.568 169.049 196.204 170.228C196.79 171.281 199.747 170.353 199.747 170.353Z" fill="#FECECC"/>
<path opacity="0.2" d="M196.399 165.363C196.375 165.413 196.375 165.438 196.399 165.488C196.79 166.065 197.133 166.617 197.133 167.344C197.133 167.595 197.132 167.845 197.304 168.046C197.377 168.121 197.475 168.171 197.572 168.247C197.694 168.322 197.792 168.422 197.866 168.573C198.134 168.999 198.305 169.475 198.428 169.952C198.476 170.178 198.525 170.403 198.55 170.629C197.646 170.779 196.522 170.83 196.204 170.203C195.593 168.999 196.155 168.247 196.155 168.247C196.155 168.247 195.129 168.848 194.591 167.845C194.078 166.892 194.738 165.714 194.738 165.714C194.738 165.714 193.858 166.215 193.247 164.961C192.685 163.783 193.589 162.955 193.589 162.955C193.589 162.955 192.368 163.156 191.879 161.626C191.732 161.15 191.732 160.773 191.83 160.472C191.879 160.372 191.952 160.297 192.026 160.197C192.05 160.172 192.075 160.146 192.099 160.096C192.221 159.921 192.368 159.745 192.539 159.595C192.637 159.494 192.71 159.419 192.808 159.319C192.808 159.695 192.905 160.121 193.027 160.472C193.174 160.874 193.37 161.3 193.712 161.526C194.078 161.777 194.542 161.802 194.933 162.002C195.349 162.228 195.544 162.729 195.544 163.181C195.544 163.582 195.398 163.933 195.544 164.309C195.715 164.736 196.057 165.037 196.399 165.363Z" fill="white"/>
<path opacity="0.2" d="M197.157 151.119C197.157 151.119 198.745 152.398 199.087 152.297C199.429 152.197 199.405 151.745 199.405 151.745C199.405 151.745 197.719 150.767 197.157 151.119Z" fill="white"/>
</svg>
