<?xml version="1.0" encoding="UTF-8"?>
<svg xmlns="http://www.w3.org/2000/svg" xmlns:xlink="http://www.w3.org/1999/xlink" version="1.1" width="512" height="512" x="0" y="0" viewBox="0 0 24 24" style="enable-background:new 0 0 512 512" xml:space="preserve" class="">
  <g>
    <path fill="#000000" fill-rule="evenodd" d="M9 5a3 3 0 1 0 0 6 3 3 0 0 0 0-6zM4 8a5 5 0 1 1 10 0A5 5 0 0 1 4 8zm15 1a1 1 0 0 1 1 1v2h2a1 1 0 1 1 0 2h-2v2a1 1 0 1 1-2 0v-2h-2a1 1 0 1 1 0-2h2v-2a1 1 0 0 1 1-1zM4.203 15.34C5.474 14.492 7.173 14 9 14c1.827 0 3.526.492 4.797 1.34C15.062 16.183 16 17.457 16 19a1 1 0 1 1-2 0c0-.666-.405-1.392-1.312-1.996C11.788 16.404 10.487 16 9 16s-2.788.404-3.688 1.004C4.405 17.608 4 18.334 4 19a1 1 0 1 1-2 0c0-1.543.938-2.817 2.203-3.66z" clip-rule="evenodd" opacity="1" data-original="#000000"/>
  </g>
</svg>
