<svg width="20" height="20" viewBox="0 0 20 20" fill="none" xmlns="http://www.w3.org/2000/svg">
<g clip-path="url(#clip0_259_1063)">
<path d="M9.99994 9.75574C10.2974 9.75574 10.5386 9.51458 10.5386 9.2171C10.5386 8.91962 10.2974 8.67847 9.99994 8.67847C9.70246 8.67847 9.4613 8.91962 9.4613 9.2171C9.4613 9.51458 9.70246 9.75574 9.99994 9.75574Z" fill="#1C1C1C"/>
<path d="M8.01141 9.75574C8.3089 9.75574 8.55005 9.51458 8.55005 9.2171C8.55005 8.91962 8.3089 8.67847 8.01141 8.67847C7.71393 8.67847 7.47278 8.91962 7.47278 9.2171C7.47278 9.51458 7.71393 9.75574 8.01141 9.75574Z" fill="#1C1C1C"/>
<path d="M11.9886 9.75574C12.2861 9.75574 12.5272 9.51458 12.5272 9.2171C12.5272 8.91962 12.2861 8.67847 11.9886 8.67847C11.6911 8.67847 11.45 8.91962 11.45 9.2171C11.45 9.51458 11.6911 9.75574 11.9886 9.75574Z" fill="#1C1C1C"/>
<path d="M10 0C7.34784 0 4.8043 1.05357 2.92893 2.92893C1.05357 4.8043 0 7.34784 0 10C0 12.6522 1.05357 15.1957 2.92893 17.0711C4.8043 18.9464 7.34784 20 10 20C12.6522 20 15.1957 18.9464 17.0711 17.0711C18.9464 15.1957 20 12.6522 20 10C20 7.34784 18.9464 4.8043 17.0711 2.92893C15.1957 1.05357 12.6522 0 10 0ZM14.3182 11.5591C14.3182 11.8605 14.1985 12.1495 13.9853 12.3626C13.7722 12.5757 13.4832 12.6955 13.1818 12.6955H7.92045L5.68182 14.3091V6.83182C5.68182 6.53044 5.80154 6.2414 6.01465 6.02829C6.22776 5.81518 6.5168 5.69545 6.81818 5.69545H13.1818C13.4832 5.69545 13.7722 5.81518 13.9853 6.02829C14.1985 6.2414 14.3182 6.53044 14.3182 6.83182V11.5591Z" fill="#1C1C1C"/>
</g>
<defs>
<clipPath id="clip0_259_1063">
<rect width="20" height="20" fill="white"/>
</clipPath>
</defs>
</svg>
