<?xml version="1.0" encoding="UTF-8"?>
<svg xmlns="http://www.w3.org/2000/svg" xmlns:xlink="http://www.w3.org/1999/xlink" version="1.1" width="512" height="512" x="0" y="0" viewBox="0 0 32 32" style="enable-background:new 0 0 512 512" xml:space="preserve" fill-rule="evenodd">
  <g>
    <path d="M16.944 7.13a5.784 5.784 0 0 0-1.882.011 5.72 5.72 0 0 0-.956-1.334 5.675 5.675 0 0 0-4.103-1.749A5.696 5.696 0 0 0 4.31 9.75c0 1.831.867 3.461 2.211 4.503A8.04 8.04 0 0 0 2 21.481V23a3 3 0 0 0 3 3h2.962a3 3 0 0 0 3 3h10.076a3 3 0 0 0 3-3H27a3 3 0 0 0 3-3v-1.519a8.04 8.04 0 0 0-4.521-7.228A5.687 5.687 0 0 0 27.69 9.75a5.696 5.696 0 0 0-5.693-5.692 5.675 5.675 0 0 0-4.103 1.749 5.685 5.685 0 0 0-.95 1.323zm5.094 17.351V26a1 1 0 0 1-1 1H10.962a1 1 0 0 1-1-1v-1.519a6.038 6.038 0 1 1 12.076 0zM24.024 24H27a1 1 0 0 0 1-1v-1.519a6.038 6.038 0 0 0-6.038-6.038h-.001c-.32 0-.638.025-.951.075a5.725 5.725 0 0 1-1.493 1.735A8.036 8.036 0 0 1 24.024 24zm-12.955-8.469a5.993 5.993 0 0 0-1.03-.088h-.001A6.038 6.038 0 0 0 4 21.481V23a1 1 0 0 0 1 1h2.976a8.036 8.036 0 0 1 4.551-6.769 5.716 5.716 0 0 1-1.458-1.7zm4.967-6.473a3.694 3.694 0 0 1 3.692 3.692c0 2.038-1.654 3.693-3.692 3.693s-3.692-1.655-3.692-3.693a3.694 3.694 0 0 1 3.692-3.692zm-2.875-1.22a3.717 3.717 0 0 0-.497-.645 3.681 3.681 0 0 0-2.661-1.135A3.695 3.695 0 0 0 6.31 9.75a3.695 3.695 0 0 0 4.073 3.673 5.69 5.69 0 0 1 2.778-5.585zm8.527 5.592a3.695 3.695 0 0 0 4.002-3.68 3.695 3.695 0 0 0-3.693-3.692 3.681 3.681 0 0 0-2.661 1.135c-.18.187-.34.393-.478.614a5.691 5.691 0 0 1 2.83 5.623z" fill="#000000" opacity="1" data-original="#000000"/>
  </g>
</svg>
