<svg width="20" height="20" viewBox="0 0 20 20" fill="none" xmlns="http://www.w3.org/2000/svg">
<path d="M18.7934 11.0083L17.3333 5.76335C16.8624 4.07331 15.8402 2.58912 14.4291 1.54659C13.018 0.504061 11.2989 -0.0370099 9.54512 0.00933999C7.7913 0.0556899 6.10326 0.686802 4.7492 1.80241C3.39514 2.91801 2.45272 4.45412 2.07168 6.16668L0.943349 11.2408C0.794494 11.9108 0.797974 12.6056 0.953534 13.274C1.10909 13.9424 1.41276 14.5673 1.84213 15.1026C2.27149 15.638 2.81559 16.0701 3.43427 16.367C4.05296 16.664 4.73043 16.8182 5.41668 16.8183H5.75002C6.01521 17.7354 6.57121 18.5415 7.33429 19.1152C8.09736 19.6889 9.02618 19.9991 9.98085 19.9991C10.9355 19.9991 11.8643 19.6889 12.6274 19.1152C13.3905 18.5415 13.9465 17.7354 14.2117 16.8183H14.3725C15.0791 16.8184 15.7762 16.6551 16.4092 16.3412C17.0423 16.0273 17.5942 15.5713 18.0218 15.0087C18.4494 14.4462 18.7412 13.7924 18.8743 13.0985C19.0074 12.4045 18.9783 11.6892 18.7892 11.0083H18.7934ZM16.0359 13.495C15.8424 13.7519 15.5917 13.96 15.3037 14.103C15.0156 14.2459 14.6982 14.3196 14.3767 14.3183H5.41668C5.10477 14.3183 4.79686 14.2482 4.51566 14.1132C4.23446 13.9782 3.98715 13.7819 3.79199 13.5385C3.59683 13.2952 3.45879 13.0112 3.38807 12.7074C3.31734 12.4036 3.31573 12.0878 3.38335 11.7833L4.51168 6.70001C4.77078 5.53007 5.4138 4.48043 6.33839 3.71817C7.26297 2.95591 8.41598 2.52485 9.61386 2.49361C10.8117 2.46237 11.9856 2.83275 12.9487 3.54577C13.9118 4.2588 14.6086 5.2735 14.9283 6.42835L16.385 11.6733C16.4729 11.9832 16.4871 12.3093 16.4265 12.6256C16.3658 12.9419 16.2321 13.2396 16.0359 13.495Z" fill="#1C1C1C"/>
</svg>
