<svg width="333" height="333" viewBox="0 0 333 333" fill="none" xmlns="http://www.w3.org/2000/svg">
<g clip-path="url(#clip0_212_244)">
<path d="M274.126 130.736C272.394 122.144 270.529 113.62 267.865 105.295C260.273 81.0522 245.155 56.5434 219.181 48.285C200 42.2244 179.354 46.4202 163.17 58.8078C137.795 78.255 119.281 104.762 91.5083 121.612C68.3315 135.664 56.1437 158.375 63.9359 190.476C71.7281 222.577 97.7687 241.292 126.274 238.961C149.983 237.029 174.758 239.094 195.205 250.616C213.52 260.872 245.887 251.948 272.594 223.909C288.178 207.526 286.646 186.746 281.585 167.299C278.588 155.178 276.59 142.924 274.126 130.736Z" fill="#BDE7FF"/>
<path opacity="0.7" d="M274.126 130.736C272.394 122.144 270.529 113.62 267.865 105.295C260.273 81.0522 245.155 56.5434 219.181 48.285C200 42.2244 179.354 46.4202 163.17 58.8078C137.795 78.255 119.281 104.762 91.5083 121.612C68.3315 135.664 56.1437 158.375 63.9359 190.476C71.7281 222.577 97.7687 241.292 126.274 238.961C149.983 237.029 174.758 239.094 195.205 250.616C213.52 260.872 245.887 251.948 272.594 223.909C288.178 207.526 286.646 186.746 281.585 167.299C278.588 155.178 276.59 142.924 274.126 130.736Z" fill="#BDE7FF"/>
<path d="M301.165 279.92C301.165 281.984 244.555 283.716 174.758 283.716C104.962 283.716 48.3516 282.051 48.3516 279.92C48.3516 277.855 104.962 276.124 174.758 276.124C244.555 276.124 301.165 277.855 301.165 279.92Z" fill="#0D9FF0"/>
<path opacity="0.3" d="M301.165 279.92C301.165 281.984 244.555 283.716 174.758 283.716C104.962 283.716 48.3516 282.051 48.3516 279.92C48.3516 277.855 104.962 276.124 174.758 276.124C244.555 276.124 301.165 277.855 301.165 279.92Z" fill="#0D9FF0"/>
<path d="M276.923 207.326C276.923 207.326 278.655 205.594 278.721 205.461C279.787 203.996 281.052 200.533 279.853 198.934C278.988 197.735 277.322 197.669 276.257 198.601C275.191 199.534 274.925 201.265 274.992 202.664C275.191 204.196 276.923 207.326 276.923 207.326Z" fill="#0D9FF0"/>
<path d="M292.507 201.132C290.842 200 287.379 201.265 285.98 202.331C285.847 202.397 284.049 204.129 284.116 204.129C284.116 204.129 284.116 204.129 284.182 204.129C283.649 204.329 283.05 204.529 282.451 204.795C281.318 205.261 279.986 205.794 278.588 206.46C277.189 207.126 275.724 207.925 274.259 208.858C272.794 209.79 271.262 210.922 269.797 212.254C269.797 212.254 269.797 212.254 269.73 212.321C269.996 211.788 270.796 210.323 270.862 210.19C271.528 208.525 271.795 204.862 270.263 203.53C269.131 202.597 267.532 202.997 266.733 204.196C265.934 205.394 266.134 207.126 266.6 208.391C267.133 209.857 269.397 212.254 269.597 212.387C268.265 213.653 266.999 215.051 265.734 216.583C265.068 217.449 264.335 218.315 263.736 219.247C264.002 218.781 264.202 218.381 264.202 218.315C264.868 216.65 265.135 212.987 263.603 211.655C262.471 210.722 260.872 211.122 260.073 212.321C259.274 213.52 259.474 215.251 259.94 216.517C260.406 217.782 262.337 219.913 262.804 220.446C262.537 220.779 262.271 221.112 262.071 221.512C260.872 223.177 259.673 224.842 258.475 226.44C258.075 226.973 257.609 227.572 257.143 228.105C257.342 227.705 257.542 227.372 257.542 227.306C258.208 225.641 258.475 221.978 256.943 220.646C255.811 219.713 254.212 220.113 253.413 221.312C252.614 222.511 252.814 224.242 253.28 225.508C253.746 226.773 255.478 228.704 256.077 229.304C255.611 229.837 255.145 230.369 254.678 230.902C254.345 231.235 254.079 231.568 253.679 231.901C253.346 232.234 253.013 232.567 252.68 232.834C252.014 233.433 251.348 234.032 250.616 234.565C250.15 234.965 249.683 235.298 249.284 235.697C249.683 235.165 250.549 234.032 250.616 233.899C251.215 232.834 251.815 230.902 251.681 229.304C251.748 229.171 251.881 228.971 251.881 228.838C252.347 227.506 251.681 225.974 250.283 225.641C248.285 225.175 245.554 227.572 244.622 229.104C244.555 229.171 244.089 230.236 243.756 230.902C243.889 230.503 244.022 230.103 244.089 229.637C244.355 228.771 244.555 227.905 244.755 226.973C244.822 226.507 244.955 226.04 245.021 225.574C245.155 225.108 245.155 224.642 245.288 224.109C245.488 222.977 245.554 221.845 245.687 220.712C246.42 220.912 249.151 221.645 250.483 221.378C251.815 221.179 253.48 220.513 254.146 219.247C254.812 217.982 254.412 216.383 253.08 215.851C251.215 215.051 248.085 217.049 246.953 218.448C246.886 218.515 246.154 219.647 245.754 220.246C245.821 219.58 245.887 218.848 245.887 218.182C245.954 216.184 246.02 214.119 246.02 212.054C246.02 211.455 246.02 210.789 246.087 210.19C246.353 210.256 249.55 211.189 251.015 210.922C252.347 210.722 254.012 210.056 254.678 208.791C255.344 207.526 254.945 205.927 253.613 205.394C251.748 204.595 248.618 206.593 247.486 207.992C247.419 208.125 246.353 209.657 246.087 210.056C246.087 208.658 246.154 207.326 246.287 205.927C246.42 204.062 246.686 202.264 247.019 200.466C247.153 200.533 250.483 201.465 252.014 201.199C253.346 200.999 255.011 200.333 255.677 199.067C256.343 197.802 255.944 196.204 254.612 195.671C252.747 194.872 249.617 196.87 248.485 198.268C248.418 198.335 247.619 199.534 247.219 200.133C247.153 200.133 247.153 200.133 247.086 200.066C247.486 198.202 248.152 196.403 248.818 194.805C249.217 193.873 249.617 193.007 250.083 192.141C250.682 192.407 253.413 193.473 254.812 193.406C256.144 193.34 257.875 192.874 258.674 191.741C259.474 190.609 259.274 188.944 257.942 188.212C256.144 187.213 252.88 188.878 251.548 190.076C251.482 190.143 250.816 190.942 250.349 191.475C250.549 191.075 250.749 190.676 250.949 190.343C251.681 189.011 252.481 187.812 253.147 186.746C253.546 186.147 253.879 185.614 254.279 185.148C255.011 185.081 257.875 184.748 259.074 184.082C260.273 183.416 261.538 182.218 261.738 180.819C261.938 179.42 260.939 178.088 259.474 178.022C257.476 177.955 255.278 180.952 254.678 182.617C254.612 182.75 254.079 185.148 254.146 185.148H254.212C253.879 185.614 253.48 186.08 253.08 186.68C252.347 187.679 251.548 188.878 250.816 190.21C250.016 191.542 249.217 193.007 248.551 194.605C247.819 196.204 247.153 198.002 246.686 199.867V199.933C246.62 199.334 246.487 197.669 246.487 197.536C246.087 195.737 244.355 192.541 242.291 192.341C240.826 192.208 239.693 193.406 239.693 194.805C239.693 196.27 240.826 197.602 241.891 198.401C243.09 199.334 246.353 200.066 246.62 200.133C246.22 201.931 245.887 203.796 245.754 205.727C245.621 206.86 245.554 207.925 245.488 209.057C245.421 208.525 245.421 208.058 245.354 207.992C244.955 206.194 243.223 202.997 241.159 202.797C239.693 202.664 238.561 203.863 238.561 205.261C238.561 206.726 239.693 208.058 240.759 208.858C241.825 209.657 244.622 210.389 245.354 210.523C245.354 210.922 245.288 211.388 245.288 211.788C245.221 213.853 245.155 215.917 245.021 217.915C244.955 218.648 244.888 219.314 244.822 219.98C244.755 219.514 244.755 219.114 244.755 219.114C244.355 217.316 242.624 214.119 240.559 213.919C239.094 213.786 237.962 214.985 237.962 216.383C237.962 217.849 239.094 219.181 240.16 219.98C241.225 220.779 243.756 221.445 244.622 221.645C244.555 222.377 244.422 223.043 244.289 223.776C244.222 224.242 244.156 224.708 244.022 225.175C243.889 225.641 243.823 226.107 243.689 226.573C243.423 227.439 243.223 228.305 242.957 229.171C242.757 229.77 242.624 230.303 242.424 230.836C242.491 230.103 242.557 228.771 242.557 228.638C242.424 226.84 241.159 223.376 239.227 222.91C237.829 222.511 236.497 223.576 236.297 224.975C236.097 226.373 237.029 227.905 237.962 228.838C239.027 229.903 241.958 231.102 242.357 231.235C242.091 232.168 241.758 233.033 241.492 233.899C240.493 236.83 239.56 239.161 238.894 240.826C238.894 240.892 238.828 240.959 238.828 241.025L240.026 241.691C240.093 241.558 240.093 241.492 240.16 241.358C240.826 239.693 241.691 237.229 242.624 234.299C242.89 233.366 243.223 232.367 243.49 231.368C243.756 231.368 245.155 231.568 246.553 231.568C246.953 233.033 248.618 235.498 248.818 235.831C248.085 236.43 247.352 237.029 246.62 237.562C244.222 239.427 242.091 240.892 240.626 241.891C240.559 241.958 240.493 241.958 240.426 242.024L241.758 242.757C243.223 241.691 245.155 240.293 247.352 238.495C248.085 237.895 248.884 237.229 249.75 236.497C250.016 236.763 252.481 238.828 253.946 239.227C255.278 239.627 257.009 239.693 258.142 238.828C259.274 237.962 259.54 236.363 258.608 235.298C257.209 233.833 253.613 234.299 251.948 235.031C251.881 235.098 250.882 235.697 250.216 236.097C250.549 235.831 250.882 235.564 251.215 235.231C251.881 234.632 252.547 234.032 253.28 233.366C253.613 233.033 253.946 232.7 254.279 232.367C254.612 232.034 254.945 231.635 255.278 231.302C256.01 230.436 256.743 229.57 257.476 228.638C258.008 229.237 259.873 231.302 261.072 231.835C262.271 232.434 264.002 232.767 265.268 232.101C266.533 231.435 267.066 229.903 266.267 228.638C265.135 226.973 261.472 226.906 259.74 227.372C259.607 227.372 258.408 227.905 257.742 228.172C258.142 227.639 258.608 227.106 259.007 226.507C260.206 224.842 261.338 223.177 262.537 221.445C262.87 220.912 263.27 220.446 263.603 219.913C263.803 220.113 265.934 222.644 267.332 223.243C268.531 223.843 270.263 224.176 271.528 223.51C272.794 222.844 273.326 221.312 272.527 220.046C271.395 218.381 267.732 218.315 266 218.781C265.867 218.848 264.136 219.514 263.669 219.78C264.469 218.648 265.268 217.516 266.067 216.45C267.199 214.985 268.398 213.586 269.663 212.321C269.73 212.387 271.994 215.051 273.393 215.717C274.592 216.317 276.323 216.65 277.589 215.984C278.854 215.318 279.387 213.786 278.588 212.521C277.456 210.856 273.793 210.789 272.061 211.255C271.928 211.255 270.596 211.855 269.996 212.121C269.93 212.054 269.996 212.054 269.93 212.054C271.328 210.722 272.794 209.59 274.259 208.591C275.125 207.992 275.924 207.526 276.79 207.059C277.189 207.592 278.854 209.99 280.053 210.722C281.185 211.455 282.917 211.988 284.249 211.455C285.581 210.922 286.247 209.457 285.581 208.125C284.648 206.327 280.985 205.861 279.187 206.194C279.121 206.194 278.122 206.46 277.389 206.726C277.789 206.527 278.122 206.327 278.521 206.127C279.853 205.394 281.185 204.862 282.317 204.329C282.983 204.062 283.583 203.796 284.116 203.596C284.715 203.929 287.312 205.261 288.711 205.328C290.043 205.394 291.841 205.128 292.774 204.062C293.773 203.663 293.706 201.998 292.507 201.132Z" fill="#0D9FF0"/>
<path d="M245.687 189.277C246.686 190.543 249.817 192.208 249.817 192.208C249.817 192.208 250.283 189.81 250.283 189.61C250.416 187.812 249.55 184.216 247.619 183.483C246.287 182.95 244.822 183.816 244.489 185.215C244.156 186.547 244.888 188.145 245.687 189.277Z" fill="#0D9FF0"/>
<g opacity="0.5">
<path d="M276.923 207.326C276.923 207.326 278.655 205.594 278.721 205.461C279.787 203.996 281.052 200.533 279.853 198.934C278.988 197.735 277.322 197.669 276.257 198.601C275.191 199.534 274.925 201.265 274.992 202.664C275.191 204.196 276.923 207.326 276.923 207.326Z" fill="#0D9FF0"/>
<path d="M292.507 201.132C290.842 200 287.379 201.265 285.98 202.331C285.847 202.397 284.049 204.129 284.116 204.129C284.116 204.129 284.116 204.129 284.182 204.129C283.649 204.329 283.05 204.529 282.451 204.795C281.318 205.261 279.986 205.794 278.588 206.46C277.189 207.126 275.724 207.925 274.259 208.858C272.794 209.79 271.262 210.922 269.797 212.254C269.797 212.254 269.797 212.254 269.73 212.321C269.996 211.788 270.796 210.323 270.862 210.19C271.528 208.525 271.795 204.862 270.263 203.53C269.131 202.597 267.532 202.997 266.733 204.196C265.934 205.394 266.134 207.126 266.6 208.391C267.133 209.857 269.397 212.254 269.597 212.387C268.265 213.653 266.999 215.051 265.734 216.583C265.068 217.449 264.335 218.315 263.736 219.247C264.002 218.781 264.202 218.381 264.202 218.315C264.868 216.65 265.135 212.987 263.603 211.655C262.471 210.722 260.872 211.122 260.073 212.321C259.274 213.52 259.474 215.251 259.94 216.517C260.406 217.782 262.337 219.913 262.804 220.446C262.537 220.779 262.271 221.112 262.071 221.512C260.872 223.177 259.673 224.842 258.475 226.44C258.075 226.973 257.609 227.572 257.143 228.105C257.342 227.705 257.542 227.372 257.542 227.306C258.208 225.641 258.475 221.978 256.943 220.646C255.811 219.713 254.212 220.113 253.413 221.312C252.614 222.511 252.814 224.242 253.28 225.508C253.746 226.773 255.478 228.704 256.077 229.304C255.611 229.837 255.145 230.369 254.678 230.902C254.345 231.235 254.079 231.568 253.679 231.901C253.346 232.234 253.013 232.567 252.68 232.834C252.014 233.433 251.348 234.032 250.616 234.565C250.15 234.965 249.683 235.298 249.284 235.697C249.683 235.165 250.549 234.032 250.616 233.899C251.215 232.834 251.815 230.902 251.681 229.304C251.748 229.171 251.881 228.971 251.881 228.838C252.347 227.506 251.681 225.974 250.283 225.641C248.285 225.175 245.554 227.572 244.622 229.104C244.555 229.171 244.089 230.236 243.756 230.902C243.889 230.503 244.022 230.103 244.089 229.637C244.355 228.771 244.555 227.905 244.755 226.973C244.822 226.507 244.955 226.04 245.021 225.574C245.155 225.108 245.155 224.642 245.288 224.109C245.488 222.977 245.554 221.845 245.687 220.712C246.42 220.912 249.151 221.645 250.483 221.378C251.815 221.179 253.48 220.513 254.146 219.247C254.812 217.982 254.412 216.383 253.08 215.851C251.215 215.051 248.085 217.049 246.953 218.448C246.886 218.515 246.154 219.647 245.754 220.246C245.821 219.58 245.887 218.848 245.887 218.182C245.954 216.184 246.02 214.119 246.02 212.054C246.02 211.455 246.02 210.789 246.087 210.19C246.353 210.256 249.55 211.189 251.015 210.922C252.347 210.722 254.012 210.056 254.678 208.791C255.344 207.526 254.945 205.927 253.613 205.394C251.748 204.595 248.618 206.593 247.486 207.992C247.419 208.125 246.353 209.657 246.087 210.056C246.087 208.658 246.154 207.326 246.287 205.927C246.42 204.062 246.686 202.264 247.019 200.466C247.153 200.533 250.483 201.465 252.014 201.199C253.346 200.999 255.011 200.333 255.677 199.067C256.343 197.802 255.944 196.204 254.612 195.671C252.747 194.872 249.617 196.87 248.485 198.268C248.418 198.335 247.619 199.534 247.219 200.133C247.153 200.133 247.153 200.133 247.086 200.066C247.486 198.202 248.152 196.403 248.818 194.805C249.217 193.873 249.617 193.007 250.083 192.141C250.682 192.407 253.413 193.473 254.812 193.406C256.144 193.34 257.875 192.874 258.674 191.741C259.474 190.609 259.274 188.944 257.942 188.212C256.144 187.213 252.88 188.878 251.548 190.076C251.482 190.143 250.816 190.942 250.349 191.475C250.549 191.075 250.749 190.676 250.949 190.343C251.681 189.011 252.481 187.812 253.147 186.746C253.546 186.147 253.879 185.614 254.279 185.148C255.011 185.081 257.875 184.748 259.074 184.082C260.273 183.416 261.538 182.218 261.738 180.819C261.938 179.42 260.939 178.088 259.474 178.022C257.476 177.955 255.278 180.952 254.678 182.617C254.612 182.75 254.079 185.148 254.146 185.148H254.212C253.879 185.614 253.48 186.08 253.08 186.68C252.347 187.679 251.548 188.878 250.816 190.21C250.016 191.542 249.217 193.007 248.551 194.605C247.819 196.204 247.153 198.002 246.686 199.867V199.933C246.62 199.334 246.487 197.669 246.487 197.536C246.087 195.737 244.355 192.541 242.291 192.341C240.826 192.208 239.693 193.406 239.693 194.805C239.693 196.27 240.826 197.602 241.891 198.401C243.09 199.334 246.353 200.066 246.62 200.133C246.22 201.931 245.887 203.796 245.754 205.727C245.621 206.86 245.554 207.925 245.488 209.057C245.421 208.525 245.421 208.058 245.354 207.992C244.955 206.194 243.223 202.997 241.159 202.797C239.693 202.664 238.561 203.863 238.561 205.261C238.561 206.726 239.693 208.058 240.759 208.858C241.825 209.657 244.622 210.389 245.354 210.523C245.354 210.922 245.288 211.388 245.288 211.788C245.221 213.853 245.155 215.917 245.021 217.915C244.955 218.648 244.888 219.314 244.822 219.98C244.755 219.514 244.755 219.114 244.755 219.114C244.355 217.316 242.624 214.119 240.559 213.919C239.094 213.786 237.962 214.985 237.962 216.383C237.962 217.849 239.094 219.181 240.16 219.98C241.225 220.779 243.756 221.445 244.622 221.645C244.555 222.377 244.422 223.043 244.289 223.776C244.222 224.242 244.156 224.708 244.022 225.175C243.889 225.641 243.823 226.107 243.689 226.573C243.423 227.439 243.223 228.305 242.957 229.171C242.757 229.77 242.624 230.303 242.424 230.836C242.491 230.103 242.557 228.771 242.557 228.638C242.424 226.84 241.159 223.376 239.227 222.91C237.829 222.511 236.497 223.576 236.297 224.975C236.097 226.373 237.029 227.905 237.962 228.838C239.027 229.903 241.958 231.102 242.357 231.235C242.091 232.168 241.758 233.033 241.492 233.899C240.493 236.83 239.56 239.161 238.894 240.826C238.894 240.892 238.828 240.959 238.828 241.025L240.026 241.691C240.093 241.558 240.093 241.492 240.16 241.358C240.826 239.693 241.691 237.229 242.624 234.299C242.89 233.366 243.223 232.367 243.49 231.368C243.756 231.368 245.155 231.568 246.553 231.568C246.953 233.033 248.618 235.498 248.818 235.831C248.085 236.43 247.352 237.029 246.62 237.562C244.222 239.427 242.091 240.892 240.626 241.891C240.559 241.958 240.493 241.958 240.426 242.024L241.758 242.757C243.223 241.691 245.155 240.293 247.352 238.495C248.085 237.895 248.884 237.229 249.75 236.497C250.016 236.763 252.481 238.828 253.946 239.227C255.278 239.627 257.009 239.693 258.142 238.828C259.274 237.962 259.54 236.363 258.608 235.298C257.209 233.833 253.613 234.299 251.948 235.031C251.881 235.098 250.882 235.697 250.216 236.097C250.549 235.831 250.882 235.564 251.215 235.231C251.881 234.632 252.547 234.032 253.28 233.366C253.613 233.033 253.946 232.7 254.279 232.367C254.612 232.034 254.945 231.635 255.278 231.302C256.01 230.436 256.743 229.57 257.476 228.638C258.008 229.237 259.873 231.302 261.072 231.835C262.271 232.434 264.002 232.767 265.268 232.101C266.533 231.435 267.066 229.903 266.267 228.638C265.135 226.973 261.472 226.906 259.74 227.372C259.607 227.372 258.408 227.905 257.742 228.172C258.142 227.639 258.608 227.106 259.007 226.507C260.206 224.842 261.338 223.177 262.537 221.445C262.87 220.912 263.27 220.446 263.603 219.913C263.803 220.113 265.934 222.644 267.332 223.243C268.531 223.843 270.263 224.176 271.528 223.51C272.794 222.844 273.326 221.312 272.527 220.046C271.395 218.381 267.732 218.315 266 218.781C265.867 218.848 264.136 219.514 263.669 219.78C264.469 218.648 265.268 217.516 266.067 216.45C267.199 214.985 268.398 213.586 269.663 212.321C269.73 212.387 271.994 215.051 273.393 215.717C274.592 216.317 276.323 216.65 277.589 215.984C278.854 215.318 279.387 213.786 278.588 212.521C277.456 210.856 273.793 210.789 272.061 211.255C271.928 211.255 270.596 211.855 269.996 212.121C269.93 212.054 269.996 212.054 269.93 212.054C271.328 210.722 272.794 209.59 274.259 208.591C275.125 207.992 275.924 207.526 276.79 207.059C277.189 207.592 278.854 209.99 280.053 210.722C281.185 211.455 282.917 211.988 284.249 211.455C285.581 210.922 286.247 209.457 285.581 208.125C284.648 206.327 280.985 205.861 279.187 206.194C279.121 206.194 278.122 206.46 277.389 206.726C277.789 206.527 278.122 206.327 278.521 206.127C279.853 205.394 281.185 204.862 282.317 204.329C282.983 204.062 283.583 203.796 284.116 203.596C284.715 203.929 287.312 205.261 288.711 205.328C290.043 205.394 291.841 205.128 292.774 204.062C293.773 203.663 293.706 201.998 292.507 201.132Z" fill="#0D9FF0"/>
<path d="M245.687 189.277C246.686 190.543 249.817 192.208 249.817 192.208C249.817 192.208 250.283 189.81 250.283 189.61C250.416 187.812 249.55 184.216 247.619 183.483C246.287 182.95 244.822 183.816 244.489 185.215C244.156 186.547 244.888 188.145 245.687 189.277Z" fill="#0D9FF0"/>
</g>
<path d="M115.684 155.578C115.751 155.578 115.151 152.78 115.085 152.647C114.419 150.649 112.021 147.186 109.69 147.186C108.025 147.186 106.826 148.718 107.026 150.316C107.226 151.981 108.691 153.38 110.023 154.179C111.622 155.111 115.684 155.578 115.684 155.578Z" fill="#0D9FF0"/>
<path d="M120.28 136.796C118.082 137.596 116.95 141.658 117.016 143.789C117.016 143.989 117.416 146.786 117.483 146.786H117.549C117.349 147.452 117.216 148.118 117.016 148.851C116.683 150.25 116.35 151.848 116.017 153.58C115.751 155.311 115.485 157.243 115.418 159.307C115.351 161.372 115.351 163.503 115.618 165.767V165.834C115.351 165.235 114.486 163.503 114.352 163.37C113.22 161.638 109.957 158.908 107.692 159.507C106.094 159.973 105.361 161.771 105.961 163.237C106.56 164.768 108.358 165.767 109.89 166.167C111.555 166.633 115.351 166.1 115.684 166.034C116.017 168.165 116.484 170.296 117.083 172.427C117.416 173.626 117.816 174.892 118.215 176.09C117.949 175.558 117.682 175.091 117.682 175.025C116.55 173.293 113.287 170.563 111.022 171.162C109.424 171.628 108.691 173.426 109.291 174.892C109.89 176.423 111.688 177.422 113.22 177.822C114.752 178.288 117.949 177.822 118.815 177.689C118.948 178.155 119.148 178.621 119.281 179.087C120.08 181.352 120.813 183.55 121.545 185.747C121.812 186.547 122.011 187.279 122.211 188.078C121.945 187.612 121.745 187.213 121.745 187.146C120.613 185.414 117.349 182.684 115.085 183.283C113.487 183.749 112.754 185.548 113.353 187.013C113.953 188.545 115.751 189.544 117.283 189.943C118.748 190.343 121.745 190.01 122.744 189.877C122.944 190.676 123.144 191.475 123.277 192.274C123.343 192.807 123.477 193.34 123.543 193.873C123.61 194.405 123.676 194.938 123.743 195.471C123.876 196.47 123.943 197.536 124.009 198.535C124.076 199.201 124.143 199.867 124.143 200.599C123.876 199.8 123.41 198.335 123.343 198.202C122.744 196.936 121.345 195.138 119.747 194.139C119.68 193.939 119.547 193.739 119.414 193.606C118.482 192.274 116.617 191.875 115.351 192.94C113.553 194.472 114.019 198.668 114.819 200.599C114.885 200.732 115.551 201.865 115.951 202.597C115.618 202.198 115.351 201.798 115.018 201.398C114.352 200.599 113.686 199.8 112.954 199.001C112.621 198.601 112.221 198.202 111.822 197.802C111.489 197.402 111.022 197.003 110.623 196.603C109.69 195.671 108.691 194.805 107.692 193.939C108.358 193.34 110.823 191.275 111.555 189.877C112.288 188.478 112.754 186.48 112.021 185.015C111.289 183.55 109.491 182.884 108.092 183.749C106.094 185.015 105.894 189.211 106.427 191.275C106.427 191.408 106.96 192.807 107.293 193.606C106.693 193.073 106.027 192.607 105.428 192.074C103.563 190.609 101.632 189.277 99.7669 187.879C99.1675 187.479 98.6347 187.013 98.0353 186.613C98.3017 186.413 101.232 184.016 102.031 182.417C102.764 181.019 103.23 179.021 102.498 177.556C101.765 176.09 99.9667 175.424 98.5681 176.29C96.5701 177.556 96.3703 181.751 96.9031 183.816C96.9697 183.949 97.7023 186.014 97.9021 186.48C96.6367 185.548 95.3713 184.549 94.1725 183.55C92.5075 182.151 90.9091 180.752 89.5105 179.221C89.6437 179.154 92.7073 176.623 93.5065 175.025C94.2391 173.626 94.7053 171.628 93.9727 170.163C93.2401 168.698 91.4419 168.032 90.0433 168.898C88.0453 170.163 87.8455 174.359 88.3783 176.423C88.4449 176.557 88.9777 178.088 89.3107 178.821C89.2441 178.888 89.2441 178.821 89.1775 178.888C87.7123 177.223 86.4469 175.491 85.3813 173.759C84.7819 172.76 84.1825 171.761 83.7163 170.829C84.3157 170.429 87.1795 168.565 88.0453 167.166C88.9111 165.834 89.6437 163.969 89.0443 162.371C88.5115 160.839 86.7799 159.973 85.2481 160.706C83.1169 161.705 82.4509 165.901 82.7839 167.965C82.7839 168.098 83.1169 169.231 83.3167 170.03C83.1169 169.564 82.8505 169.164 82.6507 168.698C81.8515 167.099 81.2521 165.568 80.7193 164.236C80.4529 163.503 80.1865 162.77 79.9201 162.104C80.3197 161.372 81.9181 158.508 82.0513 156.91C82.1845 155.378 81.9847 153.313 80.7193 152.181C79.5205 151.115 77.5891 151.115 76.5901 152.447C75.1915 154.312 76.5235 158.308 77.7223 160.04C77.8555 160.173 79.7203 162.304 79.7203 162.238V162.171C79.9201 162.837 80.1865 163.503 80.4529 164.236C80.9191 165.568 81.5185 167.099 82.2511 168.764C82.9837 170.363 83.8495 172.094 84.9151 173.893C85.9807 175.624 87.1795 177.422 88.6447 179.154L88.7113 179.221C88.1119 178.888 86.4469 177.889 86.3137 177.822C84.3823 177.023 80.1865 176.557 78.6547 178.288C77.5225 179.554 77.9221 181.418 79.2541 182.351C80.5861 183.283 82.6507 183.15 84.1159 182.617C85.7809 182.084 88.6447 179.554 88.8445 179.287C90.2431 180.886 91.8415 182.417 93.5731 183.883C94.5055 184.682 95.5045 185.548 96.5701 186.347C96.0373 186.08 95.5711 185.814 95.5045 185.747C93.5731 184.948 89.3773 184.482 87.8455 186.214C86.7133 187.479 87.1129 189.344 88.4449 190.276C89.7769 191.209 91.8415 191.075 93.3067 190.543C94.8385 190.076 97.3027 187.945 97.9021 187.346C98.3017 187.679 98.7013 187.945 99.1009 188.278C100.966 189.743 102.897 191.142 104.695 192.607C105.361 193.14 105.961 193.673 106.56 194.206C106.094 193.939 105.694 193.739 105.628 193.673C103.696 192.874 99.5005 192.407 97.9687 194.139C96.8365 195.404 97.2361 197.269 98.5681 198.202C99.9001 199.134 101.965 199.001 103.43 198.468C104.895 198.002 107.16 196.07 107.959 195.404C108.558 195.937 109.158 196.537 109.757 197.069C110.157 197.469 110.556 197.802 110.889 198.268C111.222 198.668 111.622 199.067 111.955 199.467C112.621 200.266 113.287 201.065 113.886 201.865C114.352 202.397 114.752 202.93 115.152 203.463C114.552 202.93 113.287 201.931 113.154 201.865C111.355 200.732 107.293 199.667 105.495 201.199C104.229 202.264 104.296 204.196 105.495 205.328C106.693 206.46 108.691 206.593 110.29 206.327C112.021 206.06 115.085 204.062 115.485 203.796C116.151 204.662 116.817 205.528 117.416 206.393C119.481 209.257 121.079 211.721 122.211 213.453C122.278 213.52 122.278 213.586 122.344 213.653L123.81 212.987C123.743 212.854 123.676 212.787 123.61 212.654C122.478 210.922 120.746 208.458 118.615 205.594C117.949 204.662 117.216 203.729 116.417 202.797C116.617 202.597 117.749 201.332 118.615 200.066C120.28 200.732 123.676 200.732 124.143 200.732C124.209 201.865 124.276 202.93 124.342 203.929C124.476 207.459 124.476 210.389 124.476 212.454C124.476 212.521 124.476 212.587 124.476 212.72L126.074 211.988C126.074 209.923 126.007 207.193 125.808 203.929C125.741 202.797 125.674 201.598 125.541 200.399C126.007 200.266 129.537 199.4 130.869 198.268C132.068 197.269 133.4 195.737 133.333 194.072C133.267 192.474 131.935 191.075 130.27 191.275C127.939 191.542 126.007 195.338 125.608 197.402C125.608 197.536 125.475 198.868 125.408 199.733C125.341 199.201 125.341 198.734 125.275 198.202C125.142 197.203 125.008 196.137 124.875 195.071C124.809 194.539 124.675 194.006 124.609 193.473C124.542 192.94 124.409 192.407 124.276 191.808C124.009 190.543 123.676 189.277 123.277 187.945C124.143 187.879 127.339 187.479 128.738 186.68C130.07 185.881 131.602 184.549 131.802 182.884C132.001 181.285 130.869 179.687 129.204 179.687C126.873 179.62 124.342 183.017 123.676 185.015C123.61 185.148 123.277 186.613 123.144 187.412C122.877 186.613 122.677 185.881 122.411 185.081C121.678 182.884 120.813 180.619 120.013 178.421C119.747 177.755 119.547 177.089 119.281 176.357C119.614 176.357 123.41 175.957 124.942 175.091C126.274 174.292 127.806 172.96 128.005 171.295C128.205 169.697 127.073 168.098 125.408 168.098C123.077 168.032 120.546 171.428 119.88 173.426C119.814 173.56 119.347 175.691 119.281 176.224C118.748 174.758 118.215 173.227 117.749 171.761C117.083 169.697 116.617 167.632 116.284 165.568C116.417 165.568 120.413 165.168 121.945 164.302C123.277 163.503 124.809 162.171 125.008 160.506C125.208 158.908 124.076 157.309 122.411 157.309C120.08 157.243 117.549 160.639 116.883 162.637C116.817 162.77 116.484 164.369 116.284 165.168C116.217 165.168 116.217 165.168 116.151 165.168C115.818 162.97 115.751 160.839 115.818 158.774C115.818 157.576 115.951 156.51 116.017 155.378C116.75 155.378 120.147 155.378 121.678 154.712C123.144 154.112 124.742 152.914 125.142 151.249C125.541 149.65 124.609 147.985 122.944 147.785C120.613 147.452 117.749 150.583 116.883 152.447C116.817 152.581 116.484 153.646 116.151 154.445C116.217 153.979 116.284 153.446 116.35 152.98C116.617 151.249 116.883 149.65 117.216 148.185C117.416 147.386 117.549 146.653 117.749 145.987C118.482 145.588 121.412 144.056 122.411 142.857C123.41 141.658 124.342 139.793 123.943 138.195C123.41 137.263 121.812 136.197 120.28 136.796Z" fill="#0D9FF0"/>
<path d="M77.8555 172.96C79.7203 172.894 83.3833 171.029 83.3833 171.029C83.4499 171.029 81.3853 168.964 81.2521 168.898C79.5871 167.566 75.6577 166.034 73.7263 167.299C72.3277 168.232 72.1945 170.163 73.2601 171.428C74.2591 172.627 76.2571 173.027 77.8555 172.96Z" fill="#0D9FF0"/>
<g opacity="0.5">
<path d="M115.684 155.578C115.751 155.578 115.151 152.78 115.085 152.647C114.419 150.649 112.021 147.186 109.69 147.186C108.025 147.186 106.826 148.718 107.026 150.316C107.226 151.981 108.691 153.38 110.023 154.179C111.622 155.111 115.684 155.578 115.684 155.578Z" fill="#0D9FF0"/>
<path d="M120.28 136.796C118.082 137.596 116.95 141.658 117.016 143.789C117.016 143.989 117.416 146.786 117.483 146.786H117.549C117.349 147.452 117.216 148.118 117.016 148.851C116.683 150.25 116.35 151.848 116.017 153.58C115.751 155.311 115.485 157.243 115.418 159.307C115.351 161.372 115.351 163.503 115.618 165.767V165.834C115.351 165.235 114.486 163.503 114.352 163.37C113.22 161.638 109.957 158.908 107.692 159.507C106.094 159.973 105.361 161.771 105.961 163.237C106.56 164.768 108.358 165.767 109.89 166.167C111.555 166.633 115.351 166.1 115.684 166.034C116.017 168.165 116.484 170.296 117.083 172.427C117.416 173.626 117.816 174.892 118.215 176.09C117.949 175.558 117.682 175.091 117.682 175.025C116.55 173.293 113.287 170.563 111.022 171.162C109.424 171.628 108.691 173.426 109.291 174.892C109.89 176.423 111.688 177.422 113.22 177.822C114.752 178.288 117.949 177.822 118.815 177.689C118.948 178.155 119.148 178.621 119.281 179.087C120.08 181.352 120.813 183.55 121.545 185.747C121.812 186.547 122.011 187.279 122.211 188.078C121.945 187.612 121.745 187.213 121.745 187.146C120.613 185.414 117.349 182.684 115.085 183.283C113.487 183.749 112.754 185.548 113.353 187.013C113.953 188.545 115.751 189.544 117.283 189.943C118.748 190.343 121.745 190.01 122.744 189.877C122.944 190.676 123.144 191.475 123.277 192.274C123.343 192.807 123.477 193.34 123.543 193.873C123.61 194.405 123.676 194.938 123.743 195.471C123.876 196.47 123.943 197.536 124.009 198.535C124.076 199.201 124.143 199.867 124.143 200.599C123.876 199.8 123.41 198.335 123.343 198.202C122.744 196.936 121.345 195.138 119.747 194.139C119.68 193.939 119.547 193.739 119.414 193.606C118.482 192.274 116.617 191.875 115.351 192.94C113.553 194.472 114.019 198.668 114.819 200.599C114.885 200.732 115.551 201.865 115.951 202.597C115.618 202.198 115.351 201.798 115.018 201.398C114.352 200.599 113.686 199.8 112.954 199.001C112.621 198.601 112.221 198.202 111.822 197.802C111.489 197.402 111.022 197.003 110.623 196.603C109.69 195.671 108.691 194.805 107.692 193.939C108.358 193.34 110.823 191.275 111.555 189.877C112.288 188.478 112.754 186.48 112.021 185.015C111.289 183.55 109.491 182.884 108.092 183.749C106.094 185.015 105.894 189.211 106.427 191.275C106.427 191.408 106.96 192.807 107.293 193.606C106.693 193.073 106.027 192.607 105.428 192.074C103.563 190.609 101.632 189.277 99.7669 187.879C99.1675 187.479 98.6347 187.013 98.0353 186.613C98.3017 186.413 101.232 184.016 102.031 182.417C102.764 181.019 103.23 179.021 102.498 177.556C101.765 176.09 99.9667 175.424 98.5681 176.29C96.5701 177.556 96.3703 181.751 96.9031 183.816C96.9697 183.949 97.7023 186.014 97.9021 186.48C96.6367 185.548 95.3713 184.549 94.1725 183.55C92.5075 182.151 90.9091 180.752 89.5105 179.221C89.6437 179.154 92.7073 176.623 93.5065 175.025C94.2391 173.626 94.7053 171.628 93.9727 170.163C93.2401 168.698 91.4419 168.032 90.0433 168.898C88.0453 170.163 87.8455 174.359 88.3783 176.423C88.4449 176.557 88.9777 178.088 89.3107 178.821C89.2441 178.888 89.2441 178.821 89.1775 178.888C87.7123 177.223 86.4469 175.491 85.3813 173.759C84.7819 172.76 84.1825 171.761 83.7163 170.829C84.3157 170.429 87.1795 168.565 88.0453 167.166C88.9111 165.834 89.6437 163.969 89.0443 162.371C88.5115 160.839 86.7799 159.973 85.2481 160.706C83.1169 161.705 82.4509 165.901 82.7839 167.965C82.7839 168.098 83.1169 169.231 83.3167 170.03C83.1169 169.564 82.8505 169.164 82.6507 168.698C81.8515 167.099 81.2521 165.568 80.7193 164.236C80.4529 163.503 80.1865 162.77 79.9201 162.104C80.3197 161.372 81.9181 158.508 82.0513 156.91C82.1845 155.378 81.9847 153.313 80.7193 152.181C79.5205 151.115 77.5891 151.115 76.5901 152.447C75.1915 154.312 76.5235 158.308 77.7223 160.04C77.8555 160.173 79.7203 162.304 79.7203 162.238V162.171C79.9201 162.837 80.1865 163.503 80.4529 164.236C80.9191 165.568 81.5185 167.099 82.2511 168.764C82.9837 170.363 83.8495 172.094 84.9151 173.893C85.9807 175.624 87.1795 177.422 88.6447 179.154L88.7113 179.221C88.1119 178.888 86.4469 177.889 86.3137 177.822C84.3823 177.023 80.1865 176.557 78.6547 178.288C77.5225 179.554 77.9221 181.418 79.2541 182.351C80.5861 183.283 82.6507 183.15 84.1159 182.617C85.7809 182.084 88.6447 179.554 88.8445 179.287C90.2431 180.886 91.8415 182.417 93.5731 183.883C94.5055 184.682 95.5045 185.548 96.5701 186.347C96.0373 186.08 95.5711 185.814 95.5045 185.747C93.5731 184.948 89.3773 184.482 87.8455 186.214C86.7133 187.479 87.1129 189.344 88.4449 190.276C89.7769 191.209 91.8415 191.075 93.3067 190.543C94.8385 190.076 97.3027 187.945 97.9021 187.346C98.3017 187.679 98.7013 187.945 99.1009 188.278C100.966 189.743 102.897 191.142 104.695 192.607C105.361 193.14 105.961 193.673 106.56 194.206C106.094 193.939 105.694 193.739 105.628 193.673C103.696 192.874 99.5005 192.407 97.9687 194.139C96.8365 195.404 97.2361 197.269 98.5681 198.202C99.9001 199.134 101.965 199.001 103.43 198.468C104.895 198.002 107.16 196.07 107.959 195.404C108.558 195.937 109.158 196.537 109.757 197.069C110.157 197.469 110.556 197.802 110.889 198.268C111.222 198.668 111.622 199.067 111.955 199.467C112.621 200.266 113.287 201.065 113.886 201.865C114.352 202.397 114.752 202.93 115.152 203.463C114.552 202.93 113.287 201.931 113.154 201.865C111.355 200.732 107.293 199.667 105.495 201.199C104.229 202.264 104.296 204.196 105.495 205.328C106.693 206.46 108.691 206.593 110.29 206.327C112.021 206.06 115.085 204.062 115.485 203.796C116.151 204.662 116.817 205.528 117.416 206.393C119.481 209.257 121.079 211.721 122.211 213.453C122.278 213.52 122.278 213.586 122.344 213.653L123.81 212.987C123.743 212.854 123.676 212.787 123.61 212.654C122.478 210.922 120.746 208.458 118.615 205.594C117.949 204.662 117.216 203.729 116.417 202.797C116.617 202.597 117.749 201.332 118.615 200.066C120.28 200.732 123.676 200.732 124.143 200.732C124.209 201.865 124.276 202.93 124.342 203.929C124.476 207.459 124.476 210.389 124.476 212.454C124.476 212.521 124.476 212.587 124.476 212.72L126.074 211.988C126.074 209.923 126.007 207.193 125.808 203.929C125.741 202.797 125.674 201.598 125.541 200.399C126.007 200.266 129.537 199.4 130.869 198.268C132.068 197.269 133.4 195.737 133.333 194.072C133.267 192.474 131.935 191.075 130.27 191.275C127.939 191.542 126.007 195.338 125.608 197.402C125.608 197.536 125.475 198.868 125.408 199.733C125.341 199.201 125.341 198.734 125.275 198.202C125.142 197.203 125.008 196.137 124.875 195.071C124.809 194.539 124.675 194.006 124.609 193.473C124.542 192.94 124.409 192.407 124.276 191.808C124.009 190.543 123.676 189.277 123.277 187.945C124.143 187.879 127.339 187.479 128.738 186.68C130.07 185.881 131.602 184.549 131.802 182.884C132.001 181.285 130.869 179.687 129.204 179.687C126.873 179.62 124.342 183.017 123.676 185.015C123.61 185.148 123.277 186.613 123.144 187.412C122.877 186.613 122.677 185.881 122.411 185.081C121.678 182.884 120.813 180.619 120.013 178.421C119.747 177.755 119.547 177.089 119.281 176.357C119.614 176.357 123.41 175.957 124.942 175.091C126.274 174.292 127.806 172.96 128.005 171.295C128.205 169.697 127.073 168.098 125.408 168.098C123.077 168.032 120.546 171.428 119.88 173.426C119.814 173.56 119.347 175.691 119.281 176.224C118.748 174.758 118.215 173.227 117.749 171.761C117.083 169.697 116.617 167.632 116.284 165.568C116.417 165.568 120.413 165.168 121.945 164.302C123.277 163.503 124.809 162.171 125.008 160.506C125.208 158.908 124.076 157.309 122.411 157.309C120.08 157.243 117.549 160.639 116.883 162.637C116.817 162.77 116.484 164.369 116.284 165.168C116.217 165.168 116.217 165.168 116.151 165.168C115.818 162.97 115.751 160.839 115.818 158.774C115.818 157.576 115.951 156.51 116.017 155.378C116.75 155.378 120.147 155.378 121.678 154.712C123.144 154.112 124.742 152.914 125.142 151.249C125.541 149.65 124.609 147.985 122.944 147.785C120.613 147.452 117.749 150.583 116.883 152.447C116.817 152.581 116.484 153.646 116.151 154.445C116.217 153.979 116.284 153.446 116.35 152.98C116.617 151.249 116.883 149.65 117.216 148.185C117.416 147.386 117.549 146.653 117.749 145.987C118.482 145.588 121.412 144.056 122.411 142.857C123.41 141.658 124.342 139.793 123.943 138.195C123.41 137.263 121.812 136.197 120.28 136.796Z" fill="#0D9FF0"/>
<path d="M77.8555 172.96C79.7203 172.894 83.3833 171.029 83.3833 171.029C83.4499 171.029 81.3853 168.964 81.2521 168.898C79.5871 167.566 75.6577 166.034 73.7263 167.299C72.3277 168.232 72.1945 170.163 73.2601 171.428C74.2591 172.627 76.2571 173.027 77.8555 172.96Z" fill="#0D9FF0"/>
</g>
<path d="M100.233 223.243C100.233 223.243 111.355 196.403 117.549 197.602C123.743 198.801 106.893 240.359 106.893 240.359C106.893 240.359 126.473 203.463 139.793 203.463C153.113 203.463 134.932 244.289 118.015 257.875C118.015 257.875 144.722 229.104 160.24 235.364C175.757 241.625 129.137 270.729 129.137 270.729C129.137 270.729 156.244 262.204 153.18 268.798C150.05 275.391 141.592 276.59 141.592 276.59L172.294 278.122H65.5344L89.577 275.791C89.577 275.791 64.6686 263.336 71.3286 258.275C77.9886 253.213 92.7072 264.136 92.7072 264.136C92.7072 264.136 67.3326 236.164 72.261 225.641C77.1228 215.118 98.9676 244.688 98.9676 244.688C98.9676 244.688 81.1854 206.993 84.7152 200.399C88.245 193.739 100.233 223.243 100.233 223.243Z" fill="#0D9FF0"/>
<path d="M96.7032 224.642C106.493 253.546 106.493 273.992 106.493 273.992C106.493 273.992 94.905 274.459 82.917 265.534" stroke="#263238" stroke-miterlimit="10" stroke-linecap="round" stroke-linejoin="round"/>
<path d="M101.565 240.226C101.565 240.226 103.763 229.57 109.557 214.852" stroke="#263238" stroke-miterlimit="10" stroke-linecap="round" stroke-linejoin="round"/>
<path d="M130.469 223.31L105.561 260.206C105.561 260.206 88.6445 245.954 82.8503 237.962" stroke="#263238" stroke-miterlimit="10" stroke-linecap="round" stroke-linejoin="round"/>
<path d="M106.027 269.131C106.027 269.131 132.268 256.676 142.924 249.55" stroke="#263238" stroke-miterlimit="10" stroke-linecap="round" stroke-linejoin="round"/>
<path d="M243.689 223.243C243.689 223.243 232.567 196.403 226.373 197.602C220.18 198.801 237.029 240.359 237.029 240.359C237.029 240.359 217.449 203.463 204.129 203.463C190.809 203.463 208.991 244.289 225.907 257.875C225.907 257.875 199.201 229.104 183.683 235.364C168.165 241.625 214.785 270.729 214.785 270.729C214.785 270.729 187.679 262.204 190.742 268.798C193.873 275.391 202.331 276.59 202.331 276.59L171.628 278.122H278.388L254.345 275.791C254.345 275.791 279.254 263.336 272.594 258.275C265.934 253.213 251.215 264.136 251.215 264.136C251.215 264.136 276.59 236.164 271.661 225.641C266.8 215.118 244.955 244.688 244.955 244.688C244.955 244.688 262.737 206.993 259.207 200.399C255.744 193.739 243.689 223.243 243.689 223.243Z" fill="#0D9FF0"/>
<path d="M247.286 224.642C237.496 253.546 237.496 273.992 237.496 273.992C237.496 273.992 249.084 274.459 261.072 265.534" fill="#0D9FF0"/>
<path d="M247.286 224.642C237.496 253.546 237.496 273.992 237.496 273.992C237.496 273.992 249.084 274.459 261.072 265.534" stroke="#263238" stroke-miterlimit="10" stroke-linecap="round" stroke-linejoin="round"/>
<path d="M242.357 240.226C242.357 240.226 240.16 229.57 234.365 214.852L242.357 240.226Z" fill="#EA9B2A"/>
<path d="M242.357 240.226C242.357 240.226 240.16 229.57 234.365 214.852" stroke="#263238" stroke-miterlimit="10" stroke-linecap="round" stroke-linejoin="round"/>
<path d="M213.453 223.31L238.362 260.206C238.362 260.206 255.278 245.954 261.072 237.962" fill="#0D9FF0"/>
<path d="M213.453 223.31L238.362 260.206C238.362 260.206 255.278 245.954 261.072 237.962" stroke="#263238" stroke-miterlimit="10" stroke-linecap="round" stroke-linejoin="round"/>
<path d="M237.962 269.131C237.962 269.131 211.721 256.676 201.065 249.55L237.962 269.131Z" fill="#EA9B2A"/>
<path d="M237.962 269.131C237.962 269.131 211.721 256.676 201.065 249.55" stroke="#263238" stroke-miterlimit="10" stroke-linecap="round" stroke-linejoin="round"/>
<path d="M225.774 280.319H122.944C120.479 280.319 118.481 278.321 118.481 275.857V83.25C118.481 80.7858 120.479 78.7878 122.944 78.7878H225.774C228.238 78.7878 230.236 80.7858 230.236 83.25V275.791C230.236 278.321 228.238 280.319 225.774 280.319Z" fill="#1C1C1C" stroke="#1C1C1C" stroke-miterlimit="10"/>
<path d="M182.084 90.3424H168.165C167.657 90.3424 167.266 89.9158 167.266 89.4438C167.266 88.9361 167.693 88.5452 168.165 88.5452H182.084C182.592 88.5452 182.983 88.9718 182.983 89.4438C182.983 89.9158 182.592 90.3424 182.084 90.3424Z" fill="#0D9FF0" stroke="#1C1C1C"/>
<path d="M223.177 262.271H125.474V90.9756H148.651L151.249 93.1068C152.181 93.8394 153.313 94.3056 154.512 94.3056H195.338C196.537 94.3056 197.735 93.8394 198.668 93.0402L200.999 90.9756H223.11V262.271H223.177Z" fill="white" stroke="#1C1C1C" stroke-width="0.9386" stroke-miterlimit="10" stroke-linecap="round" stroke-linejoin="round"/>
<path d="M164.023 103.773L164.13 104.13H164.502H218.548V257.175H130.437V253.213V103.63V99.6674H162.798L164.023 103.773Z" fill="#0D9FF0" stroke="#1C1C1C"/>
<path d="M133.567 252.247V112.188H215.417V252.247H133.567Z" fill="white" stroke="#1C1C1C"/>
<path d="M175.291 265.901C176.214 265.901 176.989 266.676 176.989 267.599C176.989 268.521 176.214 269.297 175.291 269.297C174.369 269.297 173.594 268.521 173.594 267.599C173.594 266.676 174.369 265.901 175.291 265.901Z" fill="#0D9FF0" stroke="#1C1C1C"/>
<path d="M168.298 246.62C183.379 246.62 195.604 229.236 195.604 207.792C195.604 186.348 183.379 168.964 168.298 168.964C153.217 168.964 140.992 186.348 140.992 207.792C140.992 229.236 153.217 246.62 168.298 246.62Z" fill="#BDE8FF"/>
<path d="M172.161 164.435C172.161 164.435 170.429 161.572 168.898 161.438C167.366 161.305 148.718 172.96 145.854 179.087C142.99 185.215 140.326 197.402 147.852 209.124C155.245 220.579 166.766 220.18 172.694 219.58C178.688 218.981 182.684 217.049 188.744 212.188C194.805 207.326 200.333 200.133 201.199 195.271C201.998 190.409 199.067 187.679 197.136 187.013C195.271 186.347 184.282 186.48 176.357 178.355C168.365 170.429 172.161 164.435 172.161 164.435Z" fill="#1C1C1C" stroke="#263238" stroke-miterlimit="10" stroke-linecap="round" stroke-linejoin="round"/>
<path d="M174.559 160.772C174.559 160.772 169.697 162.637 166.766 165.901C163.769 169.164 161.904 174.292 161.771 181.818C161.638 189.344 164.036 197.869 173.426 201.598C182.817 205.328 191.209 202.464 193.939 199.867C196.67 197.336 199.933 190.076 199.933 190.076C199.933 190.076 185.015 194.072 177.889 185.681C170.696 177.289 174.559 160.772 174.559 160.772Z" fill="white" stroke="#263238" stroke-miterlimit="10" stroke-linecap="round" stroke-linejoin="round"/>
<path d="M258.142 166.034C254.479 160.573 245.754 158.974 238.894 156.71C232.035 154.512 227.972 150.05 229.77 139.061C231.568 128.138 241.092 110.29 240.892 107.026C240.693 103.763 208.058 103.963 205.061 105.028C201.998 106.027 201.399 105.827 198.601 109.49C195.738 113.153 194.339 115.751 194.339 115.751L197.869 108.358H198.135C198.135 108.358 198.401 107.426 199.733 105.694C201.065 103.963 204.529 99.7668 204.728 92.8404C204.862 85.8474 199.933 86.5134 198.934 88.7112C198.002 90.8424 192.474 98.235 190.876 100.233C189.277 102.231 185.881 107.759 185.881 107.759L182.151 120.679C182.151 120.679 181.352 124.542 176.69 139.127C172.028 153.713 174.026 160.373 174.026 160.373C174.026 160.373 172.827 159.773 169.963 168.498C167.099 177.223 168.365 188.345 173.426 193.606C178.488 198.868 185.148 198.668 192.674 195.604C200.2 192.541 203.596 185.881 203.596 185.881C203.596 185.881 211.522 183.883 217.382 179.42C223.243 174.958 227.706 170.296 236.23 170.696C244.755 171.095 254.479 175.957 257.675 175.757C260.939 175.558 261.805 171.495 258.142 166.034Z" fill="white"/>
<mask id="mask0_212_244" style="mask-type:luminance" maskUnits="userSpaceOnUse" x="168" y="87" width="93" height="111">
<path d="M258.142 166.034C254.479 160.573 245.754 158.974 238.894 156.71C232.035 154.512 227.972 150.05 229.77 139.061C231.568 128.138 241.092 110.29 240.892 107.026C240.693 103.763 208.058 103.963 205.061 105.028C201.998 106.027 201.399 105.827 198.601 109.49C195.738 113.153 194.339 115.751 194.339 115.751L197.869 108.358H198.135C198.135 108.358 198.401 107.426 199.733 105.694C201.065 103.963 204.529 99.7668 204.728 92.8404C204.862 85.8474 199.933 86.5134 198.934 88.7112C198.002 90.8424 192.474 98.235 190.876 100.233C189.277 102.231 185.881 107.759 185.881 107.759L182.151 120.679C182.151 120.679 181.352 124.542 176.69 139.127C172.028 153.713 174.026 160.373 174.026 160.373C174.026 160.373 172.827 159.773 169.963 168.498C167.099 177.223 168.365 188.345 173.426 193.606C178.488 198.868 185.148 198.668 192.674 195.604C200.2 192.541 203.596 185.881 203.596 185.881C203.596 185.881 211.522 183.883 217.382 179.42C223.243 174.958 227.706 170.296 236.23 170.696C244.755 171.095 254.479 175.957 257.675 175.757C260.939 175.558 261.805 171.495 258.142 166.034Z" fill="white"/>
</mask>
<g mask="url(#mask0_212_244)">
<path d="M205.861 146.986C183.283 150.383 176.224 155.711 178.488 163.17C178.954 164.569 179.687 165.901 180.686 167.166C180.686 167.299 180.686 167.432 180.752 167.632C180.752 167.632 181.152 167.899 181.751 168.298C182.551 169.031 183.35 169.763 184.282 170.363C185.747 171.761 187.079 173.56 186.813 175.158C186.214 178.621 178.155 184.682 174.092 185.015C170.03 185.281 168.565 181.219 168.032 185.614C167.432 189.943 176.423 200.666 185.081 199.534C193.739 198.401 200.999 186.214 200.999 186.214C200.999 186.214 199.867 184.216 205.661 178.088C209.457 174.092 214.985 172.361 219.114 170.696C223.11 169.497 227.039 168.032 230.636 166.3C240.959 161.239 253.213 164.635 253.213 164.635C253.213 164.635 228.438 143.656 205.861 146.986Z" fill="#0D9FF0"/>
</g>
<path d="M258.142 166.034C254.479 160.573 245.754 158.974 238.894 156.71C232.035 154.512 227.972 150.05 229.77 139.061C231.568 128.138 241.092 110.29 240.892 107.026C240.693 103.763 208.058 103.963 205.061 105.028C201.998 106.027 201.399 105.827 198.601 109.49C195.738 113.153 194.339 115.751 194.339 115.751L197.869 108.358H198.135C198.135 108.358 198.401 107.426 199.733 105.694C201.065 103.963 204.529 99.7668 204.728 92.8404C204.862 85.8474 199.933 86.5134 198.934 88.7112C198.002 90.8424 192.474 98.235 190.876 100.233C189.277 102.231 185.881 107.759 185.881 107.759L182.151 120.679C182.151 120.679 181.352 124.542 176.69 139.127C172.028 153.713 174.026 160.373 174.026 160.373C174.026 160.373 172.827 159.773 169.963 168.498C167.099 177.223 168.365 188.345 173.426 193.606C178.488 198.868 185.148 198.668 192.674 195.604C200.2 192.541 203.596 185.881 203.596 185.881C203.596 185.881 211.522 183.883 217.382 179.42C223.243 174.958 227.706 170.296 236.23 170.696C244.755 171.095 254.479 175.957 257.675 175.757C260.939 175.558 261.805 171.495 258.142 166.034Z" stroke="#263238" stroke-miterlimit="10" stroke-linecap="round" stroke-linejoin="round"/>
<path d="M258.208 175.691C258.208 175.691 258.608 173.959 253.813 171.695C248.951 169.43 246.953 170.962 246.953 172.094C246.953 173.293 257.476 175.691 258.208 175.691Z" fill="white" stroke="#263238" stroke-miterlimit="10" stroke-linecap="round" stroke-linejoin="round"/>
<path d="M212.454 97.6356L200.266 107.026H216.65C216.583 107.026 216.583 95.5044 212.454 97.6356Z" fill="white" stroke="#263238" stroke-miterlimit="10" stroke-linecap="round" stroke-linejoin="round"/>
<path d="M197.136 165.368C198.468 163.836 200.466 162.171 203.463 160.906" stroke="#263238" stroke-miterlimit="10" stroke-linecap="round" stroke-linejoin="round"/>
<path d="M194.872 169.031C194.872 169.031 195.071 168.431 195.604 167.499" stroke="#263238" stroke-miterlimit="10" stroke-linecap="round" stroke-linejoin="round"/>
<path d="M190.01 181.685C189.41 181.152 188.744 180.486 188.212 179.82" stroke="#263238" stroke-miterlimit="10" stroke-linecap="round" stroke-linejoin="round"/>
<path d="M203.596 185.881C203.596 185.881 198.135 186.813 192.74 183.683" stroke="#263238" stroke-miterlimit="10" stroke-linecap="round" stroke-linejoin="round"/>
<path d="M249.217 106.227H187.745C179.287 106.227 172.361 112.82 172.361 120.879V149.85C172.361 156.91 177.556 162.77 184.482 164.169L181.219 173.759L196.27 164.502H249.217C257.675 164.502 264.602 157.909 264.602 149.85V120.879C264.602 112.82 257.742 106.227 249.217 106.227Z" fill="#0D9FF0" stroke="#1C1C1C" stroke-width="2" stroke-miterlimit="10"/>
<path d="M182.417 125.741H251.548" stroke="white" stroke-width="2.0641" stroke-miterlimit="10" stroke-linecap="round"/>
<path d="M182.417 132.867H251.548" stroke="white" stroke-width="2.0641" stroke-miterlimit="10" stroke-linecap="round"/>
<path d="M182.417 139.993H251.548" stroke="white" stroke-width="2.0641" stroke-miterlimit="10" stroke-linecap="round"/>
<path d="M182.417 147.119H251.548" stroke="white" stroke-width="2.0641" stroke-miterlimit="10" stroke-linecap="round"/>
<path d="M264.069 131.668C268.814 131.668 272.66 128.001 272.66 123.476C272.66 118.952 268.814 115.285 264.069 115.285C259.324 115.285 255.478 118.952 255.478 123.476C255.478 128.001 259.324 131.668 264.069 131.668Z" fill="#1C1C1C"/>
<path d="M263.403 129.204C263.136 128.804 263.003 128.205 263.003 127.406V120.746L261.471 121.612C261.272 121.678 261.138 121.745 260.939 121.745C260.672 121.745 260.406 121.612 260.206 121.412C260.006 121.212 259.873 120.946 259.873 120.679C259.873 120.479 259.94 120.28 260.006 120.146C260.139 120.013 260.273 119.813 260.539 119.68L263.403 118.148C263.869 117.882 264.202 117.749 264.535 117.749C265.534 117.749 266 118.481 266 120.013V127.672C266 129.137 265.467 129.87 264.402 129.87C264.002 129.803 263.669 129.604 263.403 129.204Z" fill="white"/>
<path d="M231.169 101.965C231.169 101.965 231.435 107.359 236.297 109.89C241.092 112.421 247.286 111.888 247.419 108.691C247.552 105.494 243.823 102.098 241.225 97.8354C238.694 93.573 233.033 95.9706 230.636 98.901" fill="white"/>
<path d="M231.169 101.965C231.169 101.965 231.435 107.359 236.297 109.89C241.092 112.421 247.286 111.888 247.419 108.691C247.552 105.494 243.823 102.098 241.225 97.8354C238.694 93.573 233.033 95.9706 230.636 98.901" stroke="#263238" stroke-miterlimit="10" stroke-linecap="round" stroke-linejoin="round"/>
<path d="M239.494 106.227C239.094 108.358 240.559 109.557 241.891 110.223C243.223 110.889 245.887 110.489 247.419 108.625C247.486 107.026 246.62 105.428 245.421 103.763C243.756 103.963 239.827 104.562 239.494 106.227Z" fill="white" stroke="#263238" stroke-miterlimit="10" stroke-linecap="round" stroke-linejoin="round"/>
<path d="M221.112 101.965C221.112 101.965 221.378 107.359 226.24 109.89C231.035 112.421 237.229 111.888 237.362 108.691C237.495 105.494 233.766 102.098 231.168 97.8354C228.638 93.573 222.977 95.9706 220.579 98.901" fill="white"/>
<path d="M221.112 101.965C221.112 101.965 221.378 107.359 226.24 109.89C231.035 112.421 237.229 111.888 237.362 108.691C237.495 105.494 233.766 102.098 231.168 97.8354C228.638 93.573 222.977 95.9706 220.579 98.901" stroke="#263238" stroke-miterlimit="10" stroke-linecap="round" stroke-linejoin="round"/>
<path d="M229.437 106.227C229.037 108.358 230.502 109.557 231.834 110.223C233.166 110.889 235.83 110.489 237.362 108.625C237.429 107.026 236.563 105.428 235.364 103.763C233.699 103.963 229.77 104.562 229.437 106.227Z" fill="white" stroke="#263238" stroke-miterlimit="10" stroke-linecap="round" stroke-linejoin="round"/>
<path d="M211.788 101.965C211.788 101.965 212.054 107.359 216.916 109.89C221.711 112.421 227.905 111.888 228.038 108.691C228.172 105.494 224.442 102.098 221.845 97.8354C219.314 93.573 213.653 95.9706 211.255 98.901" fill="white"/>
<path d="M211.788 101.965C211.788 101.965 212.054 107.359 216.916 109.89C221.711 112.421 227.905 111.888 228.038 108.691C228.172 105.494 224.442 102.098 221.845 97.8354C219.314 93.573 213.653 95.9706 211.255 98.901" stroke="#263238" stroke-miterlimit="10" stroke-linecap="round" stroke-linejoin="round"/>
<path d="M220.046 106.227C219.647 108.358 221.112 109.557 222.444 110.223C223.776 110.889 226.44 110.489 227.972 108.625C228.038 107.026 227.173 105.428 225.974 103.763C224.309 103.963 220.379 104.562 220.046 106.227Z" fill="white" stroke="#263238" stroke-miterlimit="10" stroke-linecap="round" stroke-linejoin="round"/>
<path d="M174.026 160.306C174.026 160.306 174.425 168.565 178.954 174.092" stroke="#263238" stroke-miterlimit="10" stroke-linecap="round" stroke-linejoin="round"/>
<path d="M160.772 194.805C160.772 196.47 159.64 197.869 158.241 197.869C156.843 197.869 155.711 196.537 155.711 194.805C155.711 193.14 156.843 191.741 158.241 191.741C159.707 191.741 160.772 193.073 160.772 194.805Z" fill="white"/>
<path d="M154.579 198.535C154.579 200.2 153.446 201.598 152.048 201.598C150.649 201.598 149.517 200.266 149.517 198.535C149.517 196.87 150.649 195.471 152.048 195.471C153.446 195.538 154.579 196.87 154.579 198.535Z" stroke="#263238" stroke-miterlimit="10" stroke-linecap="round" stroke-linejoin="round"/>
</g>
<defs>
<clipPath id="clip0_212_244">
<rect width="333" height="333" fill="white"/>
</clipPath>
</defs>
</svg>
