<?xml version="1.0" encoding="UTF-8"?>
<svg xmlns="http://www.w3.org/2000/svg" xmlns:xlink="http://www.w3.org/1999/xlink" version="1.1" width="512" height="512" x="0" y="0" viewBox="0 0 60 60" style="enable-background:new 0 0 512 512" xml:space="preserve">
  <g>
    <g fill="#231f20">
      <path d="M18.281 4.585c-2.502 0-4.55 2.036-4.55 4.539v23.437a4.555 4.555 0 0 0 4.55 4.55h23.437a4.546 4.546 0 0 0 4.54-4.55V9.124a4.544 4.544 0 0 0-4.54-4.539H34.83v9.62a1.06 1.06 0 0 1-1.06 1.06h-7.548a1.06 1.06 0 0 1-1.06-1.06v-9.62z" fill="#000000" opacity="1" data-original="#231f20"/>
      <path d="M27.284 4.585h5.427v8.559h-5.427zM55.452 41.555V19.453a4.97 4.97 0 0 0-4.963-4.963h-2.11v2.121h2.11a2.843 2.843 0 0 1 2.842 2.842v21.042H6.67V19.443a2.828 2.828 0 0 1 2.82-2.832h2.122v-2.12H9.49a4.95 4.95 0 0 0-4.942 4.952v24.921c0 1.326.508 2.567 1.453 3.51a4.979 4.979 0 0 0 3.5 1.454h12.588v3.966h-4.635c-.594 0-1.06.477-1.06 1.06 0 .584.466 1.06 1.06 1.06h25.092c.583 0 1.06-.476 1.06-1.06 0-.583-.477-1.06-1.06-1.06H37.91v-3.966H50.49a5.01 5.01 0 0 0 3.51-1.453 4.965 4.965 0 0 0 1.453-3.51z" fill="#000000" opacity="1" data-original="#231f20"/>
    </g>
  </g>
</svg>
