<?xml version="1.0" encoding="UTF-8"?>
<svg xmlns="http://www.w3.org/2000/svg" xmlns:xlink="http://www.w3.org/1999/xlink" version="1.1" width="512" height="512" x="0" y="0" viewBox="0 0 64 64" style="enable-background:new 0 0 512 512" xml:space="preserve">
  <g>
    <path d="M4 40.962c0 .36.19.69.5.871l15 8.66V32.582L4 23.621zM11.68 18.023 5 21.878l15.5 8.971 6.68-3.865zM36 21.878l-15-8.661a.992.992 0 0 0-1 0l-6.32 3.645 15.5 8.96zM21.5 50.494l15-8.661c.31-.18.5-.51.5-.871V23.62l-15.5 8.961zM52.14 33.002c1.197 4.48 7.802 3.686 7.86-1.001a4.001 4.001 0 0 0-4-4.005c-1.86 0-3.41 1.281-3.86 3.003H48V10.974c0-.55.45-1.001 1-1.001h3.14c.45 1.722 2 3.004 3.86 3.004 2.21 0 4-1.793 4-4.005-.057-4.676-6.657-5.492-7.86-1.002H49c-1.65 0-3 1.352-3 3.004V31h-5c-.55 0-1 .451-1 1.002s.45 1 1 1h5v20.026a3.01 3.01 0 0 0 3 3.004h3.14c1.192 4.47 7.8 3.697 7.86-1.001-.066-4.7-6.662-5.474-7.86-1.001H49c-.55 0-1-.451-1-1.002V33.002h4.14z" fill="#000000" opacity="1" data-original="#000000"/>
  </g>
</svg>
