<?xml version="1.0" encoding="UTF-8"?>
<svg xmlns="http://www.w3.org/2000/svg" xmlns:xlink="http://www.w3.org/1999/xlink" version="1.1" width="512" height="512" x="0" y="0" viewBox="0 0 512 512" style="enable-background:new 0 0 512 512" xml:space="preserve" class="">
  <g>
    <path fill-rule="evenodd" d="M256 222.7a110.186 110.186 0 1 0 110.178 110.18A110.309 110.309 0 0 0 256 222.7zm153.09-73.29v293.03A39.608 39.608 0 0 1 369.531 482H142.472a39.61 39.61 0 0 1-39.565-39.56V149.41h51.666v19.93a15 15 0 0 0 30 0v-19.93h142.859v19.93a15 15 0 1 0 30 0v-19.93zm-224.517-47.979a71.43 71.43 0 1 1 142.859 0v17.978H184.573zM256 0a101.545 101.545 0 0 1 101.432 101.431v17.978h66.658a15 15 0 0 1 15 15V442.44A69.639 69.639 0 0 1 369.531 512H142.472a69.644 69.644 0 0 1-69.564-69.56V134.411a15 15 0 0 1 15-15h66.665v-17.98A101.544 101.544 0 0 1 256 0zm-.79 367.761a14.988 14.988 0 0 1-21.012.2l-25.749-24.8a15 15 0 0 1 20.81-21.609l15.146 14.589 38.137-38.128a15 15 0 1 1 21.209 21.209z" fill="#000000" opacity="1" data-original="#000000"/>
  </g>
</svg>
