<?xml version="1.0" encoding="UTF-8"?>
<svg xmlns="http://www.w3.org/2000/svg" xmlns:xlink="http://www.w3.org/1999/xlink" version="1.1" width="512" height="512" x="0" y="0" viewBox="0 0 48 48" style="enable-background:new 0 0 512 512" xml:space="preserve">
  <g>
    <path d="M22.461 45a1 1 0 0 1-1-1V22.461a1.001 1.001 0 0 1 .642-.933l20-7.692a1 1 0 0 1 1.359.933v20a1 1 0 0 1-.581.908l-20 9.23a.992.992 0 0 1-.42.093Zm1-21.852v19.289l18-8.308V16.225Z" fill="#000000" opacity="1" data-original="#000000"/>
    <path d="M22.461 45a.999.999 0 0 1-.588-.191L4.95 32.5a1 1 0 0 1-.411-.809V10.154a1 1 0 0 1 1.588-.809L23.05 21.653a1 1 0 0 1 .411.808V44a1 1 0 0 1-1 1ZM6.54 31.183 21.46 42.036V22.971L6.54 12.118Z" fill="#000000" opacity="1" data-original="#000000"/>
    <path d="M22.461 23.461a.999.999 0 0 1-.588-.191L4.95 10.962a1 1 0 0 1 .272-1.757l18.462-6.154a1.006 1.006 0 0 1 .82.085l18.462 10.77a1 1 0 0 1-.145 1.796l-20 7.693a.994.994 0 0 1-.36.066ZM7.698 10.488 22.61 21.333l17.55-6.75-16.273-9.491Z" fill="#000000" opacity="1" data-original="#000000"/>
    <path d="M33.23 29.62a1 1 0 0 1-1-1v-9.862L15.636 7.426a1 1 0 1 1 1.128-1.652l17.03 11.63a.998.998 0 0 1 .437.826v10.39a1 1 0 0 1-1 1ZM13.23 31.154a.994.994 0 0 1-.6-.2l-3.076-2.308a1 1 0 1 1 1.2-1.6l3.077 2.308a1 1 0 0 1-.601 1.8Z" fill="#000000" opacity="1" data-original="#000000"/>
  </g>
</svg>
