<?xml version="1.0" standalone="no"?>
<!DOCTYPE svg PUBLIC "-//W3C//DTD SVG 20010904//EN"
 "http://www.w3.org/TR/2001/REC-SVG-20010904/DTD/svg10.dtd">
<svg version="1.0" xmlns="http://www.w3.org/2000/svg"
 width="184.000000pt" height="274.000000pt" viewBox="0 0 184.000000 274.000000"
 preserveAspectRatio="xMidYMid meet">

<g transform="translate(0.000000,274.000000) scale(0.100000,-0.100000)"
fill="#000000" stroke="none">
<path d="M0 1370 l0 -1370 366 0 c344 0 366 1 360 18 -6 16 -5 16 8 0 12 -17
51 -18 560 -18 l546 0 0 368 0 369 -40 13 c-22 7 -40 17 -40 21 0 4 -17 18
-37 30 -21 12 -40 24 -41 25 -4 2 10 48 31 108 6 15 19 37 30 47 28 26 5 32
-58 16 -38 -10 -55 -21 -73 -48 -13 -19 -26 -35 -30 -36 -4 -2 -8 20 -9 49 -1
28 -7 56 -13 62 -6 6 -50 11 -98 12 -75 0 -94 4 -136 27 -27 15 -60 27 -73 27
-22 0 -23 -3 -18 -33 14 -75 -35 -160 -78 -133 -14 8 -20 8 -27 -4 -6 -9 -10
-10 -10 -3 0 7 -7 10 -16 6 -21 -8 -44 21 -44 54 0 13 -4 23 -10 23 -5 0 -10
-5 -10 -11 0 -5 -4 -8 -8 -5 -5 3 -9 0 -9 -7 -2 -56 -29 -203 -45 -247 -11
-30 -21 -66 -21 -80 -1 -14 -5 -29 -9 -35 -3 -5 -11 -29 -17 -52 -7 -24 -17
-43 -24 -43 -10 0 -12 -17 -9 -65 3 -41 0 -65 -6 -65 -6 0 -17 -3 -26 -6 -12
-5 -16 0 -16 17 0 19 -2 21 -10 9 -12 -19 -13 -6 -1 18 9 18 35 83 46 117 5
16 8 17 15 5 11 -18 16 -13 25 29 5 22 4 31 -3 27 -6 -3 -13 2 -15 11 -4 15
-5 15 -6 -2 -1 -11 -8 -29 -16 -39 -20 -27 -19 -14 4 37 35 78 76 246 82 332
1 22 5 44 7 49 5 8 12 59 15 98 1 9 6 14 11 11 5 -4 7 3 4 15 -4 12 -3 20 2
17 7 -5 20 27 20 53 0 23 -18 12 -25 -15 -5 -21 -8 -24 -16 -12 -5 7 -8 21 -8
29 0 10 3 8 9 -5 7 -17 9 -15 9 12 2 75 27 82 89 23 22 -22 43 -40 45 -40 9 0
13 47 7 66 -5 13 -1 23 12 32 16 11 27 10 77 -7 90 -31 151 -36 209 -17 58 20
75 35 61 56 -8 13 -10 13 -18 1 -8 -12 -15 -8 -36 17 -15 18 -33 32 -40 32 -7
0 -20 12 -30 26 -15 24 -15 28 0 60 9 19 18 34 21 34 2 0 39 9 80 20 99 27
161 70 100 70 -13 0 -29 7 -36 15 -9 11 -15 13 -20 5 -5 -8 -9 -6 -13 5 -5 11
-3 14 5 9 8 -5 9 -2 5 10 -4 10 -7 20 -7 22 0 2 -9 4 -20 4 -22 0 -27 15 -7
22 6 3 34 6 62 7 58 3 111 37 121 77 9 34 -38 76 -76 70 -21 -4 -25 0 -27 21
-1 28 5 38 57 89 20 20 53 39 78 46 24 6 46 17 49 24 6 16 -42 124 -55 124
-10 0 -26 37 -37 85 -4 16 -11 35 -17 42 -23 28 -77 125 -88 159 -12 36 -13
37 -25 14 -11 -20 -13 -16 -18 40 -4 35 -7 112 -7 171 0 114 -13 145 -24 59
-6 -48 -7 -49 -26 -33 -21 18 -28 20 -108 33 -32 5 -60 16 -69 27 -8 10 -12
13 -9 6 4 -7 -1 -11 -14 -10 -11 1 -20 7 -20 14 0 9 -132 12 -615 13 l-615 0
0 -1370z m1353 1227 c13 -15 17 -30 13 -51 -9 -45 -23 -50 -98 -30 -13 4 -16
14 -13 47 2 23 4 48 4 56 1 20 72 5 94 -22z m-25 -128 c4 -34 -19 -52 -55 -45
-19 5 -29 13 -30 26 -1 11 2 20 7 20 5 0 7 7 3 16 -5 13 1 15 33 12 33 -3 39
-7 42 -29z m-73 -119 c-3 -5 -16 -10 -28 -9 -20 1 -20 2 3 9 14 4 26 8 28 9 2
1 0 -3 -3 -9z m90 -12 c-6 -16 4 -30 30 -44 15 -8 23 -29 32 -84 12 -68 11
-77 -11 -140 -15 -41 -25 -97 -27 -142 -4 -94 -25 -128 -80 -128 -44 0 -62 18
-53 55 5 19 1 35 -15 55 -11 16 -21 41 -21 55 0 15 -5 36 -12 48 l-12 22 -7
-25 -7 -25 -1 28 c-1 15 -7 27 -13 27 -9 0 -9 3 -3 8 6 4 8 20 4 37 -4 17 -7
22 -8 13 0 -10 -6 -18 -12 -18 -6 0 -8 7 -5 16 3 8 2 12 -4 9 -13 -8 -13 -35
0 -35 6 0 10 -7 10 -15 0 -14 -3 -13 -25 1 -27 18 -30 31 -16 78 34 116 45
145 53 140 4 -3 8 2 8 11 0 10 5 13 12 9 7 -5 36 -9 65 -10 53 -2 53 -2 46 24
-6 24 -4 25 10 14 13 -12 18 -10 29 7 14 23 40 29 33 9z m-247 -36 c7 -5 10
-16 6 -25 -3 -10 -1 -17 5 -17 6 0 8 -7 4 -16 -5 -13 -8 -13 -15 -2 -7 9 -8 7
-3 -8 3 -13 -1 -26 -10 -34 -8 -7 -15 -22 -15 -34 0 -39 -17 -51 -23 -17 -7
35 1 64 15 55 6 -4 6 1 -1 13 -7 14 -7 32 0 57 10 37 15 41 37 28z m197 -642
c3 -5 1 -10 -4 -10 -6 0 -11 -6 -11 -14 0 -12 -20 -26 -36 -26 -3 0 2 14 11
30 16 31 29 37 40 20z m-259 -322 c-3 -18 -5 -37 -5 -41 -1 -5 -5 -6 -9 -3 -5
3 -9 21 -10 41 -1 25 3 35 13 35 11 0 14 -9 11 -32z m84 -98 c0 -5 -5 -10 -11
-10 -5 0 -7 5 -4 10 3 6 8 10 11 10 2 0 4 -4 4 -10z m-183 -112 c-3 -8 -6 -5
-6 6 -1 11 2 17 5 13 3 -3 4 -12 1 -19z m35 -30 c-8 -8 -9 -4 -5 13 4 13 8 18
11 10 2 -7 -1 -18 -6 -23z m-27 -245 c-4 -15 -9 -43 -11 -62 -2 -18 -6 -36 -8
-39 -8 -7 1 116 9 129 12 18 18 1 10 -28z m-34 -70 c-8 -15 -10 -15 -11 -2 0
17 10 32 18 25 2 -3 -1 -13 -7 -23z m-7 -70 c-3 -27 -9 -52 -13 -56 -7 -7 -5
34 5 81 8 40 14 23 8 -25z m-38 -190 c-7 -17 -8 -17 -17 0 -12 21 -2 44 13 29
6 -6 8 -19 4 -29z m-679 -135 c-3 -7 -5 -2 -5 12 0 14 2 19 5 13 2 -7 2 -19 0
-25z"/>
<path d="M1688 2678 c-9 -13 -27 -36 -42 -53 -14 -17 -21 -32 -15 -34 15 -5
83 52 87 74 6 30 -14 38 -30 13z"/>
<path d="M1580 2491 c0 -11 4 -22 9 -25 4 -3 6 6 3 19 -5 30 -12 33 -12 6z"/>
<path d="M1606 2408 c28 -56 44 -68 88 -68 30 0 37 3 26 10 -10 6 -11 10 -2
10 6 0 12 5 12 10 0 6 -10 8 -24 4 -18 -4 -28 0 -38 15 -7 12 -21 21 -31 21
-10 0 -20 7 -23 15 -4 8 -10 15 -15 15 -5 0 -2 -15 7 -32z"/>
<path d="M882 470 c0 -14 2 -19 5 -12 2 6 2 18 0 25 -3 6 -5 1 -5 -13z"/>
</g>
</svg>
