<svg width="28" height="28" viewBox="0 0 28 28" fill="none" xmlns="http://www.w3.org/2000/svg">
<g clip-path="url(#clip0_436_8)">
<path d="M22.225 18.7367L22.1141 18.5967H22.114C20.9546 20.6447 19.0652 22.18 16.8234 22.8958C16.4848 23.0045 16.14 23.0922 15.7909 23.1583H15.785C15.335 23.2486 14.8786 23.3032 14.4199 23.3217L14.7291 23.0767C14.9819 22.8739 15.1391 22.5751 15.1628 22.2519C15.1865 21.9286 15.0746 21.6101 14.8541 21.3726C14.6335 21.1351 14.3241 21.0002 14 21C13.7345 20.9987 13.4769 21.0894 13.2708 21.2566L11.2058 22.9075L10.3541 23.59C10.0782 23.8116 9.91744 24.1461 9.91663 24.5C9.9169 24.6608 9.95062 24.8196 10.0158 24.9666C10.0937 25.138 10.2094 25.2896 10.3541 25.41L13.2708 27.7433C13.4769 27.9106 13.7345 28.0013 14 28C14.3241 27.9998 14.6335 27.8648 14.8541 27.6274C15.0746 27.3898 15.1865 27.0714 15.1628 26.7481C15.1391 26.4249 14.9819 26.1261 14.7291 25.9233L14.3966 25.655C14.7969 25.6485 15.1964 25.6154 15.5924 25.5558C15.9074 25.515 16.2225 25.4566 16.5317 25.3866H16.5316C18.1137 25.0329 19.6048 24.3539 20.9103 23.3929C22.2158 22.4318 23.3071 21.2097 24.1149 19.8042C23.3686 19.7123 22.6891 19.3284 22.225 18.7367L22.225 18.7367Z" fill="white"/>
<path d="M5.77499 9.26333L5.88591 9.40333H5.886C7.0453 7.3552 8.93474 5.82003 11.1766 5.10416C11.5151 4.99552 11.8599 4.90784 12.2091 4.84166H12.2149C12.665 4.75143 13.1214 4.69683 13.58 4.67833L13.2709 4.92333C13.018 5.12613 12.8609 5.4249 12.8372 5.74812C12.8135 6.0714 12.9253 6.38988 13.1459 6.62732C13.3665 6.86485 13.6759 6.99984 14 7.00002C14.2654 7.0013 14.5231 6.91061 14.7292 6.74336L16.7942 5.09252L17.6458 4.41002C17.9217 4.18835 18.0825 3.85385 18.0833 3.50002C18.0831 3.33924 18.0493 3.18038 17.9842 3.03335C17.9062 2.862 17.7906 2.71042 17.6458 2.59002L14.7292 0.256688C14.5231 0.0894344 14.2654 -0.00126227 14 2.10637e-05C13.6759 0.000203355 13.3665 0.135191 13.1459 0.372724C12.9253 0.610164 12.8135 0.928618 12.8372 1.25192C12.8609 1.57514 13.018 1.8739 13.2709 2.07671L13.6034 2.34504C13.2031 2.35152 12.8036 2.3846 12.4075 2.44421C12.0925 2.48504 11.7775 2.54338 11.4683 2.61338C9.88251 2.9673 8.38804 3.64816 7.08044 4.61248C5.77267 5.57671 4.68037 6.80309 3.8735 8.21328C4.62136 8.29778 5.30512 8.6754 5.77498 9.26328L5.77499 9.26333Z" fill="white"/>
<path d="M5.10416 16.8233C4.8597 16.0438 4.71662 15.236 4.67833 14.42L4.92333 14.7292C5.14399 15.0063 5.47903 15.1673 5.83333 15.1667C6.09865 15.1679 6.35632 15.0773 6.56249 14.91C6.80357 14.7164 6.95797 14.4351 6.99187 14.1278C7.02578 13.8205 6.93637 13.5123 6.74333 13.2708L5.09249 11.2058L4.40999 10.3542C4.18423 10.0865 3.85018 9.93436 3.49999 9.94C3.33776 9.93882 3.17706 9.97054 3.02749 10.0333C2.85678 10.1014 2.70619 10.2118 2.58999 10.3542L0.256661 13.2708C0.0635239 13.5123 -0.0258824 13.8205 0.00811426 14.1278C0.0420199 14.4351 0.196421 14.7164 0.437494 14.91C0.643574 15.0773 0.901244 15.168 1.16666 15.1667C1.52086 15.1674 1.856 15.0063 2.07666 14.7292L2.34499 14.3967C2.35156 14.7971 2.38464 15.1966 2.44416 15.5925C2.48499 15.9075 2.54324 16.2225 2.61333 16.5317C2.96706 18.1138 3.64601 19.6049 4.60704 20.9104C5.56817 22.216 6.79025 23.3072 8.19571 24.115C8.28777 23.3687 8.6715 22.6891 9.26312 22.225L9.40321 22.1142H9.4033C7.35508 20.9548 5.81977 19.0654 5.10413 16.8233H5.10416Z" fill="white"/>
<path d="M27.5613 13.09C27.3552 12.9227 27.0976 12.8321 26.8322 12.8333C26.478 12.8326 26.1428 12.9938 25.9222 13.2708L25.6538 13.6033C25.6473 13.2029 25.6142 12.8034 25.5547 12.4075C25.5138 12.0925 25.4556 11.7775 25.3855 11.4683C25.0318 9.88631 24.3528 8.3951 23.3918 7.0896C22.4307 5.78403 21.2086 4.6928 19.8031 3.885C19.7111 4.6313 19.3273 5.31088 18.7357 5.775L18.5956 5.88584H18.5955C20.6437 7.04522 22.1791 8.93457 22.8947 11.1767C23.1392 11.9562 23.2822 12.764 23.3205 13.58L23.0756 13.2708H23.0755C22.8549 12.9938 22.5197 12.8326 22.1655 12.8333C21.9001 12.8321 21.6424 12.9227 21.4364 13.09C21.1953 13.2836 21.0409 13.5649 21.007 13.8722C20.973 14.1795 21.0624 14.4877 21.2555 14.7292L22.9064 16.7942L23.5889 17.6458C23.8104 17.9216 24.145 18.0825 24.4989 18.0833C24.6596 18.0832 24.8186 18.0493 24.9655 17.9842C25.1369 17.9062 25.2885 17.7906 25.4089 17.6458L27.7422 14.7292C27.9352 14.4877 28.0246 14.1795 27.9907 13.8722C27.9568 13.5649 27.8024 13.2836 27.5614 13.09H27.5613Z" fill="white"/>
</g>
<defs>
<clipPath id="clip0_436_8">
<rect width="28" height="28" fill="white"/>
</clipPath>
</defs>
</svg>
