<svg width="264" height="265" viewBox="0 0 264 265" fill="none" xmlns="http://www.w3.org/2000/svg">
<path d="M160.037 23.4789C153.965 19.0799 145.992 18.3379 139.234 21.4649C106.234 36.6759 -2.53441 90.3649 20.3808 126.299C47.3088 168.487 142.877 235.055 177.936 231.875C212.995 228.695 252.701 169.706 243.778 130.857C236.28 98.2089 185.856 42.1349 160.037 23.4789Z" fill="#BDE7FF"/>
<path opacity="0.7" d="M160.037 23.4789C153.965 19.0799 145.992 18.3379 139.234 21.4649C106.234 36.6759 -2.53441 90.3649 20.3808 126.299C47.3088 168.487 142.877 235.055 177.936 231.875C212.995 228.695 252.701 169.706 243.778 130.857C236.28 98.2089 185.856 42.1349 160.037 23.4789Z" fill="#BDE7FF"/>
<path d="M190.555 133.507C191.347 135.468 194.832 138.595 194.832 138.648C194.885 138.701 196.205 135.733 196.31 135.521C197.05 133.242 197.155 128.419 194.99 126.829C193.459 125.716 191.347 126.352 190.397 127.942C189.446 129.585 189.869 131.864 190.555 133.507Z" fill="#1C1C1C"/>
<path d="M245.995 164.565C244.253 162.498 239.501 162.975 237.283 163.876C237.072 163.929 234.274 165.519 234.274 165.572L234.326 165.625C233.587 165.678 232.742 165.784 231.898 165.89C230.261 166.102 228.413 166.367 226.459 166.738C224.453 167.162 222.341 167.639 220.123 168.328C217.906 169.07 215.582 169.918 213.365 171.137L213.312 171.19C213.84 170.607 215.371 169.017 215.424 168.858C216.85 166.95 218.434 162.392 216.85 160.166C215.741 158.576 213.523 158.576 212.15 159.795C210.725 161.067 210.408 163.346 210.566 165.148C210.725 167.162 212.837 170.978 212.995 171.296C210.883 172.462 208.771 173.84 206.712 175.324C205.55 176.172 204.389 177.073 203.227 178.027C203.702 177.55 204.072 177.073 204.125 177.02C205.55 175.112 207.134 170.554 205.55 168.328C204.442 166.738 202.224 166.738 200.851 167.957C199.426 169.229 199.109 171.508 199.267 173.31C199.426 175.112 201.168 178.398 201.59 179.299C201.168 179.67 200.693 179.988 200.27 180.359C198.211 182.108 196.099 183.804 194.04 185.447C193.301 186.03 192.562 186.56 191.822 187.09C192.245 186.666 192.562 186.295 192.614 186.189C194.04 184.281 195.624 179.723 194.04 177.497C192.931 175.907 190.714 175.907 189.341 177.126C187.915 178.398 187.598 180.677 187.757 182.479C187.915 184.228 189.446 187.249 190.027 188.309C189.235 188.839 188.496 189.369 187.704 189.846C187.176 190.164 186.648 190.482 186.12 190.8C185.592 191.118 185.011 191.383 184.483 191.701C183.427 192.231 182.371 192.761 181.315 193.238C180.576 193.556 179.89 193.874 179.203 194.192C179.942 193.609 181.368 192.496 181.474 192.39C182.582 191.277 183.955 188.998 184.43 186.931C184.589 186.772 184.747 186.613 184.906 186.401C185.962 184.864 185.645 182.691 183.955 181.79C181.632 180.518 177.302 182.638 175.56 184.281C175.454 184.387 174.451 185.553 173.87 186.295C174.187 185.818 174.451 185.341 174.768 184.811C175.349 183.804 175.93 182.744 176.51 181.631C176.774 181.101 177.038 180.518 177.355 179.988C177.619 179.458 177.883 178.822 178.147 178.239C178.728 176.861 179.256 175.483 179.784 173.999C180.682 174.529 183.85 176.331 185.645 176.49C187.44 176.702 189.71 176.437 191.03 175.059C192.298 173.734 192.35 171.508 190.819 170.342C188.707 168.699 184.114 170.183 182.16 171.561C182.054 171.667 180.734 172.78 180.048 173.416C180.365 172.568 180.629 171.667 180.946 170.819C181.738 168.275 182.477 165.625 183.216 163.028C183.427 162.233 183.691 161.438 183.902 160.643C184.219 160.855 187.968 163.028 189.922 163.293C191.717 163.505 193.987 163.24 195.307 161.862C196.574 160.537 196.627 158.311 195.096 157.145C192.984 155.502 188.39 156.986 186.437 158.364C186.278 158.47 184.43 160.113 183.955 160.537C184.483 158.788 184.958 157.039 185.592 155.343C186.384 153.011 187.334 150.785 188.338 148.665C188.496 148.771 192.35 151.103 194.41 151.315C196.205 151.527 198.475 151.262 199.795 149.884C201.062 148.559 201.115 146.333 199.584 145.167C197.472 143.524 192.878 145.008 190.925 146.386C190.766 146.492 188.76 148.241 188.443 148.612C188.496 148.506 188.549 148.347 188.602 148.241C189.763 146.015 191.136 144.001 192.562 142.146C193.354 141.086 194.198 140.132 195.043 139.178C195.73 139.708 198.845 141.987 200.693 142.358C202.435 142.729 204.758 142.729 206.184 141.51C207.61 140.291 207.874 138.118 206.448 136.793C204.494 134.938 199.795 135.892 197.683 137.005C197.578 137.058 196.469 137.8 195.677 138.383C196.046 137.959 196.469 137.535 196.838 137.164C198.211 135.68 199.584 134.461 200.851 133.348C201.538 132.712 202.171 132.182 202.805 131.652C203.755 131.811 207.451 132.341 209.246 131.864C210.989 131.387 213.048 130.327 213.734 128.578C214.421 126.882 213.682 124.815 211.834 124.285C209.246 123.543 205.498 126.564 204.178 128.525C204.072 128.684 202.541 131.599 202.594 131.599H202.646C202.066 132.076 201.432 132.606 200.746 133.189C199.478 134.249 198.106 135.468 196.68 136.952C195.254 138.383 193.723 139.973 192.245 141.828C190.766 143.683 189.341 145.644 188.126 147.923C188.126 147.923 188.126 147.976 188.074 148.029C188.232 147.234 188.602 145.114 188.602 144.902C188.707 142.517 187.546 137.8 185.064 136.846C183.269 136.157 181.421 137.323 180.946 139.125C180.47 140.98 181.474 143.047 182.582 144.478C183.797 146.068 187.704 148.082 187.968 148.241C186.806 150.414 185.856 152.693 184.958 155.078C184.43 156.456 184.008 157.834 183.533 159.212C183.638 158.523 183.744 157.94 183.744 157.834C183.85 155.449 182.688 150.732 180.206 149.778C178.411 149.089 176.563 150.255 176.088 152.057C175.613 153.912 176.616 155.979 177.725 157.41C178.834 158.841 182.107 160.643 182.952 161.067C182.794 161.597 182.635 162.127 182.424 162.71C181.632 165.307 180.84 167.904 179.995 170.395C179.678 171.296 179.362 172.144 179.045 172.992C179.15 172.409 179.203 171.879 179.203 171.826C179.309 169.441 178.147 164.724 175.666 163.77C173.87 163.081 172.022 164.247 171.547 166.049C171.072 167.904 172.075 169.971 173.184 171.402C174.24 172.78 177.25 174.423 178.253 175.006C177.883 175.907 177.566 176.755 177.144 177.603C176.88 178.186 176.669 178.716 176.352 179.299C176.035 179.829 175.771 180.412 175.507 180.942C174.926 181.949 174.293 183.009 173.712 184.016C173.29 184.705 172.867 185.341 172.498 185.977C172.814 185.076 173.342 183.38 173.395 183.221C173.87 180.889 173.395 176.066 171.072 174.741C169.382 173.787 167.376 174.688 166.637 176.384C165.898 178.133 166.584 180.359 167.429 181.896C168.379 183.592 171.758 186.136 172.181 186.401C171.494 187.461 170.861 188.521 170.174 189.475C169.858 189.952 169.541 190.429 169.224 190.906L170.386 192.125C170.755 191.542 171.125 190.959 171.547 190.376C172.234 189.263 172.973 188.097 173.659 186.878C173.976 186.984 175.771 187.726 177.514 188.15C177.461 190.164 178.834 193.874 178.992 194.351C177.83 194.881 176.722 195.358 175.613 195.835C175.296 195.941 174.821 196.1 174.24 196.206L175.454 197.478C175.771 197.425 176.035 197.319 176.194 197.266C177.355 196.736 178.622 196.153 179.89 195.57C180.206 195.994 182.582 199.439 184.272 200.446C185.803 201.347 188.021 202.089 189.763 201.4C191.453 200.711 192.403 198.75 191.506 197.001C190.238 194.616 185.486 194.033 183.11 194.457C182.952 194.457 181.474 194.934 180.576 195.199C181.104 194.934 181.579 194.722 182.107 194.457C183.163 193.927 184.219 193.397 185.328 192.814C185.856 192.496 186.384 192.231 186.912 191.913C187.44 191.595 187.968 191.224 188.549 190.906C189.816 190.111 191.03 189.21 192.245 188.309C192.72 189.21 194.357 192.496 195.73 193.662C197.102 194.828 199.162 195.888 201.01 195.464C202.805 195.04 204.019 193.238 203.386 191.383C202.541 188.839 197.894 187.514 195.518 187.567C195.36 187.567 193.67 187.779 192.72 187.938C193.459 187.355 194.198 186.825 194.885 186.242C196.944 184.546 199.003 182.744 201.062 180.995C201.696 180.465 202.33 179.935 202.963 179.405C203.122 179.723 205.022 183.645 206.554 184.917C207.926 186.083 209.986 187.143 211.834 186.719C213.629 186.295 214.843 184.493 214.21 182.638C213.365 180.094 208.718 178.769 206.342 178.822C206.184 178.822 203.702 179.14 203.069 179.299C204.442 178.133 205.867 176.967 207.24 175.854C209.194 174.37 211.2 172.992 213.206 171.826C213.259 171.985 215.213 176.066 216.797 177.391C218.17 178.557 220.229 179.617 222.077 179.193C223.872 178.769 225.086 176.967 224.453 175.112C223.608 172.568 218.962 171.243 216.586 171.296C216.374 171.296 213.734 171.667 213.259 171.773C213.365 171.72 213.523 171.614 213.629 171.561C215.794 170.342 218.117 169.388 220.282 168.646C221.549 168.222 222.763 167.851 223.978 167.533C224.242 168.328 225.614 171.985 226.882 173.31C228.096 174.582 230.05 175.907 231.95 175.642C233.798 175.43 235.224 173.734 234.802 171.879C234.221 169.282 229.733 167.427 227.357 167.215C227.251 167.215 225.878 167.215 224.928 167.268C225.456 167.109 226.037 167.003 226.565 166.844C228.518 166.42 230.366 166.102 232.003 165.89C232.954 165.784 233.746 165.678 234.538 165.572C235.224 166.208 238.022 168.752 239.765 169.335C241.454 169.918 243.778 170.183 245.309 169.07C246.787 168.169 247.262 165.996 245.995 164.565Z" fill="#1C1C1C"/>
<path d="M224.136 167.162C224.136 167.215 226.882 165.466 227.093 165.36C228.941 163.876 231.686 159.901 230.789 157.41C230.102 155.608 228.043 154.972 226.354 155.82C224.664 156.668 223.766 158.788 223.397 160.537C223.027 162.604 224.136 167.162 224.136 167.162Z" fill="#1C1C1C"/>
<path d="M70.6992 133.507C69.9072 135.468 66.4224 138.595 66.4224 138.648C66.3696 138.701 65.0496 135.733 64.944 135.521C64.2048 133.242 64.0992 128.419 66.264 126.829C67.7952 125.716 69.9072 126.352 70.8576 127.942C71.808 129.585 71.3856 131.864 70.6992 133.507Z" fill="#1C1C1C"/>
<path d="M15.2592 164.565C17.0016 162.498 21.7536 162.975 23.9712 163.876C24.1824 163.929 26.9808 165.519 26.9808 165.572L26.928 165.625C27.6672 165.678 28.512 165.784 29.3568 165.89C30.9936 166.102 32.8416 166.367 34.7952 166.738C36.8016 167.162 38.9136 167.639 41.1312 168.328C43.3488 169.07 45.672 169.918 47.8896 171.137L47.9424 171.19C47.4144 170.607 45.8832 169.017 45.8304 168.858C44.4048 166.95 42.8208 162.392 44.4048 160.166C45.5136 158.576 47.7312 158.576 49.104 159.795C50.5296 161.067 50.8464 163.346 50.688 165.148C50.5296 167.162 48.4176 170.978 48.2592 171.296C50.3712 172.462 52.4832 173.84 54.5424 175.324C55.704 176.172 56.8656 177.073 58.0272 178.027C57.552 177.55 57.1824 177.073 57.1296 177.02C55.704 175.112 54.12 170.554 55.704 168.328C56.8128 166.738 59.0304 166.738 60.4032 167.957C61.8288 169.229 62.1456 171.508 61.9872 173.31C61.8288 175.112 60.0864 178.398 59.664 179.299C60.0864 179.67 60.5616 179.988 60.984 180.359C63.0432 182.108 65.1552 183.804 67.2144 185.447C67.9536 186.03 68.6928 186.56 69.432 187.09C69.0096 186.666 68.6928 186.295 68.64 186.189C67.2144 184.281 65.6304 179.723 67.2144 177.497C68.3232 175.907 70.5408 175.907 71.9136 177.126C73.3392 178.398 73.656 180.677 73.4976 182.479C73.3392 184.228 71.808 187.249 71.2272 188.309C72.0192 188.839 72.7584 189.369 73.5504 189.846C74.0784 190.164 74.6064 190.482 75.1344 190.8C75.6624 191.118 76.2432 191.383 76.7712 191.701C77.8272 192.231 78.8832 192.761 79.9392 193.238C80.6784 193.556 81.3648 193.874 82.0512 194.192C81.312 193.609 79.8864 192.496 79.7808 192.39C78.672 191.277 77.2992 188.998 76.824 186.931C76.6656 186.772 76.5072 186.613 76.3488 186.401C75.2928 184.864 75.6096 182.691 77.2992 181.79C79.6224 180.518 83.952 182.638 85.6944 184.281C85.8 184.387 86.8032 185.553 87.384 186.295C87.0672 185.818 86.8032 185.341 86.4864 184.811C85.9056 183.804 85.3248 182.744 84.744 181.631C84.48 181.101 84.216 180.518 83.8992 179.988C83.6352 179.458 83.3712 178.822 83.1072 178.239C82.5264 176.861 81.9984 175.483 81.4704 173.999C80.5728 174.529 77.4048 176.331 75.6096 176.49C73.8144 176.702 71.544 176.437 70.224 175.059C68.9568 173.734 68.904 171.508 70.4352 170.342C72.5472 168.699 77.1408 170.183 79.0944 171.561C79.2 171.667 80.52 172.78 81.2064 173.416C80.8896 172.568 80.6256 171.667 80.3088 170.819C79.5168 168.275 78.7776 165.625 78.0384 163.028C77.8272 162.233 77.5632 161.438 77.352 160.643C77.0352 160.855 73.2864 163.028 71.3328 163.293C69.5376 163.505 67.2672 163.24 65.9472 161.862C64.68 160.537 64.6272 158.311 66.1584 157.145C68.2704 155.502 72.864 156.986 74.8176 158.364C74.976 158.47 76.824 160.113 77.2992 160.537C76.7712 158.788 76.296 157.039 75.6624 155.343C74.8704 153.011 73.92 150.785 72.9168 148.665C72.7584 148.771 68.904 151.103 66.8448 151.315C65.0496 151.527 62.7792 151.262 61.4592 149.884C60.192 148.559 60.1392 146.333 61.6704 145.167C63.7824 143.524 68.376 145.008 70.3296 146.386C70.488 146.492 72.4944 148.241 72.8112 148.612C72.7584 148.506 72.7056 148.347 72.6528 148.241C71.4912 146.015 70.1184 144.001 68.6928 142.146C67.9008 141.086 67.056 140.132 66.2112 139.178C65.5248 139.708 62.4096 141.987 60.5616 142.358C58.8192 142.729 56.496 142.729 55.0704 141.51C53.6448 140.291 53.3808 138.118 54.8064 136.793C56.76 134.938 61.4592 135.892 63.5712 137.005C63.6768 137.058 64.7856 137.8 65.5776 138.383C65.208 137.959 64.7856 137.535 64.416 137.164C63.0432 135.68 61.6704 134.461 60.4032 133.348C59.7168 132.712 59.0832 132.182 58.4496 131.652C57.4992 131.811 53.8032 132.341 52.008 131.864C50.2656 131.387 48.2064 130.327 47.52 128.578C46.8336 126.882 47.5728 124.815 49.4208 124.285C52.008 123.543 55.7568 126.564 57.0768 128.525C57.1824 128.684 58.7136 131.599 58.6608 131.599H58.608C59.1888 132.076 59.8224 132.606 60.5088 133.189C61.776 134.249 63.1488 135.468 64.5744 136.952C66 138.383 67.5312 139.973 69.0096 141.828C70.488 143.683 71.9136 145.644 73.128 147.923C73.128 147.923 73.128 147.976 73.1808 148.029C73.0224 147.234 72.6528 145.114 72.6528 144.902C72.5472 142.517 73.7088 137.8 76.1904 136.846C77.9856 136.157 79.8336 137.323 80.3088 139.125C80.784 140.98 79.7808 143.047 78.672 144.478C77.4576 146.068 73.5504 148.082 73.2864 148.241C74.448 150.414 75.3984 152.693 76.296 155.078C76.824 156.456 77.2464 157.834 77.7216 159.212C77.616 158.523 77.5104 157.94 77.5104 157.834C77.4048 155.449 78.5664 150.732 81.048 149.778C82.8432 149.089 84.6912 150.255 85.1664 152.057C85.6416 153.912 84.6384 155.979 83.5296 157.41C82.4208 158.841 79.1472 160.643 78.3024 161.067C78.4608 161.597 78.6192 162.127 78.8304 162.71C79.6224 165.307 80.4144 167.904 81.2592 170.395C81.576 171.296 81.8928 172.144 82.2096 172.992C82.104 172.409 82.0512 171.879 82.0512 171.826C81.9456 169.441 83.1072 164.724 85.5888 163.77C87.384 163.081 89.232 164.247 89.7072 166.049C90.1824 167.904 89.1792 169.971 88.0704 171.402C87.0144 172.78 84.0048 174.423 83.0016 175.006C83.3712 175.907 83.688 176.755 84.1104 177.603C84.3744 178.186 84.5856 178.716 84.9024 179.299C85.2192 179.829 85.4832 180.412 85.7472 180.942C86.328 181.949 86.9616 183.009 87.5424 184.016C87.9648 184.705 88.3872 185.341 88.7568 185.977C88.44 185.076 87.912 183.38 87.8592 183.221C87.384 180.889 87.8592 176.066 90.1824 174.741C91.872 173.787 93.8784 174.688 94.6176 176.384C95.3568 178.133 94.6704 180.359 93.8256 181.896C92.8752 183.592 89.496 186.136 89.0736 186.401C89.76 187.461 90.3936 188.521 91.08 189.475C91.3968 189.952 91.7136 190.429 92.0304 190.906L90.8688 192.125C90.4992 191.542 90.1296 190.959 89.7072 190.376C89.0208 189.263 88.2816 188.097 87.5952 186.878C87.2784 186.984 85.4832 187.726 83.7408 188.15C83.7936 190.164 82.4208 193.874 82.2624 194.351C83.424 194.881 84.5328 195.358 85.6416 195.835C85.9584 195.941 86.4336 196.1 87.0144 196.206L85.8 197.478C85.4832 197.425 85.2192 197.319 85.0608 197.266C83.8992 196.736 82.632 196.153 81.3648 195.57C81.048 195.994 78.672 199.439 76.9824 200.446C75.4512 201.347 73.2336 202.089 71.4912 201.4C69.8016 200.711 68.8512 198.75 69.7488 197.001C71.016 194.616 75.768 194.033 78.144 194.457C78.3024 194.457 79.7808 194.934 80.6784 195.199C80.1504 194.934 79.6752 194.722 79.1472 194.457C78.0912 193.927 77.0352 193.397 75.9264 192.814C75.3984 192.496 74.8704 192.231 74.3424 191.913C73.8144 191.595 73.2864 191.224 72.7056 190.906C71.4384 190.111 70.224 189.21 69.0096 188.309C68.5344 189.21 66.8976 192.496 65.5248 193.662C64.152 194.828 62.0928 195.888 60.2448 195.464C58.4496 195.04 57.2352 193.238 57.8688 191.383C58.7136 188.839 63.36 187.514 65.7888 187.567C65.9472 187.567 67.6368 187.779 68.5872 187.938C67.848 187.355 67.1088 186.825 66.4224 186.242C64.3632 184.546 62.304 182.744 60.2448 180.995C59.6112 180.465 58.9776 179.935 58.344 179.405C58.1856 179.723 56.2848 183.645 54.7536 184.917C53.3808 186.083 51.3216 187.143 49.4736 186.719C47.6784 186.295 46.464 184.493 47.0976 182.638C47.9424 180.094 52.5888 178.769 54.9648 178.822C55.1232 178.822 57.6048 179.14 58.2384 179.299C56.8656 178.133 55.44 176.967 54.0672 175.854C52.1136 174.37 50.1072 172.992 48.1008 171.826C48.048 171.985 46.0944 176.066 44.5104 177.391C43.1376 178.557 41.0784 179.617 39.2304 179.193C37.4352 178.769 36.2208 176.967 36.8544 175.112C37.6992 172.568 42.3456 171.243 44.7216 171.296C44.9328 171.296 47.5728 171.667 48.048 171.773C47.9424 171.72 47.784 171.614 47.6784 171.561C45.5136 170.342 43.1904 169.388 41.0256 168.646C39.7584 168.222 38.544 167.851 37.3296 167.533C37.0656 168.328 35.6928 171.985 34.4256 173.31C33.2112 174.582 31.2576 175.907 29.3568 175.642C27.5088 175.43 26.0832 173.734 26.5056 171.879C27.0864 169.282 31.5744 167.427 33.9504 167.215C34.056 167.215 35.4288 167.215 36.3792 167.268C35.8512 167.109 35.2704 167.003 34.7424 166.844C32.7888 166.42 30.9408 166.102 29.304 165.89C28.3536 165.784 27.5616 165.678 26.7696 165.572C26.0832 166.208 23.2848 168.752 21.5424 169.335C19.8528 169.918 17.5296 170.183 15.9984 169.07C14.52 168.169 14.0448 165.996 15.2592 164.565Z" fill="#1C1C1C"/>
<path d="M37.1184 167.162C37.1184 167.215 34.3727 165.466 34.1615 165.36C32.3135 163.876 29.5679 159.901 30.4655 157.41C31.1519 155.608 33.2111 154.972 34.9007 155.82C36.5903 156.668 37.4879 158.788 37.8575 160.537C38.2799 162.604 37.1184 167.162 37.1184 167.162Z" fill="#1C1C1C"/>
<path d="M131.789 243.747C154.359 243.747 172.656 241.516 172.656 238.765C172.656 236.013 154.359 233.783 131.789 233.783C109.219 233.783 90.9216 236.013 90.9216 238.765C90.9216 241.516 109.219 243.747 131.789 243.747Z" fill="#1C1C1C"/>
<path d="M234.326 211.841H207.451V221.381H234.326V211.841Z" stroke="#1C1C1C" stroke-miterlimit="10" stroke-linecap="round" stroke-linejoin="round"/>
<path d="M233.482 221.381H208.296V236.751H233.482V221.381Z" stroke="#1C1C1C" stroke-miterlimit="10" stroke-linecap="round" stroke-linejoin="round"/>
<path d="M223.766 211.894H218.011V236.857H223.766V211.894Z" stroke="#1C1C1C" stroke-miterlimit="10" stroke-linecap="round" stroke-linejoin="round"/>
<path d="M220.704 211.841C220.704 211.841 217.8 205.746 214.421 206.435C211.042 207.124 212.731 212.159 220.704 211.841Z" stroke="#1C1C1C" stroke-miterlimit="10" stroke-linecap="round" stroke-linejoin="round"/>
<path d="M220.968 211.841C220.968 211.841 223.872 205.746 227.251 206.435C230.63 207.124 228.941 212.159 220.968 211.841Z" stroke="#1C1C1C" stroke-miterlimit="10" stroke-linecap="round" stroke-linejoin="round"/>
<path d="M228.466 198.962C228.677 200.34 227.99 201.877 225.878 202.778C223.766 203.679 222.71 201.188 220.493 203.467C218.275 205.746 220.915 211.841 220.915 211.841C220.915 211.841 228.149 210.834 228.466 213.643C228.782 216.452 226.459 217.724 227.146 219.42C227.832 221.116 230.05 219.897 230.208 218.042" stroke="#1C1C1C" stroke-miterlimit="10" stroke-linecap="round" stroke-linejoin="round"/>
<path d="M225.878 48.4421C233.46 48.4421 239.606 42.2726 239.606 34.6621C239.606 27.0516 233.46 20.8821 225.878 20.8821C218.297 20.8821 212.15 27.0516 212.15 34.6621C212.15 42.2726 218.297 48.4421 225.878 48.4421Z" stroke="#1C1C1C" stroke-miterlimit="10" stroke-linecap="round" stroke-linejoin="round"/>
<path d="M226.484 43.9902V43.5072L226.001 43.4905C224.582 43.4413 223.571 42.9566 222.943 42.1944C222.347 41.4223 221.961 40.3475 221.859 38.9349L223.737 38.551C223.782 39.0395 223.846 39.5194 223.974 39.9464C224.142 40.5096 224.384 41.0251 224.732 41.3751C225.11 41.7542 225.671 41.9462 226.248 41.9462C226.89 41.9462 227.415 41.7454 227.794 41.2886L227.811 41.268L227.826 41.2458C228.085 40.8565 228.279 40.3376 228.279 39.7502C228.279 38.8875 228.107 38.1415 227.661 37.5032C227.259 36.926 226.75 36.4187 226.163 35.8828L226.163 35.8828L226.157 35.8781L223.887 33.8641L223.885 33.8625C223.478 33.5047 223.136 33.1593 222.847 32.7729C222.546 32.3705 222.321 32.0008 222.186 31.551C222.04 31.0618 221.943 30.5271 221.943 29.8922C221.943 28.6038 222.286 27.6958 222.947 27.0771C223.643 26.4245 224.534 26.037 225.76 25.9386L226.17 25.9056L226.635 25.9389C227.33 25.9888 227.885 26.1364 228.275 26.3539C228.667 26.5725 229.026 26.93 229.249 27.2841C229.515 27.7643 229.734 28.1701 229.822 28.6563L229.825 28.6775L229.831 28.6983C229.938 29.0904 229.993 29.4856 230.036 29.9013L228.226 30.2099C228.19 29.8505 228.154 29.5251 228.118 29.2018L228.118 29.2012L228.115 29.1744L228.109 29.1481C227.989 28.6067 227.801 28.2166 227.537 27.8846L227.519 27.8629L227.5 27.8433C227.114 27.456 226.652 27.3252 226.09 27.3252C225.448 27.3252 224.923 27.526 224.543 27.9828C224.185 28.4143 224.058 28.9097 224.058 29.4682C224.058 30.182 224.236 30.8204 224.573 31.2951C224.858 31.6954 225.253 32.1482 225.706 32.546C225.706 32.5463 225.707 32.5466 225.707 32.5469L227.974 34.5583C227.975 34.5584 227.975 34.5586 227.975 34.5588C228.421 34.9568 228.824 35.41 229.236 35.9278C229.63 36.4224 229.923 36.9122 230.169 37.5039C230.4 38.0622 230.5 38.6817 230.5 39.4322C230.5 40.1619 230.355 40.8256 230.077 41.3823C229.801 41.9373 229.386 42.4019 228.926 42.7268C228.408 43.0558 227.805 43.2859 227.112 43.3323L226.646 43.3635V43.8312V45.2392H226.484V43.9902Z" fill="#263238" stroke="#1C1C1C"/>
<path d="M50.9824 34.3865C53.4245 33.8146 54.9423 31.3637 54.3725 28.9123C53.8027 26.461 51.3611 24.9374 48.919 25.5093C46.4769 26.0813 44.9591 28.5321 45.5289 30.9835C46.0986 33.4349 48.5403 34.9584 50.9824 34.3865Z" stroke="#1C1C1C" stroke-miterlimit="10" stroke-linecap="round" stroke-linejoin="round"/>
<path d="M56.4431 43.036C56.3375 38.849 53.4863 35.51 49.9487 35.51C46.4111 35.51 43.5599 38.849 43.4543 43.036" stroke="#1C1C1C" stroke-miterlimit="10" stroke-linecap="round" stroke-linejoin="round"/>
<path d="M60.403 32.966C62.5026 32.966 64.2046 31.2575 64.2046 29.15C64.2046 27.0425 62.5026 25.334 60.403 25.334C58.3035 25.334 56.6014 27.0425 56.6014 29.15C56.6014 31.2575 58.3035 32.966 60.403 32.966Z" stroke="#1C1C1C" stroke-miterlimit="10" stroke-linecap="round" stroke-linejoin="round"/>
<path d="M65.7887 40.068C65.6831 36.57 63.3071 33.814 60.4031 33.814C58.5023 33.814 56.8127 34.98 55.8623 36.782" stroke="#1C1C1C" stroke-miterlimit="10" stroke-linecap="round" stroke-linejoin="round"/>
<path d="M39.6528 32.966C41.7524 32.966 43.4544 31.2575 43.4544 29.15C43.4544 27.0425 41.7524 25.334 39.6528 25.334C37.5532 25.334 35.8512 27.0425 35.8512 29.15C35.8512 31.2575 37.5532 32.966 39.6528 32.966Z" stroke="#1C1C1C" stroke-miterlimit="10" stroke-linecap="round" stroke-linejoin="round"/>
<path d="M34.2144 40.068C34.32 36.57 36.696 33.814 39.6528 33.814C41.5536 33.814 43.2432 34.98 44.1936 36.782" stroke="#1C1C1C" stroke-miterlimit="10" stroke-linecap="round" stroke-linejoin="round"/>
<path d="M48.7561 232.171C56.2415 230.963 61.3337 223.892 60.1297 216.378C58.9257 208.864 51.8815 203.753 44.3961 204.961C36.9106 206.17 31.8184 213.241 33.0224 220.754C34.2264 228.268 41.2706 233.38 48.7561 232.171Z" stroke="#1C1C1C" stroke-miterlimit="10" stroke-linecap="round" stroke-linejoin="round"/>
<path d="M46.5696 210.834V226.31" stroke="#1C1C1C" stroke-width="4" stroke-miterlimit="10" stroke-linecap="round" stroke-linejoin="round"/>
<path d="M54.2784 218.572H38.8608" stroke="#1C1C1C" stroke-width="4" stroke-miterlimit="10" stroke-linecap="round" stroke-linejoin="round"/>
<path d="M175.085 47.859V208.714C175.085 213.113 171.494 216.717 167.112 216.717H97.8911C93.5087 216.717 89.9183 213.113 89.9183 208.714V47.859C89.9183 43.46 93.4559 39.856 97.8911 39.856H127.618V39.962C128.357 42.612 130.046 44.361 131.947 44.361H133.056C134.957 44.361 136.646 42.612 137.386 39.962L137.438 39.856H167.165C171.494 39.856 175.085 43.46 175.085 47.859Z" fill="white" stroke="#263238" stroke-miterlimit="10" stroke-linecap="round" stroke-linejoin="round"/>
<path d="M180.523 86.2839V70.2249H179.098V49.6609C179.098 42.6649 173.448 36.9939 166.478 36.9939H98.5776C91.608 36.9939 85.9584 42.6649 85.9584 49.6609V213.06C85.9584 220.056 91.608 225.727 98.5776 225.727H166.426C173.395 225.727 179.045 220.056 179.045 213.06V99.9579H180.47V90.4709H179.045V86.2839H180.523ZM175.085 203.997C175.085 210.993 169.435 216.664 162.466 216.664H102.538C95.568 216.664 89.9184 210.993 89.9184 203.997V52.5229C89.9184 45.5269 95.568 39.8559 102.538 39.8559H127.565V39.9619C128.304 42.6119 129.994 44.3609 131.894 44.3609H133.003C134.904 44.3609 136.594 42.6119 137.333 39.9619L137.386 39.8559H162.413C169.382 39.8559 175.032 45.5269 175.032 52.5229V203.997H175.085Z" fill="#0D9FF0" stroke="#1C1C1C" stroke-miterlimit="10" stroke-linecap="round" stroke-linejoin="round"/>
<path d="M165.422 38.6899H99.5807C92.8751 38.6899 87.3839 44.1489 87.3839 50.9329V211.735C87.3839 218.466 92.8223 223.978 99.5807 223.978H165.37C172.075 223.978 177.566 218.519 177.566 211.735V50.9329C177.566 44.2019 172.128 38.6899 165.422 38.6899ZM175.085 204.474C175.085 211.205 169.646 216.717 162.888 216.717H102.115C95.4095 216.717 89.9183 211.258 89.9183 204.474V52.0989C89.9183 45.3679 95.3567 39.8559 102.115 39.8559H127.618V39.9619C128.357 42.6119 130.046 44.3609 131.947 44.3609H133.056C134.957 44.3609 136.646 42.6119 137.386 39.9619L137.438 39.8559H162.941C169.646 39.8559 175.138 45.3149 175.138 52.0989V204.474H175.085Z" fill="#1C1C1C" stroke="#1C1C1C" stroke-miterlimit="10" stroke-linecap="round" stroke-linejoin="round"/>
<path d="M132.264 39.8259C132.62 39.8259 132.926 40.1303 132.926 40.4919C132.926 40.8536 132.62 41.1579 132.264 41.1579C131.908 41.1579 131.602 40.8536 131.602 40.4919C131.602 40.1303 131.908 39.8259 132.264 39.8259Z" fill="white" stroke="#1C1C1C"/>
<mask id="path-31-inside-1_259_540" fill="white">
<path d="M97.5215 45.05C97.5215 46.269 96.1487 46.693 96.1487 47.594V47.647H97.4687V48.071H95.7263V47.7C95.7263 46.428 97.0991 46.163 97.0991 45.05C97.0991 44.626 96.9407 44.414 96.6239 44.414C96.3071 44.414 96.1487 44.626 96.1487 44.997V45.368H95.7263V45.05C95.7263 44.414 95.9903 44.043 96.6239 44.043C97.2047 44.043 97.5215 44.414 97.5215 45.05Z"/>
</mask>
<path d="M97.5215 45.05C97.5215 46.269 96.1487 46.693 96.1487 47.594V47.647H97.4687V48.071H95.7263V47.7C95.7263 46.428 97.0991 46.163 97.0991 45.05C97.0991 44.626 96.9407 44.414 96.6239 44.414C96.3071 44.414 96.1487 44.626 96.1487 44.997V45.368H95.7263V45.05C95.7263 44.414 95.9903 44.043 96.6239 44.043C97.2047 44.043 97.5215 44.414 97.5215 45.05Z" fill="#263238"/>
<path d="M96.1487 47.647H95.1487V48.647H96.1487V47.647ZM97.4687 47.647H98.4687V46.647H97.4687V47.647ZM97.4687 48.071V49.071H98.4687V48.071H97.4687ZM95.7263 48.071H94.7263V49.071H95.7263V48.071ZM96.1487 45.368V46.368H97.1487V45.368H96.1487ZM95.7263 45.368H94.7263V46.368H95.7263V45.368ZM96.5215 45.05C96.5215 45.2384 96.441 45.3947 96.101 45.7622C95.9614 45.9131 95.7217 46.1582 95.5416 46.4177C95.3445 46.7018 95.1487 47.0947 95.1487 47.594H97.1487C97.1487 47.6427 97.1245 47.6448 97.1848 47.5578C97.2622 47.4464 97.3656 47.3404 97.5692 47.1203C97.9157 46.7457 98.5215 46.0805 98.5215 45.05H96.5215ZM95.1487 47.594V47.647H97.1487V47.594H95.1487ZM96.1487 48.647H97.4687V46.647H96.1487V48.647ZM96.4687 47.647V48.071H98.4687V47.647H96.4687ZM97.4687 47.071H95.7263V49.071H97.4687V47.071ZM96.7263 48.071V47.7H94.7263V48.071H96.7263ZM96.7263 47.7C96.7263 47.4921 96.7982 47.3646 97.1407 47.001C97.4264 46.6976 98.0991 46.0681 98.0991 45.05H96.0991C96.0991 45.1448 96.0854 45.2044 95.6848 45.6297C95.3408 45.9949 94.7263 46.6359 94.7263 47.7H96.7263ZM98.0991 45.05C98.0991 44.7424 98.0468 44.3296 97.7814 43.9744C97.4751 43.5645 97.0277 43.414 96.6239 43.414V45.414C96.5926 45.414 96.5179 45.4087 96.4244 45.367C96.3251 45.3227 96.24 45.2528 96.1792 45.1715C96.0723 45.0283 96.0991 44.9335 96.0991 45.05H98.0991ZM96.6239 43.414C96.2243 43.414 95.7906 43.5602 95.4855 43.9431C95.211 44.2875 95.1487 44.6908 95.1487 44.997H97.1487C97.1487 44.9322 97.1656 45.0439 97.0495 45.1896C96.9871 45.2679 96.9045 45.3312 96.8127 45.3708C96.7254 45.4086 96.6557 45.414 96.6239 45.414V43.414ZM95.1487 44.997V45.368H97.1487V44.997H95.1487ZM96.1487 44.368H95.7263V46.368H96.1487V44.368ZM96.7263 45.368V45.05H94.7263V45.368H96.7263ZM96.7263 45.05C96.7263 44.9567 96.7364 44.9085 96.7407 44.893C96.7443 44.8802 96.7382 44.9097 96.7021 44.9525C96.6845 44.9734 96.6633 44.993 96.64 45.0095C96.6169 45.0259 96.5964 45.036 96.582 45.0416C96.5544 45.0525 96.5607 45.043 96.6239 45.043V43.043C96.1077 43.043 95.5621 43.2018 95.1729 43.6635C94.8119 44.0917 94.7263 44.6188 94.7263 45.05H96.7263ZM96.6239 45.043C96.6633 45.043 96.6624 45.0492 96.6366 45.0389C96.6237 45.0337 96.607 45.0253 96.5888 45.0125C96.5706 44.9997 96.5541 44.9849 96.5403 44.9691C96.5116 44.9365 96.5058 44.914 96.5084 44.9223C96.5116 44.9326 96.5215 44.972 96.5215 45.05H98.5215C98.5215 44.5785 98.4044 44.0595 98.0408 43.6468C97.66 43.2148 97.1365 43.043 96.6239 43.043V45.043Z" fill="#1C1C1C" mask="url(#path-31-inside-1_259_540)"/>
<mask id="path-33-inside-2_259_540" fill="white">
<path d="M99.6863 45.05V45.156C99.6863 45.58 99.5279 45.845 99.2111 46.004C99.5279 46.11 99.6863 46.428 99.6863 46.852V47.17C99.6863 47.806 99.4223 48.177 98.7887 48.177C98.1551 48.177 97.8911 47.753 97.8911 47.17V46.905H98.3135V47.223C98.3135 47.594 98.4719 47.806 98.7887 47.806C99.1055 47.806 99.2639 47.594 99.2639 47.17V46.852C99.2639 46.481 99.1055 46.269 98.7887 46.269H98.5247V45.845H98.7887C99.1055 45.845 99.2639 45.633 99.2639 45.315V45.05C99.2639 44.626 99.1055 44.414 98.7887 44.414C98.4719 44.414 98.3135 44.626 98.3135 44.997V45.209H97.8911V45.05C97.8911 44.414 98.1551 44.043 98.7887 44.043C99.3695 44.043 99.6863 44.414 99.6863 45.05Z"/>
</mask>
<path d="M99.6863 45.05V45.156C99.6863 45.58 99.5279 45.845 99.2111 46.004C99.5279 46.11 99.6863 46.428 99.6863 46.852V47.17C99.6863 47.806 99.4223 48.177 98.7887 48.177C98.1551 48.177 97.8911 47.753 97.8911 47.17V46.905H98.3135V47.223C98.3135 47.594 98.4719 47.806 98.7887 47.806C99.1055 47.806 99.2639 47.594 99.2639 47.17V46.852C99.2639 46.481 99.1055 46.269 98.7887 46.269H98.5247V45.845H98.7887C99.1055 45.845 99.2639 45.633 99.2639 45.315V45.05C99.2639 44.626 99.1055 44.414 98.7887 44.414C98.4719 44.414 98.3135 44.626 98.3135 44.997V45.209H97.8911V45.05C97.8911 44.414 98.1551 44.043 98.7887 44.043C99.3695 44.043 99.6863 44.414 99.6863 45.05Z" fill="#263238"/>
<path d="M99.2111 46.004L98.7625 45.1102L96.6129 46.1891L98.8938 46.9523L99.2111 46.004ZM97.8911 46.905V45.905H96.8911V46.905H97.8911ZM98.3135 46.905H99.3135V45.905H98.3135V46.905ZM98.5247 46.269H97.5247V47.269H98.5247V46.269ZM98.5247 45.845V44.845H97.5247V45.845H98.5247ZM98.3135 45.209V46.209H99.3135V45.209H98.3135ZM97.8911 45.209H96.8911V46.209H97.8911V45.209ZM98.6863 45.05V45.156H100.686V45.05H98.6863ZM98.6863 45.156C98.6863 45.2457 98.6696 45.2353 98.6985 45.1846C98.7124 45.1601 98.7302 45.1387 98.7475 45.123C98.7637 45.1083 98.7719 45.1055 98.7625 45.1102L99.6597 46.8977C99.9649 46.7446 100.244 46.5116 100.437 46.1741C100.624 45.8452 100.686 45.4902 100.686 45.156H98.6863ZM98.8938 46.9523C98.8514 46.9381 98.8059 46.9134 98.7651 46.8781C98.7251 46.8436 98.7013 46.8091 98.6889 46.7862C98.6671 46.7462 98.6863 46.7555 98.6863 46.852H100.686C100.686 46.2229 100.432 45.3579 99.5284 45.0556L98.8938 46.9523ZM98.6863 46.852V47.17H100.686V46.852H98.6863ZM98.6863 47.17C98.6863 47.2632 98.6763 47.3114 98.6719 47.3269C98.6684 47.3397 98.6745 47.3102 98.7105 47.2675C98.7282 47.2465 98.7493 47.2269 98.7726 47.2104C98.7957 47.194 98.8163 47.1839 98.8307 47.1783C98.8582 47.1675 98.8519 47.177 98.7887 47.177V49.177C99.3049 49.177 99.8506 49.0181 100.24 48.5565C100.601 48.1282 100.686 47.6011 100.686 47.17H98.6863ZM98.7887 47.177C98.7415 47.177 98.7442 47.1692 98.7755 47.1827C98.791 47.1893 98.8098 47.1996 98.8294 47.2144C98.849 47.2293 98.8656 47.2457 98.8787 47.2619C98.9051 47.2944 98.9081 47.3138 98.9041 47.2995C98.8996 47.2838 98.8911 47.2427 98.8911 47.17H96.8911C96.8911 47.593 96.9845 48.1017 97.3259 48.5223C97.6959 48.9781 98.2307 49.177 98.7887 49.177V47.177ZM98.8911 47.17V46.905H96.8911V47.17H98.8911ZM97.8911 47.905H98.3135V45.905H97.8911V47.905ZM97.3135 46.905V47.223H99.3135V46.905H97.3135ZM97.3135 47.223C97.3135 47.5292 97.3758 47.9324 97.6503 48.2769C97.9554 48.6597 98.3891 48.806 98.7887 48.806V46.806C98.8205 46.806 98.8902 46.8114 98.9775 46.8491C99.0693 46.8887 99.1519 46.952 99.2143 47.0303C99.3304 47.176 99.3135 47.2878 99.3135 47.223H97.3135ZM98.7887 48.806C99.1925 48.806 99.6399 48.6554 99.9462 48.2455C100.212 47.8903 100.264 47.4775 100.264 47.17H98.2639C98.2639 47.2864 98.2371 47.1916 98.344 47.0484C98.4048 46.9671 98.4899 46.8973 98.5892 46.853C98.6827 46.8112 98.7574 46.806 98.7887 46.806V48.806ZM100.264 47.17V46.852H98.2639V47.17H100.264ZM100.264 46.852C100.264 46.5458 100.202 46.1425 99.9271 45.7981C99.622 45.4152 99.1883 45.269 98.7887 45.269V47.269C98.7569 47.269 98.6872 47.2636 98.5999 47.2258C98.5082 47.1862 98.4255 47.1229 98.3631 47.0446C98.247 46.8989 98.2639 46.7872 98.2639 46.852H100.264ZM98.7887 45.269H98.5247V47.269H98.7887V45.269ZM99.5247 46.269V45.845H97.5247V46.269H99.5247ZM98.5247 46.845H98.7887V44.845H98.5247V46.845ZM98.7887 46.845C99.185 46.845 99.6035 46.7023 99.9056 46.3486C100.187 46.0189 100.264 45.6265 100.264 45.315H98.2639C98.2639 45.3133 98.2639 45.2852 98.2781 45.2389C98.2928 45.191 98.3236 45.1213 98.3846 45.0499C98.5283 44.8816 98.7093 44.845 98.7887 44.845V46.845ZM100.264 45.315V45.05H98.2639V45.315H100.264ZM100.264 45.05C100.264 44.7424 100.212 44.3296 99.9462 43.9744C99.6399 43.5645 99.1925 43.414 98.7887 43.414V45.414C98.7574 45.414 98.6827 45.4087 98.5892 45.367C98.4899 45.3227 98.4048 45.2528 98.344 45.1715C98.2371 45.0283 98.2639 44.9335 98.2639 45.05H100.264ZM98.7887 43.414C98.3891 43.414 97.9554 43.5602 97.6503 43.9431C97.3758 44.2875 97.3135 44.6908 97.3135 44.997H99.3135C99.3135 44.9322 99.3304 45.0439 99.2143 45.1896C99.1519 45.2679 99.0693 45.3312 98.9775 45.3708C98.8902 45.4086 98.8205 45.414 98.7887 45.414V43.414ZM97.3135 44.997V45.209H99.3135V44.997H97.3135ZM98.3135 44.209H97.8911V46.209H98.3135V44.209ZM98.8911 45.209V45.05H96.8911V45.209H98.8911ZM98.8911 45.05C98.8911 44.9567 98.9012 44.9085 98.9055 44.893C98.9091 44.8802 98.903 44.9097 98.8669 44.9525C98.8492 44.9734 98.8281 44.993 98.8048 45.0095C98.7817 45.0259 98.7612 45.036 98.7468 45.0416C98.7192 45.0525 98.7255 45.043 98.7887 45.043V43.043C98.2725 43.043 97.7269 43.2018 97.3377 43.6634C96.9767 44.0917 96.8911 44.6188 96.8911 45.05H98.8911ZM98.7887 45.043C98.8281 45.043 98.8272 45.0492 98.8014 45.0389C98.7885 45.0337 98.7718 45.0253 98.7536 45.0125C98.7354 44.9997 98.7189 44.9849 98.7051 44.9691C98.6764 44.9365 98.6706 44.914 98.6732 44.9223C98.6764 44.9326 98.6863 44.972 98.6863 45.05H100.686C100.686 44.5785 100.569 44.0595 100.206 43.6468C99.8248 43.2148 99.3013 43.043 98.7887 43.043V45.043Z" fill="#1C1C1C" mask="url(#path-33-inside-2_259_540)"/>
<mask id="path-35-inside-3_259_540" fill="white">
<path d="M100.531 45.3149V45.8449H100.109V45.3149H100.531ZM100.531 47.4879V48.0179H100.109V47.4879H100.531Z"/>
</mask>
<path d="M100.531 45.3149V45.8449H100.109V45.3149H100.531ZM100.531 47.4879V48.0179H100.109V47.4879H100.531Z" fill="#263238"/>
<path d="M100.531 45.3149H101.531V44.3149H100.531V45.3149ZM100.531 45.8449V46.8449H101.531V45.8449H100.531ZM100.109 45.8449H99.1088V46.8449H100.109V45.8449ZM100.109 45.3149V44.3149H99.1088V45.3149H100.109ZM100.531 47.4879H101.531V46.4879H100.531V47.4879ZM100.531 48.0179V49.0179H101.531V48.0179H100.531ZM100.109 48.0179H99.1088V49.0179H100.109V48.0179ZM100.109 47.4879V46.4879H99.1088V47.4879H100.109ZM99.5312 45.3149V45.8449H101.531V45.3149H99.5312ZM100.531 44.8449H100.109V46.8449H100.531V44.8449ZM101.109 45.8449V45.3149H99.1088V45.8449H101.109ZM100.109 46.3149H100.531V44.3149H100.109V46.3149ZM99.5312 47.4879V48.0179H101.531V47.4879H99.5312ZM100.531 47.0179H100.109V49.0179H100.531V47.0179ZM101.109 48.0179V47.4879H99.1088V48.0179H101.109ZM100.109 48.4879H100.531V46.4879H100.109V48.4879Z" fill="#1C1C1C" mask="url(#path-35-inside-3_259_540)"/>
<mask id="path-37-inside-4_259_540" fill="white">
<path d="M101.429 45.6859C101.534 45.4739 101.745 45.3679 102.009 45.3679C102.537 45.3679 102.749 45.7389 102.749 46.3219V47.1169C102.749 47.7529 102.485 48.124 101.851 48.124C101.217 48.124 100.953 47.6999 100.953 47.1169V46.8519H101.376V47.1699C101.376 47.5409 101.534 47.7529 101.851 47.7529C102.168 47.7529 102.326 47.5409 102.326 47.1699V46.3749C102.326 46.0039 102.168 45.7919 101.851 45.7919C101.587 45.7919 101.429 45.9509 101.376 46.2159V46.3219H100.953L101.059 44.0959H102.643V44.5199H101.481L101.429 45.6859Z"/>
</mask>
<path d="M101.429 45.6859C101.534 45.4739 101.745 45.3679 102.009 45.3679C102.537 45.3679 102.749 45.7389 102.749 46.3219V47.1169C102.749 47.7529 102.485 48.124 101.851 48.124C101.217 48.124 100.953 47.6999 100.953 47.1169V46.8519H101.376V47.1699C101.376 47.5409 101.534 47.7529 101.851 47.7529C102.168 47.7529 102.326 47.5409 102.326 47.1699V46.3749C102.326 46.0039 102.168 45.7919 101.851 45.7919C101.587 45.7919 101.429 45.9509 101.376 46.2159V46.3219H100.953L101.059 44.0959H102.643V44.5199H101.481L101.429 45.6859Z" fill="#263238"/>
<path d="M101.429 45.6859L100.43 45.6407L102.324 46.1318L101.429 45.6859ZM100.953 46.8519V45.8519H99.9535V46.8519H100.953ZM101.376 46.8519H102.376V45.8519H101.376V46.8519ZM101.376 46.2159L100.395 46.0205L100.376 46.1173V46.2159H101.376ZM101.376 46.3219V47.3219H102.376V46.3219H101.376ZM100.953 46.3219L99.9546 46.2746L99.9049 47.3219H100.953V46.3219ZM101.059 44.0959V43.0959H100.105L100.06 44.0486L101.059 44.0959ZM102.643 44.0959H103.643V43.0959H102.643V44.0959ZM102.643 44.5199V45.5199H103.643V44.5199H102.643ZM101.481 44.5199V43.5199H100.526L100.483 44.4747L101.481 44.5199ZM102.324 46.1318C102.283 46.2143 102.213 46.2857 102.132 46.3291C102.095 46.3485 102.064 46.3584 102.043 46.3632C102.022 46.3679 102.01 46.3679 102.009 46.3679V44.3679C101.47 44.3679 100.85 44.6049 100.534 45.2401L102.324 46.1318ZM102.009 46.3679C102.025 46.3679 101.987 46.3704 101.925 46.3412C101.857 46.3096 101.801 46.2601 101.765 46.2092C101.732 46.1643 101.73 46.1391 101.735 46.1605C101.74 46.1824 101.749 46.2334 101.749 46.3219H103.749C103.749 45.9392 103.685 45.4546 103.39 45.0435C103.051 44.5718 102.537 44.3679 102.009 44.3679V46.3679ZM101.749 46.3219V47.1169H103.749V46.3219H101.749ZM101.749 47.1169C101.749 47.2102 101.739 47.2584 101.734 47.2739C101.731 47.2867 101.737 47.2572 101.773 47.2144C101.791 47.1935 101.812 47.1739 101.835 47.1574C101.858 47.141 101.879 47.1309 101.893 47.1253C101.921 47.1145 101.914 47.124 101.851 47.124V49.124C102.367 49.124 102.913 48.9651 103.302 48.5035C103.663 48.0752 103.749 47.5481 103.749 47.1169H101.749ZM101.851 47.124C101.804 47.124 101.807 47.1162 101.838 47.1296C101.853 47.1363 101.872 47.1466 101.892 47.1614C101.911 47.1763 101.928 47.1927 101.941 47.2088C101.967 47.2414 101.971 47.2608 101.966 47.2465C101.962 47.2308 101.953 47.1896 101.953 47.1169H99.9535C99.9535 47.5399 100.047 48.0487 100.388 48.4693C100.758 48.9251 101.293 49.124 101.851 49.124V47.124ZM101.953 47.1169V46.8519H99.9535V47.1169H101.953ZM100.953 47.8519H101.376V45.8519H100.953V47.8519ZM100.376 46.8519V47.1699H102.376V46.8519H100.376ZM100.376 47.1699C100.376 47.4762 100.438 47.8794 100.713 48.2238C101.018 48.6067 101.452 48.7529 101.851 48.7529V46.7529C101.883 46.7529 101.953 46.7584 102.04 46.7961C102.132 46.8357 102.214 46.899 102.277 46.9773C102.393 47.123 102.376 47.2347 102.376 47.1699H100.376ZM101.851 48.7529C102.251 48.7529 102.684 48.6067 102.99 48.2238C103.264 47.8794 103.326 47.4762 103.326 47.1699H101.326C101.326 47.2347 101.309 47.123 101.425 46.9773C101.488 46.899 101.571 46.8357 101.662 46.7961C101.75 46.7584 101.819 46.7529 101.851 46.7529V48.7529ZM103.326 47.1699V46.3749H101.326V47.1699H103.326ZM103.326 46.3749C103.326 46.0687 103.264 45.6655 102.99 45.3211C102.684 44.9382 102.251 44.7919 101.851 44.7919V46.7919C101.819 46.7919 101.75 46.7865 101.662 46.7488C101.571 46.7092 101.488 46.6459 101.425 46.5676C101.309 46.4219 101.326 46.3102 101.326 46.3749H103.326ZM101.851 44.7919C101.506 44.7919 101.147 44.9019 100.857 45.1687C100.58 45.4234 100.45 45.7439 100.395 46.0205L102.357 46.4114C102.354 46.423 102.33 46.5314 102.211 46.6405C102.08 46.7615 101.932 46.7919 101.851 46.7919V44.7919ZM100.376 46.2159V46.3219H102.376V46.2159H100.376ZM101.376 45.3219H100.953V47.3219H101.376V45.3219ZM101.952 46.3693L102.058 44.1433L100.06 44.0486L99.9546 46.2746L101.952 46.3693ZM101.059 45.0959H102.643V43.0959H101.059V45.0959ZM101.643 44.0959V44.5199H103.643V44.0959H101.643ZM102.643 43.5199H101.481V45.5199H102.643V43.5199ZM100.483 44.4747L100.43 45.6407L102.428 45.7312L102.48 44.5652L100.483 44.4747Z" fill="#1C1C1C" mask="url(#path-37-inside-4_259_540)"/>
<mask id="path-39-inside-5_259_540" fill="white">
<path d="M104.966 44.997V45.05H104.544V44.944C104.544 44.573 104.386 44.361 104.069 44.361C103.752 44.361 103.594 44.573 103.594 44.997V45.898C103.699 45.633 103.91 45.474 104.227 45.474C104.755 45.474 104.966 45.845 104.966 46.428V47.011C104.966 47.647 104.65 48.018 104.069 48.018C103.435 48.018 103.171 47.594 103.171 47.011V45.05C103.171 44.414 103.435 44.043 104.069 44.043C104.702 44.043 104.966 44.414 104.966 44.997ZM103.594 46.534V47.117C103.594 47.488 103.752 47.7 104.069 47.7C104.386 47.7 104.544 47.488 104.544 47.117V46.534C104.544 46.163 104.386 45.951 104.069 45.951C103.752 45.951 103.594 46.163 103.594 46.534Z"/>
</mask>
<path d="M104.966 44.997V45.05H104.544V44.944C104.544 44.573 104.386 44.361 104.069 44.361C103.752 44.361 103.594 44.573 103.594 44.997V45.898C103.699 45.633 103.91 45.474 104.227 45.474C104.755 45.474 104.966 45.845 104.966 46.428V47.011C104.966 47.647 104.65 48.018 104.069 48.018C103.435 48.018 103.171 47.594 103.171 47.011V45.05C103.171 44.414 103.435 44.043 104.069 44.043C104.702 44.043 104.966 44.414 104.966 44.997ZM103.594 46.534V47.117C103.594 47.488 103.752 47.7 104.069 47.7C104.386 47.7 104.544 47.488 104.544 47.117V46.534C104.544 46.163 104.386 45.951 104.069 45.951C103.752 45.951 103.594 46.163 103.594 46.534Z" fill="#263238"/>
<path d="M104.966 45.05V46.05H105.966V45.05H104.966ZM104.544 45.05H103.544V46.05H104.544V45.05ZM103.594 45.898H102.594L104.523 46.2682L103.594 45.898ZM103.966 44.997V45.05H105.966V44.997H103.966ZM104.966 44.05H104.544V46.05H104.966V44.05ZM105.544 45.05V44.944H103.544V45.05H105.544ZM105.544 44.944C105.544 44.6378 105.482 44.2345 105.207 43.8901C104.902 43.5072 104.468 43.361 104.069 43.361V45.361C104.037 45.361 103.967 45.3556 103.88 45.3178C103.788 45.2782 103.706 45.2149 103.643 45.1366C103.527 44.9909 103.544 44.8792 103.544 44.944H105.544ZM104.069 43.361C103.665 43.361 103.218 43.5115 102.911 43.9214C102.646 44.2766 102.594 44.6894 102.594 44.997H104.594C104.594 44.8805 104.62 44.9754 104.513 45.1185C104.453 45.1998 104.368 45.2697 104.268 45.314C104.175 45.3557 104.1 45.361 104.069 45.361V43.361ZM102.594 44.997V45.898H104.594V44.997H102.594ZM104.523 46.2682C104.515 46.287 104.482 46.3524 104.399 46.4096C104.314 46.4682 104.241 46.474 104.227 46.474V44.474C103.896 44.474 103.559 44.5593 103.263 44.7636C102.969 44.9665 102.778 45.2439 102.665 45.5278L104.523 46.2682ZM104.227 46.474C104.242 46.474 104.205 46.4765 104.143 46.4472C104.075 46.4156 104.019 46.3661 103.982 46.3152C103.95 46.2703 103.948 46.2451 103.953 46.2665C103.958 46.2884 103.966 46.3394 103.966 46.428H105.966C105.966 46.0452 105.902 45.5607 105.607 45.1495C105.269 44.6779 104.755 44.474 104.227 44.474V46.474ZM103.966 46.428V47.011H105.966V46.428H103.966ZM103.966 47.011C103.966 47.0889 103.956 47.1283 103.953 47.1387C103.951 47.1469 103.956 47.1244 103.985 47.0918C103.999 47.0761 104.015 47.0612 104.034 47.0484C104.052 47.0357 104.069 47.0273 104.081 47.0221C104.107 47.0117 104.108 47.018 104.069 47.018V49.018C104.581 49.018 105.105 48.8461 105.486 48.4141C105.849 48.0015 105.966 47.4824 105.966 47.011H103.966ZM104.069 47.018C104.022 47.018 104.024 47.0102 104.056 47.0237C104.071 47.0303 104.09 47.0406 104.109 47.0554C104.129 47.0703 104.146 47.0867 104.159 47.1029C104.185 47.1354 104.188 47.1548 104.184 47.1405C104.18 47.1248 104.171 47.0837 104.171 47.011H102.171C102.171 47.434 102.264 47.9427 102.606 48.3633C102.976 48.8191 103.511 49.018 104.069 49.018V47.018ZM104.171 47.011V45.05H102.171V47.011H104.171ZM104.171 45.05C104.171 44.9567 104.181 44.9085 104.186 44.893C104.189 44.8802 104.183 44.9097 104.147 44.9525C104.129 44.9734 104.108 44.993 104.085 45.0095C104.062 45.0259 104.041 45.036 104.027 45.0416C103.999 45.0525 104.006 45.043 104.069 45.043V43.043C103.553 43.043 103.007 43.2018 102.618 43.6634C102.257 44.0917 102.171 44.6188 102.171 45.05H104.171ZM104.069 45.043C104.132 45.043 104.141 45.0523 104.117 45.0431C104.104 45.0383 104.085 45.0294 104.064 45.0145C104.042 44.9994 104.021 44.9811 104.003 44.9606C103.966 44.9183 103.956 44.8852 103.957 44.8864C103.958 44.8905 103.966 44.9238 103.966 44.997H105.966C105.966 44.5742 105.873 44.0593 105.507 43.6421C105.12 43.2006 104.584 43.043 104.069 43.043V45.043ZM102.594 46.534V47.117H104.594V46.534H102.594ZM102.594 47.117C102.594 47.4232 102.656 47.8264 102.93 48.1709C103.235 48.5537 103.669 48.7 104.069 48.7V46.7C104.101 46.7 104.17 46.7054 104.258 46.7431C104.349 46.7827 104.432 46.846 104.494 46.9243C104.61 47.07 104.594 47.1818 104.594 47.117H102.594ZM104.069 48.7C104.468 48.7 104.902 48.5537 105.207 48.1708C105.482 47.8264 105.544 47.4232 105.544 47.117H103.544C103.544 47.1818 103.527 47.07 103.643 46.9243C103.706 46.8461 103.788 46.7827 103.88 46.7431C103.967 46.7054 104.037 46.7 104.069 46.7V48.7ZM105.544 47.117V46.534H103.544V47.117H105.544ZM105.544 46.534C105.544 46.2278 105.482 45.8245 105.207 45.4801C104.902 45.0972 104.468 44.951 104.069 44.951V46.951C104.037 46.951 103.967 46.9456 103.88 46.9078C103.788 46.8682 103.706 46.8049 103.643 46.7266C103.527 46.5809 103.544 46.4692 103.544 46.534H105.544ZM104.069 44.951C103.669 44.951 103.235 45.0972 102.93 45.4801C102.656 45.8245 102.594 46.2278 102.594 46.534H104.594C104.594 46.4692 104.61 46.5809 104.494 46.7266C104.432 46.8049 104.349 46.8682 104.258 46.9078C104.17 46.9456 104.101 46.951 104.069 46.951V44.951Z" fill="#1C1C1C" mask="url(#path-39-inside-5_259_540)"/>
<path d="M147.812 47.518V45.709H147.921V47.518H147.812Z" fill="#263238" stroke="#1C1C1C"/>
<path d="M149.29 47.518V45.126H149.399V47.518H149.29Z" fill="#263238" stroke="#1C1C1C"/>
<path d="M150.769 47.5179V44.7549H150.877V47.5179H150.769Z" fill="#263238" stroke="#1C1C1C"/>
<path d="M152.3 47.5179V44.0129H152.409V47.5179H152.3Z" fill="#263238" stroke="#1C1C1C"/>
<mask id="path-45-inside-6_259_540" fill="white">
<path d="M166.795 47.9651H160.037V43.8311H166.795V47.9651ZM160.459 47.5411H166.426V44.1491H160.459V47.5411Z"/>
</mask>
<path d="M166.795 47.9651H160.037V43.8311H166.795V47.9651ZM160.459 47.5411H166.426V44.1491H160.459V47.5411Z" fill="#263238"/>
<path d="M166.795 47.9651V48.9651H167.795V47.9651H166.795ZM160.037 47.9651H159.037V48.9651H160.037V47.9651ZM160.037 43.8311V42.8311H159.037V43.8311H160.037ZM166.795 43.8311H167.795V42.8311H166.795V43.8311ZM160.459 47.5411H159.459V48.5411H160.459V47.5411ZM166.426 47.5411V48.5411H167.426V47.5411H166.426ZM166.426 44.1491H167.426V43.1491H166.426V44.1491ZM160.459 44.1491V43.1491H159.459V44.1491H160.459ZM166.795 46.9651H160.037V48.9651H166.795V46.9651ZM161.037 47.9651V43.8311H159.037V47.9651H161.037ZM160.037 44.8311H166.795V42.8311H160.037V44.8311ZM165.795 43.8311V47.9651H167.795V43.8311H165.795ZM160.459 48.5411H166.426V46.5411H160.459V48.5411ZM167.426 47.5411V44.1491H165.426V47.5411H167.426ZM166.426 43.1491H160.459V45.1491H166.426V43.1491ZM159.459 44.1491V47.5411H161.459V44.1491H159.459Z" fill="#1C1C1C" mask="url(#path-45-inside-6_259_540)"/>
<path d="M161.487 46.617V45.073H164.025V46.617H161.487Z" fill="#263238" stroke="#1C1C1C"/>
<mask id="path-48-inside-7_259_540" fill="white">
<path d="M167.429 45.3682H166.584V46.3222H167.429V45.3682Z"/>
</mask>
<path d="M167.429 45.3682H166.584V46.3222H167.429V45.3682Z" fill="#263238"/>
<path d="M166.584 45.3682V44.3682H165.584V45.3682H166.584ZM167.429 45.3682H168.429V44.3682H167.429V45.3682ZM167.429 46.3222V47.3222H168.429V46.3222H167.429ZM166.584 46.3222H165.584V47.3222H166.584V46.3222ZM166.584 46.3682H167.429V44.3682H166.584V46.3682ZM166.429 45.3682V46.3222H168.429V45.3682H166.429ZM167.429 45.3222H166.584V47.3222H167.429V45.3222ZM167.584 46.3222V45.3682H165.584V46.3222H167.584Z" fill="#1C1C1C" mask="url(#path-48-inside-7_259_540)"/>
<path d="M154.825 46.6051C154.825 46.6046 154.826 46.6042 154.826 46.6037L154.825 46.6051Z" fill="#263238" stroke="#1C1C1C"/>
<path d="M154.33 45.7298C154.331 45.7297 154.331 45.7296 154.331 45.7295C154.337 45.7367 154.363 45.7684 154.482 45.9099C154.522 45.9572 154.572 46.0168 154.636 46.0919L154.482 45.9099L154.33 45.7298Z" fill="#263238" stroke="#1C1C1C"/>
<mask id="path-52-inside-8_259_540" fill="white">
<path d="M158.558 45.2089C158.505 45.2089 158.453 45.2089 158.453 45.1559C155.918 43.6719 154.281 45.0499 154.176 45.1029C154.07 45.2089 153.912 45.2089 153.806 45.1029C153.701 44.9969 153.701 44.8379 153.806 44.7319C153.806 44.7319 155.813 43.0359 158.664 44.6789C158.769 44.7319 158.822 44.8909 158.769 45.0499C158.717 45.1559 158.664 45.2089 158.558 45.2089Z"/>
</mask>
<path d="M158.558 45.2089C158.505 45.2089 158.453 45.2089 158.453 45.1559C155.918 43.6719 154.281 45.0499 154.176 45.1029C154.07 45.2089 153.912 45.2089 153.806 45.1029C153.701 44.9969 153.701 44.8379 153.806 44.7319C153.806 44.7319 155.813 43.0359 158.664 44.6789C158.769 44.7319 158.822 44.8909 158.769 45.0499C158.717 45.1559 158.664 45.2089 158.558 45.2089Z" fill="#263238"/>
<path d="M158.453 45.1559H159.453V44.5826L158.958 44.2929L158.453 45.1559ZM154.176 45.1029L153.727 44.2091L153.582 44.282L153.467 44.3971L154.176 45.1029ZM153.806 44.7319L153.161 43.9682L153.128 43.9958L153.098 44.0261L153.806 44.7319ZM158.664 44.6789L158.165 45.5453L158.19 45.5597L158.215 45.5726L158.664 44.6789ZM158.769 45.0499L159.665 45.4957L159.696 45.4323L159.719 45.365L158.769 45.0499ZM158.558 44.2089C158.538 44.2089 158.559 44.2085 158.586 44.2103C158.611 44.2119 158.696 44.2182 158.803 44.254C158.916 44.2918 159.101 44.379 159.252 44.5741C159.41 44.7775 159.453 44.9971 159.453 45.1559H157.453C157.453 45.3412 157.502 45.5806 157.671 45.7989C157.834 46.009 158.035 46.1061 158.168 46.1506C158.295 46.193 158.403 46.2025 158.453 46.2058C158.504 46.2093 158.552 46.2089 158.558 46.2089V44.2089ZM158.958 44.2929C157.47 43.4216 156.168 43.3569 155.185 43.5772C154.706 43.6845 154.325 43.8541 154.053 44.0023C153.917 44.0766 153.809 44.1453 153.732 44.1969C153.694 44.2218 153.662 44.2438 153.647 44.2541C153.596 44.2892 153.656 44.2448 153.727 44.2091L154.624 45.9966C154.685 45.9662 154.733 45.9341 154.739 45.9302C154.755 45.9196 154.771 45.9088 154.78 45.9028C154.801 45.8878 154.818 45.8763 154.84 45.8613C154.883 45.8331 154.94 45.7971 155.011 45.7579C155.156 45.6792 155.362 45.5872 155.622 45.5288C156.117 45.4179 156.901 45.4062 157.947 46.0188L158.958 44.2929ZM153.467 44.3971C153.596 44.2682 153.782 44.1824 153.991 44.1824C154.2 44.1824 154.386 44.2682 154.515 44.3971L153.098 45.8087C153.594 46.307 154.388 46.307 154.884 45.8087L153.467 44.3971ZM154.515 44.3971C154.643 44.526 154.727 44.7113 154.727 44.9174C154.727 45.1235 154.643 45.3088 154.515 45.4377L153.098 44.0261C152.603 44.5223 152.603 45.3124 153.098 45.8087L154.515 44.3971ZM153.806 44.7319C154.452 45.4956 154.451 45.496 154.451 45.4963C154.451 45.4964 154.45 45.4968 154.45 45.497C154.45 45.4975 154.449 45.4979 154.449 45.4983C154.448 45.4991 154.447 45.4998 154.446 45.5004C154.445 45.5016 154.444 45.5024 154.443 45.5028C154.442 45.5037 154.443 45.5032 154.445 45.5014C154.45 45.4977 154.461 45.4888 154.479 45.476C154.515 45.4501 154.577 45.4086 154.662 45.3602C154.832 45.2627 155.088 45.1412 155.413 45.0583C156.039 44.8986 156.983 44.8645 158.165 45.5453L159.163 43.8125C157.493 42.8503 156.008 42.8426 154.919 43.1202C154.386 43.256 153.962 43.4558 153.667 43.6249C153.519 43.7098 153.401 43.788 153.317 43.8485C153.274 43.8788 153.24 43.9048 153.214 43.9251C153.201 43.9353 153.19 43.9441 153.181 43.9513C153.177 43.9549 153.173 43.9582 153.169 43.961C153.168 43.9624 153.166 43.9637 153.165 43.9649C153.164 43.9655 153.163 43.9661 153.163 43.9666C153.162 43.9669 153.162 43.9673 153.162 43.9674C153.161 43.9678 153.161 43.9682 153.806 44.7319ZM158.215 45.5726C157.966 45.4473 157.857 45.2418 157.818 45.111C157.776 44.9719 157.785 44.8413 157.82 44.7347L159.719 45.365C159.868 44.9152 159.813 44.1367 159.112 43.7851L158.215 45.5726ZM157.874 44.604C157.875 44.6035 157.887 44.5785 157.912 44.5429C157.938 44.5057 157.985 44.4478 158.058 44.3894C158.231 44.25 158.424 44.2089 158.558 44.2089V46.2089C158.798 46.2089 159.07 46.1413 159.31 45.9489C159.513 45.7854 159.618 45.5892 159.665 45.4957L157.874 44.604Z" fill="#1C1C1C" mask="url(#path-52-inside-8_259_540)"/>
<path d="M156.316 47.488C156.316 47.5518 156.295 47.5806 156.283 47.5923C156.272 47.6039 156.244 47.6241 156.182 47.6241C156.12 47.6241 156.093 47.6039 156.081 47.5923C156.069 47.5806 156.049 47.5518 156.049 47.488C156.049 47.4243 156.069 47.3955 156.081 47.3838C156.093 47.3722 156.12 47.3521 156.182 47.3521C156.244 47.3521 156.272 47.3723 156.283 47.3838C156.295 47.3955 156.316 47.4243 156.316 47.488Z" fill="#263238" stroke="#1C1C1C"/>
<path d="M48.84 69.165H54.9648" stroke="#1C1C1C" stroke-miterlimit="10" stroke-linecap="round" stroke-linejoin="round"/>
<path d="M96.5712 69.165H102.696" stroke="#1C1C1C" stroke-miterlimit="10" stroke-linecap="round" stroke-linejoin="round"/>
<path d="M54.9647 52.947L58.4495 55.65" stroke="#1C1C1C" stroke-miterlimit="10" stroke-linecap="round" stroke-linejoin="round"/>
<path d="M95.7791 52.947L92.2943 55.65" stroke="#1C1C1C" stroke-miterlimit="10" stroke-linecap="round" stroke-linejoin="round"/>
<path d="M68.8512 46.375L69.2208 52.152" stroke="#1C1C1C" stroke-miterlimit="10" stroke-linecap="round" stroke-linejoin="round"/>
<path d="M82.3152 47.1699L81.5232 52.1519" stroke="#1C1C1C" stroke-miterlimit="10" stroke-linecap="round" stroke-linejoin="round"/>
<path d="M91.0271 61.957H57.8159V90.736H91.0271V61.957Z" fill="white" stroke="#1C1C1C" stroke-miterlimit="10" stroke-linecap="round" stroke-linejoin="round"/>
<path d="M70.1711 61.957H63.8879V90.736H70.1711V61.957Z" fill="#0D9FF0" stroke="#1C1C1C" stroke-miterlimit="10" stroke-linecap="round" stroke-linejoin="round"/>
<path d="M91.0271 61.957H76.4543V90.736H91.0271V61.957Z" fill="white" stroke="#1C1C1C" stroke-miterlimit="10" stroke-linecap="round" stroke-linejoin="round"/>
<path d="M72.0719 59.5719L67.2143 57.4519C67.1087 57.4519 66.9503 57.4519 66.8447 57.4519L66.7391 57.3989H61.8287L65.6303 59.2009C65.6303 59.4659 65.6831 59.7309 65.7359 59.9959C65.9471 60.9499 66.8975 61.4799 67.4783 61.6919L67.5311 61.8509H68.0063L76.5071 61.9569C76.5599 61.9569 74.3951 60.7379 72.0719 59.5719Z" fill="#92E3A9" stroke="#1C1C1C" stroke-miterlimit="10" stroke-linecap="round" stroke-linejoin="round"/>
<path d="M71.7024 61.9569C71.7024 61.9569 66.4224 59.0949 63.5712 57.8229C60.72 56.5509 60.6144 58.5119 60.9312 59.9959C61.248 61.4799 63.2015 61.7979 63.2015 61.7979L71.7024 61.9569Z" fill="#0D9FF0" stroke="#1C1C1C" stroke-miterlimit="10" stroke-linecap="round" stroke-linejoin="round"/>
<path d="M72.9695 59.8369H71.1215C70.0127 59.8369 69.1151 60.7379 69.1151 61.8509H74.9759C74.9759 60.7379 74.0783 59.8369 72.9695 59.8369Z" fill="#92E3A9" stroke="#1C1C1C" stroke-miterlimit="10" stroke-linecap="round" stroke-linejoin="round"/>
<path d="M84.5855 57.4519H80.2559L79.6751 59.5719C77.3519 60.7379 75.1871 61.9039 75.1871 61.9039L83.6879 61.7979H84.1631L84.2159 61.6389C84.7967 61.4269 85.7471 60.9499 85.9583 59.9429C86.2751 58.7769 86.2751 57.2399 84.5855 57.4519Z" fill="#0D9FF0" stroke="#1C1C1C" stroke-miterlimit="10" stroke-linecap="round" stroke-linejoin="round"/>
<path d="M70.1711 61.9569C70.1711 61.9569 75.4511 59.0949 78.3023 57.8229C81.1535 56.5509 81.2591 58.5119 80.9423 59.9959C80.6255 61.4799 78.6719 61.7979 78.6719 61.7979L70.1711 61.9569Z" fill="#0D9FF0" stroke="#1C1C1C" stroke-miterlimit="10" stroke-linecap="round" stroke-linejoin="round"/>
<path d="M58.9248 92.7501C58.9248 92.7501 56.1264 90.8951 56.76 90.3121C57.3408 89.7291 60.3504 91.0011 61.0368 91.9021C61.7232 92.7501 61.3536 93.3861 60.8256 93.4391C60.192 93.4391 58.9248 92.7501 58.9248 92.7501Z" fill="white" stroke="#1C1C1C" stroke-miterlimit="10" stroke-linecap="round" stroke-linejoin="round"/>
<path d="M61.248 90.577C61.248 90.577 56.9184 88.351 57.9744 90.418C59.0304 92.485 61.5648 94.393 62.6208 94.923C63.6768 95.453 69.3264 95.294 69.3264 95.294C69.3264 95.294 68.2704 93.386 67.2672 92.856C66.2112 92.326 61.248 90.577 61.248 90.577Z" fill="white" stroke="#1C1C1C" stroke-miterlimit="10" stroke-linecap="round" stroke-linejoin="round"/>
<path d="M65.3665 90.577C65.3665 90.577 59.6641 87.45 59.5057 88.669C59.3473 89.888 63.9937 93.863 65.5249 94.552C67.0561 95.241 69.3265 95.241 69.3265 95.241L65.3665 90.577Z" fill="white" stroke="#1C1C1C" stroke-miterlimit="10" stroke-linecap="round" stroke-linejoin="round"/>
<path d="M87.7536 95.93C87.7536 95.93 85.6944 91.107 84.1632 90.418C82.632 89.729 68.6928 91.107 68.6928 91.107C68.6928 91.107 61.9872 85.595 62.5152 88.351C63.0432 91.107 67.32 94.393 68.5344 95.241C69.7488 96.089 78.672 95.771 78.672 95.771L81.4176 98.368L87.7536 95.93Z" fill="white" stroke="#1C1C1C" stroke-miterlimit="10" stroke-linecap="round" stroke-linejoin="round"/>
<path d="M172.498 103.721C172.498 103.721 171.917 104.781 172.234 105.735C172.551 106.689 173.448 107.537 173.448 107.537L173.871 110.081L179.362 110.346L177.091 101.866L172.498 103.721Z" fill="white" stroke="#1C1C1C" stroke-miterlimit="10" stroke-linecap="round" stroke-linejoin="round"/>
<path d="M168.749 87.9799C168.749 87.9799 171.072 102.979 171.389 103.88C171.758 104.781 174.398 105.841 175.296 105.364C176.194 104.887 174.61 102.714 174.61 102.714L175.085 88.2979C175.085 88.2979 171.178 86.8139 168.749 87.9799Z" fill="#263238" stroke="#1C1C1C" stroke-miterlimit="10" stroke-linecap="round" stroke-linejoin="round"/>
<path d="M175.19 92.697C175.19 92.697 171.97 92.485 171.864 93.068C171.758 93.651 171.758 95.612 172.339 95.824C172.92 96.036 176.827 96.407 177.514 96.195C178.2 95.983 178.992 94.605 178.306 93.545C177.619 92.485 175.19 92.697 175.19 92.697Z" fill="white" stroke="#1C1C1C" stroke-miterlimit="10" stroke-linecap="round" stroke-linejoin="round"/>
<path d="M175.19 96.4069C175.19 96.4069 172.075 96.4069 172.181 97.0959C172.286 97.7849 171.97 99.2689 173.237 99.5339C174.504 99.7459 176.669 99.6399 177.83 99.4279C178.992 99.2159 179.309 97.8379 178.411 96.9899C177.514 96.1419 175.19 96.4069 175.19 96.4069Z" fill="white" stroke="#1C1C1C" stroke-miterlimit="10" stroke-linecap="round" stroke-linejoin="round"/>
<path d="M170.227 97.2549C170.227 97.2549 169.858 94.3399 168.907 94.4459C168.221 94.4989 166.531 95.0289 166.69 96.3009C166.848 97.5729 167.587 99.6399 168.168 100.7C168.749 101.76 170.122 101.654 170.65 100.541C171.178 99.4279 170.227 97.2549 170.227 97.2549Z" fill="white" stroke="#1C1C1C" stroke-miterlimit="10" stroke-linecap="round" stroke-linejoin="round"/>
<path d="M175.349 99.481C175.349 99.481 172.55 99.481 172.656 100.17C172.762 100.859 172.445 102.29 173.606 102.502C174.768 102.714 176.722 102.608 177.778 102.396C178.834 102.184 179.15 100.859 178.306 100.064C177.461 99.269 175.349 99.481 175.349 99.481Z" fill="white" stroke="#1C1C1C" stroke-miterlimit="10" stroke-linecap="round" stroke-linejoin="round"/>
<path d="M175.507 102.025C175.507 102.025 173.184 102.025 173.237 102.608C173.342 103.191 173.078 104.357 174.029 104.569C174.979 104.781 176.616 104.675 177.514 104.463C178.358 104.251 178.622 103.138 177.936 102.502C177.25 101.866 175.507 102.025 175.507 102.025Z" fill="white" stroke="#1C1C1C" stroke-miterlimit="10" stroke-linecap="round" stroke-linejoin="round"/>
<path d="M168.115 72.7689C164.894 72.7159 162.096 74.7299 160.882 77.5389C160.459 78.4929 160.248 79.5529 160.248 80.6129C160.248 82.5209 160.934 84.2699 162.043 85.6479C163.469 87.3969 165.845 88.6159 168.115 88.5099C175.032 88.0859 193.09 97.7849 193.09 97.7849V63.4409C193.09 63.4939 175.296 72.9279 168.115 72.7689Z" fill="white" stroke="#1C1C1C" stroke-miterlimit="10" stroke-linecap="round" stroke-linejoin="round"/>
<path d="M166.742 80.9837C166.742 77.2207 168.802 73.9877 171.864 72.3447C170.438 72.6627 169.171 72.8747 168.115 72.8217C164.894 72.7687 162.096 74.7827 160.882 77.5917C160.459 78.5457 160.248 79.6057 160.248 80.6657C160.248 82.5737 160.934 84.3227 162.043 85.7007C163.469 87.4497 165.845 88.6687 168.115 88.5627C168.802 88.5097 169.594 88.5627 170.491 88.7217C168.221 86.9197 166.742 84.1107 166.742 80.9837Z" fill="#0D9FF0" stroke="#1C1C1C" stroke-miterlimit="10" stroke-linecap="round" stroke-linejoin="round"/>
<path d="M209.699 84.7452C211.934 75.5307 206.303 66.2426 197.124 63.9997C187.944 61.7567 178.691 67.4083 176.456 76.6228C174.222 85.8373 179.852 95.1254 189.032 97.3683C198.212 99.6112 207.465 93.9597 209.699 84.7452Z" fill="white" stroke="#1C1C1C" stroke-miterlimit="10" stroke-linecap="round" stroke-linejoin="round"/>
<path d="M207.662 80.6659C207.662 88.7749 201.115 95.2939 193.09 95.2939C188.549 95.2939 184.536 93.2269 181.843 89.9939C179.731 87.4499 178.464 84.2169 178.464 80.6659C178.464 78.5989 178.886 76.6909 179.626 74.8889C181.843 69.6419 187.018 65.9849 193.037 65.9849C201.168 66.0379 207.662 72.6099 207.662 80.6659Z" fill="#A6A6A6" stroke="#1C1C1C" stroke-miterlimit="10" stroke-linecap="round" stroke-linejoin="round"/>
<path d="M193.09 77.1149V84.2699L181.843 90.0469C179.731 87.5029 178.464 84.2699 178.464 80.7189C178.464 78.6519 178.886 76.7439 179.626 74.9419L193.09 77.1149Z" fill="white" stroke="#1C1C1C" stroke-miterlimit="10" stroke-linecap="round" stroke-linejoin="round"/>
<path d="M196.68 80.6657C196.68 82.6267 195.096 84.2167 193.142 84.2167C191.189 84.2167 189.605 82.6267 189.605 80.6657C189.605 78.7047 191.189 77.1147 193.142 77.1147C195.043 77.1147 196.68 78.7047 196.68 80.6657Z" fill="white" stroke="#1C1C1C" stroke-miterlimit="10" stroke-linecap="round" stroke-linejoin="round"/>
<path d="M172.709 110.293L172.181 107.855L179.573 106.954L179.414 110.293H172.709Z" fill="white" stroke="#1C1C1C" stroke-miterlimit="10" stroke-linecap="round" stroke-linejoin="round"/>
<path d="M80.9424 99.2688L79.2528 96.5658L87.12 92.5378L87.7536 95.9298L80.9424 99.2688Z" fill="white" stroke="#1C1C1C" stroke-miterlimit="10" stroke-linecap="round" stroke-linejoin="round"/>
<path d="M128.674 95.3468C128.674 95.3468 116.054 93.9158 114.946 94.4988C113.837 95.0818 97.8384 114.056 97.8384 114.056L88.0176 94.3398L79.728 97.9968C79.728 97.9968 90.1296 133.507 91.8192 133.931C93.5088 134.355 109.507 123.649 109.507 123.649L108.504 137.747C108.504 137.747 111.461 149.566 124.502 151.845C137.544 154.124 145.253 143.948 146.942 140.556C148.632 137.164 150.163 132.235 150.163 132.235L156.182 114.374C156.182 114.374 173.184 128.313 176.933 130.009C180.734 131.705 184.219 133.242 184.642 132.394C185.064 131.546 180.84 109.021 180.84 109.021L171.864 109.445L172.286 112.943C172.286 112.943 160.618 97.5728 159.667 96.0358C158.664 94.4988 155.76 94.7638 152.222 93.7568C148.738 92.8028 128.674 95.3468 128.674 95.3468Z" fill="#0D9FF0" stroke="#1C1C1C" stroke-miterlimit="10" stroke-linecap="round" stroke-linejoin="round"/>
<path d="M109.454 123.649L118.853 116.6" stroke="#1C1C1C" stroke-miterlimit="10" stroke-linecap="round" stroke-linejoin="round"/>
<path d="M115.526 119.25L120.278 118.402" stroke="#1C1C1C" stroke-miterlimit="10" stroke-linecap="round" stroke-linejoin="round"/>
<path d="M156.182 114.321L159.403 102.926" stroke="#1C1C1C" stroke-miterlimit="10" stroke-linecap="round" stroke-linejoin="round"/>
<path d="M157.45 110.664L160.987 105.735" stroke="#1C1C1C" stroke-miterlimit="10" stroke-linecap="round" stroke-linejoin="round"/>
<path d="M172.762 121.105L172.921 123.914" stroke="#1C1C1C" stroke-miterlimit="10" stroke-linecap="round" stroke-linejoin="round"/>
<path d="M172.339 112.943L172.604 117.925" stroke="#1C1C1C" stroke-miterlimit="10" stroke-linecap="round" stroke-linejoin="round"/>
<path d="M97.8384 114.056L100.795 120.257" stroke="#1C1C1C" stroke-miterlimit="10" stroke-linecap="round" stroke-linejoin="round"/>
<path d="M133.478 93.7569L127.301 94.8699C127.301 94.8699 125.03 96.7249 123.816 100.912C122.549 105.152 122.126 108.809 122.126 108.809L127.459 109.074L123.235 113.314C123.235 113.314 124.502 115.169 127.142 119.091C129.782 123.013 134.006 127.518 134.006 127.518L126.192 137.694C126.192 137.694 135.749 135.574 141.61 129.108C147.523 122.642 151.008 112.89 151.008 112.89L146.362 109.233L151.272 108.226C151.272 108.226 152.275 100.223 147.048 94.9759C141.874 89.8349 133.478 93.7569 133.478 93.7569Z" fill="#0D9FF0" stroke="#1C1C1C" stroke-miterlimit="10" stroke-linecap="round" stroke-linejoin="round"/>
<path d="M147.365 97.149C147.365 97.149 145.728 100.382 145.411 106.424C145.147 111.141 142.666 117.13 140.501 121.423C138.758 124.815 137.227 127.094 137.122 126.723C137.122 126.723 136.224 125.239 134.746 120.999C134.376 119.992 134.006 118.773 133.584 117.395C131.472 110.346 129.677 98.951 130.522 96.672C131.366 94.446 131.947 93.439 131.947 93.439C138.653 102.661 147.365 97.149 147.365 97.149Z" fill="white" stroke="#1C1C1C" stroke-miterlimit="10" stroke-linecap="round" stroke-linejoin="round"/>
<path d="M138.811 116.441L140.501 121.423C138.758 124.815 137.227 127.094 137.122 126.723C137.122 126.723 136.224 125.239 134.746 120.999L137.122 116.706L134.798 112.307L137.544 109.551L141.346 113.367L138.811 116.441Z" fill="#263238" stroke="#1C1C1C" stroke-miterlimit="10" stroke-linecap="round" stroke-linejoin="round"/>
<path d="M132.898 114.321L137.544 109.551L143.194 114.904" stroke="#1C1C1C" stroke-miterlimit="10" stroke-linecap="round" stroke-linejoin="round"/>
<path d="M131.947 93.4919C131.947 93.4919 132.106 97.732 133.637 101.813C135.168 105.894 137.544 109.551 137.544 109.551L144.144 100.117C144.144 100.117 136.963 100.806 131.947 93.4919Z" stroke="#1C1C1C" stroke-miterlimit="10" stroke-linecap="round" stroke-linejoin="round"/>
<path d="M152.011 78.5458C152.011 78.5458 154.018 78.2279 154.018 80.9839C154.018 83.7399 152.856 87.1318 152.856 87.1318L152.011 78.5458Z" fill="white" stroke="#1C1C1C" stroke-miterlimit="10" stroke-linecap="round" stroke-linejoin="round"/>
<path d="M151.272 68.4229C151.272 68.4229 152.698 81.2489 152.803 85.0649C152.962 88.8809 152.539 92.2729 151.272 93.9159C150.005 95.6119 144.936 102.343 142.296 102.661C139.656 102.926 136.699 101.548 135.538 100.541C134.429 99.5339 129.096 91.1069 129.096 91.1069C129.096 91.1069 125.03 90.8419 124.027 85.4889C123.024 80.1359 128.515 81.4079 128.515 81.4079C128.515 81.4079 125.558 76.7439 125.294 72.2389C125.03 67.7339 124.186 66.0379 136.224 65.7729C148.315 65.4549 151.272 68.4229 151.272 68.4229Z" fill="white" stroke="#1C1C1C" stroke-miterlimit="10" stroke-linecap="round" stroke-linejoin="round"/>
<path d="M144.989 77.4329L148.315 89.1459L143.141 87.5559" stroke="#1C1C1C" stroke-miterlimit="10" stroke-linecap="round" stroke-linejoin="round"/>
<path d="M137.966 86.178L133.901 87.026" stroke="#1C1C1C" stroke-miterlimit="10" stroke-linecap="round" stroke-linejoin="round"/>
<path d="M136.013 86.8669C136.013 86.8669 137.016 90.6829 141.504 91.3719C145.992 92.0609 148.262 91.213 148.262 91.213" stroke="#1C1C1C" stroke-miterlimit="10" stroke-linecap="round" stroke-linejoin="round"/>
<path d="M137.122 89.146C137.122 89.146 136.963 96.195 139.498 96.46C142.032 96.725 141.451 91.372 141.451 91.372C141.451 91.372 139.075 90.842 137.122 89.146Z" fill="#263238" stroke="#1C1C1C" stroke-miterlimit="10" stroke-linecap="round" stroke-linejoin="round"/>
<path d="M137.65 94.022C138.019 95.294 138.547 96.354 139.498 96.46C140.078 96.513 140.448 96.301 140.765 95.93C140.29 95.082 138.6 94.34 137.65 94.022Z" fill="white" stroke="#1C1C1C" stroke-miterlimit="10" stroke-linecap="round" stroke-linejoin="round"/>
<path d="M138.364 80.6659C138.364 80.9918 138.287 81.2624 138.19 81.4345C138.138 81.5282 138.095 81.5692 138.072 81.5866C138.048 81.5692 138.006 81.5282 137.953 81.4345C137.857 81.2624 137.78 80.9918 137.78 80.6659C137.78 80.34 137.857 80.0693 137.953 79.8972C138 79.8139 138.039 79.7723 138.063 79.7518C138.099 79.7748 138.149 79.8239 138.205 79.9283C138.298 80.0999 138.364 80.3596 138.364 80.6659Z" fill="#263238" stroke="#1C1C1C"/>
<path d="M147.762 79.3939C147.762 79.7198 147.686 79.9905 147.589 80.1626C147.536 80.2563 147.494 80.2973 147.47 80.3146C147.447 80.2973 147.404 80.2563 147.352 80.1626C147.255 79.9905 147.178 79.7198 147.178 79.3939C147.178 79.068 147.255 78.7973 147.352 78.6252C147.399 78.5419 147.437 78.5003 147.462 78.4799C147.497 78.5029 147.548 78.5519 147.604 78.6564C147.696 78.8279 147.762 79.0876 147.762 79.3939Z" fill="#263238" stroke="#1C1C1C"/>
<path d="M135.59 78.281C135.59 78.281 137.438 75.896 140.923 76.32" stroke="#1C1C1C" stroke-miterlimit="10" stroke-linecap="round" stroke-linejoin="round"/>
<path d="M145.411 75.7368C145.411 75.7368 147.259 72.3448 150.163 74.0408" stroke="#1C1C1C" stroke-miterlimit="10" stroke-linecap="round" stroke-linejoin="round"/>
<path d="M136.435 68.6879C136.435 68.6879 132.106 67.9989 133.056 69.2709C134.059 70.5429 136.277 72.0799 135.168 73.0869C134.059 74.0939 131.261 75.7369 131.366 76.5849C131.525 77.4329 131.789 80.9309 131.366 81.7789C130.944 82.6269 129.941 82.7859 128.99 82.6269C127.987 82.4679 126.614 79.9769 126.034 79.2349C125.453 78.4929 120.437 73.4579 121.387 69.3769C122.39 65.2959 132.898 62.0629 132.898 62.0629C132.898 62.0629 139.656 54.4839 144.144 54.3249C148.632 54.1659 146.942 58.4059 146.784 58.8299C146.626 59.2539 153.226 58.4059 154.493 62.4869C155.76 66.5679 155.338 67.6809 149.582 69.2709C143.827 70.8079 136.435 68.6879 136.435 68.6879Z" fill="#1C1C1C" stroke="#1C1C1C" stroke-miterlimit="10" stroke-linecap="round" stroke-linejoin="round"/>
<path d="M224.928 63.0698L213.47 66.0378L215.846 67.2568L209.352 69.2178L222.552 67.4158L219.173 65.8258L224.928 63.0698Z" fill="#1C1C1C"/>
<path d="M227.251 91.054L215.688 88.616L217.272 90.736L210.566 89.623L223.238 93.863L220.915 91.001L227.251 91.054Z" fill="#1C1C1C"/>
<path d="M214.843 110.187L205.075 103.456L205.762 106.053L200.006 102.396L209.986 111.247L208.982 107.643L214.843 110.187Z" fill="#1C1C1C"/>
<path d="M109.402 179.034V162.816H113.256C114.365 162.816 115.262 162.922 116.002 163.187C116.741 163.452 117.322 163.876 117.744 164.512C118.114 165.148 118.325 165.996 118.325 167.056C118.325 167.692 118.272 168.275 118.166 168.805C118.061 169.335 117.85 169.759 117.533 170.13C117.269 170.501 116.846 170.766 116.371 170.978L118.642 178.981H115.685L113.731 171.561H112.358V178.981H109.402V179.034ZM112.358 169.759H113.256C113.837 169.759 114.259 169.653 114.629 169.494C114.946 169.335 115.21 169.07 115.368 168.699C115.526 168.328 115.579 167.851 115.579 167.268C115.579 166.473 115.421 165.837 115.104 165.413C114.787 164.989 114.259 164.777 113.414 164.777H112.358V169.759Z" fill="#0D9FF0"/>
<path d="M120.595 179.034V162.816H127.406V164.883H123.552V169.547H126.562V171.614H123.552V176.967H127.406V179.034H120.595Z" fill="#0D9FF0"/>
<path d="M129.096 179.034V162.816H135.749V164.883H132.053V169.6H135.062V171.667H132.053V179.034H129.096Z" fill="#0D9FF0"/>
<path d="M137.28 179.034V162.816H144.091V164.883H140.237V169.547H143.246V171.614H140.237V176.967H144.091V179.034H137.28Z" fill="#0D9FF0"/>
<path d="M145.834 179.034V162.816H149.688C150.797 162.816 151.694 162.922 152.434 163.187C153.173 163.452 153.754 163.876 154.176 164.512C154.546 165.148 154.757 165.996 154.757 167.056C154.757 167.692 154.704 168.275 154.598 168.805C154.493 169.335 154.282 169.759 153.965 170.13C153.701 170.501 153.278 170.766 152.803 170.978L155.074 178.981H152.117L150.163 171.561H148.79V178.981H145.834V179.034ZM148.79 169.759H149.688C150.269 169.759 150.691 169.653 151.061 169.494C151.378 169.335 151.642 169.07 151.8 168.699C151.958 168.328 152.011 167.851 152.011 167.268C152.011 166.473 151.853 165.837 151.536 165.413C151.219 164.989 150.691 164.777 149.846 164.777H148.79V169.759Z" fill="#0D9FF0"/>
<path d="M97.0992 199.916L100.32 183.698H103.488L106.709 199.916H104.016L103.382 196.153H100.584L99.9504 199.916H97.0992ZM100.848 194.245H103.066L101.957 187.408L100.848 194.245Z" fill="#0D9FF0"/>
<path d="M113.15 199.916V183.698H119.803V185.765H116.107V190.482H119.117V192.549H116.107V199.916H113.15Z" fill="#0D9FF0"/>
<path d="M121.334 199.916V183.698H125.189C126.298 183.698 127.195 183.804 127.934 184.069C128.674 184.334 129.254 184.758 129.677 185.394C130.046 186.03 130.258 186.878 130.258 187.938C130.258 188.574 130.205 189.157 130.099 189.687C129.994 190.217 129.782 190.641 129.466 191.012C129.202 191.383 128.779 191.648 128.304 191.86L130.574 199.863H127.618L125.664 192.443H124.291V199.863H121.334V199.916ZM124.238 190.588H125.136C125.717 190.588 126.139 190.482 126.509 190.323C126.826 190.164 127.09 189.899 127.248 189.528C127.406 189.157 127.459 188.68 127.459 188.097C127.459 187.302 127.301 186.666 126.984 186.242C126.667 185.818 126.139 185.606 125.294 185.606H124.238V190.588Z" fill="#0D9FF0"/>
<path d="M132.528 199.916V183.698H135.432V199.916H132.528Z" fill="#0D9FF0"/>
<path d="M137.966 199.916V183.698H144.778V185.765H140.923V190.429H143.933V192.496H140.923V197.849H144.778V199.916H137.966Z" fill="#0D9FF0"/>
<path d="M146.52 199.916V183.698H148.579L152.486 192.973V183.698H154.915V199.916H152.962L149.002 190.217V199.916H146.52Z" fill="#0D9FF0"/>
<path d="M157.397 199.916V183.698H161.198C162.518 183.698 163.522 183.857 164.261 184.228C165 184.599 165.528 185.129 165.845 185.871C166.162 186.613 166.32 187.567 166.32 188.733V194.669C166.32 195.835 166.162 196.842 165.845 197.584C165.528 198.379 165 198.962 164.314 199.333C163.574 199.704 162.571 199.916 161.304 199.916H157.397ZM160.301 197.849H161.198C161.885 197.849 162.36 197.743 162.677 197.478C162.994 197.213 163.152 196.895 163.205 196.418C163.258 195.941 163.31 195.411 163.31 194.722V188.521C163.31 187.885 163.258 187.355 163.152 186.931C163.046 186.507 162.888 186.242 162.571 186.03C162.254 185.818 161.779 185.765 161.146 185.765H160.301V197.849Z" fill="#0D9FF0"/>
</svg>
