<?xml version="1.0" encoding="UTF-8"?>
<svg xmlns="http://www.w3.org/2000/svg" xmlns:xlink="http://www.w3.org/1999/xlink" version="1.1" width="512" height="512" x="0" y="0" viewBox="0 0 192 192" style="enable-background:new 0 0 512 512" xml:space="preserve">
  <g>
    <g data-name="18-file">
      <path d="M168 0H64a8.089 8.089 0 0 0-5.657 2.343l-40 40A8.091 8.091 0 0 0 16 48v136a8 8 0 0 0 8 8h144a8 8 0 0 0 8-8V8a8 8 0 0 0-8-8zM56 27.314V40H43.314zM160 176H32V56h32a8 8 0 0 0 8-8V16h88z" fill="#000000" opacity="1" data-original="#000000"/>
      <path d="M120 24h32v16h-32zM136 48h16v16h-16zM72 72a19.655 19.655 0 0 0 1.692 8.178A43.594 43.594 0 0 0 66.218 88h-5.274l-5.789-11.578-14.31 7.156 8 16A8 8 0 0 0 56 104h2.293a55.561 55.561 0 0 0-1.727 8H40v16h16.566a55.561 55.561 0 0 0 1.727 8H56a8 8 0 0 0-7.155 4.422l-8 16 14.31 7.156L60.944 152h5.274c7.329 9.812 17.963 16 29.782 16s22.453-6.188 29.782-16h5.274l5.789 11.578 14.31-7.156-8-16A8 8 0 0 0 136 136h-2.294a55.428 55.428 0 0 0 1.728-8H152v-16h-16.566a55.428 55.428 0 0 0-1.728-8H136a8 8 0 0 0 7.155-4.422l8-16-14.31-7.156L131.056 88h-5.274a43.576 43.576 0 0 0-7.509-7.85A19.01 19.01 0 0 0 120 72a24 24 0 0 0-48 0zm24 80c-13.234 0-24-14.355-24-32s10.766-32 24-32 24 14.355 24 32-10.767 32-24 32zm0-88a8.009 8.009 0 0 1 8 8 3.776 3.776 0 0 1-.085.948 33.527 33.527 0 0 0-15.841 0A4.977 4.977 0 0 1 88 72a8.009 8.009 0 0 1 8-8z" fill="#000000" opacity="1" data-original="#000000"/>
    </g>
  </g>
</svg>
