<?xml version="1.0" encoding="UTF-8"?>
<svg xmlns="http://www.w3.org/2000/svg" xmlns:xlink="http://www.w3.org/1999/xlink" version="1.1" width="512" height="512" x="0" y="0" viewBox="0 0 512 512" style="enable-background:new 0 0 512 512" xml:space="preserve" class="">
  <g>
    <path d="M103.203 183.36H88.172V399.78h272.531V384.75h-257.5zM296.578 95.188h80.156v88.171h15.032v-99.3L307.707 0H120.234v15.031h176.344zm15.031-70.032 55 55h-55zm0 0" fill="#181818" opacity="1" data-original="#000000" class=""/>
    <path d="M128.25 312.61h152.297v15.03H128.25zM184.36 120.234h168.327v15.032H184.36zM128.25 264.516h152.297v15.03H128.25zM128.25 216.422h176.344v15.031H128.25zM184.36 168.328h168.327v15.031H184.36zM176.344 72.14h16.031v15.032h-16.031zM208.406 72.14h16.031v15.032h-16.03zM240.469 72.14H256.5v15.032h-16.031zM472.172 287.563c0-48.344-39.203-87.672-87.547-87.672-48.34 0-87.86 39.328-87.86 87.672 0 45.808 35.883 83.519 79.97 87.343v26.614c-9.016 3.144-16.032 11.953-16.032 22.308V512h47.094v-88.172c0-10.355-6.012-19.164-16.031-22.308v-26.614c45.086-3.824 80.406-41.535 80.406-87.344zm-160.063 0c0-40.055 32.586-72.645 72.641-72.645 40.059 0 72.645 32.59 72.645 72.644s-32.586 72.641-72.645 72.641c-40.055 0-72.64-32.586-72.64-72.64zm80.657 209.406h-17.032v-73.14c0-4.696 3.82-8.517 8.516-8.517s8.516 3.82 8.516 8.516zm0 0" fill="#181818" opacity="1" data-original="#000000" class=""/>
    <path d="M440.36 287.563c0-30.665-24.946-55.61-55.61-55.61-30.66 0-55.605 24.945-55.605 55.61 0 30.66 24.945 55.609 55.605 55.609 30.664 0 55.61-24.95 55.61-55.61zm-96.188 0c0-22.375 18.203-40.583 40.578-40.583 22.379 0 40.582 18.208 40.582 40.583s-18.203 40.578-40.582 40.578c-22.375 0-40.578-18.204-40.578-40.579zM128.25 150.41v.887h16.031v16.031h15.031v-31.062h-24.48c.606-3.004.434-6.094.434-9.016v-8.016h25.047v-15.03h-25.047V87.171h24.047V55.109H144.28v17.032h-9.754c-2.406-8.016-8.379-12.985-15.578-15.227-1.707-10.332-6.73-19.582-15.746-25.578V7.016H88.172V24.48c-2.004-.605-5.59-.933-8.516-.933s-5.511.328-8.515.933V7.016H56.109v24.32c-8.015 5.996-13.539 15.242-15.242 25.578-7.203 2.242-12.676 7.211-15.082 15.227H15.031V55.109H0v32.063h24.047v17.031H0v15.031h24.047v8.016c0 2.922.828 6.012 1.433 9.016H0v31.062h15.031v-16.031h17.032v-.887c7.195 9.934 18.882 16.918 32.062 16.918h32.063c13.18 0 24.867-6.984 32.062-16.918zm-8.016-23.16c0 13.535-10.511 25.047-24.046 25.047h-9.016V71.14h25.047c4.695 0 8.015 3.316 8.015 8.015zm-16.71-71.14H56.788c3.184-10.02 12.453-17.032 23.367-17.032s20.188 7.012 23.367 17.031zm-64.446 71.14V79.156c0-4.699 4.32-8.015 9.016-8.015H72.14v81.156h-8.016c-13.535 0-25.047-11.512-25.047-25.047zm0 0" fill="#181818" opacity="1" data-original="#000000" class=""/>
  </g>
</svg>
