<svg width="24" height="24" viewBox="0 0 24 24" fill="none" xmlns="http://www.w3.org/2000/svg">
<path d="M15.75 9.52488L11.164 4.93888C10.8826 4.65762 10.501 4.49966 10.1032 4.49976C9.70531 4.49985 9.32378 4.65799 9.04252 4.93938C8.76126 5.22078 8.6033 5.60238 8.60339 6.00024C8.60349 6.39809 8.76163 6.77962 9.04302 7.06088L13.629 11.6459C13.6756 11.6923 13.7125 11.7475 13.7377 11.8083C13.7629 11.869 13.7759 11.9341 13.7759 11.9999C13.7759 12.0657 13.7629 12.1308 13.7377 12.1915C13.7125 12.2523 13.6756 12.3074 13.629 12.3539L9.04302 16.9389C8.76163 17.2201 8.60349 17.6017 8.60339 17.9995C8.6033 18.3974 8.76126 18.779 9.04252 19.0604C9.32378 19.3418 9.70531 19.4999 10.1032 19.5C10.501 19.5001 10.8826 19.3421 11.164 19.0609L15.75 14.4749C16.4052 13.8178 16.7732 12.9278 16.7732 11.9999C16.7732 11.072 16.4052 10.1819 15.75 9.52488Z" fill="#1C1C1C"/>
</svg>
