<svg width="28" height="28" viewBox="0 0 28 28" fill="none" xmlns="http://www.w3.org/2000/svg">
<path d="M21.2634 19.3447L21.2633 19.3593L21.276 19.3665L22.1483 19.8649L22.1712 19.878L22.183 19.8543L22.207 19.8062C23.4304 18.1078 24.0795 16.0847 24.0796 13.9621C24.1045 11.2393 23.0804 8.69085 21.1815 6.79203C19.2828 4.8683 16.7344 3.81903 14.0364 3.81903C8.46533 3.81903 3.94351 8.34086 3.94351 13.912C3.94351 19.4831 8.46533 24.0049 14.0364 24.0049C15.0105 24.0049 15.9351 23.88 16.8101 23.605L16.8102 23.6053L16.8138 23.6035L16.8637 23.5786L16.8808 23.5701L16.877 23.5514L16.6776 22.5546L16.6721 22.5269L16.6452 22.5358L16.5713 22.5604C16.5712 22.5604 16.571 22.5605 16.5709 22.5605C15.7256 22.8092 14.8558 22.9582 13.9867 22.9582C9.01641 22.9582 4.96554 18.9072 4.96554 13.937C4.96554 8.9667 9.01645 4.91579 13.9867 4.91579C18.957 4.91579 23.0079 8.9667 23.0079 13.937C23.0079 15.8506 22.4115 17.6895 21.2682 19.2803L21.2635 19.2868L21.2635 19.2948L21.2634 19.3447Z" fill="white" stroke="white" stroke-width="0.05"/>
<path d="M14.0368 25.0765C20.1286 25.0764 25.1014 20.1532 25.1014 14.0367C25.1014 7.92009 20.1285 2.97205 14.0367 2.97205C13.0422 2.97205 12.0226 3.12118 11.0278 3.39478L11.0212 3.3966V3.39567H10.9464H10.9257L10.9219 3.37532L10.7474 2.45331L10.7418 2.42376L10.7718 2.42366L10.8182 2.42349C11.8412 2.12447 12.9141 1.975 14.0365 1.975C17.2512 1.975 20.2671 3.21849 22.5381 5.50702L22.5382 5.50695L22.5523 5.52107C24.8247 7.79348 26.0735 10.8153 26.0236 14.012C26.0236 14.012 26.0236 14.0121 26.0236 14.0121L25.9986 14.0118C25.9986 20.6157 20.6157 25.9986 13.9868 25.9986C7.38285 25.9986 2 20.6157 2 14.0118C2 11.5197 2.77267 9.12727 4.19306 7.10875L14.0368 25.0765ZM14.0368 25.0765C7.94494 25.0517 2.972 20.0786 2.972 13.9869C2.972 11.6752 3.66775 9.4878 5.00976 7.59846L5.05801 7.55004L5.08099 7.52697L5.05277 7.51073L4.23039 7.03719L4.20738 7.02394L4.19554 7.04771L4.17153 7.09591L14.0368 25.0765Z" fill="white" stroke="white" stroke-width="0.05"/>
<path d="M11.5701 14.1614C11.5701 15.4937 12.6544 16.5779 13.9867 16.5779C15.3392 16.5779 16.4031 15.4733 16.4032 14.1365L11.5701 14.1614ZM11.5701 14.1614C11.5701 12.8261 12.6573 11.7199 13.9867 11.7199M11.5701 14.1614L13.9867 11.7199M13.9867 11.7199C15.3189 11.7199 16.4032 12.8041 16.4032 14.1365L13.9867 11.7199ZM19.6929 13.3763C19.6171 13.2252 19.4676 13.0313 19.2416 12.9783L19.2285 12.9643H19.1203H18.4417C18.3277 12.5543 18.1681 12.1728 17.9633 11.8091L18.5244 11.2479C18.6318 11.1405 18.6724 10.996 18.6724 10.8718C18.6724 10.7475 18.6318 10.603 18.5244 10.4956L17.5525 9.52369C17.3553 9.32646 17.0224 9.32645 16.8252 9.5237L16.2396 10.1093C15.9185 9.92978 15.5757 9.79311 15.2335 9.68756V8.95281C15.2335 8.66524 14.9969 8.42867 14.7093 8.42867H13.3637C13.0761 8.42867 12.8396 8.66524 12.8396 8.95281V9.65057C12.4563 9.74859 12.104 9.90058 11.783 10.0837L11.1482 9.44893C10.951 9.2517 10.6182 9.25169 10.4209 9.44893C10.4209 9.44893 10.4209 9.44894 10.4209 9.44894L9.44903 10.4208C9.34158 10.5283 9.30105 10.6727 9.30105 10.797C9.30105 10.9213 9.34158 11.0657 9.44903 11.1732L10.055 11.7792C9.83199 12.1482 9.66911 12.5362 9.55472 12.9643H8.87814C8.59057 12.9643 8.354 13.2009 8.354 13.4885V14.8341C8.354 15.1217 8.59057 15.3582 8.87814 15.3582H9.55328C9.65138 15.7245 9.80248 16.0717 9.98417 16.39L9.42415 16.95C9.31687 17.0573 9.27583 17.2015 9.27583 17.3264C9.27583 17.4506 9.31636 17.5951 9.4238 17.7025L10.3957 18.6744C10.5031 18.7819 10.6476 18.8224 10.7719 18.8224C10.8961 18.8224 11.0406 18.7819 11.148 18.6744L11.6797 18.1428C12.0547 18.3671 12.4587 18.5297 12.8895 18.6437V19.2203C12.8895 19.5078 13.1261 19.7444 13.4136 19.7444H14.7592C15.0468 19.7444 15.2834 19.5078 15.2834 19.2203V18.6164C15.6896 18.5034 16.0676 18.3451 16.4167 18.1409L16.8503 18.5745L17.0271 18.3977L16.8503 18.5745C16.9577 18.6819 17.1022 18.7224 17.2265 18.7224C17.3507 18.7224 17.4952 18.6819 17.6026 18.5745L18.5497 17.6274L18.3729 17.4507L18.5497 17.6274C18.6571 17.52 18.6976 17.3755 18.6976 17.2513C18.6976 17.127 18.6571 16.9826 18.5497 16.8751L18.0885 16.414C18.2706 16.0876 18.4088 15.7349 18.5152 15.3581H19.1953C19.4829 15.3581 19.7194 15.1216 19.7194 14.834V13.4884V13.4292L19.6929 13.3763Z" fill="white" stroke="white" stroke-width="0.5"/>
</svg>
