<?xml version="1.0" encoding="UTF-8"?>
<svg xmlns="http://www.w3.org/2000/svg" xmlns:xlink="http://www.w3.org/1999/xlink" version="1.1" width="30" height="30" x="0" y="0" viewBox="0 0 128 128" style="enable-background:new 0 0 30 30" xml:space="preserve" class="">
  <g>
    <path d="M83.53 67.412V20.455c.451-3.225-10.689-1.234-12.2-1.75a5.246 5.246 0 0 0-4.973-3.49 4.908 4.908 0 0 0-4.9-5.031H43.05a4.9 4.9 0 0 0-4.89 5.031 5.238 5.238 0 0 0-4.977 3.49c-1.134-.017-10.443 0-10.443 0a1.735 1.735 0 0 0-1.75 1.75v81.791a2 2 0 0 0 2 2c7.579-.024 34.205-.109 36.371-.109 4.389 8.865 14.672 13.68 20.668 13.68 15.118 0 26.98-10 26.98-25.231A25.264 25.264 0 0 0 83.53 67.412zM71.67 22.205h8.36v45.2a27.581 27.581 0 0 0-4.22.668v-39.9c.041-2.159-2.739-1.737-4.14-1.75zm-30.01-7.13a1.376 1.376 0 0 1 1.39-1.391h18.41a1.412 1.412 0 0 1 1.4 1.531h-21.2zm-3.52 3.64c14.954 0 26.605-.007 26.47 0 1.348-.069 3.561-.151 3.56 1.762v7.748a1.788 1.788 0 0 1-1.8 1.81s-24.71 0-28.23 0a1.822 1.822 0 0 1-1.8-1.861s0-6.314 0-7.688a1.78 1.78 0 0 1 1.8-1.771zm-13.65 81.92v-78.43h8.35v4.22c-.569.006-2.39 0-2.39 0a1.78 1.78 0 0 0-1.75 1.75v66.49a1.75 1.75 0 0 0 1.75 1.75h26.387a26.1 26.1 0 0 0 1.018 4.22zm32.052-7.72H32.2v-62.99h.918a5.391 5.391 0 0 0 5.022 3.61h28.23a5.385 5.385 0 0 0 5.013-3.61h.927v39.267a25.3 25.3 0 0 0-15.768 23.723zm46.9 1.343a21.5 21.5 0 0 1-21.662 20.057 21.823 21.823 0 0 1-21.76-21.73c.22-10.735 7.72-21.74 21.761-21.74s22.319 11.72 21.663 23.413z" fill="#000000" opacity="1" data-original="#000000" class=""/>
    <path d="M91.912 81.348 78.64 94.62l-7-7c-4.54-4.163-10.04 2.247-6.14 6.122 3.43 3.218 7.359 7.37 10.081 10.085a4.34 4.34 0 0 0 6.145-.011C86.1 99.42 94.055 91.44 98.047 87.482c4.165-4.128-2.384-10.082-6.135-6.134zm3.661 3.659-15.03 15.019c-.628.467-1.581 2.2-2.494 1.313L67.984 91.273c-.769-.761.416-1.96 1.179-1.181 3.6 3.666 6.619 6.631 8.256 8.226a1.729 1.729 0 0 0 2.458.014c2.24-2.213 7.335-7.335 14.511-14.51.76-.76 1.97.423 1.185 1.185zM65.217 42.781H39.3c-2.263-.033-2.276 3.534 0 3.5h25.917c2.263.034 2.276-3.534 0-3.5zM65.217 52.471H39.3c-2.263-.034-2.276 3.533 0 3.5h25.917c2.263.029 2.276-3.534 0-3.5zM65.217 62.16H39.3a1.75 1.75 0 0 0 0 3.5h25.917a1.75 1.75 0 1 0 0-3.5zM55.808 71.85H39.3c-2.266-.034-2.274 3.533 0 3.5h16.508c2.265.033 2.273-3.534 0-3.5zM50.611 81.539H39.3c-2.267-.033-2.273 3.534 0 3.5h11.311c2.267.033 2.273-3.534 0-3.5z" fill="#000000" opacity="1" data-original="#000000" class=""/>
  </g>
</svg>
