<svg width="18" height="17" viewBox="0 0 18 17" fill="none" xmlns="http://www.w3.org/2000/svg">
<path d="M9.00047 13.686L9.25871 13.8422L13.4087 16.3522L13.4089 16.3523C13.7885 16.582 14.2532 16.2445 14.1529 15.8133L13.053 11.0935L12.9845 10.7997L13.2125 10.6021L16.8825 7.42212L16.8827 7.42197C17.2194 7.13047 17.0352 6.58302 16.6003 6.54843L16.5977 6.54822L11.7677 6.13821L11.4672 6.11271L11.3496 5.83509L9.45958 1.37509L9.45892 1.37352C9.29045 0.972162 8.70945 0.972162 8.54098 1.37352L8.54017 1.37546L6.65016 5.82546L6.5324 6.10273L6.23224 6.12821L1.40224 6.53821L1.3996 6.53843L1.3996 6.53843C0.964687 6.57302 0.78047 7.12047 1.1172 7.41197L1.11738 7.41212L4.78738 10.5921L5.01537 10.7897L4.9469 11.0835L3.84695 15.8033L9.00047 13.686ZM9.00047 13.686L8.74194 13.8417M9.00047 13.686L8.74194 13.8417M8.74194 13.8417L4.59194 16.3417L4.59105 16.3423M8.74194 13.8417L4.59105 16.3423M4.59105 16.3423C4.2115 16.572 3.74683 16.2346 3.8469 15.8035L4.59105 16.3423Z" stroke="#800000"/>
</svg>
