<?xml version="1.0" encoding="UTF-8"?>
<svg xmlns="http://www.w3.org/2000/svg" xmlns:xlink="http://www.w3.org/1999/xlink" version="1.1" width="512" height="512" x="0" y="0" viewBox="0 0 512 512" style="enable-background:new 0 0 512 512" xml:space="preserve" class="">
  <g>
    <path d="M466.75 242.763V86.25c0-2.346-.643-4.493-1.6-6.469.577-1.599 1.6-3.01 1.6-4.781a15.012 15.012 0 0 0-10.884-14.429l-210-60a15.108 15.108 0 0 0-8.232 0l-210 60A15.012 15.012 0 0 0 16.75 75a15.012 15.012 0 0 0 10.884 14.429l79.116 22.604v17.752c0 17.065 9.478 32.754 24.141 39.961 67.236 33.047 154.453 33.032 221.719.015 14.663-7.207 24.141-22.896 24.141-39.976v-17.752l60-17.142v147.872c-17.422 6.213-30 22.707-30 42.237v30c0 8.291 6.709 15 15 15h60c8.291 0 15-6.709 15-15v-30c-.001-19.53-12.579-36.023-30.001-42.237z" fill="#000000" opacity="1" data-original="#000000"/>
    <path d="M364.322 198.685C326.617 217.215 283.712 227 240.25 227s-86.382-9.8-124.102-28.33c-3.684-1.811-6.735-4.495-10.009-6.887 3.204 53.99 32.252 99.803 73.304 123.274 0 0 21.057 9.949 27.636 11.818l.026-.049c10.655 3.038 21.625 5.175 33.144 5.175 10.547 0 25.57-2.105 40.582-7.648 6.915-2.462 20.176-9.265 20.176-9.265 41.077-23.463 70.145-69.29 73.353-123.299-3.283 2.396-6.343 5.081-10.038 6.896zM240.25 362c-12.092 0-23.729-1.866-35.068-4.603L240.25 410l34.871-52.553c-11.28 2.705-22.848 4.553-34.871 4.553zM326.595 335.096c-.266.179-.564.302-.829.48L313.15 354.5c0 .698-57.513 86.718-57.9 87.299V512h195c8.291 0 15-6.709 15-15 0-81.914-60.289-149.154-138.655-161.904zM360.25 452h-30c-8.291 0-15-6.709-15-15s6.709-15 15-15h30c8.291 0 15 6.709 15 15s-6.709 15-15 15zM154.461 335.402c-.244-.163-.516-.276-.76-.441C75.418 347.798 15.25 415.137 15.25 497c0 8.291 6.709 15 15 15h195v-70.201c-67.979-102.144-54.107-81.291-70.789-106.397z" fill="#000000" opacity="1" data-original="#000000"/>
  </g>
</svg>
