<?xml version="1.0" encoding="UTF-8"?>
<svg xmlns="http://www.w3.org/2000/svg" xmlns:xlink="http://www.w3.org/1999/xlink" version="1.1" width="512" height="512" x="0" y="0" viewBox="0 0 32 32" style="enable-background:new 0 0 512 512" xml:space="preserve">
  <g>
    <path fill="#000000" d="m28.313 7.05-12-4a1.063 1.063 0 0 0-.625 0L3.7 7.05h-.025l-.125.062h-.012l-.125.075c0 .013-.013.013-.025.025l-.1.088-.088.1c0 .012-.012.012-.012.025l-.075.112c0 .013 0 .013-.013.025l-.05.113-.037.137v.038A.462.462 0 0 0 3 8v10a1 1 0 1 0 2 0V9.387l4.2 1.4A7.9 7.9 0 0 0 8 15a8 8 0 0 0 3.75 6.775 12.013 12.013 0 0 0-5.812 4.675 1.013 1.013 0 0 0 .659 1.534.985.985 0 0 0 1.016-.434 10 10 0 0 1 16.775 0 1 1 0 0 0 .837.45.938.938 0 0 0 .537-.163 1.012 1.012 0 0 0 .3-1.387 12.013 12.013 0 0 0-5.812-4.675A8 8 0 0 0 24 15a7.899 7.899 0 0 0-1.2-4.213l5.513-1.837a1 1 0 0 0 0-1.9zM16 21a6 6 0 0 1-6-6 6.075 6.075 0 0 1 1.163-3.563l4.524 1.513a1 1 0 0 0 .626 0l4.525-1.513A6.075 6.075 0 0 1 22 15a6 6 0 0 1-6 6z" opacity="1" data-original="#000000"/>
  </g>
</svg>
